<?xml version="1.0" encoding="UTF-8" standalone="no"?>
<svg
   xmlns:dc="http://purl.org/dc/elements/1.1/"
   xmlns:cc="http://creativecommons.org/ns#"
   xmlns:rdf="http://www.w3.org/1999/02/22-rdf-syntax-ns#"
   xmlns:svg="http://www.w3.org/2000/svg"
   xmlns="http://www.w3.org/2000/svg"
   xmlns:sodipodi="http://sodipodi.sourceforge.net/DTD/sodipodi-0.dtd"
   xmlns:inkscape="http://www.inkscape.org/namespaces/inkscape"
   width="25"
   height="25"
   viewBox="0 0 25 25"
   version="1.1"
   xml:space="preserve"
   style="clip-rule:evenodd;fill-rule:evenodd;stroke-linecap:round;stroke-linejoin:round;stroke-miterlimit:1.5"
   id="svg14"
   sodipodi:docname="SilverSixPort new.svg"
   inkscape:version="0.92.2 (5c3e80d, 2017-08-06)"><metadata
     id="metadata20"><rdf:RDF><cc:Work
         rdf:about=""><dc:format>image/svg+xml</dc:format><dc:type
           rdf:resource="http://purl.org/dc/dcmitype/StillImage" /><dc:title></dc:title></cc:Work></rdf:RDF></metadata><defs
     id="defs18" /><sodipodi:namedview
     pagecolor="#ffffff"
     bordercolor="#666666"
     borderopacity="1"
     objecttolerance="10"
     gridtolerance="10"
     guidetolerance="10"
     inkscape:pageopacity="0"
     inkscape:pageshadow="2"
     inkscape:window-width="1920"
     inkscape:window-height="1028"
     id="namedview16"
     showgrid="false"
     inkscape:zoom="32"
     inkscape:cx="14.852601"
     inkscape:cy="12.49663"
     inkscape:window-x="-8"
     inkscape:window-y="-8"
     inkscape:window-maximized="1"
     inkscape:current-layer="svg14" /><g
     id="g824"
     transform="matrix(6.2928854,0.00714868,-0.00714868,6.2928854,-6.3572101,-6.4001022)"
     style="fill:#a0a08c;stroke:#000000;stroke-width:0.03972738"><circle
       id="circle822"
       r="1.976"
       cy="3"
       cx="3" /></g><path
     inkscape:connector-curvature="0"
     id="path2"
     style="fill:#929292;stroke:#282828;stroke-width:0.5"
     d="M 12.513632,0.50000718 22.898809,6.5118087 22.885178,18.511801 12.486368,24.499993 2.1011909,18.488191 2.1148229,6.4881981 Z" /><path
     d="M 12.513168,0.90873297 22.54462,6.7157695 22.531453,18.307036 12.486832,24.091268 2.4553796,18.28423 2.4685472,6.6929631 Z"
     style="fill:#dcdcdc;stroke:#50503c;stroke-width:0.3014181"
     id="path826"
     inkscape:connector-curvature="0" /><g
     transform="matrix(4.9686351,0.00564437,-0.00564437,4.9686351,-2.3889723,-2.4228385)"
     id="g830"
     style="fill:#b4b4b4;stroke-width:0.02337976"><circle
       cx="3"
       cy="3"
       r="1.976"
       id="circle828" /></g><g
     style="fill:#ffffff;stroke-width:0.02337976"
     id="g819"
     transform="matrix(4.2772013,0.0048589,-0.0048589,4.2772013,-0.3170272,-0.3461806)"><circle
       id="circle817"
       r="1.976"
       cy="3"
       cx="3" /></g><path
     d="M 12.51475,-0.48414873 23.751648,6.0206988 23.736897,19.004847 12.48525,25.484149 1.2483522,18.979301 1.2631021,5.995152 Z"
     style="opacity:0;fill:#828282;stroke:#1c1c1c;stroke-width:0.44211832"
     id="path819"
     inkscape:connector-curvature="0" /><g
     transform="matrix(4.3949294,0.00499264,-0.00499264,4.3949294,-0.66981025,-0.69976609)"
     id="g838"
     style="fill:none;stroke:#505050;stroke-width:0.06905415"><circle
       cx="3"
       cy="3"
       r="1.976"
       id="circle836" /></g><g
     transform="matrix(3.4979809,0.0039737,-0.0039737,3.4979809,2.0179785,1.9941362)"
     id="g8"
     style="fill:#565656;stroke:#000000;stroke-width:0.20835143"><circle
       cx="3"
       cy="3"
       r="1.976"
       id="circle6" /></g><g
     transform="matrix(3.0358681,0.00344873,-0.00344873,3.0358681,3.4027419,3.3820495)"
     id="g12"><circle
       cx="3"
       cy="3"
       r="1.976"
       id="circle10" /></g><g
     transform="matrix(3.9751989,0.00451582,-0.00451582,3.9751989,0.58795062,0.56085567)"
     id="g834"
     style="fill:none;stroke:#b4b4a0;stroke-width:0.18703806"><circle
       cx="3"
       cy="3"
       r="1.976"
       id="circle832" /></g><g
     style="fill:none;stroke:#b4b4a0;stroke-width:0.07866869"
     id="g842"
     transform="matrix(3.5110899,0.00398859,-0.00398859,3.5110899,1.9786963,1.9547646)"><circle
       id="circle840"
       r="1.976"
       cy="3"
       cx="3" /></g><g
     transform="matrix(3.3795163,0.00383912,-0.00383912,3.3795163,2.3729688,2.3499339)"
     id="g846"
     style="fill:none;stroke:#8c8c78;stroke-width:0.07866869"><circle
       cx="3"
       cy="3"
       r="1.976"
       id="circle844" /></g><rect
     style="fill:#787878;fill-rule:nonzero;stroke:#282814;stroke-width:0.23053627;stroke-linejoin:miter;paint-order:markers stroke fill"
     id="rect848"
     width="0.62571377"
     height="6.5632138"
     x="7.5465183"
     y="9.2183933"
     rx="0.31285688"
     ry="0.23328958" /></svg>