<?xml version="1.0" encoding="UTF-8" standalone="no"?>
<!-- Created with Inkscape (http://www.inkscape.org/) -->

<svg
   xmlns:dc="http://purl.org/dc/elements/1.1/"
   xmlns:cc="http://creativecommons.org/ns#"
   xmlns:rdf="http://www.w3.org/1999/02/22-rdf-syntax-ns#"
   xmlns:svg="http://www.w3.org/2000/svg"
   xmlns="http://www.w3.org/2000/svg"
   xmlns:sodipodi="http://sodipodi.sourceforge.net/DTD/sodipodi-0.dtd"
   xmlns:inkscape="http://www.inkscape.org/namespaces/inkscape"
   width="120"
   height="380"
   viewBox="0 0 31.749999 100.54167"
   version="1.1"
   id="svg8"
   inkscape:version="0.92.2 (5c3e80d, 2017-08-06)"
   sodipodi:docname="Fade.svg">
  <defs
     id="defs2" />
  <sodipodi:namedview
     id="base"
     pagecolor="#ffffff"
     bordercolor="#666666"
     borderopacity="1.0"
     inkscape:pageopacity="0.0"
     inkscape:pageshadow="2"
     inkscape:zoom="3.959798"
     inkscape:cx="71.841063"
     inkscape:cy="265.01387"
     inkscape:document-units="mm"
     inkscape:current-layer="layer1"
     showgrid="false"
     units="px"
     inkscape:window-width="1920"
     inkscape:window-height="1028"
     inkscape:window-x="-8"
     inkscape:window-y="-8"
     inkscape:window-maximized="1"
     showguides="true"
     inkscape:guide-bbox="true"
     inkscape:snap-global="true">
    <sodipodi:guide
       position="3.5287621,17.398717"
       orientation="0,1"
       id="guide938"
       inkscape:locked="false" />
    <sodipodi:guide
       position="1.4115172,27.720862"
       orientation="0,1"
       id="guide986"
       inkscape:locked="false" />
    <sodipodi:guide
       position="19.205915,6.8153832"
       orientation="0,1"
       id="guide1032"
       inkscape:locked="false" />
  </sodipodi:namedview>
  <metadata
     id="metadata5">
    <rdf:RDF>
      <cc:Work
         rdf:about="">
        <dc:format>image/svg+xml</dc:format>
        <dc:type
           rdf:resource="http://purl.org/dc/dcmitype/StillImage" />
        <dc:title></dc:title>
      </cc:Work>
    </rdf:RDF>
  </metadata>
  <g
     inkscape:label="Ebene 1"
     inkscape:groupmode="layer"
     id="layer1"
     transform="translate(0,-196.45832)">
    <rect
       style="opacity:1;fill:#f0f0f0;fill-opacity:1;fill-rule:nonzero;stroke:none;stroke-width:0.85299999;stroke-linecap:square;stroke-linejoin:miter;stroke-miterlimit:4;stroke-dasharray:none;stroke-dashoffset:0;stroke-opacity:0.50196078;paint-order:markers stroke fill"
       id="rect815"
       width="31.75"
       height="100.54166"
       x="2.023228e-006"
       y="196.45863" />
    <g
       transform="matrix(0.04017394,-0.04017394,0.04017394,0.04017394,9.1656937,193.61186)"
       id="g11621">
      <g
         id="g11619">
        <g
           transform="translate(185.73646,-9.5250064)"
           id="g11587">
          <g
             id="g11571"
             transform="translate(-137.10274)">
            <path
               id="path11559"
               transform="matrix(0.26458333,0,0,0.26458333,0,196.45832)"
               d="m -718.94922,154.57227 c -14.32932,0.45458 -33.60356,20.71937 -31.29883,34.27148 -2.45838,14.45558 19.63622,36.55017 34.0918,34.0918 h 134.0918 v -9.0918 h -100.00196 v -25 c 2.45839,-14.4556 -19.63425,-36.54823 -34.08984,-34.08984 -0.90347,-0.15365 -1.83768,-0.21195 -2.79297,-0.18164 z m 1.00586,8.95898 c 0.63005,0.0232 1.22828,0.12471 1.78711,0.3125 8.94127,-3.00469 28.00471,16.05874 25,25 v 25 h -25 c -8.94126,3.00469 -28.00469,-16.05873 -25,-25 -2.8169,-8.38244 13.76214,-25.66117 23.21289,-25.3125 z m 26.78711,150.3125 v 9.0918 h 9.08984 v -9.0918 z"
               style="opacity:1;fill:#5320a5;fill-opacity:1;fill-rule:nonzero;stroke:none;stroke-width:6.9784193;stroke-linecap:round;stroke-linejoin:miter;stroke-miterlimit:4;stroke-dasharray:none;stroke-dashoffset:0;stroke-opacity:1;paint-order:markers stroke fill"
               inkscape:connector-curvature="0" />
            <path
               id="path11561"
               transform="matrix(0.26458333,0,0,0.26458333,0,196.45832)"
               d="m -718.55273,136.5293 c -24.81903,0.43381 -51.20004,27.62664 -49.87696,52.31445 -1.36576,25.48418 26.78925,53.63919 52.27344,52.27344 h 134.0918 v -9.0918 h -134.0918 c -19.96987,1.91207 -45.09371,-23.21177 -43.18164,-43.18164 -1.91207,-19.96987 23.21177,-45.0937 43.18164,-43.18164 19.96988,-1.91208 45.09374,23.21176 43.18164,43.18164 v 25 h 9.0918 v -25 c 1.36576,-25.4842 -26.78924,-53.63725 -52.27344,-52.27148 -0.79638,-0.0427 -1.59587,-0.057 -2.39648,-0.043 z m 45.57812,177.31445 v 9.0918 h 9.0918 v -9.0918 z"
               style="opacity:1;fill:#4545b5;fill-opacity:1;fill-rule:nonzero;stroke:none;stroke-width:6.9784193;stroke-linecap:round;stroke-linejoin:miter;stroke-miterlimit:4;stroke-dasharray:none;stroke-dashoffset:0;stroke-opacity:1;paint-order:markers stroke fill"
               inkscape:connector-curvature="0" />
            <path
               id="path11563"
               transform="matrix(0.26458333,0,0,0.26458333,0,196.45832)"
               d="m -716.15625,118.38867 c -36.51277,-0.27315 -70.72823,33.94231 -70.45508,70.45508 -0.27315,36.51277 33.94231,70.72822 70.45508,70.45508 h 134.0918 v -9.0918 h -134.0918 c -30.99848,0.81946 -62.18274,-30.3648 -61.36328,-61.36328 -0.81946,-30.99848 30.3648,-62.18273 61.36328,-61.36328 30.9985,-0.81946 62.18277,30.36478 61.36328,61.36328 v 25 h 9.0918 v -25 c 0.27315,-36.51278 -33.94229,-70.72823 -70.45508,-70.45508 z m 61.36328,195.45508 v 9.0918 h 9.0918 v -9.0918 z"
               style="opacity:1;fill:#6c8ada;fill-opacity:1;fill-rule:nonzero;stroke:none;stroke-width:6.9784193;stroke-linecap:round;stroke-linejoin:miter;stroke-miterlimit:4;stroke-dasharray:none;stroke-dashoffset:0;stroke-opacity:1;paint-order:markers stroke fill"
               inkscape:connector-curvature="0" />
            <path
               id="path11565"
               transform="matrix(0.26458333,0,0,0.26458333,0,196.45832)"
               d="m -716.15625,100.20703 c -47.54138,0.81946 -87.81726,41.09534 -88.63672,88.63672 0.81946,47.54137 41.09535,87.81724 88.63672,88.63672 h 134.0918 v -9.0918 h -134.0918 v 0.002 c -42.02709,-0.27313 -79.27177,-37.51979 -79.54492,-79.54687 0.27315,-42.02708 37.51784,-79.27175 79.54492,-79.54492 42.02711,0.27315 79.2718,37.51781 79.54492,79.54492 v 25 h 9.0918 v -25 c -0.81947,-47.54138 -41.09532,-87.81726 -88.63672,-88.63672 z m 79.54492,213.63672 v 9.0918 h 9.0918 v -9.0918 z"
               style="opacity:1;fill:#38d8d8;fill-opacity:1;fill-rule:nonzero;stroke:none;stroke-width:6.9784193;stroke-linecap:round;stroke-linejoin:miter;stroke-miterlimit:4;stroke-dasharray:none;stroke-dashoffset:0;stroke-opacity:1;paint-order:markers stroke fill"
               inkscape:connector-curvature="0" />
            <path
               id="path11567"
               transform="matrix(0.26458333,0,0,0.26458333,0,196.45832)"
               d="m -716.15625,82.025391 c -58.56997,1.912073 -104.90628,48.248379 -106.81836,106.818359 1.91207,58.56996 48.2484,104.90626 106.81836,106.81836 h 134.0918 v -9.08984 h -134.0918 c -53.05565,-1.36577 -96.3608,-44.67288 -97.72656,-97.72852 1.36576,-53.05564 44.67093,-96.360781 97.72656,-97.726562 53.05567,1.365765 96.36083,44.670882 97.72656,97.726562 v 25 h 9.0918 v -25 C -611.24997,130.27379 -657.58625,83.937471 -716.15625,82.025391 Z m 97.72656,231.818359 v 9.0918 h 9.0918 v -9.0918 z"
               style="opacity:1;fill:#3545d3;fill-opacity:1;fill-rule:nonzero;stroke:none;stroke-width:6.9784193;stroke-linecap:round;stroke-linejoin:miter;stroke-miterlimit:4;stroke-dasharray:none;stroke-dashoffset:0;stroke-opacity:1;paint-order:markers stroke fill"
               inkscape:connector-curvature="0" />
            <path
               id="path11569"
               transform="matrix(0.26458333,0,0,0.26458333,0,196.45832)"
               d="m -716.15625,63.84375 c -69.59855,3.004689 -121.99531,55.40145 -125,125 3.00469,69.59853 55.40147,121.99529 125,125 h 115.9082 v 9.0918 h 9.0918 v -9.0918 h 9.0918 v -9.08984 h -134.0918 c -64.08426,-2.45838 -113.45177,-51.82592 -115.91016,-115.91016 2.45839,-64.08424 51.82592,-113.449802 115.91016,-115.908203 64.08428,2.458384 113.44986,51.823903 115.9082,115.908203 v 25 h 9.0918 v -25 c -3.0047,-69.59854 -55.40142,-121.99531 -125,-125 z"
               style="opacity:1;fill:#5320a5;fill-opacity:1;fill-rule:nonzero;stroke:none;stroke-width:6.9784193;stroke-linecap:round;stroke-linejoin:miter;stroke-miterlimit:4;stroke-dasharray:none;stroke-dashoffset:0;stroke-opacity:1;paint-order:markers stroke fill"
               inkscape:connector-curvature="0" />
          </g>
          <g
             id="g11585"
             transform="rotate(90,-222.55592,213.35031)">
            <path
               style="opacity:1;fill:#5320a5;fill-opacity:1;fill-rule:nonzero;stroke:none;stroke-width:6.9784193;stroke-linecap:round;stroke-linejoin:miter;stroke-miterlimit:4;stroke-dasharray:none;stroke-dashoffset:0;stroke-opacity:1;paint-order:markers stroke fill"
               d="m -718.94922,154.57227 c -14.32932,0.45458 -33.60356,20.71937 -31.29883,34.27148 -2.45838,14.45558 19.63622,36.55017 34.0918,34.0918 h 134.0918 v -9.0918 h -100.00196 v -25 c 2.45839,-14.4556 -19.63425,-36.54823 -34.08984,-34.08984 -0.90347,-0.15365 -1.83768,-0.21195 -2.79297,-0.18164 z m 1.00586,8.95898 c 0.63005,0.0232 1.22828,0.12471 1.78711,0.3125 8.94127,-3.00469 28.00471,16.05874 25,25 v 25 h -25 c -8.94126,3.00469 -28.00469,-16.05873 -25,-25 -2.8169,-8.38244 13.76214,-25.66117 23.21289,-25.3125 z m 26.78711,150.3125 v 9.0918 h 9.08984 v -9.0918 z"
               transform="matrix(0.26458333,0,0,0.26458333,0,196.45832)"
               id="path11573"
               inkscape:connector-curvature="0" />
            <path
               style="opacity:1;fill:#4545b5;fill-opacity:1;fill-rule:nonzero;stroke:none;stroke-width:6.9784193;stroke-linecap:round;stroke-linejoin:miter;stroke-miterlimit:4;stroke-dasharray:none;stroke-dashoffset:0;stroke-opacity:1;paint-order:markers stroke fill"
               d="m -718.55273,136.5293 c -24.81903,0.43381 -51.20004,27.62664 -49.87696,52.31445 -1.36576,25.48418 26.78925,53.63919 52.27344,52.27344 h 134.0918 v -9.0918 h -134.0918 c -19.96987,1.91207 -45.09371,-23.21177 -43.18164,-43.18164 -1.91207,-19.96987 23.21177,-45.0937 43.18164,-43.18164 19.96988,-1.91208 45.09374,23.21176 43.18164,43.18164 v 25 h 9.0918 v -25 c 1.36576,-25.4842 -26.78924,-53.63725 -52.27344,-52.27148 -0.79638,-0.0427 -1.59587,-0.057 -2.39648,-0.043 z m 45.57812,177.31445 v 9.0918 h 9.0918 v -9.0918 z"
               transform="matrix(0.26458333,0,0,0.26458333,0,196.45832)"
               id="path11575"
               inkscape:connector-curvature="0" />
            <path
               style="opacity:1;fill:#6c8ada;fill-opacity:1;fill-rule:nonzero;stroke:none;stroke-width:6.9784193;stroke-linecap:round;stroke-linejoin:miter;stroke-miterlimit:4;stroke-dasharray:none;stroke-dashoffset:0;stroke-opacity:1;paint-order:markers stroke fill"
               d="m -716.15625,118.38867 c -36.51277,-0.27315 -70.72823,33.94231 -70.45508,70.45508 -0.27315,36.51277 33.94231,70.72822 70.45508,70.45508 h 134.0918 v -9.0918 h -134.0918 c -30.99848,0.81946 -62.18274,-30.3648 -61.36328,-61.36328 -0.81946,-30.99848 30.3648,-62.18273 61.36328,-61.36328 30.9985,-0.81946 62.18277,30.36478 61.36328,61.36328 v 25 h 9.0918 v -25 c 0.27315,-36.51278 -33.94229,-70.72823 -70.45508,-70.45508 z m 61.36328,195.45508 v 9.0918 h 9.0918 v -9.0918 z"
               transform="matrix(0.26458333,0,0,0.26458333,0,196.45832)"
               id="path11577"
               inkscape:connector-curvature="0" />
            <path
               style="opacity:1;fill:#38d8d8;fill-opacity:1;fill-rule:nonzero;stroke:none;stroke-width:6.9784193;stroke-linecap:round;stroke-linejoin:miter;stroke-miterlimit:4;stroke-dasharray:none;stroke-dashoffset:0;stroke-opacity:1;paint-order:markers stroke fill"
               d="m -716.15625,100.20703 c -47.54138,0.81946 -87.81726,41.09534 -88.63672,88.63672 0.81946,47.54137 41.09535,87.81724 88.63672,88.63672 h 134.0918 v -9.0918 h -134.0918 v 0.002 c -42.02709,-0.27313 -79.27177,-37.51979 -79.54492,-79.54687 0.27315,-42.02708 37.51784,-79.27175 79.54492,-79.54492 42.02711,0.27315 79.2718,37.51781 79.54492,79.54492 v 25 h 9.0918 v -25 c -0.81947,-47.54138 -41.09532,-87.81726 -88.63672,-88.63672 z m 79.54492,213.63672 v 9.0918 h 9.0918 v -9.0918 z"
               transform="matrix(0.26458333,0,0,0.26458333,0,196.45832)"
               id="path11579"
               inkscape:connector-curvature="0" />
            <path
               style="opacity:1;fill:#3545d3;fill-opacity:1;fill-rule:nonzero;stroke:none;stroke-width:6.9784193;stroke-linecap:round;stroke-linejoin:miter;stroke-miterlimit:4;stroke-dasharray:none;stroke-dashoffset:0;stroke-opacity:1;paint-order:markers stroke fill"
               d="m -716.15625,82.025391 c -58.56997,1.912073 -104.90628,48.248379 -106.81836,106.818359 1.91207,58.56996 48.2484,104.90626 106.81836,106.81836 h 134.0918 v -9.08984 h -134.0918 c -53.05565,-1.36577 -96.3608,-44.67288 -97.72656,-97.72852 1.36576,-53.05564 44.67093,-96.360781 97.72656,-97.726562 53.05567,1.365765 96.36083,44.670882 97.72656,97.726562 v 25 h 9.0918 v -25 C -611.24997,130.27379 -657.58625,83.937471 -716.15625,82.025391 Z m 97.72656,231.818359 v 9.0918 h 9.0918 v -9.0918 z"
               transform="matrix(0.26458333,0,0,0.26458333,0,196.45832)"
               id="path11581"
               inkscape:connector-curvature="0" />
            <path
               style="opacity:1;fill:#5320a5;fill-opacity:1;fill-rule:nonzero;stroke:none;stroke-width:6.9784193;stroke-linecap:round;stroke-linejoin:miter;stroke-miterlimit:4;stroke-dasharray:none;stroke-dashoffset:0;stroke-opacity:1;paint-order:markers stroke fill"
               d="m -716.15625,63.84375 c -69.59855,3.004689 -121.99531,55.40145 -125,125 3.00469,69.59853 55.40147,121.99529 125,125 h 115.9082 v 9.0918 h 9.0918 v -9.0918 h 9.0918 v -9.08984 h -134.0918 c -64.08426,-2.45838 -113.45177,-51.82592 -115.91016,-115.91016 2.45839,-64.08424 51.82592,-113.449802 115.91016,-115.908203 64.08428,2.458384 113.44986,51.823903 115.9082,115.908203 v 25 h 9.0918 v -25 c -3.0047,-69.59854 -55.40142,-121.99531 -125,-125 z"
               transform="matrix(0.26458333,0,0,0.26458333,0,196.45832)"
               id="path11583"
               inkscape:connector-curvature="0" />
          </g>
        </g>
        <g
           id="g11617"
           transform="rotate(-180,-198.23854,277.13918)">
          <g
             transform="translate(-137.10274)"
             id="g11601">
            <path
               inkscape:connector-curvature="0"
               style="opacity:1;fill:#5320a5;fill-opacity:1;fill-rule:nonzero;stroke:none;stroke-width:6.9784193;stroke-linecap:round;stroke-linejoin:miter;stroke-miterlimit:4;stroke-dasharray:none;stroke-dashoffset:0;stroke-opacity:1;paint-order:markers stroke fill"
               d="m -718.94922,154.57227 c -14.32932,0.45458 -33.60356,20.71937 -31.29883,34.27148 -2.45838,14.45558 19.63622,36.55017 34.0918,34.0918 h 134.0918 v -9.0918 h -100.00196 v -25 c 2.45839,-14.4556 -19.63425,-36.54823 -34.08984,-34.08984 -0.90347,-0.15365 -1.83768,-0.21195 -2.79297,-0.18164 z m 1.00586,8.95898 c 0.63005,0.0232 1.22828,0.12471 1.78711,0.3125 8.94127,-3.00469 28.00471,16.05874 25,25 v 25 h -25 c -8.94126,3.00469 -28.00469,-16.05873 -25,-25 -2.8169,-8.38244 13.76214,-25.66117 23.21289,-25.3125 z m 26.78711,150.3125 v 9.0918 h 9.08984 v -9.0918 z"
               transform="matrix(0.26458333,0,0,0.26458333,0,196.45832)"
               id="path11589" />
            <path
               inkscape:connector-curvature="0"
               style="opacity:1;fill:#4545b5;fill-opacity:1;fill-rule:nonzero;stroke:none;stroke-width:6.9784193;stroke-linecap:round;stroke-linejoin:miter;stroke-miterlimit:4;stroke-dasharray:none;stroke-dashoffset:0;stroke-opacity:1;paint-order:markers stroke fill"
               d="m -718.55273,136.5293 c -24.81903,0.43381 -51.20004,27.62664 -49.87696,52.31445 -1.36576,25.48418 26.78925,53.63919 52.27344,52.27344 h 134.0918 v -9.0918 h -134.0918 c -19.96987,1.91207 -45.09371,-23.21177 -43.18164,-43.18164 -1.91207,-19.96987 23.21177,-45.0937 43.18164,-43.18164 19.96988,-1.91208 45.09374,23.21176 43.18164,43.18164 v 25 h 9.0918 v -25 c 1.36576,-25.4842 -26.78924,-53.63725 -52.27344,-52.27148 -0.79638,-0.0427 -1.59587,-0.057 -2.39648,-0.043 z m 45.57812,177.31445 v 9.0918 h 9.0918 v -9.0918 z"
               transform="matrix(0.26458333,0,0,0.26458333,0,196.45832)"
               id="path11591" />
            <path
               inkscape:connector-curvature="0"
               style="opacity:1;fill:#6c8ada;fill-opacity:1;fill-rule:nonzero;stroke:none;stroke-width:6.9784193;stroke-linecap:round;stroke-linejoin:miter;stroke-miterlimit:4;stroke-dasharray:none;stroke-dashoffset:0;stroke-opacity:1;paint-order:markers stroke fill"
               d="m -716.15625,118.38867 c -36.51277,-0.27315 -70.72823,33.94231 -70.45508,70.45508 -0.27315,36.51277 33.94231,70.72822 70.45508,70.45508 h 134.0918 v -9.0918 h -134.0918 c -30.99848,0.81946 -62.18274,-30.3648 -61.36328,-61.36328 -0.81946,-30.99848 30.3648,-62.18273 61.36328,-61.36328 30.9985,-0.81946 62.18277,30.36478 61.36328,61.36328 v 25 h 9.0918 v -25 c 0.27315,-36.51278 -33.94229,-70.72823 -70.45508,-70.45508 z m 61.36328,195.45508 v 9.0918 h 9.0918 v -9.0918 z"
               transform="matrix(0.26458333,0,0,0.26458333,0,196.45832)"
               id="path11593" />
            <path
               inkscape:connector-curvature="0"
               style="opacity:1;fill:#38d8d8;fill-opacity:1;fill-rule:nonzero;stroke:none;stroke-width:6.9784193;stroke-linecap:round;stroke-linejoin:miter;stroke-miterlimit:4;stroke-dasharray:none;stroke-dashoffset:0;stroke-opacity:1;paint-order:markers stroke fill"
               d="m -716.15625,100.20703 c -47.54138,0.81946 -87.81726,41.09534 -88.63672,88.63672 0.81946,47.54137 41.09535,87.81724 88.63672,88.63672 h 134.0918 v -9.0918 h -134.0918 v 0.002 c -42.02709,-0.27313 -79.27177,-37.51979 -79.54492,-79.54687 0.27315,-42.02708 37.51784,-79.27175 79.54492,-79.54492 42.02711,0.27315 79.2718,37.51781 79.54492,79.54492 v 25 h 9.0918 v -25 c -0.81947,-47.54138 -41.09532,-87.81726 -88.63672,-88.63672 z m 79.54492,213.63672 v 9.0918 h 9.0918 v -9.0918 z"
               transform="matrix(0.26458333,0,0,0.26458333,0,196.45832)"
               id="path11595" />
            <path
               inkscape:connector-curvature="0"
               style="opacity:1;fill:#3545d3;fill-opacity:1;fill-rule:nonzero;stroke:none;stroke-width:6.9784193;stroke-linecap:round;stroke-linejoin:miter;stroke-miterlimit:4;stroke-dasharray:none;stroke-dashoffset:0;stroke-opacity:1;paint-order:markers stroke fill"
               d="m -716.15625,82.025391 c -58.56997,1.912073 -104.90628,48.248379 -106.81836,106.818359 1.91207,58.56996 48.2484,104.90626 106.81836,106.81836 h 134.0918 v -9.08984 h -134.0918 c -53.05565,-1.36577 -96.3608,-44.67288 -97.72656,-97.72852 1.36576,-53.05564 44.67093,-96.360781 97.72656,-97.726562 53.05567,1.365765 96.36083,44.670882 97.72656,97.726562 v 25 h 9.0918 v -25 C -611.24997,130.27379 -657.58625,83.937471 -716.15625,82.025391 Z m 97.72656,231.818359 v 9.0918 h 9.0918 v -9.0918 z"
               transform="matrix(0.26458333,0,0,0.26458333,0,196.45832)"
               id="path11597" />
            <path
               inkscape:connector-curvature="0"
               style="opacity:1;fill:#5320a5;fill-opacity:1;fill-rule:nonzero;stroke:none;stroke-width:6.9784193;stroke-linecap:round;stroke-linejoin:miter;stroke-miterlimit:4;stroke-dasharray:none;stroke-dashoffset:0;stroke-opacity:1;paint-order:markers stroke fill"
               d="m -716.15625,63.84375 c -69.59855,3.004689 -121.99531,55.40145 -125,125 3.00469,69.59853 55.40147,121.99529 125,125 h 115.9082 v 9.0918 h 9.0918 v -9.0918 h 9.0918 v -9.08984 h -134.0918 c -64.08426,-2.45838 -113.45177,-51.82592 -115.91016,-115.91016 2.45839,-64.08424 51.82592,-113.449802 115.91016,-115.908203 64.08428,2.458384 113.44986,51.823903 115.9082,115.908203 v 25 h 9.0918 v -25 c -3.0047,-69.59854 -55.40142,-121.99531 -125,-125 z"
               transform="matrix(0.26458333,0,0,0.26458333,0,196.45832)"
               id="path11599" />
          </g>
          <g
             transform="rotate(90,-222.55592,213.35031)"
             id="g11615">
            <path
               inkscape:connector-curvature="0"
               id="path11603"
               transform="matrix(0.26458333,0,0,0.26458333,0,196.45832)"
               d="m -718.94922,154.57227 c -14.32932,0.45458 -33.60356,20.71937 -31.29883,34.27148 -2.45838,14.45558 19.63622,36.55017 34.0918,34.0918 h 134.0918 v -9.0918 h -100.00196 v -25 c 2.45839,-14.4556 -19.63425,-36.54823 -34.08984,-34.08984 -0.90347,-0.15365 -1.83768,-0.21195 -2.79297,-0.18164 z m 1.00586,8.95898 c 0.63005,0.0232 1.22828,0.12471 1.78711,0.3125 8.94127,-3.00469 28.00471,16.05874 25,25 v 25 h -25 c -8.94126,3.00469 -28.00469,-16.05873 -25,-25 -2.8169,-8.38244 13.76214,-25.66117 23.21289,-25.3125 z m 26.78711,150.3125 v 9.0918 h 9.08984 v -9.0918 z"
               style="opacity:1;fill:#5320a5;fill-opacity:1;fill-rule:nonzero;stroke:none;stroke-width:6.9784193;stroke-linecap:round;stroke-linejoin:miter;stroke-miterlimit:4;stroke-dasharray:none;stroke-dashoffset:0;stroke-opacity:1;paint-order:markers stroke fill" />
            <path
               inkscape:connector-curvature="0"
               id="path11605"
               transform="matrix(0.26458333,0,0,0.26458333,0,196.45832)"
               d="m -718.55273,136.5293 c -24.81903,0.43381 -51.20004,27.62664 -49.87696,52.31445 -1.36576,25.48418 26.78925,53.63919 52.27344,52.27344 h 134.0918 v -9.0918 h -134.0918 c -19.96987,1.91207 -45.09371,-23.21177 -43.18164,-43.18164 -1.91207,-19.96987 23.21177,-45.0937 43.18164,-43.18164 19.96988,-1.91208 45.09374,23.21176 43.18164,43.18164 v 25 h 9.0918 v -25 c 1.36576,-25.4842 -26.78924,-53.63725 -52.27344,-52.27148 -0.79638,-0.0427 -1.59587,-0.057 -2.39648,-0.043 z m 45.57812,177.31445 v 9.0918 h 9.0918 v -9.0918 z"
               style="opacity:1;fill:#4545b5;fill-opacity:1;fill-rule:nonzero;stroke:none;stroke-width:6.9784193;stroke-linecap:round;stroke-linejoin:miter;stroke-miterlimit:4;stroke-dasharray:none;stroke-dashoffset:0;stroke-opacity:1;paint-order:markers stroke fill" />
            <path
               inkscape:connector-curvature="0"
               id="path11607"
               transform="matrix(0.26458333,0,0,0.26458333,0,196.45832)"
               d="m -716.15625,118.38867 c -36.51277,-0.27315 -70.72823,33.94231 -70.45508,70.45508 -0.27315,36.51277 33.94231,70.72822 70.45508,70.45508 h 134.0918 v -9.0918 h -134.0918 c -30.99848,0.81946 -62.18274,-30.3648 -61.36328,-61.36328 -0.81946,-30.99848 30.3648,-62.18273 61.36328,-61.36328 30.9985,-0.81946 62.18277,30.36478 61.36328,61.36328 v 25 h 9.0918 v -25 c 0.27315,-36.51278 -33.94229,-70.72823 -70.45508,-70.45508 z m 61.36328,195.45508 v 9.0918 h 9.0918 v -9.0918 z"
               style="opacity:1;fill:#6c8ada;fill-opacity:1;fill-rule:nonzero;stroke:none;stroke-width:6.9784193;stroke-linecap:round;stroke-linejoin:miter;stroke-miterlimit:4;stroke-dasharray:none;stroke-dashoffset:0;stroke-opacity:1;paint-order:markers stroke fill" />
            <path
               inkscape:connector-curvature="0"
               id="path11609"
               transform="matrix(0.26458333,0,0,0.26458333,0,196.45832)"
               d="m -716.15625,100.20703 c -47.54138,0.81946 -87.81726,41.09534 -88.63672,88.63672 0.81946,47.54137 41.09535,87.81724 88.63672,88.63672 h 134.0918 v -9.0918 h -134.0918 v 0.002 c -42.02709,-0.27313 -79.27177,-37.51979 -79.54492,-79.54687 0.27315,-42.02708 37.51784,-79.27175 79.54492,-79.54492 42.02711,0.27315 79.2718,37.51781 79.54492,79.54492 v 25 h 9.0918 v -25 c -0.81947,-47.54138 -41.09532,-87.81726 -88.63672,-88.63672 z m 79.54492,213.63672 v 9.0918 h 9.0918 v -9.0918 z"
               style="opacity:1;fill:#38d8d8;fill-opacity:1;fill-rule:nonzero;stroke:none;stroke-width:6.9784193;stroke-linecap:round;stroke-linejoin:miter;stroke-miterlimit:4;stroke-dasharray:none;stroke-dashoffset:0;stroke-opacity:1;paint-order:markers stroke fill" />
            <path
               inkscape:connector-curvature="0"
               id="path11611"
               transform="matrix(0.26458333,0,0,0.26458333,0,196.45832)"
               d="m -716.15625,82.025391 c -58.56997,1.912073 -104.90628,48.248379 -106.81836,106.818359 1.91207,58.56996 48.2484,104.90626 106.81836,106.81836 h 134.0918 v -9.08984 h -134.0918 c -53.05565,-1.36577 -96.3608,-44.67288 -97.72656,-97.72852 1.36576,-53.05564 44.67093,-96.360781 97.72656,-97.726562 53.05567,1.365765 96.36083,44.670882 97.72656,97.726562 v 25 h 9.0918 v -25 C -611.24997,130.27379 -657.58625,83.937471 -716.15625,82.025391 Z m 97.72656,231.818359 v 9.0918 h 9.0918 v -9.0918 z"
               style="opacity:1;fill:#3545d3;fill-opacity:1;fill-rule:nonzero;stroke:none;stroke-width:6.9784193;stroke-linecap:round;stroke-linejoin:miter;stroke-miterlimit:4;stroke-dasharray:none;stroke-dashoffset:0;stroke-opacity:1;paint-order:markers stroke fill" />
            <path
               inkscape:connector-curvature="0"
               id="path11613"
               transform="matrix(0.26458333,0,0,0.26458333,0,196.45832)"
               d="m -716.15625,63.84375 c -69.59855,3.004689 -121.99531,55.40145 -125,125 3.00469,69.59853 55.40147,121.99529 125,125 h 115.9082 v 9.0918 h 9.0918 v -9.0918 h 9.0918 v -9.08984 h -134.0918 c -64.08426,-2.45838 -113.45177,-51.82592 -115.91016,-115.91016 2.45839,-64.08424 51.82592,-113.449802 115.91016,-115.908203 64.08428,2.458384 113.44986,51.823903 115.9082,115.908203 v 25 h 9.0918 v -25 c -3.0047,-69.59854 -55.40142,-121.99531 -125,-125 z"
               style="opacity:1;fill:#5320a5;fill-opacity:1;fill-rule:nonzero;stroke:none;stroke-width:6.9784193;stroke-linecap:round;stroke-linejoin:miter;stroke-miterlimit:4;stroke-dasharray:none;stroke-dashoffset:0;stroke-opacity:1;paint-order:markers stroke fill" />
          </g>
        </g>
      </g>
    </g>
    <g
       transform="matrix(0.3124733,0,0,0.3124733,16.765374,240.30781)"
       id="g11631">
      <g
         aria-label="MS"
         style="font-style:normal;font-weight:normal;font-size:10.58333302px;line-height:1.25;font-family:sans-serif;letter-spacing:0px;word-spacing:0px;fill:#000000;fill-opacity:1;stroke:none;stroke-width:0.26458332"
         id="text11625">
        <path
           d="m -13.102167,168.46541 q 0.148166,-0.23284 0.370416,-0.32809 0.22225,-0.10583 0.455084,-0.10583 0.275166,0 0.4445,0.20108 0.169333,0.1905 0.169333,0.51859 v 5.02708 l 3.5348333,-5.31283 q 0.1481667,-0.23284 0.3598333,-0.32809 0.22225,-0.10583 0.4656667,-0.10583 0.2751666,0 0.4445,0.20108 0.1693333,0.1905 0.1693333,0.51859 v 7.59883 h -1.4393333 v -5.57742 l -3.2173333,5.08 q -0.179917,0.28575 -0.391583,0.39159 -0.211667,0.10583 -0.433917,0.10583 -0.1905,0 -0.359833,-0.0635 -0.169334,-0.0741 -0.296334,-0.20108 -0.127,-0.127 -0.201083,-0.29634 -0.07408,-0.16933 -0.07408,-0.381 v -4.6355 l -3.534833,5.57742 h -1.7145 z"
           style="font-style:normal;font-variant:normal;font-weight:normal;font-stretch:normal;font-family:Strasua;-inkscape-font-specification:Strasua;stroke-width:0.26458332"
           id="path908"
           inkscape:connector-curvature="0" />
        <path
           d="m -5.7073936,176.34999 v -1.43933 h 2.8892499 q 0.66675,0 1.1006666,-0.3175 0.4339167,-0.3175 0.4339167,-0.8255 0,-0.254 -0.1164167,-0.46567 -0.1164167,-0.21167 -0.3175,-0.35983 -0.2010833,-0.15875 -0.4868333,-0.24342 -0.28575,-0.0847 -0.6138333,-0.0847 h -0.6561667 q -0.5079999,0 -0.9419166,-0.15875 -0.4339167,-0.16933 -0.7514166,-0.46566 -0.3175,-0.30692 -0.4974167,-0.70909 -0.1799167,-0.41275 -0.1799167,-0.91016 0,-0.48684 0.1799167,-0.89959 0.1905,-0.41275 0.5291667,-0.71966 0.3386666,-0.30692 0.8149166,-0.47625 0.47625,-0.17992 1.04775,-0.17992 h 2.74108322 v 1.43933 H -3.3473104 q -0.4550833,0 -0.7196666,0.254 -0.2645833,0.24342 -0.2645833,0.59267 0,0.381 0.2645833,0.635 0.2751666,0.254 0.7196666,0.254 h 0.8149167 q 0.5503333,0 1.0159999,0.1905 0.4656667,0.17992 0.80433336,0.51858 0.33866665,0.33867 0.52916665,0.80434 0.19049999,0.46566 0.19049999,1.016 0,0.56091 -0.20108333,1.02658 -0.20108332,0.46567 -0.58208331,0.80433 -0.37041666,0.33867 -0.88899996,0.52917 -0.5185833,0.1905 -1.1535833,0.1905 z"
           style="font-style:normal;font-variant:normal;font-weight:normal;font-stretch:normal;font-family:Strasua;-inkscape-font-specification:Strasua;stroke-width:0.26458332"
           id="path910"
           inkscape:connector-curvature="0" />
      </g>
      <g
         aria-label="M"
         transform="scale(-1,1)"
         style="font-style:normal;font-weight:normal;font-size:10.58333302px;line-height:1.25;font-family:sans-serif;letter-spacing:0px;word-spacing:0px;fill:#000000;fill-opacity:1;stroke:none;stroke-width:0.26458332"
         id="text11629">
        <path
           d="m -7.4032889,168.46365 q 0.1481666,-0.23283 0.3704166,-0.32808 0.22225,-0.10583 0.4550834,-0.10583 0.2751666,0 0.4444999,0.20108 0.1693334,0.1905 0.1693334,0.51858 v 5.02709 l 3.5348332,-5.31284 q 0.1481667,-0.23283 0.3598333,-0.32808 0.22225,-0.10583 0.4656667,-0.10583 0.2751666,0 0.4445,0.20108 0.16933329,0.1905 0.16933329,0.51858 v 7.59884 H -2.4291224 v -5.57742 l -3.2173332,5.08 q -0.1799167,0.28575 -0.3915834,0.39158 -0.2116666,0.10584 -0.4339166,0.10584 -0.1905,0 -0.3598333,-0.0635 -0.1693334,-0.0741 -0.2963334,-0.20109 -0.127,-0.127 -0.2010833,-0.29633 -0.074083,-0.16933 -0.074083,-0.381 v -4.6355 l -3.5348334,5.57742 h -1.7145 z"
           style="font-style:normal;font-variant:normal;font-weight:normal;font-stretch:normal;font-family:Strasua;-inkscape-font-specification:Strasua;stroke-width:0.26458332"
           id="path913"
           inkscape:connector-curvature="0" />
      </g>
    </g>
    <g
       aria-label="FADE"
       style="font-style:normal;font-weight:normal;font-size:10.58333302px;line-height:1.25;font-family:sans-serif;letter-spacing:0px;word-spacing:0px;fill:#000000;fill-opacity:1;stroke:none;stroke-width:0.26458332"
       id="text897">
      <path
         d="m 12.556683,198.76107 h -1.531345 v 0.77652 h 1.393886 v 0.62701 h -1.393886 v 1.56993 h -0.711412 v -3.60047 h 2.242757 z"
         style="font-style:normal;font-variant:normal;font-weight:bold;font-stretch:normal;font-size:4.93888903px;font-family:'DejaVu Sans Mono';-inkscape-font-specification:'DejaVu Sans Mono Bold';stroke-width:0.26458332"
         id="path899" />
      <path
         d="m 14.331597,198.78518 -0.335208,1.47347 h 0.672827 z m -0.434082,-0.65112 h 0.870575 l 0.971862,3.60047 H 15.02854 l -0.221865,-0.88987 h -0.952569 l -0.217041,0.88987 h -0.711412 z"
         style="font-style:normal;font-variant:normal;font-weight:bold;font-stretch:normal;font-size:4.93888903px;font-family:'DejaVu Sans Mono';-inkscape-font-specification:'DejaVu Sans Mono Bold';stroke-width:0.26458332"
         id="path901" />
      <path
         d="m 16.858919,198.77553 v 2.31752 h 0.192925 q 0.419613,0 0.598069,-0.26286 0.178456,-0.26527 0.178456,-0.89951 0,-0.62942 -0.178456,-0.89228 -0.178456,-0.26287 -0.598069,-0.26287 z m -0.711412,-0.64147 h 0.762055 q 0.882633,0 1.270896,0.42202 0.388262,0.41962 0.388262,1.3746 0,0.95739 -0.388262,1.38182 -0.388263,0.42203 -1.270896,0.42203 h -0.762055 z"
         style="font-style:normal;font-variant:normal;font-weight:bold;font-stretch:normal;font-size:4.93888903px;font-family:'DejaVu Sans Mono';-inkscape-font-specification:'DejaVu Sans Mono Bold';stroke-width:0.26458332"
         id="path903" />
      <path
         d="m 21.436073,201.73453 h -2.242757 v -3.60047 h 2.242757 v 0.62701 h -1.531345 v 0.77652 h 1.386651 v 0.62701 h -1.386651 v 0.94292 h 1.531345 z"
         style="font-style:normal;font-variant:normal;font-weight:bold;font-stretch:normal;font-size:4.93888903px;font-family:'DejaVu Sans Mono';-inkscape-font-specification:'DejaVu Sans Mono Bold';stroke-width:0.26458332"
         id="path905" />
    </g>
    <g
       aria-label="CV A"
       style="font-style:normal;font-weight:normal;font-size:10.58333302px;line-height:1.25;font-family:sans-serif;letter-spacing:0px;word-spacing:0px;fill:#000000;fill-opacity:1;stroke:none;stroke-width:0.26458332"
       id="text918"
       transform="translate(0,0.92131689)">
      <path
         d="m 4.5312596,289.1821 q -0.109554,0.0568 -0.2284098,0.0858 -0.1188558,0.0289 -0.2480469,0.0289 -0.3855062,0 -0.6108154,-0.21498 -0.2253092,-0.216 -0.2253092,-0.58497 0,-0.37001 0.2253092,-0.58498 0.2253092,-0.21601 0.6108154,-0.21601 0.1291911,0 0.2480469,0.0289 0.1188558,0.0289 0.2284098,0.0858 v 0.31936 q -0.1105876,-0.0754 -0.2180745,-0.11058 -0.107487,-0.0351 -0.2263428,-0.0351 -0.2129069,0 -0.3348633,0.13642 -0.1219563,0.13643 -0.1219563,0.37621 0,0.23874 0.1219563,0.37517 0.1219564,0.13642 0.3348633,0.13642 0.1188558,0 0.2263428,-0.0351 0.1074869,-0.0351 0.2180745,-0.11058 z"
         style="font-style:normal;font-variant:normal;font-weight:bold;font-stretch:normal;font-size:2.11666656px;font-family:sans-serif;-inkscape-font-specification:'sans-serif Bold';stroke-width:0.26458332"
         id="path1003"
         inkscape:connector-curvature="0" />
      <path
         d="m 4.6780207,287.72379 h 0.3999755 l 0.4092774,1.13895 0.4082438,-1.13895 h 0.3999755 l -0.5715413,1.54306 H 5.249562 Z"
         style="font-style:normal;font-variant:normal;font-weight:bold;font-stretch:normal;font-size:2.11666656px;font-family:sans-serif;-inkscape-font-specification:'sans-serif Bold';stroke-width:0.26458332"
         id="path1005"
         inkscape:connector-curvature="0" />
      <path
         d="M 8.1713473,288.98573 H 7.5491631 l -0.098185,0.28112 H 7.0510023 l 0.5715414,-1.54306 h 0.4743896 l 0.5715413,1.54306 H 8.268499 Z m -0.5229654,-0.28629 h 0.4227132 l -0.2108399,-0.61392 z"
         style="font-style:normal;font-variant:normal;font-weight:bold;font-stretch:normal;font-size:2.11666656px;font-family:sans-serif;-inkscape-font-specification:'sans-serif Bold';stroke-width:0.26458332"
         id="path1007"
         inkscape:connector-curvature="0" />
    </g>
    <g
       aria-label="IN 2"
       style="font-style:normal;font-weight:normal;font-size:10.58333302px;line-height:1.25;font-family:sans-serif;letter-spacing:0px;word-spacing:0px;fill:#000000;fill-opacity:1;stroke:none;stroke-width:0.26458332"
       id="text922"
       transform="translate(0.27216072,15.345837)">
      <path
         d="m 13.678235,252.42653 h 0.397908 v 1.54306 h -0.397908 z"
         style="font-style:normal;font-variant:normal;font-weight:bold;font-stretch:normal;font-size:2.11666656px;font-family:sans-serif;-inkscape-font-specification:'sans-serif Bold';stroke-width:0.26458332"
         id="path977"
         inkscape:connector-curvature="0" />
      <path
         d="m 14.467851,252.42653 h 0.444417 l 0.561206,1.05833 v -1.05833 h 0.377238 v 1.54306 h -0.444417 l -0.561206,-1.05833 v 1.05833 h -0.377238 z"
         style="font-style:normal;font-variant:normal;font-weight:bold;font-stretch:normal;font-size:2.11666656px;font-family:sans-serif;-inkscape-font-specification:'sans-serif Bold';stroke-width:0.26458332"
         id="path979"
         inkscape:connector-curvature="0" />
      <path
         d="m 17.392737,253.6771 h 0.679028 v 0.29249 h -1.121379 v -0.29249 l 0.563273,-0.49713 q 0.07545,-0.0682 0.111621,-0.13332 0.03617,-0.0651 0.03617,-0.13539 0,-0.10852 -0.07338,-0.17467 -0.07235,-0.0661 -0.193269,-0.0661 -0.09302,0 -0.203606,0.0403 -0.110587,0.0393 -0.236678,0.11782 v -0.33899 q 0.134359,-0.0444 0.265617,-0.0672 0.131258,-0.0238 0.257349,-0.0238 0.276986,0 0.429948,0.12195 0.153996,0.12196 0.153996,0.34003 0,0.12609 -0.06511,0.23565 -0.06511,0.10852 -0.273885,0.29145 z"
         style="font-style:normal;font-variant:normal;font-weight:bold;font-stretch:normal;font-size:2.11666656px;font-family:sans-serif;-inkscape-font-specification:'sans-serif Bold';stroke-width:0.26458332"
         id="path981"
         inkscape:connector-curvature="0" />
    </g>
    <g
       aria-label="IN 3"
       style="font-style:normal;font-weight:normal;font-size:10.58333302px;line-height:1.25;font-family:sans-serif;letter-spacing:0px;word-spacing:0px;fill:#000000;fill-opacity:1;stroke:none;stroke-width:0.26458332"
       id="text926"
       transform="translate(0.52916667,6.879167)">
      <path
         d="m 3.0541307,271.17914 h 0.3979085 v 1.54306 H 3.0541307 Z"
         style="font-style:normal;font-variant:normal;font-weight:bold;font-stretch:normal;font-size:2.11666656px;font-family:sans-serif;-inkscape-font-specification:'sans-serif Bold';stroke-width:0.26458332"
         id="path970"
         inkscape:connector-curvature="0" />
      <path
         d="m 3.8437465,271.17914 h 0.4444173 l 0.561206,1.05833 v -1.05833 h 0.377238 v 1.54306 H 4.7821905 l -0.561206,-1.05833 v 1.05833 h -0.377238 z"
         style="font-style:normal;font-variant:normal;font-weight:bold;font-stretch:normal;font-size:2.11666656px;font-family:sans-serif;-inkscape-font-specification:'sans-serif Bold';stroke-width:0.26458332"
         id="path972"
         inkscape:connector-curvature="0" />
      <path
         d="m 7.1448367,271.89021 q 0.1560628,0.0403 0.2366781,0.14056 0.081649,0.0992 0.081649,0.25321 0,0.22945 -0.1756998,0.34934 -0.1756999,0.11885 -0.5126302,0.11885 -0.1188558,0 -0.2387451,-0.0196 -0.1188558,-0.0186 -0.2356446,-0.0568 v -0.30696 q 0.1116211,0.0558 0.2211752,0.0847 0.1105875,0.0279 0.217041,0.0279 0.1581298,0 0.2418457,-0.0548 0.084749,-0.0548 0.084749,-0.1571 0,-0.10542 -0.086816,-0.15916 -0.085783,-0.0548 -0.254248,-0.0548 H 6.5650272 v -0.25631 h 0.1674316 q 0.1498616,0 0.2232422,-0.0465 0.07338,-0.0475 0.07338,-0.14366 0,-0.0889 -0.071314,-0.13746 -0.071313,-0.0486 -0.201538,-0.0486 -0.096118,0 -0.1943034,0.0217 -0.098185,0.0217 -0.1953369,0.0641 v -0.29146 q 0.1178222,-0.0331 0.2335774,-0.0496 0.1157552,-0.0165 0.2273763,-0.0165 0.3007569,0 0.449585,0.0992 0.1498616,0.0982 0.1498616,0.29663 0,0.13539 -0.071313,0.22221 -0.071313,0.0858 -0.2108398,0.12092 z"
         style="font-style:normal;font-variant:normal;font-weight:bold;font-stretch:normal;font-size:2.11666656px;font-family:sans-serif;-inkscape-font-specification:'sans-serif Bold';stroke-width:0.26458332"
         id="path974"
         inkscape:connector-curvature="0" />
    </g>
    <g
       aria-label="IN 4"
       style="font-style:normal;font-weight:normal;font-size:10.58333302px;line-height:1.25;font-family:sans-serif;letter-spacing:0px;word-spacing:0px;fill:#000000;fill-opacity:1;stroke:none;stroke-width:0.26458332"
       id="text930"
       transform="translate(-0.05117965,6.879167)">
      <path
         d="m 13.646242,271.17206 h 0.397909 v 1.54306 h -0.397909 z"
         style="font-style:normal;font-variant:normal;font-weight:bold;font-stretch:normal;font-size:2.11666656px;font-family:sans-serif;-inkscape-font-specification:'sans-serif Bold';stroke-width:0.26458332"
         id="path963"
         inkscape:connector-curvature="0" />
      <path
         d="m 14.435858,271.17206 h 0.444417 l 0.561206,1.05833 v -1.05833 h 0.377238 v 1.54306 h -0.444417 l -0.561206,-1.05833 v 1.05833 h -0.377238 z"
         style="font-style:normal;font-variant:normal;font-weight:bold;font-stretch:normal;font-size:2.11666656px;font-family:sans-serif;-inkscape-font-specification:'sans-serif Bold';stroke-width:0.26458332"
         id="path965"
         inkscape:connector-curvature="0" />
      <path
         d="m 17.530242,271.49969 -0.436149,0.64595 h 0.436149 z m -0.06615,-0.32763 h 0.44235 v 0.97358 h 0.220141 v 0.28836 h -0.220141 v 0.28112 h -0.3762 V 272.434 h -0.684196 v -0.34107 z"
         style="font-style:normal;font-variant:normal;font-weight:bold;font-stretch:normal;font-size:2.11666656px;font-family:sans-serif;-inkscape-font-specification:'sans-serif Bold';stroke-width:0.26458332"
         id="path967"
         inkscape:connector-curvature="0" />
    </g>
    <g
       aria-label="IN 1"
       style="font-style:normal;font-weight:normal;font-size:10.58333302px;line-height:1.25;font-family:sans-serif;letter-spacing:0px;word-spacing:0px;fill:#000000;fill-opacity:1;stroke:none;stroke-width:0.26458332"
       id="text934"
       transform="translate(0.85250704,15.345837)">
      <path
         d="M 2.7333635,252.39311 H 3.131272 v 1.54306 H 2.7333635 Z"
         style="font-style:normal;font-variant:normal;font-weight:bold;font-stretch:normal;font-size:2.11666656px;font-family:sans-serif;-inkscape-font-specification:'sans-serif Bold';stroke-width:0.26458332"
         id="path956"
         inkscape:connector-curvature="0" />
      <path
         d="m 3.5229794,252.39311 h 0.4444173 l 0.561206,1.05834 v -1.05834 h 0.3772379 v 1.54306 H 4.4614233 l -0.561206,-1.05833 v 1.05833 H 3.5229794 Z"
         style="font-style:normal;font-variant:normal;font-weight:bold;font-stretch:normal;font-size:2.11666656px;font-family:sans-serif;-inkscape-font-specification:'sans-serif Bold';stroke-width:0.26458332"
         id="path958"
         inkscape:connector-curvature="0" />
      <path
         d="m 6.0861301,253.66125 h 0.3513998 v -0.99735 l -0.3607015,0.0744 v -0.27078 l 0.3586344,-0.0744 h 0.3782715 v 1.26814 H 7.165134 v 0.27492 H 6.0861301 Z"
         style="font-style:normal;font-variant:normal;font-weight:bold;font-stretch:normal;font-size:2.11666656px;font-family:sans-serif;-inkscape-font-specification:'sans-serif Bold';stroke-width:0.26458332"
         id="path960"
         inkscape:connector-curvature="0" />
    </g>
    <g
       aria-label="OUT A"
       style="font-style:normal;font-weight:normal;font-size:10.58333302px;line-height:1.25;font-family:sans-serif;letter-spacing:0px;word-spacing:0px;fill:#000000;fill-opacity:1;stroke:none;stroke-width:0.26458332"
       id="text942">
      <path
         d="m 24.013157,267.9965 q -0.181901,0 -0.282153,0.13436 -0.100253,0.13436 -0.100253,0.37827 0,0.24288 0.100253,0.37724 0.100252,0.13436 0.282153,0.13436 0.182934,0 0.283187,-0.13436 0.100252,-0.13436 0.100252,-0.37724 0,-0.24391 -0.100252,-0.37827 -0.100253,-0.13436 -0.283187,-0.13436 z m 0,-0.28835 q 0.37207,0 0.58291,0.21291 0.21084,0.2129 0.21084,0.58807 0,0.37414 -0.21084,0.58705 -0.21084,0.21291 -0.58291,0.21291 -0.371037,0 -0.58291,-0.21291 -0.21084,-0.21291 -0.21084,-0.58705 0,-0.37517 0.21084,-0.58807 0.211873,-0.21291 0.58291,-0.21291 z"
         style="font-style:normal;font-variant:normal;font-weight:bold;font-stretch:normal;font-size:2.11666656px;font-family:sans-serif;-inkscape-font-specification:'sans-serif Bold';stroke-width:0.26458332"
         id="path1054" />
      <path
         d="m 25.10663,267.73606 h 0.397909 v 0.925 q 0,0.19121 0.06201,0.27389 0.06305,0.0816 0.204639,0.0816 0.142627,0 0.204639,-0.0816 0.06304,-0.0827 0.06304,-0.27389 v -0.925 h 0.397908 v 0.925 q 0,0.32763 -0.164331,0.48783 -0.164331,0.1602 -0.501261,0.1602 -0.335897,0 -0.500228,-0.1602 -0.164331,-0.1602 -0.164331,-0.48783 z"
         style="font-style:normal;font-variant:normal;font-weight:bold;font-stretch:normal;font-size:2.11666656px;font-family:sans-serif;-inkscape-font-specification:'sans-serif Bold';stroke-width:0.26458332"
         id="path1056" />
      <path
         d="m 26.642454,267.73606 h 1.422135 v 0.30075 h -0.511597 v 1.2423 h -0.397908 v -1.2423 h -0.51263 z"
         style="font-style:normal;font-variant:normal;font-weight:bold;font-stretch:normal;font-size:2.11666656px;font-family:sans-serif;-inkscape-font-specification:'sans-serif Bold';stroke-width:0.26458332"
         id="path1058" />
      <path
         d="m 29.941477,268.99799 h -0.622185 l -0.09819,0.28112 h -0.399975 l 0.571541,-1.54305 h 0.474389 l 0.571542,1.54305 h -0.399976 z m -0.522966,-0.28628 h 0.422713 l -0.21084,-0.61392 z"
         style="font-style:normal;font-variant:normal;font-weight:bold;font-stretch:normal;font-size:2.11666656px;font-family:sans-serif;-inkscape-font-specification:'sans-serif Bold';stroke-width:0.26458332"
         id="path1060" />
    </g>
    <g
       aria-label="OUT AB"
       style="font-style:normal;font-weight:normal;font-size:10.58333302px;line-height:1.25;font-family:sans-serif;letter-spacing:0px;word-spacing:0px;fill:#000000;fill-opacity:1;stroke:none;stroke-width:0.26458332"
       id="text946"
       transform="translate(0,0.14174112)">
      <path
         d="m 22.737333,288.76927 q -0.181901,0 -0.282153,0.13436 -0.100252,0.13436 -0.100252,0.37827 0,0.24288 0.100252,0.37724 0.100252,0.13436 0.282153,0.13436 0.182935,0 0.283187,-0.13436 0.100252,-0.13436 0.100252,-0.37724 0,-0.24391 -0.100252,-0.37827 -0.100252,-0.13436 -0.283187,-0.13436 z m 0,-0.28835 q 0.372071,0 0.58291,0.2129 0.21084,0.21291 0.21084,0.58808 0,0.37414 -0.21084,0.58705 -0.210839,0.2129 -0.58291,0.2129 -0.371037,0 -0.58291,-0.2129 -0.21084,-0.21291 -0.21084,-0.58705 0,-0.37517 0.21084,-0.58808 0.211873,-0.2129 0.58291,-0.2129 z"
         style="font-style:normal;font-variant:normal;font-weight:bold;font-stretch:normal;font-size:2.11666656px;font-family:sans-serif;-inkscape-font-specification:'sans-serif Bold';stroke-width:0.26458332"
         id="path1043"
         inkscape:connector-curvature="0" />
      <path
         d="m 23.830806,288.50882 h 0.397909 v 0.92501 q 0,0.1912 0.06201,0.27388 0.06304,0.0816 0.204638,0.0816 0.142627,0 0.204639,-0.0816 0.06304,-0.0827 0.06304,-0.27388 v -0.92501 h 0.397909 v 0.92501 q 0,0.32763 -0.164331,0.48783 -0.164331,0.16019 -0.501262,0.16019 -0.335896,0 -0.500227,-0.16019 -0.164332,-0.1602 -0.164332,-0.48783 z"
         style="font-style:normal;font-variant:normal;font-weight:bold;font-stretch:normal;font-size:2.11666656px;font-family:sans-serif;-inkscape-font-specification:'sans-serif Bold';stroke-width:0.26458332"
         id="path1045"
         inkscape:connector-curvature="0" />
      <path
         d="m 25.36663,288.50882 h 1.422135 v 0.30076 h -0.511596 v 1.2423 H 25.87926 v -1.2423 h -0.51263 z"
         style="font-style:normal;font-variant:normal;font-weight:bold;font-stretch:normal;font-size:2.11666656px;font-family:sans-serif;-inkscape-font-specification:'sans-serif Bold';stroke-width:0.26458332"
         id="path1047"
         inkscape:connector-curvature="0" />
      <path
         d="m 28.665653,289.77076 h -0.622184 l -0.09819,0.28112 h -0.399976 l 0.571541,-1.54306 h 0.47439 l 0.571541,1.54306 H 28.7628 Z m -0.522966,-0.28629 h 0.422714 l -0.21084,-0.61391 z"
         style="font-style:normal;font-variant:normal;font-weight:bold;font-stretch:normal;font-size:2.11666656px;font-family:sans-serif;-inkscape-font-specification:'sans-serif Bold';stroke-width:0.26458332"
         id="path1049"
         inkscape:connector-curvature="0" />
      <path
         d="m 29.984435,289.1062 q 0.09405,0 0.142627,-0.0413 0.04858,-0.0413 0.04858,-0.12196 0,-0.0796 -0.04858,-0.12092 -0.04857,-0.0424 -0.142627,-0.0424 h -0.220141 v 0.32659 z m 0.01344,0.6749 q 0.11989,0 0.179834,-0.0506 0.06098,-0.0506 0.06098,-0.15296 0,-0.10025 -0.05994,-0.14986 -0.05994,-0.0506 -0.180868,-0.0506 h -0.233577 v 0.40411 z m 0.370004,-0.55501 q 0.128157,0.0372 0.198437,0.13746 0.07028,0.10025 0.07028,0.24598 0,0.22324 -0.150895,0.3328 -0.150895,0.10955 -0.458887,0.10955 h -0.660425 v -1.54306 h 0.59738 q 0.321427,0 0.465088,0.0971 0.144694,0.0972 0.144694,0.3111 0,0.11265 -0.05271,0.19223 -0.05271,0.0786 -0.152962,0.11679 z"
         style="font-style:normal;font-variant:normal;font-weight:bold;font-stretch:normal;font-size:2.11666656px;font-family:sans-serif;-inkscape-font-specification:'sans-serif Bold';stroke-width:0.26458332"
         id="path1051"
         inkscape:connector-curvature="0" />
    </g>
    <g
       aria-label="OUT B"
       style="font-style:normal;font-weight:normal;font-size:10.58333302px;line-height:1.25;font-family:sans-serif;letter-spacing:0px;word-spacing:0px;fill:#000000;fill-opacity:1;stroke:none;stroke-width:0.26458332"
       id="text950">
      <path
         d="m 23.956108,278.3314 q -0.181901,0 -0.282153,0.13436 -0.100253,0.13436 -0.100253,0.37827 0,0.24288 0.100253,0.37724 0.100252,0.13436 0.282153,0.13436 0.182935,0 0.283187,-0.13436 0.100252,-0.13436 0.100252,-0.37724 0,-0.24391 -0.100252,-0.37827 -0.100252,-0.13436 -0.283187,-0.13436 z m 0,-0.28835 q 0.37207,0 0.58291,0.21291 0.21084,0.2129 0.21084,0.58807 0,0.37414 -0.21084,0.58705 -0.21084,0.21291 -0.58291,0.21291 -0.371037,0 -0.58291,-0.21291 -0.21084,-0.21291 -0.21084,-0.58705 0,-0.37517 0.21084,-0.58807 0.211873,-0.21291 0.58291,-0.21291 z"
         style="font-style:normal;font-variant:normal;font-weight:bold;font-stretch:normal;font-size:2.11666656px;font-family:sans-serif;-inkscape-font-specification:'sans-serif Bold';stroke-width:0.26458332"
         id="path1034" />
      <path
         d="m 25.049581,278.07096 h 0.397909 v 0.925 q 0,0.19121 0.06201,0.27389 0.06305,0.0816 0.204639,0.0816 0.142627,0 0.204639,-0.0816 0.06304,-0.0827 0.06304,-0.27389 v -0.925 h 0.397909 v 0.925 q 0,0.32763 -0.164331,0.48783 -0.164332,0.1602 -0.501262,0.1602 -0.335897,0 -0.500228,-0.1602 -0.164331,-0.1602 -0.164331,-0.48783 z"
         style="font-style:normal;font-variant:normal;font-weight:bold;font-stretch:normal;font-size:2.11666656px;font-family:sans-serif;-inkscape-font-specification:'sans-serif Bold';stroke-width:0.26458332"
         id="path1036" />
      <path
         d="m 26.585405,278.07096 h 1.422135 v 0.30075 h -0.511597 v 1.2423 h -0.397908 v -1.2423 h -0.51263 z"
         style="font-style:normal;font-variant:normal;font-weight:bold;font-stretch:normal;font-size:2.11666656px;font-family:sans-serif;-inkscape-font-specification:'sans-serif Bold';stroke-width:0.26458332"
         id="path1038" />
      <path
         d="m 29.566101,278.66834 q 0.09405,0 0.142627,-0.0414 0.04858,-0.0413 0.04858,-0.12195 0,-0.0796 -0.04858,-0.12093 -0.04858,-0.0424 -0.142627,-0.0424 h -0.220142 v 0.3266 z m 0.01344,0.67489 q 0.119889,0 0.179834,-0.0506 0.06098,-0.0507 0.06098,-0.15297 0,-0.10025 -0.05994,-0.14986 -0.05994,-0.0506 -0.180867,-0.0506 h -0.233578 v 0.40411 z m 0.370003,-0.55501 q 0.128158,0.0372 0.198438,0.13746 0.07028,0.10026 0.07028,0.24598 0,0.22325 -0.150895,0.3328 -0.150895,0.10955 -0.458886,0.10955 h -0.660425 v -1.54305 h 0.597379 q 0.321428,0 0.465088,0.0971 0.144694,0.0971 0.144694,0.31109 0,0.11265 -0.05271,0.19224 -0.05271,0.0785 -0.152962,0.11678 z"
         style="font-style:normal;font-variant:normal;font-weight:bold;font-stretch:normal;font-size:2.11666656px;font-family:sans-serif;-inkscape-font-specification:'sans-serif Bold';stroke-width:0.26458332"
         id="path1040" />
    </g>
    <g
       aria-label="CV B"
       style="font-style:normal;font-weight:normal;font-size:10.58333302px;line-height:1.25;font-family:sans-serif;letter-spacing:0px;word-spacing:0px;fill:#000000;fill-opacity:1;stroke:none;stroke-width:0.26458332"
       id="text954"
       transform="translate(-0.14174106,0.92131689)">
      <path
         d="m 15.077776,289.17743 q -0.109554,0.0568 -0.22841,0.0858 -0.118856,0.0289 -0.248047,0.0289 -0.385506,0 -0.610815,-0.21498 -0.225309,-0.216 -0.225309,-0.58497 0,-0.37001 0.225309,-0.58498 0.225309,-0.21601 0.610815,-0.21601 0.129191,0 0.248047,0.0289 0.118856,0.0289 0.22841,0.0858 v 0.31937 q -0.110588,-0.0754 -0.218075,-0.11059 -0.107486,-0.0351 -0.226342,-0.0351 -0.212907,0 -0.334864,0.13642 -0.121956,0.13643 -0.121956,0.37621 0,0.23874 0.121956,0.37517 0.121957,0.13642 0.334864,0.13642 0.118856,0 0.226342,-0.0351 0.107487,-0.0351 0.218075,-0.11058 z"
         style="font-style:normal;font-variant:normal;font-weight:bold;font-stretch:normal;font-size:2.11666656px;font-family:sans-serif;-inkscape-font-specification:'sans-serif Bold';stroke-width:0.26458332"
         id="path996"
         inkscape:connector-curvature="0" />
      <path
         d="m 15.224537,287.71912 h 0.399976 l 0.409277,1.13895 0.408244,-1.13895 h 0.399975 l -0.571541,1.54306 h -0.47439 z"
         style="font-style:normal;font-variant:normal;font-weight:bold;font-stretch:normal;font-size:2.11666656px;font-family:sans-serif;-inkscape-font-specification:'sans-serif Bold';stroke-width:0.26458332"
         id="path998"
         inkscape:connector-curvature="0" />
      <path
         d="m 18.399537,288.3165 q 0.09405,0 0.142627,-0.0413 0.04858,-0.0413 0.04858,-0.12196 0,-0.0796 -0.04858,-0.12092 -0.04858,-0.0424 -0.142627,-0.0424 h -0.220142 v 0.3266 z m 0.01344,0.67489 q 0.119889,0 0.179834,-0.0506 0.06098,-0.0506 0.06098,-0.15296 0,-0.10026 -0.05994,-0.14986 -0.05994,-0.0506 -0.180867,-0.0506 h -0.233578 v 0.40411 z m 0.370003,-0.555 q 0.128158,0.0372 0.198438,0.13746 0.07028,0.10025 0.07028,0.24598 0,0.22324 -0.150895,0.33279 -0.150895,0.10956 -0.458886,0.10956 h -0.660425 v -1.54306 h 0.597379 q 0.321428,0 0.465088,0.0971 0.144694,0.0971 0.144694,0.31109 0,0.11266 -0.05271,0.19224 -0.05271,0.0786 -0.152962,0.11679 z"
         style="font-style:normal;font-variant:normal;font-weight:bold;font-stretch:normal;font-size:2.11666656px;font-family:sans-serif;-inkscape-font-specification:'sans-serif Bold';stroke-width:0.26458332"
         id="path1000"
         inkscape:connector-curvature="0" />
    </g>
    <g
       aria-label="CV AB"
       style="font-style:normal;font-weight:normal;font-size:10.58333302px;line-height:1.25;font-family:sans-serif;letter-spacing:0px;word-spacing:0px;fill:#000000;fill-opacity:1;stroke:none;stroke-width:0.26458332"
       id="text946-8"
       transform="translate(-7.325593,8.4090147)">
      <path
         d="m 21.287603,249.97813 q -0.109554,0.0568 -0.228409,0.0858 -0.118856,0.0289 -0.248047,0.0289 -0.385506,0 -0.610816,-0.21497 -0.225309,-0.21601 -0.225309,-0.58498 0,-0.37 0.225309,-0.58497 0.22531,-0.21601 0.610816,-0.21601 0.129191,0 0.248047,0.0289 0.118855,0.0289 0.228409,0.0858 v 0.31936 q -0.110587,-0.0754 -0.218074,-0.11059 -0.107487,-0.0351 -0.226343,-0.0351 -0.212907,0 -0.334863,0.13643 -0.121957,0.13642 -0.121957,0.3762 0,0.23875 0.121957,0.37517 0.121956,0.13643 0.334863,0.13643 0.118856,0 0.226343,-0.0351 0.107487,-0.0351 0.218074,-0.11059 z"
         style="font-style:normal;font-variant:normal;font-weight:bold;font-stretch:normal;font-size:2.11666656px;font-family:sans-serif;-inkscape-font-specification:'sans-serif Bold';stroke-width:0.26458332"
         id="path1063"
         inkscape:connector-curvature="0" />
      <path
         d="m 21.434365,248.51982 h 0.399975 l 0.409277,1.13895 0.408244,-1.13895 h 0.399976 l -0.571542,1.54306 h -0.474389 z"
         style="font-style:normal;font-variant:normal;font-weight:bold;font-stretch:normal;font-size:2.11666656px;font-family:sans-serif;-inkscape-font-specification:'sans-serif Bold';stroke-width:0.26458332"
         id="path1065"
         inkscape:connector-curvature="0" />
      <path
         d="m 24.927691,249.78176 h -0.622184 l -0.09818,0.28112 h -0.399976 l 0.571541,-1.54306 h 0.47439 l 0.571541,1.54306 h -0.399975 z m -0.522965,-0.28629 h 0.422713 l -0.21084,-0.61391 z"
         style="font-style:normal;font-variant:normal;font-weight:bold;font-stretch:normal;font-size:2.11666656px;font-family:sans-serif;-inkscape-font-specification:'sans-serif Bold';stroke-width:0.26458332"
         id="path1067"
         inkscape:connector-curvature="0" />
      <path
         d="m 26.246474,249.1172 q 0.09405,0 0.142627,-0.0413 0.04857,-0.0413 0.04857,-0.12195 0,-0.0796 -0.04857,-0.12093 -0.04858,-0.0424 -0.142627,-0.0424 h -0.220142 v 0.32659 z m 0.01344,0.6749 q 0.119889,0 0.179833,-0.0507 0.06098,-0.0506 0.06098,-0.15296 0,-0.10025 -0.05994,-0.14986 -0.05994,-0.0506 -0.180867,-0.0506 h -0.233578 v 0.40411 z m 0.370003,-0.55501 q 0.128157,0.0372 0.198437,0.13746 0.07028,0.10025 0.07028,0.24598 0,0.22324 -0.150895,0.3328 -0.150895,0.10955 -0.458887,0.10955 h -0.660424 v -1.54306 h 0.597379 q 0.321427,0 0.465088,0.0971 0.144694,0.0972 0.144694,0.3111 0,0.11265 -0.05271,0.19223 -0.05271,0.0786 -0.152962,0.11679 z"
         style="font-style:normal;font-variant:normal;font-weight:bold;font-stretch:normal;font-size:2.11666656px;font-family:sans-serif;-inkscape-font-specification:'sans-serif Bold';stroke-width:0.26458332"
         id="path1069"
         inkscape:connector-curvature="0" />
    </g>
    <g
       aria-label="A"
       style="font-style:normal;font-weight:normal;font-size:10.58333302px;line-height:1.25;font-family:sans-serif;letter-spacing:0px;word-spacing:0px;fill:#000000;fill-opacity:1;stroke:none;stroke-width:0.26458332"
       id="text1074"
       transform="translate(8.1264881,-26.390513)">
      <path
         d="m -4.9632999,238.01177 -0.2873209,1.26297 h 0.576709 z m -0.3720702,-0.55811 h 0.7462076 l 0.833024,3.08612 h -0.6097818 l -0.1901693,-0.76274 h -0.8164876 l -0.1860351,0.76274 h -0.6097819 z"
         style="font-style:normal;font-variant:normal;font-weight:bold;font-stretch:normal;font-size:4.23333311px;font-family:'DejaVu Sans Mono';-inkscape-font-specification:'DejaVu Sans Mono Bold';stroke-width:0.26458332"
         id="path1100"
         inkscape:connector-curvature="0" />
    </g>
    <g
       aria-label="B"
       style="font-style:normal;font-weight:normal;font-size:10.58333302px;line-height:1.25;font-family:sans-serif;letter-spacing:0px;word-spacing:0px;fill:#000000;fill-opacity:1;stroke:none;stroke-width:0.26458332"
       id="text1086"
       transform="translate(33.450893,-30.733716)">
      <path
         d="m -5.4836075,243.48504 v 0.91364 h 0.4051432 q 0.2914551,0 0.4072103,-0.0992 0.1178222,-0.0992 0.1178222,-0.3452 0,-0.25011 -0.1219563,-0.35967 -0.1219564,-0.10955 -0.4030762,-0.10955 z m 0,-1.20303 v 0.71727 h 0.4051432 q 0.2315104,0 0.3286621,-0.0827 0.099219,-0.0827 0.099219,-0.27285 0,-0.19017 -0.1012858,-0.27492 -0.099219,-0.0868 -0.326595,-0.0868 z m -0.5891113,-0.48576 h 0.9942545 q 0.5146973,0 0.7730794,0.19638 0.2604492,0.1943 0.2604492,0.58291 0,0.29765 -0.1529622,0.46508 -0.1529623,0.16743 -0.4485514,0.19431 0.3534667,0.0351 0.5312337,0.23771 0.1798339,0.20257 0.1798339,0.56637 0,0.44649 -0.2687174,0.64699 -0.2687174,0.20051 -0.8743652,0.20051 h -0.9942545 z"
         style="font-style:normal;font-variant:normal;font-weight:bold;font-stretch:normal;font-size:4.23333311px;font-family:'DejaVu Sans Mono';-inkscape-font-specification:'DejaVu Sans Mono Bold';stroke-width:0.26458332"
         id="path1097"
         inkscape:connector-curvature="0" />
    </g>
    <g
       aria-label="AB"
       style="font-style:normal;font-weight:normal;font-size:10.58333302px;line-height:1.25;font-family:sans-serif;letter-spacing:0px;word-spacing:0px;fill:#000000;fill-opacity:1;stroke:none;stroke-width:0.26458332"
       id="text1090"
       transform="translate(19.606334,-7.5634579)">
      <path
         d="m -4.9632999,247.17769 -0.2873209,1.26297 h 0.576709 z m -0.3720702,-0.5581 h 0.7462076 l 0.833024,3.08611 h -0.6097818 l -0.1901693,-0.76274 h -0.8164876 l -0.1860351,0.76274 h -0.6097819 z"
         style="font-style:normal;font-variant:normal;font-weight:bold;font-stretch:normal;font-size:4.23333311px;font-family:'DejaVu Sans Mono';-inkscape-font-specification:'DejaVu Sans Mono Bold';stroke-width:0.26458332"
         id="path1092"
         inkscape:connector-curvature="0" />
      <path
         d="m -2.8424992,248.30424 v 0.91364 h 0.4051432 q 0.291455,0 0.4072103,-0.0992 0.1178222,-0.0992 0.1178222,-0.3452 0,-0.25011 -0.1219564,-0.35967 -0.1219563,-0.10955 -0.4030761,-0.10955 z m 0,-1.20303 v 0.71727 h 0.4051432 q 0.2315104,0 0.3286621,-0.0827 0.099219,-0.0827 0.099219,-0.27285 0,-0.19017 -0.1012858,-0.27492 -0.099219,-0.0868 -0.326595,-0.0868 z m -0.5891113,-0.48576 h 0.9942545 q 0.5146972,0 0.7730794,0.19637 0.2604492,0.19431 0.2604492,0.58291 0,0.29766 -0.1529623,0.46509 -0.1529622,0.16743 -0.4485514,0.19431 0.3534668,0.0351 0.5312337,0.23771 0.179834,0.20257 0.179834,0.56637 0,0.44648 -0.2687174,0.64699 -0.2687175,0.2005 -0.8743652,0.2005 h -0.9942545 z"
         style="font-style:normal;font-variant:normal;font-weight:bold;font-stretch:normal;font-size:4.23333311px;font-family:'DejaVu Sans Mono';-inkscape-font-specification:'DejaVu Sans Mono Bold';stroke-width:0.26458332"
         id="path1094"
         inkscape:connector-curvature="0" />
    </g>
  </g>
</svg>
