<?xml version="1.0" encoding="UTF-8" standalone="no"?>
<!-- Created with Inkscape (http://www.inkscape.org/) -->

<svg
   xmlns:osb="http://www.openswatchbook.org/uri/2009/osb"
   xmlns:dc="http://purl.org/dc/elements/1.1/"
   xmlns:cc="http://creativecommons.org/ns#"
   xmlns:rdf="http://www.w3.org/1999/02/22-rdf-syntax-ns#"
   xmlns:svg="http://www.w3.org/2000/svg"
   xmlns="http://www.w3.org/2000/svg"
   xmlns:sodipodi="http://sodipodi.sourceforge.net/DTD/sodipodi-0.dtd"
   xmlns:inkscape="http://www.inkscape.org/namespaces/inkscape"
   width="120"
   height="380"
   viewBox="0 0 31.749999 100.54167"
   version="1.1"
   id="svg8"
   inkscape:version="0.92.2 (5c3e80d, 2017-08-06)"
   sodipodi:docname="Random SourceV2.svg"
   inkscape:export-filename="C:\msys64\home\Studio\Rack\plugins\MS_modules\res\Random Source.png"
   inkscape:export-xdpi="100"
   inkscape:export-ydpi="100">
  <defs
     id="defs2">
    <linearGradient
       id="linearGradient2331"
       osb:paint="solid">
      <stop
         style="stop-color:#f2f2f2;stop-opacity:1;"
         offset="0"
         id="stop2329" />
    </linearGradient>
  </defs>
  <sodipodi:namedview
     id="base"
     pagecolor="#ffffff"
     bordercolor="#666666"
     borderopacity="1.0"
     inkscape:pageopacity="0.0"
     inkscape:pageshadow="2"
     inkscape:zoom="1.4142136"
     inkscape:cx="70.226238"
     inkscape:cy="184.97489"
     inkscape:document-units="mm"
     inkscape:current-layer="layer1"
     showgrid="false"
     inkscape:window-width="1920"
     inkscape:window-height="1033"
     inkscape:window-x="-4"
     inkscape:window-y="-4"
     inkscape:window-maximized="1"
     showguides="true"
     inkscape:guide-bbox="true"
     units="px" />
  <metadata
     id="metadata5">
    <rdf:RDF>
      <cc:Work
         rdf:about="">
        <dc:format>image/svg+xml</dc:format>
        <dc:type
           rdf:resource="http://purl.org/dc/dcmitype/StillImage" />
        <dc:title />
      </cc:Work>
    </rdf:RDF>
  </metadata>
  <g
     inkscape:label="Ebene 1"
     inkscape:groupmode="layer"
     id="layer1"
     transform="translate(0,-196.45833)">
    <path
       style="fill:#fafafa;fill-opacity:1;fill-rule:evenodd;stroke:none;stroke-width:0.08878887;stroke-miterlimit:4;stroke-dasharray:none;stroke-opacity:1"
       d="M -2.0290964e-4,196.4583 H 31.749797 V 296.99997 H -2.0290964e-4 Z"
       id="rect817"
       inkscape:connector-curvature="0" />
    <path
       style="fill:#f0f0f0;fill-opacity:1;fill-rule:evenodd;stroke:none;stroke-width:0.08878888;stroke-miterlimit:4;stroke-dasharray:none;stroke-opacity:1"
       d="M -2.0290964e-4,196.4583 H 31.749797 V 296.99997 H -2.0290964e-4 Z"
       id="rect817-9"
       inkscape:connector-curvature="0" />
    <flowRoot
       xml:space="preserve"
       id="flowRoot858"
       style="font-style:normal;font-weight:normal;font-size:40px;line-height:1.25;font-family:sans-serif;letter-spacing:0px;word-spacing:0px;fill:#000000;fill-opacity:1;stroke:none"><flowRegion
         id="flowRegion860"><rect
           id="rect862"
           width="29.5"
           height="176.5"
           x="-118.5"
           y="330.45276" /></flowRegion><flowPara
         id="flowPara864" /></flowRoot>    <flowRoot
       xml:space="preserve"
       id="flowRoot833"
       style="font-style:normal;font-weight:normal;font-size:40px;line-height:1.25;font-family:sans-serif;letter-spacing:0px;word-spacing:0px;fill:#000000;fill-opacity:1;stroke:none"><flowRegion
         id="flowRegion835"><rect
           id="rect837"
           width="101.99999"
           height="45.499996"
           x="-29.499998"
           y="71.452774" /></flowRegion><flowPara
         id="flowPara839" /></flowRoot>    <flowRoot
       xml:space="preserve"
       id="flowRoot864"
       style="font-style:normal;font-weight:normal;font-size:40px;line-height:1.25;font-family:sans-serif;letter-spacing:0px;word-spacing:0px;fill:#000000;fill-opacity:1;stroke:none"><flowRegion
         id="flowRegion866"><rect
           id="rect868"
           width="123.533"
           height="47.711498"
           x="55.011463"
           y="27.95311" /></flowRegion><flowPara
         id="flowPara870" /></flowRoot>    <path
       style="opacity:1;fill:#cdcdcd;fill-opacity:1;fill-rule:evenodd;stroke:none;stroke-width:0.5;stroke-miterlimit:4;stroke-dasharray:none;stroke-opacity:1"
       d="m 2.0387435,270.12344 h 7.6406628 v 9.6748 H 2.0387435 Z"
       id="rect860-8"
       inkscape:connector-curvature="0" />
    <path
       style="opacity:1;fill:#cdcdcd;fill-opacity:1;fill-rule:evenodd;stroke:none;stroke-width:0.5;stroke-miterlimit:4;stroke-dasharray:none;stroke-opacity:1"
       d="m 2.0387425,258.03414 h 7.6406638 v 9.6748 H 2.0387425 Z"
       id="rect860-8-4"
       inkscape:connector-curvature="0" />
    <path
       style="opacity:1;fill:#cdcdcd;fill-opacity:1;fill-rule:evenodd;stroke:none;stroke-width:0.5;stroke-miterlimit:4;stroke-dasharray:none;stroke-opacity:1"
       d="m 2.0385422,282.19704 h 7.6407772 v 9.6748 H 2.0385422 Z"
       id="rect860"
       inkscape:connector-curvature="0" />
    <g
       aria-label="Sample"
       transform="matrix(1.0076253,0,0,0.99243238,0.52916667,-2.5796875)"
       style="font-style:normal;font-weight:normal;font-size:10.66403389px;line-height:1.25;font-family:sans-serif;letter-spacing:0px;word-spacing:0px;fill:#000000;fill-opacity:1;stroke:none;stroke-width:0.26660085"
       id="text921">
      <path
         d="m 3.4832903,223.06192 q -0.3096458,-0.11802 -0.419341,-0.24716 -0.1096951,-0.13052 -0.1096951,-0.34991 0,-0.28188 0.180511,-0.44295 0.180511,-0.16107 0.495711,-0.16107 0.1430202,0 0.2860405,0.0333 0.1430202,0.0319 0.2832634,0.0958 v 0.39991 q -0.1319119,-0.093 -0.2679894,-0.14164 -0.1360775,-0.0486 -0.269378,-0.0486 -0.1485744,0 -0.2277216,0.0597 -0.079147,0.0597 -0.079147,0.17079 0,0.0861 0.05693,0.14302 0.058319,0.0556 0.241607,0.12358 l 0.1763454,0.0667 q 0.2499383,0.0916 0.3679648,0.24299 0.1180264,0.15135 0.1180264,0.38185 0,0.31381 -0.1860652,0.46933 -0.1846767,0.15413 -0.5595841,0.15413 -0.1541287,0 -0.3096458,-0.0375 -0.1541287,-0.0361 -0.2985375,-0.10831 v -0.42351 q 0.1638485,0.11664 0.3165886,0.17357 0.1541286,0.0569 0.3040916,0.0569 0.1513515,0 0.2346643,-0.068 0.083313,-0.0694 0.083313,-0.193 0,-0.093 -0.055542,-0.16246 -0.055542,-0.0708 -0.1610713,-0.11109 z"
         style="font-style:normal;font-variant:normal;font-weight:bold;font-stretch:normal;font-size:2.84374261px;font-family:'DejaVu Sans Mono';-inkscape-font-specification:'DejaVu Sans Mono Bold';stroke-width:0.26660085"
         id="path938"
         inkscape:connector-curvature="0" />
      <path
         d="m 5.457803,223.24104 q -0.2277216,0 -0.3179771,0.0583 -0.090255,0.0583 -0.090255,0.19995 0,0.10553 0.062485,0.16802 0.062485,0.0625 0.1694026,0.0625 0.1610714,0 0.2499383,-0.1208 0.088867,-0.12219 0.088867,-0.34019 v -0.0278 z m 0.5665268,-0.1569 v 0.88728 H 5.6202629 v -0.17357 q -0.073593,0.10275 -0.1888423,0.1583 -0.1152493,0.0555 -0.2541039,0.0555 -0.2652124,0 -0.4137868,-0.14025 -0.1471859,-0.14024 -0.1471859,-0.39157 0,-0.27215 0.1763454,-0.40128 0.1763453,-0.13053 0.5456986,-0.13053 h 0.2818749 v -0.068 q 0,-0.0986 -0.072204,-0.14857 -0.070816,-0.0514 -0.2096705,-0.0514 -0.1457973,0 -0.2832634,0.0375 -0.1360775,0.0361 -0.284652,0.11664 v -0.34714 q 0.134689,-0.0555 0.2735436,-0.0819 0.1388546,-0.0264 0.2943718,-0.0264 0.3790731,0 0.5318132,0.15413 0.1541286,0.15413 0.1541286,0.55125 z"
         style="font-style:normal;font-variant:normal;font-weight:bold;font-stretch:normal;font-size:2.84374261px;font-family:'DejaVu Sans Mono';-inkscape-font-specification:'DejaVu Sans Mono Bold';stroke-width:0.26660085"
         id="path940"
         inkscape:connector-curvature="0" />
      <path
         d="m 7.1546065,222.57177 q 0.045822,-0.0986 0.1166379,-0.1458 0.070816,-0.0472 0.1735682,-0.0472 0.2013392,0 0.2777093,0.13885 0.077759,0.13886 0.077759,0.57764 v 0.87617 H 7.4670294 v -0.99836 q 0,-0.17357 -0.026382,-0.23189 -0.026382,-0.0583 -0.09581,-0.0583 -0.069427,0 -0.097198,0.0597 -0.027771,0.0597 -0.027771,0.2305 v 0.99836 H 6.8907827 v -0.99836 q 0,-0.1708 -0.027771,-0.2305 -0.027771,-0.0597 -0.097198,-0.0597 -0.069427,0 -0.09581,0.0583 -0.026382,0.0583 -0.026382,0.23189 v 0.99836 H 6.3103704 v -1.55517 h 0.2957603 v 0.16107 q 0.034714,-0.0916 0.1110837,-0.14441 0.07637,-0.0541 0.1707912,-0.0541 0.094421,0 0.1721797,0.0569 0.077759,0.0555 0.094421,0.13608 z"
         style="font-style:normal;font-variant:normal;font-weight:bold;font-stretch:normal;font-size:2.84374261px;font-family:'DejaVu Sans Mono';-inkscape-font-specification:'DejaVu Sans Mono Bold';stroke-width:0.26660085"
         id="path942"
         inkscape:connector-curvature="0" />
      <path
         d="m 8.5209358,223.75203 v 0.81091 H 8.1154804 v -2.14669 h 0.4054554 v 0.23327 q 0.063873,-0.13468 0.1680141,-0.20272 0.104141,-0.068 0.2443842,-0.068 0.2666008,0 0.4137867,0.21383 0.1471859,0.21384 0.1471859,0.60263 0,0.39435 -0.149963,0.60541 -0.1485744,0.21106 -0.4248951,0.21106 -0.1249692,0 -0.2249445,-0.0639 -0.098587,-0.0653 -0.1735683,-0.19579 z m 0.5665269,-0.55958 q 0,-0.22495 -0.074981,-0.35269 -0.074981,-0.12775 -0.2068934,-0.12775 -0.1319119,0 -0.2082819,0.12775 -0.07637,0.12774 -0.07637,0.35269 0,0.22494 0.07637,0.35269 0.07637,0.12774 0.2082819,0.12774 0.1319119,0 0.2068934,-0.12774 0.074981,-0.12775 0.074981,-0.35269 z"
         style="font-style:normal;font-variant:normal;font-weight:bold;font-stretch:normal;font-size:2.84374261px;font-family:'DejaVu Sans Mono';-inkscape-font-specification:'DejaVu Sans Mono Bold';stroke-width:0.26660085"
         id="path944"
         inkscape:connector-curvature="0" />
      <path
         d="m 10.155255,223.32297 v -1.1997 H 9.7428567 v -0.31243 h 0.8192423 v 1.51213 q 0,0.18329 0.05693,0.25966 0.05693,0.0764 0.193008,0.0764 h 0.32492 v 0.31242 h -0.438781 q -0.290206,0 -0.416563,-0.14996 -0.126358,-0.14997 -0.126358,-0.49849 z"
         style="font-style:normal;font-variant:normal;font-weight:bold;font-stretch:normal;font-size:2.84374261px;font-family:'DejaVu Sans Mono';-inkscape-font-specification:'DejaVu Sans Mono Bold';stroke-width:0.26660085"
         id="path946"
         inkscape:connector-curvature="0" />
      <path
         d="m 12.858754,223.89505 q -0.141631,0.0583 -0.288817,0.0875 -0.147186,0.0292 -0.311034,0.0292 -0.390182,0 -0.597075,-0.20828 -0.205505,-0.20967 -0.205505,-0.60263 0,-0.38046 0.198562,-0.60124 0.198562,-0.22078 0.541533,-0.22078 0.345748,0 0.535979,0.2055 0.191619,0.20412 0.191619,0.57625 v 0.16524 H 11.87011 q 0.0014,0.18328 0.108306,0.27354 0.106918,0.0903 0.319366,0.0903 0.140243,0 0.276321,-0.0403 0.136077,-0.0403 0.284651,-0.12775 z m -0.344359,-0.87478 q -0.0028,-0.16108 -0.08331,-0.243 -0.07915,-0.0833 -0.234664,-0.0833 -0.140243,0 -0.223556,0.0861 -0.08331,0.0847 -0.09859,0.2416 z"
         style="font-style:normal;font-variant:normal;font-weight:bold;font-stretch:normal;font-size:2.84374261px;font-family:'DejaVu Sans Mono';-inkscape-font-specification:'DejaVu Sans Mono Bold';stroke-width:0.26660085"
         id="path948"
         inkscape:connector-curvature="0" />
    </g>
    <g
       id="g926"
       transform="translate(0,2.6458334)">
      <path
         inkscape:connector-curvature="0"
         id="rect860-8-4-4-5"
         d="m 19.502597,207.2659 h 7.554982 v 4.02351 h -7.554982 z"
         style="fill:#d1936a;fill-opacity:1;fill-rule:evenodd;stroke:none;stroke-width:0.04346791;stroke-miterlimit:4;stroke-dasharray:none;stroke-opacity:1" />
      <g
         transform="matrix(0.47216411,0,0,0.47216411,19.503592,109.30831)"
         id="text881"
         style="font-style:normal;font-weight:normal;font-size:10.58333302px;line-height:1.25;font-family:sans-serif;letter-spacing:0px;word-spacing:0px;fill:#000003;fill-opacity:1;stroke:none;stroke-width:0.26458332"
         aria-label="MS">
        <path
           inkscape:connector-curvature="0"
           id="path854"
           style="font-style:normal;font-variant:normal;font-weight:normal;font-stretch:normal;font-size:8.46666622px;font-family:stoNe;-inkscape-font-specification:stoNe;fill:#000003;fill-opacity:1;stroke-width:0.26458332"
           d="m 0.55186528,213.81201 v -5.78776 l 3.30729152,3.30729 1.6536457,-1.65364 h 1.6536458 v 5.78776 H 4.6859796 v -3.30729 l -0.8268228,0.82682 -0.8268229,-0.82682 v 1.65364 z m 0.82682292,-5.78776 0.8268228,0.82682 h 4.9609373 v -0.82682 z m -0.82682292,7.44141 v -0.82683 H 3.8591568 v 0.82683 z" />
        <path
           inkscape:connector-curvature="0"
           id="path856"
           style="font-style:normal;font-variant:normal;font-weight:normal;font-stretch:normal;font-size:8.46666622px;font-family:stoNe;-inkscape-font-specification:stoNe;fill:#000003;fill-opacity:1;stroke-width:0.26458332"
           d="m 7.9932711,213.81201 v -0.82682 h 4.1341139 q 0,-0.82682 -0.826822,-0.82682 H 7.9932711 v -0.82683 q 0,-1.65364 1.6536457,-1.65364 h 4.9609372 v 0.82682 h -3.307291 q -0.826823,0 -0.826823,0.82682 h 2.480468 q 1.653646,0 1.653646,1.65365 v 0.82682 z m 0.00413,0.82682 v 0.82683 h 7.4414059 v -0.82683 z m -0.830957,-6.61458 0.00413,0.82269 H 14.61198 l -0.0041,-0.82269 z" />
      </g>
      <g
         id="text860"
         style="font-style:normal;font-weight:normal;font-size:11.91837883px;line-height:0.30000001;font-family:sans-serif;letter-spacing:0px;word-spacing:0px;fill:#000000;fill-opacity:1;stroke:none;stroke-width:0.29795945"
         transform="matrix(1.1880307,0,0,0.88798427,15.250171,-2.5135416)"
         aria-label="random source">
        <path
           inkscape:connector-curvature="0"
           id="path876"
           style="font-style:normal;font-variant:normal;font-weight:bold;font-stretch:normal;font-size:3.5755136px;line-height:0.01;font-family:'DejaVu Sans Mono';-inkscape-font-specification:'DejaVu Sans Mono Bold';fill:#000000;fill-opacity:1;stroke-width:0.29795945"
           d="m 2.1861533,229.04779 q -0.083801,-0.0768 -0.1972817,-0.11522 -0.1117348,-0.0384 -0.2461658,-0.0384 -0.1623646,0 -0.2845745,0.0576 -0.1204641,0.0559 -0.1868067,0.16411 -0.041901,0.0663 -0.059359,0.16062 -0.015713,0.0943 -0.015713,0.28632 v 0.90086 H 0.68471694 v -1.95535 H 1.1962528 v 0.30377 q 0.075072,-0.1676 0.230453,-0.25838 0.1553813,-0.0925 0.3631381,-0.0925 0.1047514,0 0.2042652,0.0262 0.1012597,0.0245 0.1920442,0.0733 z" />
        <path
           inkscape:connector-curvature="0"
           id="path878"
           style="font-style:normal;font-variant:normal;font-weight:bold;font-stretch:normal;font-size:3.5755136px;line-height:0.01;font-family:'DejaVu Sans Mono';-inkscape-font-specification:'DejaVu Sans Mono Bold';fill:#000000;fill-opacity:1;stroke-width:0.29795945"
           d="m 3.549667,229.54536 q -0.2863204,0 -0.3998011,0.0733 -0.1134806,0.0733 -0.1134806,0.2514 0,0.13269 0.078564,0.21125 0.078564,0.0786 0.2129945,0.0786 0.2025193,0 0.3142541,-0.15189 0.1117348,-0.15364 0.1117348,-0.42774 v -0.0349 z m 0.7123094,-0.19728 v 1.1156 H 3.7539322 v -0.21823 q -0.09253,0.1292 -0.2374364,0.19903 -0.1449061,0.0698 -0.3194917,0.0698 -0.3334586,0 -0.5202652,-0.17633 -0.1850608,-0.17633 -0.1850608,-0.49233 0,-0.34219 0.2217238,-0.50455 0.2217237,-0.16411 0.6861215,-0.16411 h 0.3544088 v -0.0855 q 0,-0.12395 -0.090784,-0.18681 -0.089039,-0.0646 -0.2636243,-0.0646 -0.1833149,0 -0.3561547,0.0471 -0.1710939,0.0454 -0.3579005,0.14665 v -0.43647 q 0.169348,-0.0698 0.3439337,-0.103 0.1745856,-0.0332 0.3701215,-0.0332 0.4766187,0 0.6686629,0.19379 0.1937901,0.19379 0.1937901,0.6931 z" />
        <path
           inkscape:connector-curvature="0"
           id="path880"
           style="font-style:normal;font-variant:normal;font-weight:bold;font-stretch:normal;font-size:3.5755136px;line-height:0.01;font-family:'DejaVu Sans Mono';-inkscape-font-specification:'DejaVu Sans Mono Bold';fill:#000000;fill-opacity:1;stroke-width:0.29795945"
           d="m 6.3482746,229.19445 v 1.26923 H 5.8402304 v -1.19067 q 0,-0.21299 -0.061105,-0.30378 -0.059359,-0.0925 -0.1955359,-0.0925 -0.1379226,0 -0.218232,0.12396 -0.078563,0.12395 -0.078563,0.34393 v 1.11909 H 4.7787498 v -1.95535 H 5.286794 v 0.2933 q 0.054121,-0.16237 0.1850607,-0.2514 0.1309393,-0.089 0.316,-0.089 0.2775912,0 0.4190055,0.18506 0.1414144,0.18331 0.1414144,0.5482 z" />
        <path
           inkscape:connector-curvature="0"
           id="path882"
           style="font-style:normal;font-variant:normal;font-weight:bold;font-stretch:normal;font-size:3.5755136px;line-height:0.01;font-family:'DejaVu Sans Mono';-inkscape-font-specification:'DejaVu Sans Mono Bold';fill:#000000;fill-opacity:1;stroke-width:0.29795945"
           d="m 8.0103295,228.78592 v -1.03879 h 0.50979 v 2.71655 h -0.50979 v -0.28981 q -0.082055,0.16935 -0.2129945,0.2549 -0.1291934,0.0855 -0.3055248,0.0855 -0.3352044,0 -0.5202652,-0.26886 -0.1850608,-0.26886 -0.1850608,-0.7577 0,-0.49582 0.1868067,-0.76119 0.1885524,-0.26537 0.5359778,-0.26537 0.1571271,0 0.2810829,0.0821 0.1257016,0.0803 0.2199779,0.24268 z m -0.7123094,0.70532 q 0,0.28283 0.094276,0.44345 0.094276,0.16062 0.2601325,0.16062 0.1658564,0 0.2618785,-0.16062 0.096022,-0.16062 0.096022,-0.44345 0,-0.28283 -0.096022,-0.44345 -0.096022,-0.16061 -0.2618785,-0.16061 -0.1658563,0 -0.2601325,0.16061 -0.094276,0.16062 -0.094276,0.44345 z" />
        <path
           inkscape:connector-curvature="0"
           id="path884"
           style="font-style:normal;font-variant:normal;font-weight:bold;font-stretch:normal;font-size:3.5755136px;line-height:0.01;font-family:'DejaVu Sans Mono';-inkscape-font-specification:'DejaVu Sans Mono Bold';fill:#000000;fill-opacity:1;stroke-width:0.29795945"
           d="m 9.8556997,228.8767 q -0.1833149,0 -0.2880662,0.16237 -0.1047514,0.16061 -0.1047514,0.44868 0,0.28807 0.1047514,0.45043 0.1047513,0.16062 0.2880662,0.16062 0.1850613,0 0.2898123,-0.16062 0.104751,-0.16236 0.104751,-0.45043 0,-0.28807 -0.104751,-0.44868 -0.104751,-0.16237 -0.2898123,-0.16237 z m -0.9043535,0.61105 q 0,-0.47313 0.2444199,-0.74897 0.2461657,-0.27759 0.6599336,-0.27759 0.4155143,0 0.6599333,0.27759 0.246166,0.27584 0.246166,0.74897 0,0.47313 -0.246166,0.75072 -0.244419,0.27584 -0.6599333,0.27584 -0.4137679,0 -0.6599336,-0.27584 -0.2444199,-0.27759 -0.2444199,-0.75072 z" />
        <path
           inkscape:connector-curvature="0"
           id="path886"
           style="font-style:normal;font-variant:normal;font-weight:bold;font-stretch:normal;font-size:3.5755136px;line-height:0.01;font-family:'DejaVu Sans Mono';-inkscape-font-specification:'DejaVu Sans Mono Bold';fill:#000000;fill-opacity:1;stroke-width:0.29795945"
           d="m 12.135788,228.70386 q 0.05761,-0.12395 0.146652,-0.18331 0.08904,-0.0594 0.218232,-0.0594 0.253149,0 0.349171,0.17458 0.09777,0.17459 0.09777,0.72628 v 1.10163 h -0.419005 v -1.25527 q 0,-0.21823 -0.03317,-0.29155 -0.03317,-0.0733 -0.120464,-0.0733 -0.08729,0 -0.12221,0.0751 -0.03492,0.0751 -0.03492,0.28981 v 1.25527 h -0.413767 v -1.25527 q 0,-0.21474 -0.03492,-0.28981 -0.03492,-0.0751 -0.12221,-0.0751 -0.08729,0 -0.120464,0.0733 -0.03317,0.0733 -0.03317,0.29155 v 1.25527 h -0.419005 v -1.95535 h 0.371867 v 0.20251 q 0.04365,-0.11522 0.139669,-0.18156 0.09602,-0.0681 0.21474,-0.0681 0.118718,0 0.216486,0.0716 0.09777,0.0698 0.118718,0.17109 z" />
        <path
           inkscape:connector-curvature="0"
           id="path888"
           style="font-style:normal;font-variant:normal;font-weight:bold;font-stretch:normal;font-size:3.5755136px;line-height:0.01;font-family:'DejaVu Sans Mono';-inkscape-font-specification:'DejaVu Sans Mono Bold';fill:#000000;fill-opacity:1;stroke-width:0.29795945"
           d="m 1.9068163,232.54225 v 0.44694 q -0.1414143,-0.0908 -0.2950497,-0.13617 -0.1518895,-0.0471 -0.3055248,-0.0471 -0.1710939,0 -0.2583868,0.0506 -0.0872928,0.0489 -0.0872928,0.14665 0,0.13967 0.3736133,0.22696 l 0.019204,0.005 0.1466519,0.0349 q 0.279337,0.0663 0.4085304,0.21474 0.1309392,0.14665 0.1309392,0.39805 0,0.30203 -0.1990276,0.45392 -0.1972818,0.15015 -0.595337,0.15015 -0.1763315,0 -0.36139228,-0.0314 -0.18506076,-0.0297 -0.37535909,-0.0908 v -0.44694 q 0.16934806,0.096 0.34393368,0.14665 0.17633149,0.0506 0.34044199,0.0506 0.1798232,0 0.2723536,-0.0524 0.09253,-0.0524 0.09253,-0.15188 0,-0.0978 -0.066343,-0.15015 -0.064597,-0.0524 -0.3107624,-0.11173 l -0.1414143,-0.0314 q -0.29330392,-0.0663 -0.42773485,-0.20776 -0.13443093,-0.14141 -0.13443093,-0.37885 0,-0.28282 0.20426518,-0.43995 0.20426518,-0.15713 0.5743867,-0.15713 0.1658564,0 0.3299669,0.0279 0.1658563,0.0262 0.3212375,0.0803 z" />
        <path
           inkscape:connector-curvature="0"
           id="path890"
           style="font-style:normal;font-variant:normal;font-weight:bold;font-stretch:normal;font-size:3.5755136px;line-height:0.01;font-family:'DejaVu Sans Mono';-inkscape-font-specification:'DejaVu Sans Mono Bold';fill:#000000;fill-opacity:1;stroke-width:0.29795945"
           d="m 3.4030151,232.84952 q -0.1833149,0 -0.2880663,0.16237 -0.1047514,0.16062 -0.1047514,0.44868 0,0.28807 0.1047514,0.45044 0.1047514,0.16061 0.2880663,0.16061 0.1850608,0 0.2898121,-0.16061 0.1047514,-0.16237 0.1047514,-0.45044 0,-0.28806 -0.1047514,-0.44868 -0.1047513,-0.16237 -0.2898121,-0.16237 z m -0.9043535,0.61105 q 0,-0.47312 0.2444198,-0.74897 0.2461658,-0.27759 0.6599337,-0.27759 0.4155138,0 0.6599337,0.27759 0.2461657,0.27585 0.2461657,0.74897 0,0.47313 -0.2461657,0.75072 -0.2444199,0.27585 -0.6599337,0.27585 -0.4137679,0 -0.6599337,-0.27585 -0.2444198,-0.27759 -0.2444198,-0.75072 z" />
        <path
           inkscape:connector-curvature="0"
           id="path892"
           style="font-style:normal;font-variant:normal;font-weight:bold;font-stretch:normal;font-size:3.5755136px;line-height:0.01;font-family:'DejaVu Sans Mono';-inkscape-font-specification:'DejaVu Sans Mono Bold';fill:#000000;fill-opacity:1;stroke-width:0.29795945"
           d="m 4.7577995,233.75388 v -1.27273 h 0.5115359 v 1.19416 q 0,0.21125 0.059359,0.30204 0.059359,0.0908 0.1972818,0.0908 0.1379226,0 0.2147403,-0.12221 0.078564,-0.12221 0.078564,-0.34219 v -1.12258 H 6.330816 v 1.95536 H 5.8192801 v -0.28981 q -0.054121,0.16236 -0.1850607,0.2514 -0.1291934,0.089 -0.3125083,0.089 -0.279337,0 -0.4224972,-0.18506 -0.1414144,-0.18506 -0.1414144,-0.5482 z" />
        <path
           inkscape:connector-curvature="0"
           id="path894"
           style="font-style:normal;font-variant:normal;font-weight:bold;font-stretch:normal;font-size:3.5755136px;line-height:0.01;font-family:'DejaVu Sans Mono';-inkscape-font-specification:'DejaVu Sans Mono Bold';fill:#000000;fill-opacity:1;stroke-width:0.29795945"
           d="m 8.6388377,233.02062 q -0.083801,-0.0768 -0.1972817,-0.11523 -0.1117348,-0.0384 -0.2461658,-0.0384 -0.1623646,0 -0.2845745,0.0576 -0.1204641,0.0559 -0.1868067,0.16411 -0.0419,0.0663 -0.059359,0.16062 -0.015713,0.0943 -0.015713,0.28632 v 0.90086 H 7.1374013 v -1.95536 h 0.5115359 v 0.30378 q 0.075072,-0.1676 0.230453,-0.25839 0.1553813,-0.0925 0.3631381,-0.0925 0.1047514,0 0.2042652,0.0262 0.1012597,0.0244 0.1920442,0.0733 z" />
        <path
           inkscape:connector-curvature="0"
           id="path896"
           style="font-style:normal;font-variant:normal;font-weight:bold;font-stretch:normal;font-size:3.5755136px;line-height:0.01;font-family:'DejaVu Sans Mono';-inkscape-font-specification:'DejaVu Sans Mono Bold';fill:#000000;fill-opacity:1;stroke-width:0.29795945"
           d="m 10.632606,234.33699 q -0.129194,0.0751 -0.277591,0.11174 -0.148398,0.0384 -0.319492,0.0384 -0.4521768,0 -0.7070718,-0.27236 -0.2548951,-0.27235 -0.2548951,-0.75421 0,-0.4836 0.2566409,-0.75595 0.2566409,-0.2741 0.708818,-0.2741 0.157127,0 0.302033,0.0367 0.146652,0.0367 0.291558,0.11348 v 0.46789 q -0.111735,-0.096 -0.246166,-0.14665 -0.132685,-0.0524 -0.275845,-0.0524 -0.2496577,0 -0.3840886,0.15888 -0.134431,0.15887 -0.134431,0.45217 0,0.29331 0.134431,0.45044 0.1344309,0.15712 0.3840886,0.15712 0.148398,0 0.277591,-0.0489 0.129193,-0.0506 0.24442,-0.15189 z" />
        <path
           inkscape:connector-curvature="0"
           id="path898"
           style="font-style:normal;font-variant:normal;font-weight:bold;font-stretch:normal;font-size:3.5755136px;line-height:0.01;font-family:'DejaVu Sans Mono';-inkscape-font-specification:'DejaVu Sans Mono Bold';fill:#000000;fill-opacity:1;stroke-width:0.29795945"
           d="m 12.855081,234.34049 q -0.178077,0.0733 -0.363138,0.10998 -0.185061,0.0367 -0.391072,0.0367 -0.490586,0 -0.750718,-0.26188 -0.258387,-0.26362 -0.258387,-0.7577 0,-0.47837 0.249658,-0.75596 0.249657,-0.27759 0.680884,-0.27759 0.434718,0 0.6739,0.25839 0.240928,0.25664 0.240928,0.72453 v 0.20775 h -1.325105 q 0.0017,0.23046 0.136177,0.34394 0.134431,0.11348 0.401547,0.11348 0.176332,0 0.347425,-0.0506 0.171094,-0.0506 0.357901,-0.16062 z m -0.432972,-1.09989 q -0.0035,-0.20252 -0.104752,-0.30553 -0.09951,-0.10475 -0.295049,-0.10475 -0.176332,0 -0.281083,0.10824 -0.104752,0.1065 -0.123956,0.30378 z" />
      </g>
      <path
         inkscape:connector-curvature="0"
         id="path901"
         d="M 16.066101,199.6333 H 30.716429"
         style="fill:none;stroke:#000000;stroke-width:0.28417397px;stroke-linecap:butt;stroke-linejoin:miter;stroke-opacity:1" />
      <g
         transform="translate(15.279687,-2.5135416)"
         id="text874"
         style="font-style:normal;font-weight:normal;font-size:10.58333302px;line-height:1.25;font-family:sans-serif;letter-spacing:0px;word-spacing:0px;fill:#000000;fill-opacity:1;stroke:none;stroke-width:0.26458332"
         aria-label="v2">
        <path
           inkscape:connector-curvature="0"
           id="path899"
           style="font-style:normal;font-variant:normal;font-weight:bold;font-stretch:normal;font-size:1.76388884px;font-family:'DejaVu Sans Mono';-inkscape-font-specification:'DejaVu Sans Mono Bold';stroke-width:0.26458332"
           d="m 14.351736,208.82495 -0.306613,0.96463 h -0.31092 l -0.306614,-0.96463 h 0.255799 l 0.205844,0.75276 0.206706,-0.75276 z" />
        <path
           inkscape:connector-curvature="0"
           id="path902"
           style="font-style:normal;font-variant:normal;font-weight:bold;font-stretch:normal;font-size:1.76388884px;font-family:'DejaVu Sans Mono';-inkscape-font-specification:'DejaVu Sans Mono Bold';stroke-width:0.26458332"
           d="m 14.79357,209.56565 h 0.541741 v 0.22393 h -0.816488 v -0.21704 l 0.137804,-0.14642 q 0.245463,-0.26096 0.298001,-0.32125 0.0646,-0.0741 0.09302,-0.13092 0.02842,-0.0577 0.02842,-0.11368 0,-0.0861 -0.05254,-0.13264 -0.05168,-0.0474 -0.147278,-0.0474 -0.06804,0 -0.153307,0.0276 -0.0844,0.0267 -0.176561,0.0784 v -0.23685 q 0.09216,-0.0336 0.180006,-0.0508 0.08871,-0.0181 0.169671,-0.0181 0.204122,0 0.320394,0.0956 0.117133,0.0947 0.117133,0.25924 0,0.0758 -0.02584,0.14211 -0.02498,0.0663 -0.08699,0.14728 -0.04565,0.0586 -0.25063,0.26355 -0.111105,0.1111 -0.176561,0.17742 z" />
      </g>
    </g>
    <g
       aria-label="Tempo"
       style="font-style:normal;font-weight:normal;font-size:10.58333302px;line-height:1.25;font-family:sans-serif;letter-spacing:0px;word-spacing:0px;fill:#000000;fill-opacity:1;stroke:none;stroke-width:0.26458332"
       id="text930"
       transform="translate(0.52916667,1.0583333)">
      <path
         d="M 4.2939666,250.43333 H 3.8874453 v -1.70187 H 3.3651688 v -0.35554 h 1.4510744 v 0.35554 H 4.2939666 Z"
         style="font-style:normal;font-variant:normal;font-weight:bold;font-stretch:normal;font-size:2.82222247px;font-family:'DejaVu Sans Mono';-inkscape-font-specification:'DejaVu Sans Mono Bold';stroke-width:0.26458332"
         id="path932"
         inkscape:connector-curvature="0" />
      <path
         d="m 6.4574868,250.35754 q -0.1405599,0.0579 -0.286632,0.0868 -0.1460721,0.0289 -0.3086806,0.0289 -0.3872287,0 -0.5925565,-0.20671 -0.2039496,-0.20808 -0.2039496,-0.59807 0,-0.37758 0.1970595,-0.59669 0.1970594,-0.21911 0.5374349,-0.21911 0.3431315,0 0.5319228,0.20395 0.1901693,0.20258 0.1901693,0.57189 v 0.16399 H 5.4763235 q 0.00138,0.1819 0.107487,0.27147 0.1061089,0.0896 0.3169488,0.0896 0.1391819,0 0.2742296,-0.04 0.1350478,-0.04 0.2824979,-0.12678 z m -0.3417535,-0.86816 q -0.00276,-0.15985 -0.082682,-0.24116 -0.078548,-0.0827 -0.2328885,-0.0827 -0.1391819,0 -0.2218642,0.0854 -0.082682,0.0841 -0.097841,0.23978 z"
         style="font-style:normal;font-variant:normal;font-weight:bold;font-stretch:normal;font-size:2.82222247px;font-family:'DejaVu Sans Mono';-inkscape-font-specification:'DejaVu Sans Mono Bold';stroke-width:0.26458332"
         id="path934"
         inkscape:connector-curvature="0" />
      <path
         d="m 7.5874782,249.04427 q 0.045475,-0.0978 0.1157552,-0.14469 0.07028,-0.0469 0.1722548,-0.0469 0.1998155,0 0.2756076,0.13781 0.07717,0.1378 0.07717,0.57326 v 0.86954 h -0.330729 v -0.99081 q 0,-0.17225 -0.026183,-0.23013 -0.026183,-0.0579 -0.095085,-0.0579 -0.068902,0 -0.096463,0.0593 -0.027561,0.0593 -0.027561,0.22875 v 0.99081 H 7.3256509 v -0.99081 q 0,-0.16949 -0.027561,-0.22875 -0.027561,-0.0593 -0.096463,-0.0593 -0.068902,0 -0.095085,0.0579 -0.026183,0.0579 -0.026183,0.23013 v 0.99081 h -0.330728 v -1.5434 H 7.043153 v 0.15985 q 0.034451,-0.0909 0.1102431,-0.14331 0.075792,-0.0538 0.1694987,-0.0538 0.093707,0 0.1708768,0.0565 0.07717,0.0551 0.093707,0.13505 z"
         style="font-style:normal;font-variant:normal;font-weight:bold;font-stretch:normal;font-size:2.82222247px;font-family:'DejaVu Sans Mono';-inkscape-font-specification:'DejaVu Sans Mono Bold';stroke-width:0.26458332"
         id="path936"
         inkscape:connector-curvature="0" />
      <path
         d="m 8.9434676,250.2156 v 0.80478 H 8.5410804 v -2.13045 h 0.4023872 v 0.23151 q 0.06339,-0.13367 0.1667426,-0.20119 0.1033529,-0.0675 0.2425348,-0.0675 0.2645833,0 0.4106554,0.21222 0.1460721,0.21222 0.1460721,0.59807 0,0.39136 -0.1488282,0.60083 -0.1474501,0.20946 -0.4216797,0.20946 -0.1240234,0 -0.2232422,-0.0634 -0.097841,-0.0648 -0.1722548,-0.19431 z m 0.5622396,-0.55535 q 0,-0.22324 -0.074414,-0.35002 -0.074414,-0.12678 -0.2053277,-0.12678 -0.1309137,0 -0.2067058,0.12678 -0.075792,0.12678 -0.075792,0.35002 0,0.22325 0.075792,0.35003 0.075792,0.12678 0.2067058,0.12678 0.1309136,0 0.2053277,-0.12678 0.074414,-0.12678 0.074414,-0.35003 z"
         style="font-style:normal;font-variant:normal;font-weight:bold;font-stretch:normal;font-size:2.82222247px;font-family:'DejaVu Sans Mono';-inkscape-font-specification:'DejaVu Sans Mono Bold';stroke-width:0.26458332"
         id="path939"
         inkscape:connector-curvature="0" />
      <path
         d="m 10.88099,249.1807 q -0.144694,0 -0.227377,0.12816 -0.08268,0.12677 -0.08268,0.35415 0,0.22738 0.08268,0.35553 0.08268,0.12678 0.227377,0.12678 0.146072,0 0.228754,-0.12678 0.08268,-0.12815 0.08268,-0.35553 0,-0.22738 -0.08268,-0.35415 -0.08268,-0.12816 -0.228754,-0.12816 z m -0.713824,0.48231 q 0,-0.37345 0.192925,-0.59118 0.194304,-0.21911 0.520899,-0.21911 0.327973,0 0.520898,0.21911 0.194304,0.21773 0.194304,0.59118 0,0.37345 -0.194304,0.59256 -0.192925,0.21773 -0.520898,0.21773 -0.326595,0 -0.520899,-0.21773 -0.192925,-0.21911 -0.192925,-0.59256 z"
         style="font-style:normal;font-variant:normal;font-weight:bold;font-stretch:normal;font-size:2.82222247px;font-family:'DejaVu Sans Mono';-inkscape-font-specification:'DejaVu Sans Mono Bold';stroke-width:0.26458332"
         id="path941"
         inkscape:connector-curvature="0" />
    </g>
    <path
       style="opacity:1;fill:#6a6a6a;fill-opacity:1;fill-rule:evenodd;stroke:none;stroke-width:0.5;stroke-miterlimit:4;stroke-dasharray:none;stroke-opacity:1"
       d="m 21.850247,270.12344 h 7.640663 v 9.6748 h -7.640663 z"
       id="rect860-8-6"
       inkscape:connector-curvature="0" />
    <path
       style="opacity:1;fill:#6a6a6a;fill-opacity:1;fill-rule:evenodd;stroke:none;stroke-width:0.5;stroke-miterlimit:4;stroke-dasharray:none;stroke-opacity:1"
       d="m 21.850046,282.19704 h 7.640777 v 9.6748 h -7.640777 z"
       id="rect860-4"
       inkscape:connector-curvature="0" />
    <g
       aria-label="LFO"
       style="font-style:normal;font-weight:normal;font-size:10.58333302px;line-height:1.25;font-family:sans-serif;letter-spacing:0px;word-spacing:0px;fill:#000000;fill-opacity:1;stroke:none;stroke-width:0.26458332"
       id="text984-9-6"
       transform="translate(-0.52916667)">
      <path
         d="m 17.719595,288.83987 v -1.54305 h 0.304891 v 1.27434 h 0.652156 v 0.26871 z"
         style="font-style:normal;font-variant:normal;font-weight:bold;font-stretch:normal;font-size:2.11666656px;font-family:'DejaVu Sans Mono';-inkscape-font-specification:'DejaVu Sans Mono Bold';stroke-width:0.26458332"
         id="path1235"
         inkscape:connector-curvature="0" />
      <path
         d="m 19.909642,287.56553 h -0.656291 v 0.3328 h 0.59738 v 0.26872 h -0.59738 v 0.67282 H 18.94846 v -1.54305 h 0.961182 z"
         style="font-style:normal;font-variant:normal;font-weight:bold;font-stretch:normal;font-size:2.11666656px;font-family:'DejaVu Sans Mono';-inkscape-font-specification:'DejaVu Sans Mono Bold';stroke-width:0.26458332"
         id="path1237"
         inkscape:connector-curvature="0" />
      <path
         d="m 20.670319,287.5428 q -0.116789,0 -0.170532,0.12505 -0.05374,0.12403 -0.05374,0.40205 0,0.27698 0.05374,0.40204 0.05374,0.12402 0.170532,0.12402 0.117822,0 0.171566,-0.12402 0.05374,-0.12506 0.05374,-0.40204 0,-0.27802 -0.05374,-0.40205 -0.05374,-0.12505 -0.171566,-0.12505 z m -0.541569,0.5271 q 0,-0.39585 0.136426,-0.59842 0.137459,-0.20257 0.405143,-0.20257 0.268717,0 0.405143,0.20257 0.13746,0.20257 0.13746,0.59842 0,0.3948 -0.13746,0.59737 -0.136426,0.20258 -0.405143,0.20258 -0.267684,0 -0.405143,-0.20258 -0.136426,-0.20257 -0.136426,-0.59737 z"
         style="font-style:normal;font-variant:normal;font-weight:bold;font-stretch:normal;font-size:2.11666656px;font-family:'DejaVu Sans Mono';-inkscape-font-specification:'DejaVu Sans Mono Bold';stroke-width:0.26458332"
         id="path1239"
         inkscape:connector-curvature="0" />
    </g>
    <g
       aria-label="Sample"
       style="font-style:normal;font-weight:normal;font-size:10.58333302px;line-height:1.25;font-family:sans-serif;letter-spacing:0px;word-spacing:0px;fill:#000000;fill-opacity:1;stroke:none;stroke-width:0.26458332"
       id="text984-9-6-3"
       transform="translate(0.52916667)">
      <path
         d="m 10.517087,262.5738 q -0.230477,-0.0879 -0.312126,-0.18397 -0.08165,-0.0971 -0.08165,-0.26045 0,-0.2098 0.134358,-0.32969 0.134359,-0.11989 0.36897,-0.11989 0.106453,0 0.212907,0.0248 0.106453,0.0238 0.21084,0.0713 v 0.29765 q -0.09819,-0.0692 -0.199471,-0.10542 -0.101286,-0.0362 -0.200505,-0.0362 -0.110587,0 -0.169499,0.0444 -0.05891,0.0444 -0.05891,0.12713 0,0.0641 0.04237,0.10645 0.04341,0.0413 0.179834,0.092 l 0.131258,0.0496 q 0.186035,0.0682 0.273885,0.18087 0.08785,0.11266 0.08785,0.28422 0,0.23358 -0.138493,0.34933 -0.137459,0.11473 -0.416512,0.11473 -0.114721,0 -0.230477,-0.0279 -0.114721,-0.0269 -0.222208,-0.0806 v -0.31522 q 0.121956,0.0868 0.235644,0.12919 0.114722,0.0424 0.226343,0.0424 0.112655,0 0.174666,-0.0506 0.06201,-0.0517 0.06201,-0.14366 0,-0.0693 -0.04134,-0.12092 -0.04134,-0.0527 -0.119889,-0.0827 z"
         style="font-style:normal;font-variant:normal;font-weight:bold;font-stretch:normal;font-size:2.11666656px;font-family:'DejaVu Sans Mono';-inkscape-font-specification:'DejaVu Sans Mono Bold';stroke-width:0.26458332"
         id="path1116"
         inkscape:connector-curvature="0" />
      <path
         d="m 11.986765,262.70713 q -0.169499,0 -0.236678,0.0434 -0.06718,0.0434 -0.06718,0.14882 0,0.0786 0.04651,0.12506 0.04651,0.0465 0.12609,0.0465 0.11989,0 0.186036,-0.0899 0.06615,-0.091 0.06615,-0.25321 v -0.0207 z m 0.421679,-0.11679 v 0.66042 h -0.300757 v -0.12919 q -0.05478,0.0765 -0.140559,0.11782 -0.08578,0.0413 -0.189136,0.0413 -0.197404,0 -0.307992,-0.10439 -0.109554,-0.10439 -0.109554,-0.29146 0,-0.20257 0.131258,-0.29869 0.131259,-0.0971 0.406177,-0.0971 h 0.209806 v -0.0506 q 0,-0.0734 -0.05374,-0.11059 -0.05271,-0.0382 -0.156063,-0.0382 -0.10852,0 -0.21084,0.0279 -0.101286,0.0269 -0.211873,0.0868 v -0.25838 q 0.100252,-0.0413 0.203605,-0.061 0.103353,-0.0196 0.219108,-0.0196 0.282153,0 0.395842,0.11472 0.114721,0.11472 0.114721,0.41031 z"
         style="font-style:normal;font-variant:normal;font-weight:bold;font-stretch:normal;font-size:2.11666656px;font-family:'DejaVu Sans Mono';-inkscape-font-specification:'DejaVu Sans Mono Bold';stroke-width:0.26458332"
         id="path1118"
         inkscape:connector-curvature="0" />
      <path
         d="m 13.249737,262.20897 q 0.03411,-0.0734 0.08682,-0.10852 0.05271,-0.0351 0.129191,-0.0351 0.149862,0 0.206706,0.10335 0.05788,0.10335 0.05788,0.42995 v 0.65215 H 13.48228 v -0.7431 q 0,-0.1292 -0.01964,-0.1726 -0.01964,-0.0434 -0.07131,-0.0434 -0.05168,0 -0.07235,0.0444 -0.02067,0.0444 -0.02067,0.17157 v 0.7431 h -0.244946 v -0.7431 q 0,-0.12713 -0.02067,-0.17157 -0.02067,-0.0444 -0.07235,-0.0444 -0.05168,0 -0.07131,0.0434 -0.01964,0.0434 -0.01964,0.1726 v 0.7431 h -0.248047 v -1.15755 h 0.220142 v 0.11989 q 0.02584,-0.0682 0.08268,-0.10749 0.05684,-0.0403 0.127124,-0.0403 0.07028,0 0.128158,0.0424 0.05788,0.0413 0.07028,0.10129 z"
         style="font-style:normal;font-variant:normal;font-weight:bold;font-stretch:normal;font-size:2.11666656px;font-family:'DejaVu Sans Mono';-inkscape-font-specification:'DejaVu Sans Mono Bold';stroke-width:0.26458332"
         id="path1120"
         inkscape:connector-curvature="0" />
      <path
         d="m 14.266729,263.08747 v 0.60358 h -0.301791 v -1.59784 h 0.301791 v 0.17363 q 0.04754,-0.10025 0.125056,-0.15089 0.07752,-0.0506 0.181901,-0.0506 0.198438,0 0.307992,0.15916 0.109554,0.15916 0.109554,0.44855 0,0.29352 -0.111621,0.45062 -0.110588,0.1571 -0.31626,0.1571 -0.09302,0 -0.167431,-0.0476 -0.07338,-0.0486 -0.129191,-0.14572 z m 0.421679,-0.41652 q 0,-0.16743 -0.05581,-0.26251 -0.05581,-0.0951 -0.153996,-0.0951 -0.09819,0 -0.155029,0.0951 -0.05684,0.0951 -0.05684,0.26251 0,0.16744 0.05684,0.26252 0.05684,0.0951 0.155029,0.0951 0.09818,0 0.153996,-0.0951 0.05581,-0.0951 0.05581,-0.26252 z"
         style="font-style:normal;font-variant:normal;font-weight:bold;font-stretch:normal;font-size:2.11666656px;font-family:'DejaVu Sans Mono';-inkscape-font-specification:'DejaVu Sans Mono Bold';stroke-width:0.26458332"
         id="path1122"
         inkscape:connector-curvature="0" />
      <path
         d="m 15.483192,262.76811 v -0.89297 h -0.306958 v -0.23255 h 0.609782 v 1.12552 q 0,0.13642 0.04237,0.19326 0.04237,0.0568 0.143661,0.0568 h 0.241845 v 0.23254 h -0.326595 q -0.216007,0 -0.310058,-0.11162 -0.09405,-0.11162 -0.09405,-0.37103 z"
         style="font-style:normal;font-variant:normal;font-weight:bold;font-stretch:normal;font-size:2.11666656px;font-family:'DejaVu Sans Mono';-inkscape-font-specification:'DejaVu Sans Mono Bold';stroke-width:0.26458332"
         id="path1124"
         inkscape:connector-curvature="0" />
      <path
         d="m 17.495472,263.19392 q -0.10542,0.0434 -0.214974,0.0651 -0.109554,0.0217 -0.23151,0.0217 -0.290422,0 -0.444418,-0.15503 -0.152962,-0.15607 -0.152962,-0.44856 0,-0.28318 0.147795,-0.44751 0.147794,-0.16433 0.403076,-0.16433 0.257349,0 0.398942,0.15296 0.142627,0.15193 0.142627,0.42891 v 0.12299 H 16.7596 q 0.001,0.13643 0.08062,0.20361 0.07958,0.0672 0.237711,0.0672 0.104387,0 0.205673,-0.03 0.101285,-0.03 0.211873,-0.0951 z m -0.256315,-0.65112 q -0.0021,-0.11989 -0.06201,-0.18087 -0.05891,-0.062 -0.174666,-0.062 -0.104387,0 -0.166398,0.0641 -0.06201,0.063 -0.07338,0.17983 z"
         style="font-style:normal;font-variant:normal;font-weight:bold;font-stretch:normal;font-size:2.11666656px;font-family:'DejaVu Sans Mono';-inkscape-font-specification:'DejaVu Sans Mono Bold';stroke-width:0.26458332"
         id="path1126"
         inkscape:connector-curvature="0" />
    </g>
    <g
       aria-label="Rst"
       style="font-style:normal;font-weight:normal;font-size:10.58333302px;line-height:1.25;font-family:sans-serif;letter-spacing:0px;word-spacing:0px;fill:#000000;fill-opacity:1;stroke:none;stroke-width:0.26458332"
       id="text984-9-6-8"
       transform="translate(0.52916667)">
      <path
         d="m 10.866003,286.79028 q 0.04548,0.009 0.07855,0.0434 0.03411,0.0331 0.08268,0.13023 l 0.279053,0.555 h -0.334863 l -0.186035,-0.38964 q -0.0083,-0.0165 -0.0217,-0.0455 -0.08165,-0.17467 -0.192236,-0.17467 h -0.09715 v 0.60978 h -0.30489 v -1.54306 h 0.440283 q 0.297656,0 0.426847,0.10542 0.130225,0.10542 0.130225,0.34313 0,0.15917 -0.07752,0.25322 -0.07752,0.094 -0.223242,0.11265 z m -0.391708,-0.5581 v 0.42064 h 0.143661 q 0.125057,0 0.1788,-0.0486 0.05478,-0.0496 0.05478,-0.16227 0,-0.11265 -0.05374,-0.16123 -0.05374,-0.0486 -0.179834,-0.0486 z"
         style="font-style:normal;font-variant:normal;font-weight:bold;font-stretch:normal;font-size:2.11666656px;font-family:'DejaVu Sans Mono';-inkscape-font-specification:'DejaVu Sans Mono Bold';stroke-width:0.26458332"
         id="path1109"
         inkscape:connector-curvature="0" />
      <path
         d="m 12.329479,286.39754 v 0.26459 q -0.08372,-0.0537 -0.174666,-0.0806 -0.08992,-0.0279 -0.180868,-0.0279 -0.101285,0 -0.152962,0.03 -0.05168,0.0289 -0.05168,0.0868 0,0.0827 0.221175,0.13436 l 0.01137,0.003 0.08682,0.0207 q 0.165365,0.0393 0.241846,0.12713 0.07751,0.0868 0.07751,0.23564 0,0.1788 -0.117822,0.26872 -0.116789,0.0889 -0.352433,0.0889 -0.104386,0 -0.21394,-0.0186 -0.109555,-0.0176 -0.222209,-0.0537 v -0.26459 q 0.100252,0.0568 0.203605,0.0868 0.104386,0.03 0.201538,0.03 0.106454,0 0.161231,-0.031 0.05478,-0.031 0.05478,-0.0899 0,-0.0579 -0.03927,-0.0889 -0.03824,-0.031 -0.183968,-0.0661 l -0.08371,-0.0186 q -0.173633,-0.0393 -0.253215,-0.12299 -0.07958,-0.0837 -0.07958,-0.22428 0,-0.16743 0.120923,-0.26045 0.120923,-0.093 0.340031,-0.093 0.09819,0 0.195337,0.0165 0.09818,0.0155 0.190169,0.0475 z"
         style="font-style:normal;font-variant:normal;font-weight:bold;font-stretch:normal;font-size:2.11666656px;font-family:'DejaVu Sans Mono';-inkscape-font-specification:'DejaVu Sans Mono Bold';stroke-width:0.26458332"
         id="path1111"
         inkscape:connector-curvature="0" />
      <path
         d="m 13.291694,286.03271 v 0.32866 h 0.395842 v 0.23254 h -0.395842 v 0.54777 q 0,0.0775 0.03721,0.11162 0.03824,0.0331 0.126091,0.0331 h 0.232544 v 0.23254 h -0.254248 q -0.260449,0 -0.352433,-0.0827 -0.09198,-0.0837 -0.09198,-0.30903 v -0.5333 h -0.295589 v -0.23254 h 0.295589 v -0.32866 z"
         style="font-style:normal;font-variant:normal;font-weight:bold;font-stretch:normal;font-size:2.11666656px;font-family:'DejaVu Sans Mono';-inkscape-font-specification:'DejaVu Sans Mono Bold';stroke-width:0.26458332"
         id="path1113"
         inkscape:connector-curvature="0" />
    </g>
    <g
       aria-label="S&amp;H"
       style="font-style:normal;font-weight:normal;font-size:10.58333302px;line-height:1.25;font-family:sans-serif;letter-spacing:0px;word-spacing:0px;fill:#000000;fill-opacity:1;stroke:none;stroke-width:0.26458332"
       id="text984-9-6-34"
       transform="translate(-0.52916667)">
      <path
         d="m 18.165815,273.91877 q -0.230477,-0.0879 -0.312125,-0.18397 -0.08165,-0.0971 -0.08165,-0.26044 0,-0.20981 0.134359,-0.3297 0.134358,-0.11989 0.368969,-0.11989 0.106454,0 0.212907,0.0248 0.106454,0.0238 0.21084,0.0713 v 0.29765 q -0.09819,-0.0692 -0.199471,-0.10542 -0.101286,-0.0362 -0.200504,-0.0362 -0.110588,0 -0.169499,0.0444 -0.05891,0.0444 -0.05891,0.12713 0,0.0641 0.04237,0.10645 0.04341,0.0413 0.179834,0.092 l 0.131258,0.0496 q 0.186036,0.0682 0.273886,0.18087 0.08785,0.11266 0.08785,0.28422 0,0.23358 -0.138492,0.34933 -0.13746,0.11473 -0.416512,0.11473 -0.114722,0 -0.230477,-0.0279 -0.114722,-0.0269 -0.222209,-0.0806 v -0.31523 q 0.121956,0.0868 0.235645,0.12919 0.114721,0.0424 0.226342,0.0424 0.112655,0 0.174667,-0.0506 0.06201,-0.0517 0.06201,-0.14366 0,-0.0692 -0.04134,-0.12092 -0.04134,-0.0527 -0.119889,-0.0827 z"
         style="font-style:normal;font-variant:normal;font-weight:bold;font-stretch:normal;font-size:2.11666656px;line-height:0px;font-family:'DejaVu Sans Mono';-inkscape-font-specification:'DejaVu Sans Mono Bold';letter-spacing:0px;stroke-width:0.26458332"
         id="path1228"
         inkscape:connector-curvature="0" />
      <path
         d="m 19.811193,274.52132 q -0.07751,0.0517 -0.165365,0.0775 -0.08682,0.0269 -0.176733,0.0269 -0.231511,0 -0.375171,-0.1354 -0.14366,-0.13539 -0.14366,-0.3514 0,-0.14986 0.07235,-0.27285 0.07338,-0.12299 0.217041,-0.21394 -0.05168,-0.0806 -0.07648,-0.14883 -0.0248,-0.0692 -0.0248,-0.13125 0,-0.16744 0.112654,-0.25735 0.112655,-0.0899 0.325562,-0.0899 0.07545,0 0.147794,0.0114 0.07235,0.0114 0.142627,0.0331 v 0.26459 q -0.06614,-0.0372 -0.134358,-0.0558 -0.06718,-0.0196 -0.134359,-0.0196 -0.08268,0 -0.125057,0.0289 -0.04237,0.0289 -0.04237,0.0848 0,0.0372 0.03101,0.10232 0.03204,0.0651 0.102319,0.17053 l 0.323495,0.49609 q 0.0217,-0.0393 0.03307,-0.0899 0.01137,-0.0506 0.01137,-0.10955 0,-0.031 -0.0021,-0.0599 -0.0021,-0.03 -0.0062,-0.0558 h 0.24288 v 0.0527 q 0,0.14987 -0.03514,0.26252 -0.03514,0.11162 -0.110588,0.20051 l 0.167432,0.25424 h -0.327629 z m -0.444417,-0.6811 q -0.06821,0.0445 -0.103353,0.10646 -0.03411,0.061 -0.03411,0.13642 0,0.12609 0.08061,0.21291 0.08165,0.0858 0.199471,0.0858 0.02894,0 0.05891,-0.006 0.03101,-0.007 0.05994,-0.0196 0.0021,-10e-4 0.0083,-0.004 0.02997,-0.0145 0.04858,-0.0269 z"
         style="font-style:normal;font-variant:normal;font-weight:bold;font-stretch:normal;font-size:2.11666656px;line-height:0px;font-family:'DejaVu Sans Mono';-inkscape-font-specification:'DejaVu Sans Mono Bold';letter-spacing:0px;stroke-width:0.26458332"
         id="path1230"
         inkscape:connector-curvature="0" />
      <path
         d="m 20.326924,273.05268 h 0.304891 v 0.58807 h 0.381372 v -0.58807 h 0.30489 v 1.54305 h -0.30489 v -0.68626 h -0.381372 v 0.68626 h -0.304891 z"
         style="font-style:normal;font-variant:normal;font-weight:bold;font-stretch:normal;font-size:2.11666656px;line-height:0px;font-family:'DejaVu Sans Mono';-inkscape-font-specification:'DejaVu Sans Mono Bold';letter-spacing:0px;stroke-width:0.26458332"
         id="path1232"
         inkscape:connector-curvature="0" />
    </g>
    <g
       aria-label="SQR"
       style="font-style:normal;font-weight:normal;font-size:10.58333302px;line-height:1.25;font-family:sans-serif;letter-spacing:0px;word-spacing:0px;fill:#000000;fill-opacity:1;stroke:none;stroke-width:0.26458332"
       id="text984-9-6-35"
       transform="translate(-0.52916667)">
      <path
         d="m 18.051886,286.24238 q -0.230477,-0.0879 -0.312126,-0.18397 -0.08165,-0.0971 -0.08165,-0.26045 0,-0.2098 0.134359,-0.32969 0.134359,-0.11989 0.36897,-0.11989 0.106453,0 0.212906,0.0248 0.106454,0.0238 0.21084,0.0713 v 0.29765 q -0.09819,-0.0692 -0.199471,-0.10542 -0.101285,-0.0362 -0.200504,-0.0362 -0.110588,0 -0.169499,0.0444 -0.05891,0.0444 -0.05891,0.12713 0,0.0641 0.04237,0.10645 0.04341,0.0413 0.179834,0.092 l 0.131258,0.0496 q 0.186035,0.0682 0.273885,0.18087 0.08785,0.11265 0.08785,0.28422 0,0.23358 -0.138493,0.34933 -0.137459,0.11472 -0.416512,0.11472 -0.114722,0 -0.230477,-0.0279 -0.114722,-0.0269 -0.222209,-0.0806 v -0.31522 q 0.121957,0.0868 0.235645,0.12919 0.114722,0.0424 0.226343,0.0424 0.112654,0 0.174666,-0.0506 0.06201,-0.0517 0.06201,-0.14366 0,-0.0693 -0.04134,-0.12092 -0.04134,-0.0527 -0.11989,-0.0827 z"
         style="font-style:normal;font-variant:normal;font-weight:bold;font-stretch:normal;font-size:2.11666656px;font-family:'DejaVu Sans Mono';-inkscape-font-specification:'DejaVu Sans Mono Bold';stroke-width:0.26458332"
         id="path1221"
         inkscape:connector-curvature="0" />
      <path
         d="m 19.476088,286.94311 q -0.01447,0.003 -0.02481,0.004 -0.0093,0.002 -0.0186,0.002 -0.265617,0 -0.403076,-0.20257 -0.136426,-0.20257 -0.136426,-0.59738 0,-0.39584 0.136426,-0.59841 0.137459,-0.20257 0.405143,-0.20257 0.268717,0 0.405143,0.20257 0.137459,0.20257 0.137459,0.59841 0,0.27182 -0.06511,0.45579 -0.06511,0.18293 -0.189136,0.26148 l 0.192237,0.1881 -0.208773,0.15503 z m -0.04134,-1.32085 q -0.116789,0 -0.170532,0.12506 -0.05374,0.12402 -0.05374,0.40204 0,0.27699 0.05374,0.40205 0.05374,0.12402 0.170532,0.12402 0.117822,0 0.171566,-0.12402 0.05374,-0.12506 0.05374,-0.40205 0,-0.27802 -0.05374,-0.40204 -0.05374,-0.12506 -0.171566,-0.12506 z"
         style="font-style:normal;font-variant:normal;font-weight:bold;font-stretch:normal;font-size:2.11666656px;font-family:'DejaVu Sans Mono';-inkscape-font-specification:'DejaVu Sans Mono Bold';stroke-width:0.26458332"
         id="path1223"
         inkscape:connector-curvature="0" />
      <path
         d="m 20.905458,286.1907 q 0.04547,0.009 0.07855,0.0434 0.03411,0.0331 0.08268,0.13023 l 0.279053,0.555 h -0.334863 l -0.186035,-0.38964 q -0.0083,-0.0165 -0.0217,-0.0455 -0.08165,-0.17467 -0.192237,-0.17467 h -0.09715 v 0.60978 H 20.20886 v -1.54306 h 0.440283 q 0.297656,0 0.426847,0.10542 0.130225,0.10542 0.130225,0.34314 0,0.15916 -0.07752,0.25321 -0.07751,0.094 -0.223242,0.11265 z m -0.391707,-0.5581 v 0.42065 h 0.14366 q 0.125057,0 0.178801,-0.0486 0.05478,-0.0496 0.05478,-0.16226 0,-0.11266 -0.05374,-0.16124 -0.05374,-0.0486 -0.179834,-0.0486 z"
         style="font-style:normal;font-variant:normal;font-weight:bold;font-stretch:normal;font-size:2.11666656px;font-family:'DejaVu Sans Mono';-inkscape-font-specification:'DejaVu Sans Mono Bold';stroke-width:0.26458332"
         id="path1225"
         inkscape:connector-curvature="0" />
    </g>
    <g
       aria-label="Out"
       style="font-style:normal;font-weight:normal;font-size:10.58333302px;line-height:1.25;font-family:sans-serif;letter-spacing:0px;word-spacing:0px;fill:#000000;fill-opacity:1;stroke:none;stroke-width:0.26458332"
       id="text984-9-6-34-9"
       transform="translate(-0.52916667)">
      <path
         d="m 18.25769,275.07514 q -0.116789,0 -0.170532,0.12506 -0.05374,0.12402 -0.05374,0.40204 0,0.27699 0.05374,0.40205 0.05374,0.12402 0.170532,0.12402 0.117822,0 0.171566,-0.12402 0.05374,-0.12506 0.05374,-0.40205 0,-0.27802 -0.05374,-0.40204 -0.05374,-0.12506 -0.171566,-0.12506 z m -0.541569,0.5271 q 0,-0.39584 0.136426,-0.59841 0.137459,-0.20257 0.405143,-0.20257 0.268718,0 0.405143,0.20257 0.13746,0.20257 0.13746,0.59841 0,0.39481 -0.13746,0.59738 -0.136425,0.20258 -0.405143,0.20258 -0.267684,0 -0.405143,-0.20258 -0.136426,-0.20257 -0.136426,-0.59738 z"
         style="font-style:normal;font-variant:normal;font-weight:bold;font-stretch:normal;font-size:2.11666656px;line-height:0px;font-family:'DejaVu Sans Mono';-inkscape-font-specification:'DejaVu Sans Mono Bold';letter-spacing:0px;stroke-width:0.26458332"
         id="path1214"
         inkscape:connector-curvature="0" />
      <path
         d="m 19.059708,275.96811 v -0.75344 h 0.302824 v 0.70693 q 0,0.12506 0.03514,0.1788 0.03514,0.0538 0.116789,0.0538 0.08165,0 0.127124,-0.0724 0.04651,-0.0723 0.04651,-0.20257 v -0.66456 h 0.302824 v 1.15755 h -0.302824 v -0.17156 q -0.03204,0.0961 -0.109554,0.14883 -0.07648,0.0527 -0.185002,0.0527 -0.165365,0 -0.250114,-0.10956 -0.08372,-0.10955 -0.08372,-0.32453 z"
         style="font-style:normal;font-variant:normal;font-weight:bold;font-stretch:normal;font-size:2.11666656px;line-height:0px;font-family:'DejaVu Sans Mono';-inkscape-font-specification:'DejaVu Sans Mono Bold';letter-spacing:0px;stroke-width:0.26458332"
         id="path1216"
         inkscape:connector-curvature="0" />
      <path
         d="m 20.880786,274.88601 v 0.32866 h 0.395841 v 0.23254 h -0.395841 v 0.54777 q 0,0.0775 0.03721,0.11163 0.03824,0.0331 0.12609,0.0331 h 0.232544 v 0.23254 h -0.254248 q -0.260449,0 -0.352433,-0.0827 -0.09198,-0.0837 -0.09198,-0.30902 v -0.53331 H 20.28238 v -0.23254 h 0.295589 v -0.32866 z"
         style="font-style:normal;font-variant:normal;font-weight:bold;font-stretch:normal;font-size:2.11666656px;line-height:0px;font-family:'DejaVu Sans Mono';-inkscape-font-specification:'DejaVu Sans Mono Bold';letter-spacing:0px;stroke-width:0.26458332"
         id="path1218"
         inkscape:connector-curvature="0" />
    </g>
    <g
       aria-label="FM"
       style="font-style:normal;font-weight:normal;font-size:10.58333302px;line-height:1.25;font-family:sans-serif;letter-spacing:0px;word-spacing:0px;fill:#000000;fill-opacity:1;stroke:none;stroke-width:0.26458332"
       id="text1207"
       transform="translate(-0.52916667)">
      <path
         d="m 22.790328,243.03298 h -0.875054 v 0.44373 h 0.796506 v 0.35829 h -0.796506 v 0.8971 h -0.406521 v -2.05741 h 1.281575 z"
         style="font-style:normal;font-variant:normal;font-weight:bold;font-stretch:normal;font-size:2.82222223px;font-family:'DejaVu Sans Mono';-inkscape-font-specification:'DejaVu Sans Mono Bold';stroke-width:0.26458332"
         id="path1209"
         inkscape:connector-curvature="0" />
      <path
         d="m 23.074204,242.67469 h 0.48507 l 0.24529,0.90262 0.243913,-0.90262 h 0.487826 v 2.05741 h -0.350022 v -1.64813 l -0.21773,0.89986 h -0.323839 l -0.220486,-0.89986 v 1.64813 h -0.350022 z"
         style="font-style:normal;font-variant:normal;font-weight:bold;font-stretch:normal;font-size:2.82222223px;font-family:'DejaVu Sans Mono';-inkscape-font-specification:'DejaVu Sans Mono Bold';stroke-width:0.26458332"
         id="path1211"
         inkscape:connector-curvature="0" />
    </g>
    <g
       aria-label="BI"
       style="font-style:normal;font-weight:normal;font-size:10.58333302px;line-height:1.25;font-family:sans-serif;letter-spacing:0px;word-spacing:0px;fill:#000000;fill-opacity:1;stroke:none;stroke-width:0.26458332"
       id="text1244"
       transform="translate(-0.77770028,0.37417733)">
      <path
         d="m 7.1587374,212.23429 v 0.65956 h 0.2881822 q 0.2122179,0 0.3026517,-0.0735 0.090434,-0.0748 0.090434,-0.24478 0,-0.17604 -0.095257,-0.25804 -0.095257,-0.0832 -0.2978285,-0.0832 z m 0,-0.74036 v 0.54261 h 0.2833591 q 0.1760444,0 0.2544203,-0.0675 0.079582,-0.0675 0.079582,-0.21824 0,-0.13626 -0.078376,-0.19655 -0.07717,-0.0603 -0.2556261,-0.0603 z m -0.2447741,-0.20016 h 0.5329563 q 0.2761244,0 0.4256416,0.11938 0.1495171,0.11937 0.1495171,0.33762 0,0.16519 -0.079582,0.26045 -0.078376,0.0952 -0.2363335,0.11937 0.1772501,0.0265 0.2773302,0.15193 0.1012858,0.12419 0.1012858,0.31712 0,0.24477 -0.1603692,0.37017 -0.1603692,0.1242 -0.4774903,0.1242 h -0.532956 z"
         style="font-style:normal;font-variant:normal;font-weight:normal;font-stretch:normal;font-size:2.46944451px;font-family:'DejaVu Sans Mono';-inkscape-font-specification:'DejaVu Sans Mono';stroke-width:0.26458332"
         id="path1257"
         inkscape:connector-curvature="0" />
      <path
         d="m 8.441691,211.29377 h 0.9995945 v 0.20499 H 9.0638753 v 1.39027 h 0.3774102 v 0.20498 H 8.441691 v -0.20498 h 0.3774102 v -1.39027 H 8.441691 Z"
         style="font-style:normal;font-variant:normal;font-weight:normal;font-stretch:normal;font-size:2.46944451px;font-family:'DejaVu Sans Mono';-inkscape-font-specification:'DejaVu Sans Mono';stroke-width:0.26458332"
         id="path1259"
         inkscape:connector-curvature="0" />
    </g>
    <g
       aria-label="UNI"
       style="font-style:normal;font-weight:normal;font-size:10.58333302px;line-height:1.25;font-family:sans-serif;letter-spacing:0px;word-spacing:0px;fill:#000000;fill-opacity:1;stroke:none;stroke-width:0.26458332"
       id="text1248"
       transform="translate(-0.77770028,0.90334396)">
      <path
         d="M 6.0807636,201.83632 V 200.727 h 0.244774 v 1.22026 q 0,0.13143 0.00723,0.1881 0.00723,0.0555 0.025321,0.0856 0.038585,0.0711 0.1109321,0.10731 0.073553,0.0362 0.1772501,0.0362 0.1049032,0 0.1772502,-0.0362 0.072347,-0.0362 0.1121379,-0.10731 0.018087,-0.0301 0.025321,-0.0856 0.00723,-0.0555 0.00723,-0.18569 V 200.727 h 0.2435683 v 1.10932 q 0,0.27613 -0.034968,0.39309 -0.033762,0.11575 -0.1181668,0.19172 -0.079582,0.0711 -0.1820733,0.10611 -0.1024916,0.035 -0.2303047,0.035 -0.1266072,0 -0.2290988,-0.035 -0.1024916,-0.035 -0.1832791,-0.10611 -0.083199,-0.0748 -0.1181668,-0.19293 -0.034968,-0.11937 -0.034968,-0.39188 z"
         style="font-style:normal;font-variant:normal;font-weight:normal;font-stretch:normal;font-size:2.46944451px;font-family:'DejaVu Sans Mono';-inkscape-font-specification:'DejaVu Sans Mono';stroke-width:0.26458332"
         id="path1250"
         inkscape:connector-curvature="0" />
      <path
         d="m 7.5566426,200.727 h 0.3086805 l 0.6077149,1.48191 V 200.727 h 0.2351278 v 1.80024 H 8.3994852 l -0.6077148,-1.48191 v 1.48191 H 7.5566426 Z"
         style="font-style:normal;font-variant:normal;font-weight:normal;font-stretch:normal;font-size:2.46944451px;font-family:'DejaVu Sans Mono';-inkscape-font-specification:'DejaVu Sans Mono';stroke-width:0.26458332"
         id="path1252"
         inkscape:connector-curvature="0" />
      <path
         d="m 9.1169264,200.727 h 0.9995946 v 0.20499 H 9.7391107 v 1.39026 h 0.3774103 v 0.20499 H 9.1169264 v -0.20499 h 0.3774102 v -1.39026 H 9.1169264 Z"
         style="font-style:normal;font-variant:normal;font-weight:normal;font-stretch:normal;font-size:2.46944451px;font-family:'DejaVu Sans Mono';-inkscape-font-specification:'DejaVu Sans Mono';stroke-width:0.26458332"
         id="path1254"
         inkscape:connector-curvature="0" />
    </g>
    <g
       aria-label="FM"
       style="font-style:normal;font-variant:normal;font-weight:bold;font-stretch:normal;font-size:2.11666656px;line-height:1.25;font-family:'DejaVu Sans Mono';-inkscape-font-specification:'DejaVu Sans Mono Bold';letter-spacing:0px;word-spacing:0px;fill:#000000;fill-opacity:1;stroke:none;stroke-width:0.26458332"
       id="text911">
      <path
         d="M 11.666471,274.12904 H 11.01018 v 0.3328 h 0.59738 v 0.26871 h -0.59738 v 0.67283 h -0.304891 v -1.54306 h 0.961182 z"
         style="font-style:normal;font-variant:normal;font-weight:bold;font-stretch:normal;font-size:2.11666656px;font-family:'DejaVu Sans Mono';-inkscape-font-specification:'DejaVu Sans Mono Bold';stroke-width:0.26458332"
         id="path913" />
      <path
         d="m 11.879378,273.86032 h 0.363802 l 0.183968,0.67696 0.182934,-0.67696 h 0.36587 v 1.54306 h -0.262517 v -1.2361 l -0.163297,0.6749 h -0.242879 l -0.165365,-0.6749 v 1.2361 h -0.262516 z"
         style="font-style:normal;font-variant:normal;font-weight:bold;font-stretch:normal;font-size:2.11666656px;font-family:'DejaVu Sans Mono';-inkscape-font-specification:'DejaVu Sans Mono Bold';stroke-width:0.26458332"
         id="path915" />
    </g>
  </g>
</svg>
