<?xml version="1.0" encoding="UTF-8" standalone="no"?>
<!-- Created with Inkscape (http://www.inkscape.org/) -->

<svg
   xmlns:dc="http://purl.org/dc/elements/1.1/"
   xmlns:cc="http://creativecommons.org/ns#"
   xmlns:rdf="http://www.w3.org/1999/02/22-rdf-syntax-ns#"
   xmlns:svg="http://www.w3.org/2000/svg"
   xmlns="http://www.w3.org/2000/svg"
   xmlns:sodipodi="http://sodipodi.sourceforge.net/DTD/sodipodi-0.dtd"
   xmlns:inkscape="http://www.inkscape.org/namespaces/inkscape"
   width="150"
   height="380"
   viewBox="0 0 39.687499 100.54167"
   version="1.1"
   id="svg888"
   inkscape:version="0.92.2 (5c3e80d, 2017-08-06)"
   sodipodi:docname="SwitchedMult.svg">
  <defs
     id="defs882" />
  <sodipodi:namedview
     id="base"
     pagecolor="#ffffff"
     bordercolor="#666666"
     borderopacity="1.0"
     inkscape:pageopacity="0.0"
     inkscape:pageshadow="2"
     inkscape:zoom="7.9999999"
     inkscape:cx="73.384766"
     inkscape:cy="354.25392"
     inkscape:document-units="mm"
     inkscape:current-layer="layer1"
     showgrid="false"
     inkscape:window-width="1920"
     inkscape:window-height="1028"
     inkscape:window-x="-8"
     inkscape:window-y="-8"
     inkscape:window-maximized="1"
     units="px"
     showguides="true"
     inkscape:guide-bbox="true"
     inkscape:snap-grids="true">
    <sodipodi:guide
       position="39.867009,-0.0020880432"
       orientation="0,1"
       id="guide1453"
       inkscape:locked="false" />
    <sodipodi:guide
       position="39.6875,-0.032039388"
       orientation="1,0"
       id="guide1455"
       inkscape:locked="false" />
    <sodipodi:guide
       position="19.854785,-4.9812358"
       orientation="1,0"
       id="guide1457"
       inkscape:locked="false" />
    <sodipodi:guide
       position="12.296924,53.276335"
       orientation="0,1"
       id="guide1551"
       inkscape:locked="false" />
    <sodipodi:guide
       position="1.4967094,103.1794"
       orientation="1,0"
       id="guide882"
       inkscape:locked="false" />
    <sodipodi:guide
       position="-13.49375,8.7312504"
       orientation="0,1"
       id="guide899"
       inkscape:locked="false" />
  </sodipodi:namedview>
  <metadata
     id="metadata885">
    <rdf:RDF>
      <cc:Work
         rdf:about="">
        <dc:format>image/svg+xml</dc:format>
        <dc:type
           rdf:resource="http://purl.org/dc/dcmitype/StillImage" />
        <dc:title />
      </cc:Work>
    </rdf:RDF>
  </metadata>
  <g
     inkscape:label="Ebene 1"
     inkscape:groupmode="layer"
     id="layer1"
     transform="translate(0,-196.45832)">
    <rect
       style="opacity:1;fill:#f0f0f0;fill-opacity:1;fill-rule:nonzero;stroke:none;stroke-width:0.13229312;stroke-linecap:round;stroke-linejoin:miter;stroke-miterlimit:1.5;stroke-dasharray:none;stroke-dashoffset:0;stroke-opacity:1;paint-order:markers stroke fill"
       id="rect1433"
       width="39.6875"
       height="100.54387"
       x="-1.4533038e-007"
       y="196.45824" />
    <path
       style="fill:none;stroke:#6d6d6d;stroke-width:0.25585759px;stroke-linecap:butt;stroke-linejoin:miter;stroke-opacity:1"
       d="M 1.4967094,249.14163 H 37.611824"
       id="path1437"
       inkscape:connector-curvature="0" />
    <path
       style="fill:#d1936a;fill-opacity:1;fill-rule:evenodd;stroke:none;stroke-width:0.04346791;stroke-miterlimit:4;stroke-dasharray:none;stroke-opacity:1"
       d="m 16.079655,291.31737 h 7.554982 v 4.02351 h -7.554982 z"
       id="rect860-8-4-4-5"
       inkscape:connector-curvature="0" />
    <g
       aria-label="MS"
       style="font-style:normal;font-weight:normal;font-size:10.58333302px;line-height:1.25;font-family:sans-serif;letter-spacing:0px;word-spacing:0px;fill:#000003;fill-opacity:1;stroke:none;stroke-width:0.26458332"
       id="text881"
       transform="matrix(0.47216412,0,0,0.47216412,16.080649,193.35978)">
      <path
         d="m 0.55186528,213.81201 v -5.78776 l 3.30729152,3.30729 1.6536457,-1.65364 h 1.6536458 v 5.78776 H 4.6859796 v -3.30729 l -0.8268228,0.82682 -0.8268229,-0.82682 v 1.65364 z m 0.82682292,-5.78776 0.8268228,0.82682 h 4.9609373 v -0.82682 z m -0.82682292,7.44141 v -0.82683 H 3.8591568 v 0.82683 z"
         style="font-style:normal;font-variant:normal;font-weight:normal;font-stretch:normal;font-size:8.46666622px;font-family:stoNe;-inkscape-font-specification:stoNe;fill:#000003;fill-opacity:1;stroke-width:0.26458332"
         id="path854"
         inkscape:connector-curvature="0" />
      <path
         d="m 7.9932711,213.81201 v -0.82682 h 4.1341139 q 0,-0.82682 -0.826822,-0.82682 H 7.9932711 v -0.82683 q 0,-1.65364 1.6536457,-1.65364 h 4.9609372 v 0.82682 h -3.307291 q -0.826823,0 -0.826823,0.82682 h 2.480468 q 1.653646,0 1.653646,1.65365 v 0.82682 z m 0.00413,0.82682 v 0.82683 h 7.4414059 v -0.82683 z m -0.830957,-6.61458 0.00413,0.82269 H 14.61198 l -0.0041,-0.82269 z"
         style="font-style:normal;font-variant:normal;font-weight:normal;font-stretch:normal;font-size:8.46666622px;font-family:stoNe;-inkscape-font-specification:stoNe;fill:#000003;fill-opacity:1;stroke-width:0.26458332"
         id="path856"
         inkscape:connector-curvature="0" />
    </g>
    <g
       aria-label="1"
       style="font-style:normal;font-weight:normal;font-size:10.58333302px;line-height:1.25;font-family:sans-serif;letter-spacing:0px;word-spacing:0px;fill:#c3c3c3;fill-opacity:1;stroke:none;stroke-width:0.26458332"
       id="text1461"
       transform="translate(0,-1.5875)">
      <path
         d="m 26.330257,215.07168 v 30.67686 h -7.655003 v -16.44689 q 0,-3.56223 -0.170532,-4.28226 -0.170532,-0.72002 -0.947401,-1.08003 -0.757921,-0.37896 -3.410645,-0.37896 h -0.757921 v -3.58118 q 5.551772,-1.19373 8.431872,-4.90754 z"
         style="font-style:normal;font-variant:normal;font-weight:normal;font-stretch:normal;font-size:38.80555725px;font-family:Impact;-inkscape-font-specification:Impact;fill:#c3c3c3;fill-opacity:1;stroke-width:0.26458332"
         id="path1484"
         inkscape:connector-curvature="0" />
    </g>
    <g
       aria-label="2"
       style="font-style:normal;font-weight:normal;font-size:10.58333302px;line-height:1.25;font-family:sans-serif;letter-spacing:0px;word-spacing:0px;fill:#c3c3c3;fill-opacity:1;stroke:none;stroke-width:0.26458332"
       id="text1461-2"
       transform="translate(0,1.4221354)">
      <path
         d="m 27.941216,278.38619 v 5.22965 H 11.096421 v -4.37699 q 7.484471,-12.24042 8.886624,-15.13947 1.421102,-2.918 1.421102,-4.54753 0,-1.25057 -0.435804,-1.8569 -0.416857,-0.62529 -1.288466,-0.62529 -0.871609,0 -1.307414,0.68213 -0.416856,0.68213 -0.416856,2.70957 v 2.91799 h -6.859186 v -1.11793 q 0,-2.57693 0.265273,-4.05488 0.265272,-1.49689 1.307413,-2.93694 1.042142,-1.44005 2.709568,-2.17903 1.667426,-0.73897 3.998034,-0.73897 4.566474,0 6.897081,2.27376 2.349555,2.25482 2.349555,5.72231 0,2.63377 -1.326361,5.57072 -1.307414,2.93694 -7.749743,12.4678 z"
         style="font-style:normal;font-variant:normal;font-weight:normal;font-stretch:normal;font-size:38.80555725px;font-family:Impact;-inkscape-font-specification:Impact;fill:#c3c3c3;fill-opacity:1;stroke-width:0.26458332"
         id="path1481"
         inkscape:connector-curvature="0" />
    </g>
    <g
       id="g1563">
      <path
         inkscape:connector-curvature="0"
         id="path1487"
         d="m 11.376179,207.44011 v 36.285"
         style="fill:none;stroke:#000000;stroke-width:0.27464139px;stroke-linecap:butt;stroke-linejoin:miter;stroke-opacity:1" />
      <path
         inkscape:connector-curvature="0"
         id="path1489"
         d="m 11.238786,243.59356 h 4.115951"
         style="fill:none;stroke:#000000;stroke-width:0.26458332px;stroke-linecap:butt;stroke-linejoin:miter;stroke-opacity:1" />
      <path
         inkscape:connector-curvature="0"
         id="path1489-4"
         d="m 11.237013,234.48202 h 4.115951"
         style="fill:none;stroke:#000000;stroke-width:0.26458332px;stroke-linecap:butt;stroke-linejoin:miter;stroke-opacity:1" />
      <path
         inkscape:connector-curvature="0"
         id="path1489-5"
         d="m 11.23409,225.02503 h 4.115951"
         style="fill:none;stroke:#000000;stroke-width:0.26458332px;stroke-linecap:butt;stroke-linejoin:miter;stroke-opacity:1" />
      <path
         inkscape:connector-curvature="0"
         id="path1489-4-0"
         d="m 11.232317,215.91349 h 4.115951"
         style="fill:none;stroke:#000000;stroke-width:0.26458332px;stroke-linecap:butt;stroke-linejoin:miter;stroke-opacity:1" />
      <path
         inkscape:connector-curvature="0"
         id="path1487-4"
         d="m 28.777875,207.43865 v 36.285"
         style="fill:none;stroke:#000000;stroke-width:0.27464139px;stroke-linecap:butt;stroke-linejoin:miter;stroke-opacity:1" />
      <path
         inkscape:connector-curvature="0"
         id="path1489-1"
         d="m 24.79892,243.59064 h 4.115951"
         style="fill:none;stroke:#000000;stroke-width:0.26458332px;stroke-linecap:butt;stroke-linejoin:miter;stroke-opacity:1" />
      <path
         inkscape:connector-curvature="0"
         id="path1489-4-8"
         d="m 24.797147,234.4791 h 4.115951"
         style="fill:none;stroke:#000000;stroke-width:0.26458332px;stroke-linecap:butt;stroke-linejoin:miter;stroke-opacity:1" />
      <path
         inkscape:connector-curvature="0"
         id="path1489-5-0"
         d="m 24.794224,225.02211 h 4.115951"
         style="fill:none;stroke:#000000;stroke-width:0.26458332px;stroke-linecap:butt;stroke-linejoin:miter;stroke-opacity:1" />
      <path
         inkscape:connector-curvature="0"
         id="path1489-4-0-2"
         d="m 24.792451,215.91057 h 4.115951"
         style="fill:none;stroke:#000000;stroke-width:0.26458332px;stroke-linecap:butt;stroke-linejoin:miter;stroke-opacity:1" />
    </g>
    <path
       style="fill:none;stroke:#000000;stroke-width:0.29082081px;stroke-linecap:butt;stroke-linejoin:miter;stroke-opacity:1"
       d="m 11.376179,243.25595 v 40.6861"
       id="path1487-3"
       inkscape:connector-curvature="0" />
    <path
       style="fill:none;stroke:#000000;stroke-width:0.26458332px;stroke-linecap:butt;stroke-linejoin:miter;stroke-opacity:1"
       d="m 11.238786,283.8105 h 4.115951"
       id="path1489-49"
       inkscape:connector-curvature="0" />
    <path
       style="fill:none;stroke:#000000;stroke-width:0.26458332px;stroke-linecap:butt;stroke-linejoin:miter;stroke-opacity:1"
       d="m 11.237013,274.69896 h 4.115951"
       id="path1489-4-2"
       inkscape:connector-curvature="0" />
    <path
       style="fill:none;stroke:#000000;stroke-width:0.26458332px;stroke-linecap:butt;stroke-linejoin:miter;stroke-opacity:1"
       d="m 11.23409,265.24197 h 4.115951"
       id="path1489-5-5"
       inkscape:connector-curvature="0" />
    <path
       style="fill:none;stroke:#000000;stroke-width:0.26458332px;stroke-linecap:butt;stroke-linejoin:miter;stroke-opacity:1"
       d="m 11.232317,256.13043 h 4.115951"
       id="path1489-4-0-7"
       inkscape:connector-curvature="0" />
    <path
       style="fill:none;stroke:#000000;stroke-width:0.29082081px;stroke-linecap:butt;stroke-linejoin:miter;stroke-opacity:1"
       d="m 28.777875,243.25431 v 40.6861"
       id="path1487-4-5"
       inkscape:connector-curvature="0" />
    <path
       style="fill:none;stroke:#000000;stroke-width:0.26458332px;stroke-linecap:butt;stroke-linejoin:miter;stroke-opacity:1"
       d="m 24.79892,283.80758 h 4.115951"
       id="path1489-1-8"
       inkscape:connector-curvature="0" />
    <path
       style="fill:none;stroke:#000000;stroke-width:0.26458332px;stroke-linecap:butt;stroke-linejoin:miter;stroke-opacity:1"
       d="m 24.797147,274.69604 h 4.115951"
       id="path1489-4-8-9"
       inkscape:connector-curvature="0" />
    <path
       style="fill:none;stroke:#000000;stroke-width:0.26458332px;stroke-linecap:butt;stroke-linejoin:miter;stroke-opacity:1"
       d="m 24.794224,265.23905 h 4.115951"
       id="path1489-5-0-4"
       inkscape:connector-curvature="0" />
    <path
       style="fill:none;stroke:#000000;stroke-width:0.26458332px;stroke-linecap:butt;stroke-linejoin:miter;stroke-opacity:1"
       d="m 24.792451,256.12751 h 4.115951"
       id="path1489-4-0-2-4"
       inkscape:connector-curvature="0" />
    <g
       aria-label="Mute"
       style="font-style:normal;font-weight:normal;font-size:10.58333302px;line-height:1.25;font-family:sans-serif;letter-spacing:0px;word-spacing:0px;fill:#000000;fill-opacity:1;stroke:none;stroke-width:0.26458332"
       id="text1622"
       transform="translate(0,-1.0583333)">
      <path
         d="m 8.9193516,205.46553 h 0.3638021 l 0.1839681,0.67696 0.1829346,-0.67696 h 0.3658686 v 1.54306 H 9.7534092 v -1.2361 l -0.1632975,0.67489 H 9.3472325 l -0.1653646,-0.67489 v 1.2361 H 8.9193516 Z"
         style="font-style:normal;font-variant:normal;font-weight:bold;font-stretch:normal;font-size:2.11666656px;font-family:'DejaVu Sans Mono';-inkscape-font-specification:'DejaVu Sans Mono Bold';stroke-width:0.26458332"
         id="path1701"
         inkscape:connector-curvature="0" />
      <path
         d="m 10.26914,206.60448 v -0.75344 h 0.302824 v 0.70693 q 0,0.12506 0.03514,0.1788 0.03514,0.0537 0.116789,0.0537 0.08165,0 0.127124,-0.0724 0.04651,-0.0724 0.04651,-0.20257 v -0.66456 h 0.302824 v 1.15755 h -0.302824 v -0.17157 q -0.03204,0.0961 -0.109554,0.14883 -0.07648,0.0527 -0.185001,0.0527 -0.165365,0 -0.250114,-0.10955 -0.08372,-0.10956 -0.08372,-0.32453 z"
         style="font-style:normal;font-variant:normal;font-weight:bold;font-stretch:normal;font-size:2.11666656px;font-family:'DejaVu Sans Mono';-inkscape-font-specification:'DejaVu Sans Mono Bold';stroke-width:0.26458332"
         id="path1703"
         inkscape:connector-curvature="0" />
      <path
         d="m 12.090217,205.52238 v 0.32866 h 0.395842 v 0.23254 h -0.395842 v 0.54777 q 0,0.0775 0.03721,0.11162 0.03824,0.0331 0.126091,0.0331 h 0.232544 v 0.23254 h -0.254248 q -0.260449,0 -0.352434,-0.0827 -0.09198,-0.0837 -0.09198,-0.30903 v -0.5333 h -0.295589 v -0.23254 H 11.7874 v -0.32866 z"
         style="font-style:normal;font-variant:normal;font-weight:bold;font-stretch:normal;font-size:2.11666656px;font-family:'DejaVu Sans Mono';-inkscape-font-specification:'DejaVu Sans Mono Bold';stroke-width:0.26458332"
         id="path1705"
         inkscape:connector-curvature="0" />
      <path
         d="m 13.789338,206.95175 q -0.10542,0.0434 -0.214974,0.0651 -0.109554,0.0217 -0.23151,0.0217 -0.290422,0 -0.444417,-0.15503 -0.152963,-0.15606 -0.152963,-0.44855 0,-0.28318 0.147795,-0.44752 0.147794,-0.16433 0.403076,-0.16433 0.257349,0 0.398942,0.15297 0.142627,0.15192 0.142627,0.42891 v 0.12299 h -0.784448 q 10e-4,0.13643 0.08061,0.20361 0.07958,0.0672 0.237712,0.0672 0.104386,0 0.205672,-0.03 0.101286,-0.03 0.211873,-0.0951 z m -0.256315,-0.65113 q -0.0021,-0.11989 -0.06201,-0.18086 -0.05891,-0.062 -0.174666,-0.062 -0.104386,0 -0.166398,0.0641 -0.06201,0.063 -0.07338,0.17984 z"
         style="font-style:normal;font-variant:normal;font-weight:bold;font-stretch:normal;font-size:2.11666656px;font-family:'DejaVu Sans Mono';-inkscape-font-specification:'DejaVu Sans Mono Bold';stroke-width:0.26458332"
         id="path1707"
         inkscape:connector-curvature="0" />
    </g>
    <g
       aria-label="1or2"
       style="font-style:normal;font-weight:normal;font-size:10.58333302px;line-height:1.25;font-family:sans-serif;letter-spacing:0px;word-spacing:0px;fill:#000000;fill-opacity:1;stroke:none;stroke-width:0.26458332"
       id="text1622-4"
       transform="translate(0,-1.0583333)">
      <path
         d="m 26.429262,206.70382 h 0.341064 v -1.00149 l -0.317293,0.0786 v -0.27492 l 0.319361,-0.0765 h 0.294555 v 1.27434 h 0.341065 v 0.26871 h -0.978752 z"
         style="font-style:normal;font-variant:normal;font-weight:bold;font-stretch:normal;font-size:2.11666656px;font-family:'DejaVu Sans Mono';-inkscape-font-specification:'DejaVu Sans Mono Bold';stroke-width:0.26458332"
         id="path1692"
         inkscape:connector-curvature="0" />
      <path
         d="m 28.144919,206.03306 q -0.10852,0 -0.170532,0.0961 -0.06201,0.0951 -0.06201,0.26562 0,0.17053 0.06201,0.26665 0.06201,0.0951 0.170532,0.0951 0.109554,0 0.171566,-0.0951 0.06201,-0.0961 0.06201,-0.26665 0,-0.17053 -0.06201,-0.26562 -0.06201,-0.0961 -0.171566,-0.0961 z m -0.535367,0.36173 q 0,-0.28008 0.144694,-0.44338 0.145727,-0.16433 0.390673,-0.16433 0.24598,0 0.390674,0.16433 0.145728,0.1633 0.145728,0.44338 0,0.28009 -0.145728,0.44442 -0.144694,0.1633 -0.390674,0.1633 -0.244946,0 -0.390673,-0.1633 -0.144694,-0.16433 -0.144694,-0.44442 z"
         style="font-style:normal;font-variant:normal;font-weight:bold;font-stretch:normal;font-size:2.11666656px;font-family:'DejaVu Sans Mono';-inkscape-font-specification:'DejaVu Sans Mono Bold';stroke-width:0.26458332"
         id="path1694"
         inkscape:connector-curvature="0" />
      <path
         d="m 29.971164,206.13434 q -0.04961,-0.0455 -0.116788,-0.0682 -0.06615,-0.0227 -0.145728,-0.0227 -0.09612,0 -0.168465,0.0341 -0.07131,0.0331 -0.110588,0.0972 -0.0248,0.0393 -0.03514,0.0951 -0.0093,0.0558 -0.0093,0.1695 v 0.5333 H 29.08233 v -1.15755 h 0.302824 v 0.17984 q 0.04444,-0.0992 0.136426,-0.15297 0.09198,-0.0548 0.214973,-0.0548 0.06201,0 0.120923,0.0155 0.05995,0.0145 0.113688,0.0434 z"
         style="font-style:normal;font-variant:normal;font-weight:bold;font-stretch:normal;font-size:2.11666656px;font-family:'DejaVu Sans Mono';-inkscape-font-specification:'DejaVu Sans Mono Bold';stroke-width:0.26458332"
         id="path1696"
         inkscape:connector-curvature="0" />
      <path
         d="m 30.503432,206.70382 h 0.650089 v 0.26871 h -0.979785 v -0.26045 l 0.165365,-0.17569 q 0.294555,-0.31316 0.3576,-0.38551 0.07751,-0.0889 0.111621,-0.1571 0.03411,-0.0692 0.03411,-0.13642 0,-0.10336 -0.06304,-0.15917 -0.06201,-0.0568 -0.176734,-0.0568 -0.08165,0 -0.183968,0.0331 -0.101286,0.032 -0.211873,0.0941 v -0.28422 q 0.110587,-0.0403 0.216007,-0.061 0.106454,-0.0217 0.203605,-0.0217 0.244947,0 0.384473,0.11472 0.14056,0.11369 0.14056,0.31109 0,0.091 -0.03101,0.17054 -0.02997,0.0796 -0.104386,0.17673 -0.05478,0.0703 -0.300757,0.31626 -0.133325,0.13333 -0.211873,0.21291 z"
         style="font-style:normal;font-variant:normal;font-weight:bold;font-stretch:normal;font-size:2.11666656px;font-family:'DejaVu Sans Mono';-inkscape-font-specification:'DejaVu Sans Mono Bold';stroke-width:0.26458332"
         id="path1698"
         inkscape:connector-curvature="0" />
    </g>
    <rect
       style="opacity:1;fill:#bdbdbd;fill-opacity:1;fill-rule:nonzero;stroke:none;stroke-width:0.45308757;stroke-linecap:round;stroke-linejoin:miter;stroke-miterlimit:1.5;stroke-dasharray:none;stroke-dashoffset:0;stroke-opacity:1;paint-order:markers stroke fill"
       id="rect878"
       width="8.5964537"
       height="81.44265"
       x="1.4992533"
       y="206.84201" />
    <g
       aria-label="IN"
       style="font-style:normal;font-weight:normal;font-size:10.58333302px;line-height:1.25;font-family:sans-serif;letter-spacing:0px;word-spacing:0px;fill:#000000;fill-opacity:1;stroke:none;stroke-width:0.26458332"
       id="text1622-7"
       transform="matrix(1.4167112,0,0,1.4167112,-1.751978,-89.184928)">
      <path
         d="m 4.2042977,210.48007 v -0.26872 h 0.9188069 v 0.26872 h -0.306958 v 1.00562 h 0.306958 v 0.26872 H 4.2042977 v -0.26872 h 0.306958 v -1.00562 z"
         style="font-style:normal;font-variant:normal;font-weight:bold;font-stretch:normal;font-size:2.11666656px;font-family:'DejaVu Sans Mono';-inkscape-font-specification:'DejaVu Sans Mono Bold';stroke-width:0.26458332"
         id="path1687"
         inkscape:connector-curvature="0" />
      <path
         d="m 5.4228278,210.21135 h 0.3276286 l 0.4299479,1.12138 v -1.12138 h 0.2687174 v 1.54306 H 6.1235602 l -0.4320149,-1.12138 v 1.12138 H 5.4228278 Z"
         style="font-style:normal;font-variant:normal;font-weight:bold;font-stretch:normal;font-size:2.11666656px;font-family:'DejaVu Sans Mono';-inkscape-font-specification:'DejaVu Sans Mono Bold';stroke-width:0.26458332"
         id="path1689"
         inkscape:connector-curvature="0" />
    </g>
    <rect
       style="opacity:1;fill:#666666;fill-opacity:1;fill-rule:nonzero;stroke:none;stroke-width:0.45308757;stroke-linecap:round;stroke-linejoin:miter;stroke-miterlimit:1.5;stroke-dasharray:none;stroke-dashoffset:0;stroke-opacity:1;paint-order:markers stroke fill"
       id="rect878-5"
       width="8.5964546"
       height="81.44265"
       x="29.752077"
       y="206.82608" />
    <g
       aria-label="OUT"
       style="font-style:normal;font-weight:normal;font-size:10.58333302px;line-height:1.25;font-family:sans-serif;letter-spacing:0px;word-spacing:0px;fill:#000000;fill-opacity:1;stroke:none;stroke-width:0.26458332"
       id="text1622-7-4"
       transform="matrix(1.3641536,0,0,1.3641536,-36.438333,-77.528908)">
      <path
         d="m 50.505226,210.03947 q -0.116789,0 -0.170532,0.12506 -0.05374,0.12402 -0.05374,0.40204 0,0.27698 0.05374,0.40204 0.05374,0.12403 0.170532,0.12403 0.117822,0 0.171566,-0.12403 0.05374,-0.12506 0.05374,-0.40204 0,-0.27802 -0.05374,-0.40204 -0.05374,-0.12506 -0.171566,-0.12506 z m -0.541569,0.5271 q 0,-0.39584 0.136426,-0.59841 0.137459,-0.20258 0.405143,-0.20258 0.268717,0 0.405143,0.20258 0.137459,0.20257 0.137459,0.59841 0,0.39481 -0.137459,0.59738 -0.136426,0.20257 -0.405143,0.20257 -0.267684,0 -0.405143,-0.20257 -0.136426,-0.20257 -0.136426,-0.59738 z"
         style="font-style:normal;font-variant:normal;font-weight:bold;font-stretch:normal;font-size:2.11666656px;font-family:'DejaVu Sans Mono';-inkscape-font-specification:'DejaVu Sans Mono Bold';stroke-width:0.26458332"
         id="path1680"
         inkscape:connector-curvature="0" />
      <path
         d="m 51.251433,210.76707 v -0.97358 h 0.304891 v 1.05006 q 0,0.11576 0.05891,0.18191 0.05891,0.0651 0.163297,0.0651 0.104386,0 0.163298,-0.0651 0.05891,-0.0662 0.05891,-0.18191 v -1.05006 h 0.304891 v 0.97358 q 0,0.3142 -0.125057,0.45682 -0.125057,0.14263 -0.402043,0.14263 -0.275952,0 -0.402043,-0.14263 -0.125057,-0.14262 -0.125057,-0.45682 z"
         style="font-style:normal;font-variant:normal;font-weight:bold;font-stretch:normal;font-size:2.11666656px;font-family:'DejaVu Sans Mono';-inkscape-font-specification:'DejaVu Sans Mono Bold';stroke-width:0.26458332"
         id="path1682"
         inkscape:connector-curvature="0" />
      <path
         d="m 53.204802,211.33655 h -0.30489 v -1.27641 h -0.391708 v -0.26665 h 1.088306 v 0.26665 h -0.391708 z"
         style="font-style:normal;font-variant:normal;font-weight:bold;font-stretch:normal;font-size:2.11666656px;font-family:'DejaVu Sans Mono';-inkscape-font-specification:'DejaVu Sans Mono Bold';stroke-width:0.26458332"
         id="path1684"
         inkscape:connector-curvature="0" />
    </g>
    <g
       aria-label="SwitchedMULT"
       style="font-style:normal;font-weight:normal;font-size:10.58333302px;line-height:1.25;font-family:sans-serif;letter-spacing:0px;word-spacing:0px;fill:#000000;fill-opacity:1;stroke:none;stroke-width:0.26458332"
       id="text1712"
       transform="matrix(0.8535266,0,0,0.8535266,2.9339978,29.185673)">
      <path
         d="M 8.438591,200.0817 H 7.56302 v -0.26872 q 0,-0.1881 -0.03359,-0.23961 -0.03359,-0.0515 -0.1119656,-0.0515 -0.085094,0 -0.1298801,0.0694 -0.042547,0.0694 -0.042547,0.21049 0,0.18139 0.049265,0.2732 0.047026,0.0918 0.2664781,0.22169 0.6292467,0.37396 0.7927165,0.61357 0.1634697,0.23961 0.1634697,0.77256 0,0.3874 -0.091812,0.57103 -0.089573,0.18362 -0.3493327,0.30902 -0.2597602,0.12317 -0.6046143,0.12317 -0.3784437,0 -0.6471612,-0.14332 -0.2664781,-0.14332 -0.3493326,-0.36501 -0.082855,-0.22169 -0.082855,-0.62925 v -0.23736 h 0.875571 v 0.44114 q 0,0.20378 0.035829,0.262 0.038068,0.0582 0.1321194,0.0582 0.094051,0 0.1388374,-0.0739 0.047026,-0.0739 0.047026,-0.21946 0,-0.32022 -0.087333,-0.41875 -0.089573,-0.0985 -0.4411445,-0.32918 -0.351572,-0.23288 -0.4657769,-0.33813 -0.1142049,-0.10525 -0.1903415,-0.29111 -0.073897,-0.18587 -0.073897,-0.47474 0,-0.41651 0.1052476,-0.60909 0.107487,-0.19258 0.3448541,-0.30007 0.2373671,-0.10972 0.5732639,-0.10972 0.3672471,0 0.624768,0.11868 0.2597602,0.11868 0.3426148,0.30007 0.085094,0.17914 0.085094,0.61133 z"
         style="font-style:normal;font-variant:normal;font-weight:bold;font-stretch:normal;font-size:4.58611107px;line-height:0;font-family:Impact;-inkscape-font-specification:'Impact Bold';text-align:center;text-anchor:middle;stroke-width:0.26458332"
         id="path1726"
         inkscape:connector-curvature="0" />
      <path
         d="m 11.710226,199.63831 -0.360529,2.97157 h -0.983058 q -0.08061,-0.54415 -0.185863,-1.43316 -0.03583,0.38964 -0.100769,0.78824 l -0.1007692,0.64492 H 8.9961798 L 8.6132574,199.63831 H 9.392538 q 0.00896,0.11645 0.1970595,1.69964 0.013436,-0.16123 0.201538,-1.69964 h 0.7501695 l 0.183624,1.69964 q 0.04255,-0.74345 0.206016,-1.69964 z"
         style="font-style:normal;font-variant:normal;font-weight:bold;font-stretch:normal;font-size:4.58611107px;line-height:0;font-family:Impact;-inkscape-font-specification:'Impact Bold';text-align:center;text-anchor:middle;stroke-width:0.26458332"
         id="path1728"
         inkscape:connector-curvature="0" />
      <path
         d="m 12.791814,198.98443 v 0.4725 H 11.86026 v -0.4725 z m 0,0.65388 v 2.97157 H 11.86026 v -2.97157 z"
         style="font-style:normal;font-variant:normal;font-weight:bold;font-stretch:normal;font-size:4.58611107px;line-height:0;font-family:Impact;-inkscape-font-specification:'Impact Bold';text-align:center;text-anchor:middle;stroke-width:0.26458332"
         id="path1730"
         inkscape:connector-curvature="0" />
      <path
         d="m 14.068222,199.24195 v 0.46802 h 0.244085 v 0.47025 h -0.244085 v 1.58992 q 0,0.29335 0.02911,0.32694 0.03135,0.0336 0.253042,0.0336 v 0.47921 h -0.365008 q -0.309025,0 -0.441144,-0.0246 -0.13212,-0.0269 -0.232889,-0.11869 -0.100769,-0.094 -0.125401,-0.21273 -0.02463,-0.12092 -0.02463,-0.56431 v -1.5093 h -0.19482 v -0.47025 h 0.19482 v -0.46802 z"
         style="font-style:normal;font-variant:normal;font-weight:bold;font-stretch:normal;font-size:4.58611107px;line-height:0;font-family:Impact;-inkscape-font-specification:'Impact Bold';text-align:center;text-anchor:middle;stroke-width:0.26458332"
         id="path1732"
         inkscape:connector-curvature="0" />
      <path
         d="m 16.511312,200.76021 h -0.853178 v -0.34262 q 0,-0.17914 -0.02911,-0.24184 -0.02911,-0.0649 -0.107487,-0.0649 -0.07838,0 -0.105248,0.056 -0.02687,0.056 -0.02687,0.2508 v 1.40181 q 0,0.15899 0.04031,0.23961 0.04031,0.0784 0.118683,0.0784 0.09181,0 0.123163,-0.0829 0.03359,-0.0829 0.03359,-0.3135 v -0.35382 h 0.806153 q -0.0022,0.35605 -0.02687,0.5352 -0.02239,0.17691 -0.150034,0.36501 -0.125402,0.18586 -0.329179,0.28215 -0.203777,0.0941 -0.503845,0.0941 -0.382923,0 -0.606854,-0.12988 -0.223931,-0.13212 -0.317982,-0.36725 -0.09181,-0.23736 -0.09181,-0.67179 v -0.84422 q 0,-0.37844 0.07614,-0.57102 0.07614,-0.19258 0.3247,-0.34262 0.248564,-0.15227 0.604614,-0.15227 0.353812,0 0.604615,0.15003 0.250802,0.15004 0.333657,0.37845 0.08285,0.22841 0.08285,0.64716 z"
         style="font-style:normal;font-variant:normal;font-weight:bold;font-stretch:normal;font-size:4.58611107px;line-height:0;font-family:Impact;-inkscape-font-specification:'Impact Bold';text-align:center;text-anchor:middle;stroke-width:0.26458332"
         id="path1734"
         inkscape:connector-curvature="0" />
      <path
         d="m 17.682472,198.98443 v 0.81511 q 0.116444,-0.10749 0.250803,-0.16123 0.136598,-0.0537 0.29111,-0.0537 0.237367,0 0.403077,0.12092 0.167948,0.12092 0.203777,0.27991 0.03807,0.15676 0.03807,0.57551 v 2.04897 h -0.904682 v -2.09152 q 0,-0.25976 -0.02687,-0.33366 -0.02463,-0.0739 -0.114205,-0.0739 -0.08285,0 -0.111965,0.0761 -0.02911,0.0761 -0.02911,0.30231 v 2.12063 H 16.77779 v -3.62545 z"
         style="font-style:normal;font-variant:normal;font-weight:bold;font-stretch:normal;font-size:4.58611107px;line-height:0;font-family:Impact;-inkscape-font-specification:'Impact Bold';text-align:center;text-anchor:middle;stroke-width:0.26458332"
         id="path1736"
         inkscape:connector-curvature="0" />
      <path
         d="m 21.227303,201.17672 h -1.171161 v 0.64268 q 0,0.20154 0.02911,0.25976 0.02911,0.0582 0.111966,0.0582 0.103008,0 0.136598,-0.0761 0.03583,-0.0784 0.03583,-0.30007 v -0.39188 h 0.857657 v 0.21945 q 0,0.27544 -0.03583,0.42323 -0.03359,0.1478 -0.161231,0.31575 -0.127641,0.16794 -0.3247,0.25304 -0.19482,0.0829 -0.490409,0.0829 -0.286632,0 -0.506085,-0.0829 -0.219453,-0.0829 -0.342615,-0.22617 -0.120923,-0.14556 -0.167948,-0.31799 -0.04703,-0.17466 -0.04703,-0.50608 v -0.86661 q 0,-0.38964 0.105248,-0.61358 0.105248,-0.22617 0.344854,-0.34485 0.239606,-0.12092 0.550871,-0.12092 0.380683,0 0.627007,0.14555 0.248564,0.14332 0.347094,0.38293 0.100769,0.23736 0.100769,0.66955 z m -0.906922,-0.48369 v -0.21722 q 0,-0.23064 -0.02463,-0.29782 -0.02463,-0.0672 -0.100769,-0.0672 -0.09405,0 -0.116445,0.0582 -0.02239,0.056 -0.02239,0.30678 v 0.21722 z"
         style="font-style:normal;font-variant:normal;font-weight:bold;font-stretch:normal;font-size:4.58611107px;line-height:0;font-family:Impact;-inkscape-font-specification:'Impact Bold';text-align:center;text-anchor:middle;stroke-width:0.26458332"
         id="path1738"
         inkscape:connector-curvature="0" />
      <path
         d="m 23.583059,198.98443 v 3.62545 h -0.904682 v -0.21498 q -0.12988,0.13436 -0.273196,0.20154 -0.143316,0.0672 -0.300068,0.0672 -0.210496,0 -0.365008,-0.10972 -0.154513,-0.11197 -0.199299,-0.25753 -0.04255,-0.14555 -0.04255,-0.47473 v -1.39061 q 0,-0.34262 0.04255,-0.48593 0.04479,-0.14332 0.201538,-0.25081 0.156752,-0.10972 0.373965,-0.10972 0.167949,0 0.306786,0.0605 0.141077,0.0605 0.255282,0.18138 v -0.84198 z m -0.904682,1.40181 q 0,-0.16347 -0.02911,-0.21945 -0.02687,-0.056 -0.109727,-0.056 -0.08062,0 -0.109726,0.0515 -0.02687,0.0493 -0.02687,0.22393 v 1.45555 q 0,0.18139 0.02687,0.23961 0.02687,0.056 0.103008,0.056 0.08733,0 0.116445,-0.0627 0.02911,-0.0649 0.02911,-0.3135 z"
         style="font-style:normal;font-variant:normal;font-weight:bold;font-stretch:normal;font-size:4.58611107px;line-height:0;font-family:Impact;-inkscape-font-specification:'Impact Bold';text-align:center;text-anchor:middle;stroke-width:0.26458332"
         id="path1740"
         inkscape:connector-curvature="0" />
      <path
         d="m 26.843497,198.98443 v 3.62545 H 26.01943 v -2.44757 l -0.329179,2.44757 H 25.10579 l -0.347093,-2.39159 v 2.39159 H 23.93463 v -3.62545 h 1.220425 q 0.05374,0.32694 0.114205,0.77033 l 0.12988,0.92259 0.214974,-1.69292 z"
         style="font-style:normal;font-variant:normal;font-weight:bold;font-stretch:normal;font-size:4.58611107px;line-height:0;font-family:Impact;-inkscape-font-specification:'Impact Bold';text-align:center;text-anchor:middle;stroke-width:0.26458332"
         id="path1742"
         inkscape:connector-curvature="0" />
      <path
         d="m 29.364961,198.98443 v 2.42294 q 0,0.41203 -0.02687,0.57998 -0.02687,0.16571 -0.158991,0.34261 -0.13212,0.17467 -0.349333,0.26648 -0.214974,0.0896 -0.508324,0.0896 -0.3247,0 -0.573264,-0.10749 -0.248564,-0.10749 -0.371726,-0.27992 -0.123162,-0.17242 -0.145555,-0.36276 -0.02239,-0.19259 -0.02239,-0.80616 v -2.14526 h 0.94275 v 2.71853 q 0,0.23736 0.02463,0.30454 0.02687,0.0649 0.105247,0.0649 0.08957,0 0.114205,-0.0717 0.02687,-0.0739 0.02687,-0.34486 v -2.6715 z"
         style="font-style:normal;font-variant:normal;font-weight:bold;font-stretch:normal;font-size:4.58611107px;line-height:0;font-family:Impact;-inkscape-font-specification:'Impact Bold';text-align:center;text-anchor:middle;stroke-width:0.26458332"
         id="path1744"
         inkscape:connector-curvature="0" />
      <path
         d="m 30.67272,198.98443 v 2.89991 h 0.573264 v 0.72554 H 29.72997 v -3.62545 z"
         style="font-style:normal;font-variant:normal;font-weight:bold;font-stretch:normal;font-size:4.58611107px;line-height:0;font-family:Impact;-inkscape-font-specification:'Impact Bold';text-align:center;text-anchor:middle;stroke-width:0.26458332"
         id="path1746"
         inkscape:connector-curvature="0" />
      <path
         d="m 33.37557,198.98443 v 0.72554 h -0.559828 v 2.89991 h -0.94275 v -2.89991 h -0.557589 v -0.72554 z"
         style="font-style:normal;font-variant:normal;font-weight:bold;font-stretch:normal;font-size:4.58611107px;line-height:0;font-family:Impact;-inkscape-font-specification:'Impact Bold';text-align:center;text-anchor:middle;stroke-width:0.26458332"
         id="path1748"
         inkscape:connector-curvature="0" />
    </g>
  </g>
</svg>
