<?xml version="1.0" encoding="UTF-8" standalone="no"?>
<!-- Created with Inkscape (http://www.inkscape.org/) -->

<svg
   xmlns:dc="http://purl.org/dc/elements/1.1/"
   xmlns:cc="http://creativecommons.org/ns#"
   xmlns:rdf="http://www.w3.org/1999/02/22-rdf-syntax-ns#"
   xmlns:svg="http://www.w3.org/2000/svg"
   xmlns="http://www.w3.org/2000/svg"
   xmlns:sodipodi="http://sodipodi.sourceforge.net/DTD/sodipodi-0.dtd"
   xmlns:inkscape="http://www.inkscape.org/namespaces/inkscape"
   width="165"
   height="380"
   viewBox="0 0 43.656249 100.54168"
   version="1.1"
   id="svg8"
   inkscape:version="0.92.2 (5c3e80d, 2017-08-06)"
   sodipodi:docname="Waveshaper.svg">
  <defs
     id="defs2" />
  <sodipodi:namedview
     id="base"
     pagecolor="#ffffff"
     bordercolor="#666666"
     borderopacity="1.0"
     inkscape:pageopacity="0.0"
     inkscape:pageshadow="2"
     inkscape:zoom="5.6"
     inkscape:cx="25.026434"
     inkscape:cy="60.588918"
     inkscape:document-units="mm"
     inkscape:current-layer="layer1"
     showgrid="false"
     units="px"
     inkscape:window-width="1920"
     inkscape:window-height="1028"
     inkscape:window-x="-8"
     inkscape:window-y="-8"
     inkscape:window-maximized="1" />
  <metadata
     id="metadata5">
    <rdf:RDF>
      <cc:Work
         rdf:about="">
        <dc:format>image/svg+xml</dc:format>
        <dc:type
           rdf:resource="http://purl.org/dc/dcmitype/StillImage" />
        <dc:title />
      </cc:Work>
    </rdf:RDF>
  </metadata>
  <g
     inkscape:label="Ebene 1"
     inkscape:groupmode="layer"
     id="layer1"
     transform="translate(0,-196.4583)">
    <rect
       style="opacity:1;fill:#f0f0f0;fill-opacity:1;fill-rule:nonzero;stroke:none;stroke-width:0.07616287;stroke-linecap:round;stroke-linejoin:miter;stroke-miterlimit:4;stroke-dasharray:none;stroke-dashoffset:0;stroke-opacity:1;paint-order:markers stroke fill"
       id="rect815"
       width="43.65625"
       height="100.54166"
       x="-0.00075252075"
       y="196.45937" />
    <g
       transform="matrix(0.45000129,-0.45000129,0.45000129,0.45000129,-53.324955,76.742502)"
       id="g11299"
       style="fill:#e2e2e2;fill-opacity:1">
      <g
         id="g11297"
         style="fill:#e2e2e2;fill-opacity:1">
        <g
           transform="translate(185.73646,-9.5250064)"
           id="g11265"
           style="fill:#e2e2e2;fill-opacity:1">
          <g
             id="g11249"
             transform="translate(-137.10274)"
             style="fill:#e2e2e2;fill-opacity:1">
            <path
               id="path11237"
               transform="matrix(0.26458333,0,0,0.26458333,0,196.45832)"
               d="m -718.94922,154.57227 c -14.32932,0.45458 -33.60356,20.71937 -31.29883,34.27148 -2.45838,14.45558 19.63622,36.55017 34.0918,34.0918 h 134.0918 v -9.0918 h -100.00196 v -25 c 2.45839,-14.4556 -19.63425,-36.54823 -34.08984,-34.08984 -0.90347,-0.15365 -1.83768,-0.21195 -2.79297,-0.18164 z m 1.00586,8.95898 c 0.63005,0.0232 1.22828,0.12471 1.78711,0.3125 8.94127,-3.00469 28.00471,16.05874 25,25 v 25 h -25 c -8.94126,3.00469 -28.00469,-16.05873 -25,-25 -2.8169,-8.38244 13.76214,-25.66117 23.21289,-25.3125 z m 26.78711,150.3125 v 9.0918 h 9.08984 v -9.0918 z"
               style="opacity:1;fill:#e2e2e2;fill-opacity:1;fill-rule:nonzero;stroke:none;stroke-width:6.9784193;stroke-linecap:round;stroke-linejoin:miter;stroke-miterlimit:4;stroke-dasharray:none;stroke-dashoffset:0;stroke-opacity:1;paint-order:markers stroke fill"
               inkscape:connector-curvature="0" />
            <path
               id="path11239"
               transform="matrix(0.26458333,0,0,0.26458333,0,196.45832)"
               d="m -718.55273,136.5293 c -24.81903,0.43381 -51.20004,27.62664 -49.87696,52.31445 -1.36576,25.48418 26.78925,53.63919 52.27344,52.27344 h 134.0918 v -9.0918 h -134.0918 c -19.96987,1.91207 -45.09371,-23.21177 -43.18164,-43.18164 -1.91207,-19.96987 23.21177,-45.0937 43.18164,-43.18164 19.96988,-1.91208 45.09374,23.21176 43.18164,43.18164 v 25 h 9.0918 v -25 c 1.36576,-25.4842 -26.78924,-53.63725 -52.27344,-52.27148 -0.79638,-0.0427 -1.59587,-0.057 -2.39648,-0.043 z m 45.57812,177.31445 v 9.0918 h 9.0918 v -9.0918 z"
               style="opacity:1;fill:#e2e2e2;fill-opacity:1;fill-rule:nonzero;stroke:none;stroke-width:6.9784193;stroke-linecap:round;stroke-linejoin:miter;stroke-miterlimit:4;stroke-dasharray:none;stroke-dashoffset:0;stroke-opacity:1;paint-order:markers stroke fill"
               inkscape:connector-curvature="0" />
            <path
               id="path11241"
               transform="matrix(0.26458333,0,0,0.26458333,0,196.45832)"
               d="m -716.15625,118.38867 c -36.51277,-0.27315 -70.72823,33.94231 -70.45508,70.45508 -0.27315,36.51277 33.94231,70.72822 70.45508,70.45508 h 134.0918 v -9.0918 h -134.0918 c -30.99848,0.81946 -62.18274,-30.3648 -61.36328,-61.36328 -0.81946,-30.99848 30.3648,-62.18273 61.36328,-61.36328 30.9985,-0.81946 62.18277,30.36478 61.36328,61.36328 v 25 h 9.0918 v -25 c 0.27315,-36.51278 -33.94229,-70.72823 -70.45508,-70.45508 z m 61.36328,195.45508 v 9.0918 h 9.0918 v -9.0918 z"
               style="opacity:1;fill:#e2e2e2;fill-opacity:1;fill-rule:nonzero;stroke:none;stroke-width:6.9784193;stroke-linecap:round;stroke-linejoin:miter;stroke-miterlimit:4;stroke-dasharray:none;stroke-dashoffset:0;stroke-opacity:1;paint-order:markers stroke fill"
               inkscape:connector-curvature="0" />
            <path
               id="path11243"
               transform="matrix(0.26458333,0,0,0.26458333,0,196.45832)"
               d="m -716.15625,100.20703 c -47.54138,0.81946 -87.81726,41.09534 -88.63672,88.63672 0.81946,47.54137 41.09535,87.81724 88.63672,88.63672 h 134.0918 v -9.0918 h -134.0918 v 0.002 c -42.02709,-0.27313 -79.27177,-37.51979 -79.54492,-79.54687 0.27315,-42.02708 37.51784,-79.27175 79.54492,-79.54492 42.02711,0.27315 79.2718,37.51781 79.54492,79.54492 v 25 h 9.0918 v -25 c -0.81947,-47.54138 -41.09532,-87.81726 -88.63672,-88.63672 z m 79.54492,213.63672 v 9.0918 h 9.0918 v -9.0918 z"
               style="opacity:1;fill:#e2e2e2;fill-opacity:1;fill-rule:nonzero;stroke:none;stroke-width:6.9784193;stroke-linecap:round;stroke-linejoin:miter;stroke-miterlimit:4;stroke-dasharray:none;stroke-dashoffset:0;stroke-opacity:1;paint-order:markers stroke fill"
               inkscape:connector-curvature="0" />
            <path
               id="path11245"
               transform="matrix(0.26458333,0,0,0.26458333,0,196.45832)"
               d="m -716.15625,82.025391 c -58.56997,1.912073 -104.90628,48.248379 -106.81836,106.818359 1.91207,58.56996 48.2484,104.90626 106.81836,106.81836 h 134.0918 v -9.08984 h -134.0918 c -53.05565,-1.36577 -96.3608,-44.67288 -97.72656,-97.72852 1.36576,-53.05564 44.67093,-96.360781 97.72656,-97.726562 53.05567,1.365765 96.36083,44.670882 97.72656,97.726562 v 25 h 9.0918 v -25 C -611.24997,130.27379 -657.58625,83.937471 -716.15625,82.025391 Z m 97.72656,231.818359 v 9.0918 h 9.0918 v -9.0918 z"
               style="opacity:1;fill:#e2e2e2;fill-opacity:1;fill-rule:nonzero;stroke:none;stroke-width:6.9784193;stroke-linecap:round;stroke-linejoin:miter;stroke-miterlimit:4;stroke-dasharray:none;stroke-dashoffset:0;stroke-opacity:1;paint-order:markers stroke fill"
               inkscape:connector-curvature="0" />
            <path
               id="path11247"
               transform="matrix(0.26458333,0,0,0.26458333,0,196.45832)"
               d="m -716.15625,63.84375 c -69.59855,3.004689 -121.99531,55.40145 -125,125 3.00469,69.59853 55.40147,121.99529 125,125 h 115.9082 v 9.0918 h 9.0918 v -9.0918 h 9.0918 v -9.08984 h -134.0918 c -64.08426,-2.45838 -113.45177,-51.82592 -115.91016,-115.91016 2.45839,-64.08424 51.82592,-113.449802 115.91016,-115.908203 64.08428,2.458384 113.44986,51.823903 115.9082,115.908203 v 25 h 9.0918 v -25 c -3.0047,-69.59854 -55.40142,-121.99531 -125,-125 z"
               style="opacity:1;fill:#e2e2e2;fill-opacity:1;fill-rule:nonzero;stroke:none;stroke-width:6.9784193;stroke-linecap:round;stroke-linejoin:miter;stroke-miterlimit:4;stroke-dasharray:none;stroke-dashoffset:0;stroke-opacity:1;paint-order:markers stroke fill"
               inkscape:connector-curvature="0" />
          </g>
          <g
             id="g11263"
             transform="rotate(90,-222.55592,213.35031)"
             style="fill:#e2e2e2;fill-opacity:1">
            <path
               style="opacity:1;fill:#e2e2e2;fill-opacity:1;fill-rule:nonzero;stroke:none;stroke-width:6.9784193;stroke-linecap:round;stroke-linejoin:miter;stroke-miterlimit:4;stroke-dasharray:none;stroke-dashoffset:0;stroke-opacity:1;paint-order:markers stroke fill"
               d="m -718.94922,154.57227 c -14.32932,0.45458 -33.60356,20.71937 -31.29883,34.27148 -2.45838,14.45558 19.63622,36.55017 34.0918,34.0918 h 134.0918 v -9.0918 h -100.00196 v -25 c 2.45839,-14.4556 -19.63425,-36.54823 -34.08984,-34.08984 -0.90347,-0.15365 -1.83768,-0.21195 -2.79297,-0.18164 z m 1.00586,8.95898 c 0.63005,0.0232 1.22828,0.12471 1.78711,0.3125 8.94127,-3.00469 28.00471,16.05874 25,25 v 25 h -25 c -8.94126,3.00469 -28.00469,-16.05873 -25,-25 -2.8169,-8.38244 13.76214,-25.66117 23.21289,-25.3125 z m 26.78711,150.3125 v 9.0918 h 9.08984 v -9.0918 z"
               transform="matrix(0.26458333,0,0,0.26458333,0,196.45832)"
               id="path11251"
               inkscape:connector-curvature="0" />
            <path
               style="opacity:1;fill:#e2e2e2;fill-opacity:1;fill-rule:nonzero;stroke:none;stroke-width:6.9784193;stroke-linecap:round;stroke-linejoin:miter;stroke-miterlimit:4;stroke-dasharray:none;stroke-dashoffset:0;stroke-opacity:1;paint-order:markers stroke fill"
               d="m -718.55273,136.5293 c -24.81903,0.43381 -51.20004,27.62664 -49.87696,52.31445 -1.36576,25.48418 26.78925,53.63919 52.27344,52.27344 h 134.0918 v -9.0918 h -134.0918 c -19.96987,1.91207 -45.09371,-23.21177 -43.18164,-43.18164 -1.91207,-19.96987 23.21177,-45.0937 43.18164,-43.18164 19.96988,-1.91208 45.09374,23.21176 43.18164,43.18164 v 25 h 9.0918 v -25 c 1.36576,-25.4842 -26.78924,-53.63725 -52.27344,-52.27148 -0.79638,-0.0427 -1.59587,-0.057 -2.39648,-0.043 z m 45.57812,177.31445 v 9.0918 h 9.0918 v -9.0918 z"
               transform="matrix(0.26458333,0,0,0.26458333,0,196.45832)"
               id="path11253"
               inkscape:connector-curvature="0" />
            <path
               style="opacity:1;fill:#e2e2e2;fill-opacity:1;fill-rule:nonzero;stroke:none;stroke-width:6.9784193;stroke-linecap:round;stroke-linejoin:miter;stroke-miterlimit:4;stroke-dasharray:none;stroke-dashoffset:0;stroke-opacity:1;paint-order:markers stroke fill"
               d="m -716.15625,118.38867 c -36.51277,-0.27315 -70.72823,33.94231 -70.45508,70.45508 -0.27315,36.51277 33.94231,70.72822 70.45508,70.45508 h 134.0918 v -9.0918 h -134.0918 c -30.99848,0.81946 -62.18274,-30.3648 -61.36328,-61.36328 -0.81946,-30.99848 30.3648,-62.18273 61.36328,-61.36328 30.9985,-0.81946 62.18277,30.36478 61.36328,61.36328 v 25 h 9.0918 v -25 c 0.27315,-36.51278 -33.94229,-70.72823 -70.45508,-70.45508 z m 61.36328,195.45508 v 9.0918 h 9.0918 v -9.0918 z"
               transform="matrix(0.26458333,0,0,0.26458333,0,196.45832)"
               id="path11255"
               inkscape:connector-curvature="0" />
            <path
               style="opacity:1;fill:#e2e2e2;fill-opacity:1;fill-rule:nonzero;stroke:none;stroke-width:6.9784193;stroke-linecap:round;stroke-linejoin:miter;stroke-miterlimit:4;stroke-dasharray:none;stroke-dashoffset:0;stroke-opacity:1;paint-order:markers stroke fill"
               d="m -716.15625,100.20703 c -47.54138,0.81946 -87.81726,41.09534 -88.63672,88.63672 0.81946,47.54137 41.09535,87.81724 88.63672,88.63672 h 134.0918 v -9.0918 h -134.0918 v 0.002 c -42.02709,-0.27313 -79.27177,-37.51979 -79.54492,-79.54687 0.27315,-42.02708 37.51784,-79.27175 79.54492,-79.54492 42.02711,0.27315 79.2718,37.51781 79.54492,79.54492 v 25 h 9.0918 v -25 c -0.81947,-47.54138 -41.09532,-87.81726 -88.63672,-88.63672 z m 79.54492,213.63672 v 9.0918 h 9.0918 v -9.0918 z"
               transform="matrix(0.26458333,0,0,0.26458333,0,196.45832)"
               id="path11257"
               inkscape:connector-curvature="0" />
            <path
               style="opacity:1;fill:#e2e2e2;fill-opacity:1;fill-rule:nonzero;stroke:none;stroke-width:6.9784193;stroke-linecap:round;stroke-linejoin:miter;stroke-miterlimit:4;stroke-dasharray:none;stroke-dashoffset:0;stroke-opacity:1;paint-order:markers stroke fill"
               d="m -716.15625,82.025391 c -58.56997,1.912073 -104.90628,48.248379 -106.81836,106.818359 1.91207,58.56996 48.2484,104.90626 106.81836,106.81836 h 134.0918 v -9.08984 h -134.0918 c -53.05565,-1.36577 -96.3608,-44.67288 -97.72656,-97.72852 1.36576,-53.05564 44.67093,-96.360781 97.72656,-97.726562 53.05567,1.365765 96.36083,44.670882 97.72656,97.726562 v 25 h 9.0918 v -25 C -611.24997,130.27379 -657.58625,83.937471 -716.15625,82.025391 Z m 97.72656,231.818359 v 9.0918 h 9.0918 v -9.0918 z"
               transform="matrix(0.26458333,0,0,0.26458333,0,196.45832)"
               id="path11259"
               inkscape:connector-curvature="0" />
            <path
               style="opacity:1;fill:#e2e2e2;fill-opacity:1;fill-rule:nonzero;stroke:none;stroke-width:6.9784193;stroke-linecap:round;stroke-linejoin:miter;stroke-miterlimit:4;stroke-dasharray:none;stroke-dashoffset:0;stroke-opacity:1;paint-order:markers stroke fill"
               d="m -716.15625,63.84375 c -69.59855,3.004689 -121.99531,55.40145 -125,125 3.00469,69.59853 55.40147,121.99529 125,125 h 115.9082 v 9.0918 h 9.0918 v -9.0918 h 9.0918 v -9.08984 h -134.0918 c -64.08426,-2.45838 -113.45177,-51.82592 -115.91016,-115.91016 2.45839,-64.08424 51.82592,-113.449802 115.91016,-115.908203 64.08428,2.458384 113.44986,51.823903 115.9082,115.908203 v 25 h 9.0918 v -25 c -3.0047,-69.59854 -55.40142,-121.99531 -125,-125 z"
               transform="matrix(0.26458333,0,0,0.26458333,0,196.45832)"
               id="path11261"
               inkscape:connector-curvature="0" />
          </g>
        </g>
        <g
           id="g11295"
           transform="rotate(-180,-198.23854,277.13918)"
           style="fill:#e2e2e2;fill-opacity:1">
          <g
             transform="translate(-137.10274)"
             id="g11279"
             style="fill:#e2e2e2;fill-opacity:1">
            <path
               inkscape:connector-curvature="0"
               style="opacity:1;fill:#e2e2e2;fill-opacity:1;fill-rule:nonzero;stroke:none;stroke-width:6.9784193;stroke-linecap:round;stroke-linejoin:miter;stroke-miterlimit:4;stroke-dasharray:none;stroke-dashoffset:0;stroke-opacity:1;paint-order:markers stroke fill"
               d="m -718.94922,154.57227 c -14.32932,0.45458 -33.60356,20.71937 -31.29883,34.27148 -2.45838,14.45558 19.63622,36.55017 34.0918,34.0918 h 134.0918 v -9.0918 h -100.00196 v -25 c 2.45839,-14.4556 -19.63425,-36.54823 -34.08984,-34.08984 -0.90347,-0.15365 -1.83768,-0.21195 -2.79297,-0.18164 z m 1.00586,8.95898 c 0.63005,0.0232 1.22828,0.12471 1.78711,0.3125 8.94127,-3.00469 28.00471,16.05874 25,25 v 25 h -25 c -8.94126,3.00469 -28.00469,-16.05873 -25,-25 -2.8169,-8.38244 13.76214,-25.66117 23.21289,-25.3125 z m 26.78711,150.3125 v 9.0918 h 9.08984 v -9.0918 z"
               transform="matrix(0.26458333,0,0,0.26458333,0,196.45832)"
               id="path11267" />
            <path
               inkscape:connector-curvature="0"
               style="opacity:1;fill:#e2e2e2;fill-opacity:1;fill-rule:nonzero;stroke:none;stroke-width:6.9784193;stroke-linecap:round;stroke-linejoin:miter;stroke-miterlimit:4;stroke-dasharray:none;stroke-dashoffset:0;stroke-opacity:1;paint-order:markers stroke fill"
               d="m -718.55273,136.5293 c -24.81903,0.43381 -51.20004,27.62664 -49.87696,52.31445 -1.36576,25.48418 26.78925,53.63919 52.27344,52.27344 h 134.0918 v -9.0918 h -134.0918 c -19.96987,1.91207 -45.09371,-23.21177 -43.18164,-43.18164 -1.91207,-19.96987 23.21177,-45.0937 43.18164,-43.18164 19.96988,-1.91208 45.09374,23.21176 43.18164,43.18164 v 25 h 9.0918 v -25 c 1.36576,-25.4842 -26.78924,-53.63725 -52.27344,-52.27148 -0.79638,-0.0427 -1.59587,-0.057 -2.39648,-0.043 z m 45.57812,177.31445 v 9.0918 h 9.0918 v -9.0918 z"
               transform="matrix(0.26458333,0,0,0.26458333,0,196.45832)"
               id="path11269" />
            <path
               inkscape:connector-curvature="0"
               style="opacity:1;fill:#e2e2e2;fill-opacity:1;fill-rule:nonzero;stroke:none;stroke-width:6.9784193;stroke-linecap:round;stroke-linejoin:miter;stroke-miterlimit:4;stroke-dasharray:none;stroke-dashoffset:0;stroke-opacity:1;paint-order:markers stroke fill"
               d="m -716.15625,118.38867 c -36.51277,-0.27315 -70.72823,33.94231 -70.45508,70.45508 -0.27315,36.51277 33.94231,70.72822 70.45508,70.45508 h 134.0918 v -9.0918 h -134.0918 c -30.99848,0.81946 -62.18274,-30.3648 -61.36328,-61.36328 -0.81946,-30.99848 30.3648,-62.18273 61.36328,-61.36328 30.9985,-0.81946 62.18277,30.36478 61.36328,61.36328 v 25 h 9.0918 v -25 c 0.27315,-36.51278 -33.94229,-70.72823 -70.45508,-70.45508 z m 61.36328,195.45508 v 9.0918 h 9.0918 v -9.0918 z"
               transform="matrix(0.26458333,0,0,0.26458333,0,196.45832)"
               id="path11271" />
            <path
               inkscape:connector-curvature="0"
               style="opacity:1;fill:#e2e2e2;fill-opacity:1;fill-rule:nonzero;stroke:none;stroke-width:6.9784193;stroke-linecap:round;stroke-linejoin:miter;stroke-miterlimit:4;stroke-dasharray:none;stroke-dashoffset:0;stroke-opacity:1;paint-order:markers stroke fill"
               d="m -716.15625,100.20703 c -47.54138,0.81946 -87.81726,41.09534 -88.63672,88.63672 0.81946,47.54137 41.09535,87.81724 88.63672,88.63672 h 134.0918 v -9.0918 h -134.0918 v 0.002 c -42.02709,-0.27313 -79.27177,-37.51979 -79.54492,-79.54687 0.27315,-42.02708 37.51784,-79.27175 79.54492,-79.54492 42.02711,0.27315 79.2718,37.51781 79.54492,79.54492 v 25 h 9.0918 v -25 c -0.81947,-47.54138 -41.09532,-87.81726 -88.63672,-88.63672 z m 79.54492,213.63672 v 9.0918 h 9.0918 v -9.0918 z"
               transform="matrix(0.26458333,0,0,0.26458333,0,196.45832)"
               id="path11273" />
            <path
               inkscape:connector-curvature="0"
               style="opacity:1;fill:#e2e2e2;fill-opacity:1;fill-rule:nonzero;stroke:none;stroke-width:6.9784193;stroke-linecap:round;stroke-linejoin:miter;stroke-miterlimit:4;stroke-dasharray:none;stroke-dashoffset:0;stroke-opacity:1;paint-order:markers stroke fill"
               d="m -716.15625,82.025391 c -58.56997,1.912073 -104.90628,48.248379 -106.81836,106.818359 1.91207,58.56996 48.2484,104.90626 106.81836,106.81836 h 134.0918 v -9.08984 h -134.0918 c -53.05565,-1.36577 -96.3608,-44.67288 -97.72656,-97.72852 1.36576,-53.05564 44.67093,-96.360781 97.72656,-97.726562 53.05567,1.365765 96.36083,44.670882 97.72656,97.726562 v 25 h 9.0918 v -25 C -611.24997,130.27379 -657.58625,83.937471 -716.15625,82.025391 Z m 97.72656,231.818359 v 9.0918 h 9.0918 v -9.0918 z"
               transform="matrix(0.26458333,0,0,0.26458333,0,196.45832)"
               id="path11275" />
            <path
               inkscape:connector-curvature="0"
               style="opacity:1;fill:#e2e2e2;fill-opacity:1;fill-rule:nonzero;stroke:none;stroke-width:6.9784193;stroke-linecap:round;stroke-linejoin:miter;stroke-miterlimit:4;stroke-dasharray:none;stroke-dashoffset:0;stroke-opacity:1;paint-order:markers stroke fill"
               d="m -716.15625,63.84375 c -69.59855,3.004689 -121.99531,55.40145 -125,125 3.00469,69.59853 55.40147,121.99529 125,125 h 115.9082 v 9.0918 h 9.0918 v -9.0918 h 9.0918 v -9.08984 h -134.0918 c -64.08426,-2.45838 -113.45177,-51.82592 -115.91016,-115.91016 2.45839,-64.08424 51.82592,-113.449802 115.91016,-115.908203 64.08428,2.458384 113.44986,51.823903 115.9082,115.908203 v 25 h 9.0918 v -25 c -3.0047,-69.59854 -55.40142,-121.99531 -125,-125 z"
               transform="matrix(0.26458333,0,0,0.26458333,0,196.45832)"
               id="path11277" />
          </g>
          <g
             transform="rotate(90,-222.55592,213.35031)"
             id="g11293"
             style="fill:#e2e2e2;fill-opacity:1">
            <path
               inkscape:connector-curvature="0"
               id="path11281"
               transform="matrix(0.26458333,0,0,0.26458333,0,196.45832)"
               d="m -718.94922,154.57227 c -14.32932,0.45458 -33.60356,20.71937 -31.29883,34.27148 -2.45838,14.45558 19.63622,36.55017 34.0918,34.0918 h 134.0918 v -9.0918 h -100.00196 v -25 c 2.45839,-14.4556 -19.63425,-36.54823 -34.08984,-34.08984 -0.90347,-0.15365 -1.83768,-0.21195 -2.79297,-0.18164 z m 1.00586,8.95898 c 0.63005,0.0232 1.22828,0.12471 1.78711,0.3125 8.94127,-3.00469 28.00471,16.05874 25,25 v 25 h -25 c -8.94126,3.00469 -28.00469,-16.05873 -25,-25 -2.8169,-8.38244 13.76214,-25.66117 23.21289,-25.3125 z m 26.78711,150.3125 v 9.0918 h 9.08984 v -9.0918 z"
               style="opacity:1;fill:#e2e2e2;fill-opacity:1;fill-rule:nonzero;stroke:none;stroke-width:6.9784193;stroke-linecap:round;stroke-linejoin:miter;stroke-miterlimit:4;stroke-dasharray:none;stroke-dashoffset:0;stroke-opacity:1;paint-order:markers stroke fill" />
            <path
               inkscape:connector-curvature="0"
               id="path11283"
               transform="matrix(0.26458333,0,0,0.26458333,0,196.45832)"
               d="m -718.55273,136.5293 c -24.81903,0.43381 -51.20004,27.62664 -49.87696,52.31445 -1.36576,25.48418 26.78925,53.63919 52.27344,52.27344 h 134.0918 v -9.0918 h -134.0918 c -19.96987,1.91207 -45.09371,-23.21177 -43.18164,-43.18164 -1.91207,-19.96987 23.21177,-45.0937 43.18164,-43.18164 19.96988,-1.91208 45.09374,23.21176 43.18164,43.18164 v 25 h 9.0918 v -25 c 1.36576,-25.4842 -26.78924,-53.63725 -52.27344,-52.27148 -0.79638,-0.0427 -1.59587,-0.057 -2.39648,-0.043 z m 45.57812,177.31445 v 9.0918 h 9.0918 v -9.0918 z"
               style="opacity:1;fill:#e2e2e2;fill-opacity:1;fill-rule:nonzero;stroke:none;stroke-width:6.9784193;stroke-linecap:round;stroke-linejoin:miter;stroke-miterlimit:4;stroke-dasharray:none;stroke-dashoffset:0;stroke-opacity:1;paint-order:markers stroke fill" />
            <path
               inkscape:connector-curvature="0"
               id="path11285"
               transform="matrix(0.26458333,0,0,0.26458333,0,196.45832)"
               d="m -716.15625,118.38867 c -36.51277,-0.27315 -70.72823,33.94231 -70.45508,70.45508 -0.27315,36.51277 33.94231,70.72822 70.45508,70.45508 h 134.0918 v -9.0918 h -134.0918 c -30.99848,0.81946 -62.18274,-30.3648 -61.36328,-61.36328 -0.81946,-30.99848 30.3648,-62.18273 61.36328,-61.36328 30.9985,-0.81946 62.18277,30.36478 61.36328,61.36328 v 25 h 9.0918 v -25 c 0.27315,-36.51278 -33.94229,-70.72823 -70.45508,-70.45508 z m 61.36328,195.45508 v 9.0918 h 9.0918 v -9.0918 z"
               style="opacity:1;fill:#e2e2e2;fill-opacity:1;fill-rule:nonzero;stroke:none;stroke-width:6.9784193;stroke-linecap:round;stroke-linejoin:miter;stroke-miterlimit:4;stroke-dasharray:none;stroke-dashoffset:0;stroke-opacity:1;paint-order:markers stroke fill" />
            <path
               inkscape:connector-curvature="0"
               id="path11287"
               transform="matrix(0.26458333,0,0,0.26458333,0,196.45832)"
               d="m -716.15625,100.20703 c -47.54138,0.81946 -87.81726,41.09534 -88.63672,88.63672 0.81946,47.54137 41.09535,87.81724 88.63672,88.63672 h 134.0918 v -9.0918 h -134.0918 v 0.002 c -42.02709,-0.27313 -79.27177,-37.51979 -79.54492,-79.54687 0.27315,-42.02708 37.51784,-79.27175 79.54492,-79.54492 42.02711,0.27315 79.2718,37.51781 79.54492,79.54492 v 25 h 9.0918 v -25 c -0.81947,-47.54138 -41.09532,-87.81726 -88.63672,-88.63672 z m 79.54492,213.63672 v 9.0918 h 9.0918 v -9.0918 z"
               style="opacity:1;fill:#e2e2e2;fill-opacity:1;fill-rule:nonzero;stroke:none;stroke-width:6.9784193;stroke-linecap:round;stroke-linejoin:miter;stroke-miterlimit:4;stroke-dasharray:none;stroke-dashoffset:0;stroke-opacity:1;paint-order:markers stroke fill" />
            <path
               inkscape:connector-curvature="0"
               id="path11289"
               transform="matrix(0.26458333,0,0,0.26458333,0,196.45832)"
               d="m -716.15625,82.025391 c -58.56997,1.912073 -104.90628,48.248379 -106.81836,106.818359 1.91207,58.56996 48.2484,104.90626 106.81836,106.81836 h 134.0918 v -9.08984 h -134.0918 c -53.05565,-1.36577 -96.3608,-44.67288 -97.72656,-97.72852 1.36576,-53.05564 44.67093,-96.360781 97.72656,-97.726562 53.05567,1.365765 96.36083,44.670882 97.72656,97.726562 v 25 h 9.0918 v -25 C -611.24997,130.27379 -657.58625,83.937471 -716.15625,82.025391 Z m 97.72656,231.818359 v 9.0918 h 9.0918 v -9.0918 z"
               style="opacity:1;fill:#e2e2e2;fill-opacity:1;fill-rule:nonzero;stroke:none;stroke-width:6.9784193;stroke-linecap:round;stroke-linejoin:miter;stroke-miterlimit:4;stroke-dasharray:none;stroke-dashoffset:0;stroke-opacity:1;paint-order:markers stroke fill" />
            <path
               inkscape:connector-curvature="0"
               id="path11291"
               transform="matrix(0.26458333,0,0,0.26458333,0,196.45832)"
               d="m -716.15625,63.84375 c -69.59855,3.004689 -121.99531,55.40145 -125,125 3.00469,69.59853 55.40147,121.99529 125,125 h 115.9082 v 9.0918 h 9.0918 v -9.0918 h 9.0918 v -9.08984 h -134.0918 c -64.08426,-2.45838 -113.45177,-51.82592 -115.91016,-115.91016 2.45839,-64.08424 51.82592,-113.449802 115.91016,-115.908203 64.08428,2.458384 113.44986,51.823903 115.9082,115.908203 v 25 h 9.0918 v -25 c -3.0047,-69.59854 -55.40142,-121.99531 -125,-125 z"
               style="opacity:1;fill:#e2e2e2;fill-opacity:1;fill-rule:nonzero;stroke:none;stroke-width:6.9784193;stroke-linecap:round;stroke-linejoin:miter;stroke-miterlimit:4;stroke-dasharray:none;stroke-dashoffset:0;stroke-opacity:1;paint-order:markers stroke fill" />
          </g>
        </g>
      </g>
    </g>
    <g
       transform="matrix(0.44788532,0,0,0.44788532,23.104346,217.48622)"
       id="g1159">
      <g
         aria-label="MS"
         style="font-style:normal;font-weight:normal;font-size:10.58333302px;line-height:1.25;font-family:sans-serif;letter-spacing:0px;word-spacing:0px;fill:#000000;fill-opacity:1;stroke:none;stroke-width:0.26458332"
         id="text1153">
        <path
           d="m -13.102167,168.46541 q 0.148166,-0.23284 0.370416,-0.32809 0.22225,-0.10583 0.455084,-0.10583 0.275166,0 0.4445,0.20108 0.169333,0.1905 0.169333,0.51859 v 5.02708 l 3.5348333,-5.31283 q 0.1481667,-0.23284 0.3598333,-0.32809 0.22225,-0.10583 0.4656667,-0.10583 0.2751666,0 0.4445,0.20108 0.1693333,0.1905 0.1693333,0.51859 v 7.59883 h -1.4393333 v -5.57742 l -3.2173333,5.08 q -0.179917,0.28575 -0.391583,0.39159 -0.211667,0.10583 -0.433917,0.10583 -0.1905,0 -0.359833,-0.0635 -0.169334,-0.0741 -0.296334,-0.20108 -0.127,-0.127 -0.201083,-0.29634 -0.07408,-0.16933 -0.07408,-0.381 v -4.6355 l -3.534833,5.57742 h -1.7145 z"
           style="font-style:normal;font-variant:normal;font-weight:normal;font-stretch:normal;font-family:Strasua;-inkscape-font-specification:Strasua;stroke-width:0.26458332"
           id="path1161"
           inkscape:connector-curvature="0" />
        <path
           d="m -5.7073936,176.34999 v -1.43933 h 2.8892499 q 0.66675,0 1.1006666,-0.3175 0.4339167,-0.3175 0.4339167,-0.8255 0,-0.254 -0.1164167,-0.46567 -0.1164167,-0.21167 -0.3175,-0.35983 -0.2010833,-0.15875 -0.4868333,-0.24342 -0.28575,-0.0847 -0.6138333,-0.0847 h -0.6561667 q -0.5079999,0 -0.9419166,-0.15875 -0.4339167,-0.16933 -0.7514166,-0.46566 -0.3175,-0.30692 -0.4974167,-0.70909 -0.1799167,-0.41275 -0.1799167,-0.91016 0,-0.48684 0.1799167,-0.89959 0.1905,-0.41275 0.5291667,-0.71966 0.3386666,-0.30692 0.8149166,-0.47625 0.47625,-0.17992 1.04775,-0.17992 h 2.74108322 v 1.43933 H -3.3473104 q -0.4550833,0 -0.7196666,0.254 -0.2645833,0.24342 -0.2645833,0.59267 0,0.381 0.2645833,0.635 0.2751666,0.254 0.7196666,0.254 h 0.8149167 q 0.5503333,0 1.0159999,0.1905 0.4656667,0.17992 0.80433336,0.51858 0.33866665,0.33867 0.52916665,0.80434 0.19049999,0.46566 0.19049999,1.016 0,0.56091 -0.20108333,1.02658 -0.20108332,0.46567 -0.58208331,0.80433 -0.37041666,0.33867 -0.88899996,0.52917 -0.5185833,0.1905 -1.1535833,0.1905 z"
           style="font-style:normal;font-variant:normal;font-weight:normal;font-stretch:normal;font-family:Strasua;-inkscape-font-specification:Strasua;stroke-width:0.26458332"
           id="path1163"
           inkscape:connector-curvature="0" />
      </g>
      <g
         aria-label="M"
         transform="scale(-1,1)"
         style="font-style:normal;font-weight:normal;font-size:10.58333302px;line-height:1.25;font-family:sans-serif;letter-spacing:0px;word-spacing:0px;fill:#000000;fill-opacity:1;stroke:none;stroke-width:0.26458332"
         id="text1157">
        <path
           d="m -7.4032889,168.46365 q 0.1481666,-0.23283 0.3704166,-0.32808 0.22225,-0.10583 0.4550834,-0.10583 0.2751666,0 0.4444999,0.20108 0.1693334,0.1905 0.1693334,0.51858 v 5.02709 l 3.5348332,-5.31284 q 0.1481667,-0.23283 0.3598333,-0.32808 0.22225,-0.10583 0.4656667,-0.10583 0.2751666,0 0.4445,0.20108 0.16933329,0.1905 0.16933329,0.51858 v 7.59884 H -2.4291224 v -5.57742 l -3.2173332,5.08 q -0.1799167,0.28575 -0.3915834,0.39158 -0.2116666,0.10584 -0.4339166,0.10584 -0.1905,0 -0.3598333,-0.0635 -0.1693334,-0.0741 -0.2963334,-0.20109 -0.127,-0.127 -0.2010833,-0.29633 -0.074083,-0.16933 -0.074083,-0.381 v -4.6355 l -3.5348334,5.57742 h -1.7145 z"
           style="font-style:normal;font-variant:normal;font-weight:normal;font-stretch:normal;font-family:Strasua;-inkscape-font-specification:Strasua;stroke-width:0.26458332"
           id="path1166"
           inkscape:connector-curvature="0" />
      </g>
    </g>
    <rect
       style="opacity:1;fill:#3fa9ff;fill-opacity:1;fill-rule:nonzero;stroke:none;stroke-width:0.2093633;stroke-linecap:round;stroke-linejoin:miter;stroke-miterlimit:1.5;stroke-dasharray:none;stroke-dashoffset:0;stroke-opacity:1;paint-order:markers stroke fill"
       id="rect878"
       width="8.5964546"
       height="17.389563"
       x="-70.214569"
       y="208.28487" />
    <rect
       style="opacity:1;fill:#7c98b8;fill-opacity:1;fill-rule:nonzero;stroke:none;stroke-width:0.20935118;stroke-linecap:round;stroke-linejoin:miter;stroke-miterlimit:1.5;stroke-dasharray:none;stroke-dashoffset:0;stroke-opacity:1;paint-order:markers stroke fill"
       id="rect878-5"
       width="8.5964546"
       height="17.387552"
       x="-30.320061"
       y="208.28572" />
    <rect
       style="opacity:1;fill:#0299ad;fill-opacity:1;fill-rule:nonzero;stroke:none;stroke-width:0.2093633;stroke-linecap:round;stroke-linejoin:miter;stroke-miterlimit:1.5;stroke-dasharray:none;stroke-dashoffset:0;stroke-opacity:1;paint-order:markers stroke fill"
       id="rect878-9"
       width="8.5964546"
       height="17.389563"
       x="-70.214569"
       y="226.73074" />
    <rect
       style="opacity:0.63999999;fill:#1311bf;fill-opacity:1;fill-rule:nonzero;stroke:none;stroke-width:0.2100224;stroke-linecap:round;stroke-linejoin:miter;stroke-miterlimit:1.5;stroke-dasharray:none;stroke-dashoffset:0;stroke-opacity:1;paint-order:markers stroke fill"
       id="rect878-9-4"
       width="8.5964546"
       height="17.499224"
       x="-70.217102"
       y="248.4747" />
    <rect
       style="opacity:1;fill:#1311bf;fill-opacity:1;fill-rule:nonzero;stroke:none;stroke-width:0.2093633;stroke-linecap:round;stroke-linejoin:miter;stroke-miterlimit:1.5;stroke-dasharray:none;stroke-dashoffset:0;stroke-opacity:1;paint-order:markers stroke fill"
       id="rect878-9-4-8"
       width="8.5964546"
       height="17.389563"
       x="-70.21711"
       y="267.03036" />
    <g
       aria-label="WaveShaper"
       style="font-style:normal;font-variant:normal;font-weight:normal;font-stretch:normal;font-size:10.58333302px;line-height:1.25;font-family:'OmegaForce Condensed';-inkscape-font-specification:'OmegaForce Condensed, ';letter-spacing:0px;word-spacing:0px;fill:#000000;fill-opacity:1;stroke:none;stroke-width:0.26458332"
       id="text917">
      <path
         d="m 9.1787691,197.64684 h 0.5333008 l 0.2211751,2.26549 0.26665,-1.46554 h 0.506429 l 0.310059,1.46554 0.173633,-2.26549 h 0.537435 l -0.355534,3.08612 h -0.568441 l -0.3514,-1.62058 -0.328662,1.62058 H 9.5591076 Z"
         style="font-style:normal;font-variant:normal;font-weight:bold;font-stretch:normal;font-size:4.23333311px;font-family:'DejaVu Sans Mono';-inkscape-font-specification:'DejaVu Sans Mono Bold';stroke-width:0.26458332"
         id="path876" />
      <path
         d="m 13.172324,199.64568 q -0.338998,0 -0.473357,0.0868 -0.134358,0.0868 -0.134358,0.29766 0,0.15709 0.09302,0.25011 0.09302,0.093 0.252181,0.093 0.239779,0 0.372071,-0.17984 0.132291,-0.1819 0.132291,-0.50643 v -0.0413 z m 0.843359,-0.23357 v 1.32085 h -0.601514 v -0.25839 q -0.109554,0.15297 -0.28112,0.23565 -0.171565,0.0827 -0.378271,0.0827 -0.394808,0 -0.615983,-0.20877 -0.219108,-0.20877 -0.219108,-0.58291 0,-0.40515 0.262516,-0.59738 0.262516,-0.19431 0.812354,-0.19431 h 0.419612 v -0.10128 q 0,-0.14676 -0.107487,-0.22118 -0.10542,-0.0765 -0.312125,-0.0765 -0.217041,0 -0.42168,0.0558 -0.202572,0.0538 -0.423747,0.17364 v -0.51677 q 0.200505,-0.0827 0.407211,-0.12195 0.206705,-0.0393 0.438216,-0.0393 0.564306,0 0.791683,0.22944 0.229443,0.22945 0.229443,0.82063 z"
         style="font-style:normal;font-variant:normal;font-weight:bold;font-stretch:normal;font-size:4.23333311px;font-family:'DejaVu Sans Mono';-inkscape-font-specification:'DejaVu Sans Mono Bold';stroke-width:0.26458332"
         id="path878" />
      <path
         d="m 16.655315,198.41785 -0.735872,2.31511 h -0.746208 l -0.735872,-2.31511 h 0.613915 l 0.494027,1.80661 0.496094,-1.80661 z"
         style="font-style:normal;font-variant:normal;font-weight:bold;font-stretch:normal;font-size:4.23333311px;font-family:'DejaVu Sans Mono';-inkscape-font-specification:'DejaVu Sans Mono Bold';stroke-width:0.26458332"
         id="path880" />
      <path
         d="m 19.096509,200.61927 q -0.21084,0.0868 -0.429948,0.13022 -0.219108,0.0434 -0.463021,0.0434 -0.580843,0 -0.888834,-0.31006 -0.305925,-0.31212 -0.305925,-0.8971 0,-0.56637 0.29559,-0.89504 0.295589,-0.32866 0.806152,-0.32866 0.514697,0 0.797884,0.30593 0.285254,0.30385 0.285254,0.85782 v 0.24598 h -1.568897 q 0.0021,0.27286 0.161231,0.40721 0.159163,0.13436 0.475423,0.13436 0.208773,0 0.411344,-0.0599 0.202572,-0.0599 0.423747,-0.19017 z m -0.51263,-1.30225 q -0.0041,-0.23978 -0.124023,-0.36173 -0.117823,-0.12403 -0.349333,-0.12403 -0.208773,0 -0.332796,0.12816 -0.124024,0.12609 -0.146761,0.35967 z"
         style="font-style:normal;font-variant:normal;font-weight:bold;font-stretch:normal;font-size:4.23333311px;font-family:'DejaVu Sans Mono';-inkscape-font-specification:'DejaVu Sans Mono Bold';stroke-width:0.26458332"
         id="path882" />
      <path
         d="m 20.419426,199.37903 q -0.460954,-0.1757 -0.624251,-0.36793 -0.163298,-0.19431 -0.163298,-0.5209 0,-0.41961 0.268718,-0.65939 0.268717,-0.23978 0.737939,-0.23978 0.212907,0 0.425814,0.0496 0.212907,0.0475 0.421679,0.14263 v 0.59531 q -0.19637,-0.1385 -0.398942,-0.21084 -0.202571,-0.0724 -0.401009,-0.0724 -0.221175,0 -0.338997,0.0889 -0.117822,0.0889 -0.117822,0.25425 0,0.12816 0.08475,0.21291 0.08682,0.0827 0.359668,0.18397 l 0.262516,0.0992 q 0.37207,0.13642 0.54777,0.36173 0.1757,0.22531 0.1757,0.56844 0,0.46716 -0.276985,0.69867 -0.274919,0.22944 -0.833024,0.22944 -0.229444,0 -0.460954,-0.0558 -0.229444,-0.0537 -0.444418,-0.16123 v -0.63045 q 0.243913,0.17363 0.47129,0.25838 0.229443,0.0848 0.452685,0.0848 0.225309,0 0.349333,-0.10129 0.124023,-0.10335 0.124023,-0.28732 0,-0.13849 -0.08268,-0.24184 -0.08268,-0.10542 -0.239779,-0.16537 z"
         style="font-style:normal;font-variant:normal;font-weight:bold;font-stretch:normal;font-size:4.23333311px;font-family:'DejaVu Sans Mono';-inkscape-font-specification:'DejaVu Sans Mono Bold';stroke-width:0.26458332"
         id="path884" />
      <path
         d="m 24.12566,199.23021 v 1.50275 h -0.601514 v -1.40974 q 0,-0.25011 -0.07235,-0.3576 -0.07028,-0.10748 -0.23151,-0.10748 -0.165365,0 -0.258383,0.14676 -0.09302,0.14469 -0.09302,0.40307 v 1.32499 h -0.601514 v -3.21635 h 0.601514 v 1.24851 q 0.06408,-0.19224 0.219108,-0.29766 0.155029,-0.10542 0.374137,-0.10542 0.328662,0 0.496094,0.21911 0.167432,0.21704 0.167432,0.64906 z"
         style="font-style:normal;font-variant:normal;font-weight:bold;font-stretch:normal;font-size:4.23333311px;font-family:'DejaVu Sans Mono';-inkscape-font-specification:'DejaVu Sans Mono Bold';stroke-width:0.26458332"
         id="path886" />
      <path
         d="m 25.905395,199.64568 q -0.338997,0 -0.473356,0.0868 -0.134359,0.0868 -0.134359,0.29766 0,0.15709 0.09302,0.25011 0.09302,0.093 0.252181,0.093 0.239778,0 0.37207,-0.17984 0.132292,-0.1819 0.132292,-0.50643 v -0.0413 z m 0.843359,-0.23357 v 1.32085 h -0.601513 v -0.25839 q -0.109554,0.15297 -0.28112,0.23565 -0.171566,0.0827 -0.378271,0.0827 -0.394808,0 -0.615983,-0.20877 -0.219109,-0.20877 -0.219109,-0.58291 0,-0.40515 0.262517,-0.59738 0.262516,-0.19431 0.812353,-0.19431 h 0.419613 v -0.10128 q 0,-0.14676 -0.107487,-0.22118 -0.10542,-0.0765 -0.312126,-0.0765 -0.217041,0 -0.421679,0.0558 -0.202572,0.0538 -0.423747,0.17364 v -0.51677 q 0.200504,-0.0827 0.40721,-0.12195 0.206706,-0.0393 0.438216,-0.0393 0.564307,0 0.791683,0.22944 0.229443,0.22945 0.229443,0.82063 z"
         style="font-style:normal;font-variant:normal;font-weight:bold;font-stretch:normal;font-size:4.23333311px;font-family:'DejaVu Sans Mono';-inkscape-font-specification:'DejaVu Sans Mono Bold';stroke-width:0.26458332"
         id="path888" />
      <path
         d="m 27.91871,200.40636 v 1.20716 h -0.603581 v -3.19567 h 0.603581 v 0.34727 q 0.09508,-0.20051 0.250114,-0.30179 0.155029,-0.10129 0.363802,-0.10129 0.396875,0 0.615983,0.31833 0.219108,0.31832 0.219108,0.8971 0,0.58705 -0.223242,0.90124 -0.221175,0.31419 -0.63252,0.31419 -0.186035,0 -0.334863,-0.0951 -0.146761,-0.0972 -0.258382,-0.29146 z m 0.843359,-0.83302 q 0,-0.33487 -0.111621,-0.52504 -0.111621,-0.19016 -0.307991,-0.19016 -0.196371,0 -0.310059,0.19016 -0.113688,0.19017 -0.113688,0.52504 0,0.33486 0.113688,0.52503 0.113688,0.19017 0.310059,0.19017 0.19637,0 0.307991,-0.19017 0.111621,-0.19017 0.111621,-0.52503 z"
         style="font-style:normal;font-variant:normal;font-weight:bold;font-stretch:normal;font-size:4.23333311px;font-family:'DejaVu Sans Mono';-inkscape-font-specification:'DejaVu Sans Mono Bold';stroke-width:0.26458332"
         id="path890" />
      <path
         d="m 31.829581,200.61927 q -0.210839,0.0868 -0.429947,0.13022 -0.219109,0.0434 -0.463021,0.0434 -0.580843,0 -0.888835,-0.31006 -0.305924,-0.31212 -0.305924,-0.8971 0,-0.56637 0.295589,-0.89504 0.295589,-0.32866 0.806152,-0.32866 0.514697,0 0.797884,0.30593 0.285254,0.30385 0.285254,0.85782 v 0.24598 h -1.568896 q 0.0021,0.27286 0.16123,0.40721 0.159164,0.13436 0.475423,0.13436 0.208773,0 0.411345,-0.0599 0.202571,-0.0599 0.423746,-0.19017 z m -0.51263,-1.30225 q -0.0041,-0.23978 -0.124023,-0.36173 -0.117822,-0.12403 -0.349333,-0.12403 -0.208773,0 -0.332796,0.12816 -0.124024,0.12609 -0.146761,0.35967 z"
         style="font-style:normal;font-variant:normal;font-weight:bold;font-stretch:normal;font-size:4.23333311px;font-family:'DejaVu Sans Mono';-inkscape-font-specification:'DejaVu Sans Mono Bold';stroke-width:0.26458332"
         id="path892" />
      <path
         d="m 34.477481,199.05657 q -0.09922,-0.0909 -0.233578,-0.13642 -0.132291,-0.0455 -0.291455,-0.0455 -0.192236,0 -0.33693,0.0682 -0.142627,0.0661 -0.221175,0.19431 -0.04961,0.0786 -0.07028,0.19017 -0.0186,0.11162 -0.0186,0.33899 v 1.06661 h -0.605647 v -2.31511 h 0.605647 v 0.35967 q 0.08888,-0.19844 0.272852,-0.30592 0.183968,-0.10956 0.429948,-0.10956 0.124023,0 0.241846,0.031 0.119889,0.0289 0.227376,0.0868 z"
         style="font-style:normal;font-variant:normal;font-weight:bold;font-stretch:normal;font-size:4.23333311px;font-family:'DejaVu Sans Mono';-inkscape-font-specification:'DejaVu Sans Mono Bold';stroke-width:0.26458332"
         id="path894" />
    </g>
    <text
       xml:space="preserve"
       style="font-style:normal;font-variant:normal;font-weight:normal;font-stretch:normal;font-size:10.58333302px;line-height:1.25;font-family:'OmegaForce Condensed';-inkscape-font-specification:'OmegaForce Condensed, ';letter-spacing:0px;word-spacing:0px;fill:#000000;fill-opacity:1;stroke:none;stroke-width:0.26458332"
       x="-41.789795"
       y="200.74811"
       id="text917-0"><tspan
         sodipodi:role="line"
         id="tspan915-2"
         x="-41.789795"
         y="200.74811"
         style="font-style:normal;font-variant:normal;font-weight:bold;font-stretch:normal;font-size:4.23333311px;font-family:'DejaVu Sans Mono';-inkscape-font-specification:'DejaVu Sans Mono Bold';stroke-width:0.26458332">WaveShaper</tspan></text>
    <g
       aria-label="SHAPE 1"
       style="font-style:normal;font-variant:normal;font-weight:normal;font-stretch:normal;font-size:10.58333302px;line-height:1.25;font-family:'DejaVu Sans Mono';-inkscape-font-specification:'DejaVu Sans Mono';letter-spacing:0px;word-spacing:0px;fill:#000000;fill-opacity:1;stroke:none;stroke-width:0.26458332"
       id="text963">
      <path
         d="m 8.7061462,221.24992 q -0.2304769,-0.0879 -0.3121256,-0.18397 -0.081649,-0.0971 -0.081649,-0.26045 0,-0.2098 0.1343587,-0.32969 0.1343588,-0.11989 0.3689697,-0.11989 0.1064535,0 0.2129069,0.0248 0.1064535,0.0238 0.2108399,0.0713 v 0.29766 q -0.098185,-0.0692 -0.1994711,-0.10542 -0.1012858,-0.0362 -0.2005045,-0.0362 -0.1105876,0 -0.1694987,0.0444 -0.058911,0.0444 -0.058911,0.12712 0,0.0641 0.042375,0.10646 0.043408,0.0413 0.1798339,0.092 l 0.1312582,0.0496 q 0.1860351,0.0682 0.273885,0.18087 0.08785,0.11265 0.08785,0.28422 0,0.23358 -0.1384929,0.34933 -0.1374593,0.11472 -0.416512,0.11472 -0.1147217,0 -0.2304769,-0.0279 -0.1147216,-0.0269 -0.2222086,-0.0806 v -0.31522 q 0.1219564,0.0868 0.2356445,0.12919 0.1147217,0.0424 0.2263428,0.0424 0.1126546,0 0.1746663,-0.0506 0.062012,-0.0517 0.062012,-0.14366 0,-0.0692 -0.041341,-0.12092 -0.041341,-0.0527 -0.1198893,-0.0827 z"
         style="font-style:normal;font-variant:normal;font-weight:bold;font-stretch:normal;font-size:2.11666656px;font-family:'DejaVu Sans Mono';-inkscape-font-specification:'DejaVu Sans Mono Bold';stroke-width:0.26458332"
         id="path1073" />
      <path
         d="m 9.5939473,220.38382 h 0.3048909 v 0.58808 H 10.28021 v -0.58808 h 0.304891 v 1.54306 H 10.28021 v -0.68626 H 9.8988382 v 0.68626 H 9.5939473 Z"
         style="font-style:normal;font-variant:normal;font-weight:bold;font-stretch:normal;font-size:2.11666656px;font-family:'DejaVu Sans Mono';-inkscape-font-specification:'DejaVu Sans Mono Bold';stroke-width:0.26458332"
         id="path1075" />
      <path
         d="m 11.362315,220.66287 -0.143661,0.63149 h 0.288355 z m -0.186035,-0.27905 h 0.373103 l 0.416512,1.54306 h -0.304891 l -0.09508,-0.38137 h -0.408244 l -0.09302,0.38137 h -0.304891 z"
         style="font-style:normal;font-variant:normal;font-weight:bold;font-stretch:normal;font-size:2.11666656px;font-family:'DejaVu Sans Mono';-inkscape-font-specification:'DejaVu Sans Mono Bold';stroke-width:0.26458332"
         id="path1077" />
      <path
         d="m 12.471291,220.64014 v 0.45268 h 0.125057 q 0.149861,0 0.209806,-0.0506 0.06098,-0.0506 0.06098,-0.1757 0,-0.12506 -0.06098,-0.1757 -0.05994,-0.0506 -0.209806,-0.0506 z M 12.1664,220.38382 h 0.418579 q 0.31936,0 0.458887,0.11369 0.140559,0.11369 0.140559,0.36897 0,0.25528 -0.140559,0.36897 -0.139527,0.11369 -0.458887,0.11369 h -0.113688 v 0.57774 H 12.1664 Z"
         style="font-style:normal;font-variant:normal;font-weight:bold;font-stretch:normal;font-size:2.11666656px;font-family:'DejaVu Sans Mono';-inkscape-font-specification:'DejaVu Sans Mono Bold';stroke-width:0.26458332"
         id="path1079" />
      <path
         d="m 14.40709,221.92688 h -0.961182 v -1.54306 h 0.961182 v 0.26872 h -0.656291 v 0.3328 h 0.594279 v 0.26871 h -0.594279 v 0.40411 h 0.656291 z"
         style="font-style:normal;font-variant:normal;font-weight:bold;font-stretch:normal;font-size:2.11666656px;font-family:'DejaVu Sans Mono';-inkscape-font-specification:'DejaVu Sans Mono Bold';stroke-width:0.26458332"
         id="path1081" />
      <path
         d="m 16.013193,221.65816 h 0.341064 v -1.00149 l -0.317293,0.0786 v -0.27492 l 0.31936,-0.0765 h 0.294556 v 1.27434 h 0.341065 v 0.26872 h -0.978752 z"
         style="font-style:normal;font-variant:normal;font-weight:bold;font-stretch:normal;font-size:2.11666656px;font-family:'DejaVu Sans Mono';-inkscape-font-specification:'DejaVu Sans Mono Bold';stroke-width:0.26458332"
         id="path1083" />
    </g>
    <g
       aria-label="CV 1"
       style="font-style:normal;font-variant:normal;font-weight:normal;font-stretch:normal;font-size:10.58333302px;line-height:1.25;font-family:'OmegaForce Condensed';-inkscape-font-specification:'OmegaForce Condensed, ';letter-spacing:0px;word-spacing:0px;fill:#000000;fill-opacity:1;stroke:none;stroke-width:0.26458332"
       id="text915"
       transform="translate(52.594303,30.162513)">
      <path
         d="m -40.672551,249.38659 q -0.07235,0.0372 -0.151928,0.0558 -0.07958,0.0186 -0.167432,0.0186 -0.312125,0 -0.476457,-0.20567 -0.164331,-0.20567 -0.164331,-0.59428 0,-0.38964 0.164331,-0.59531 0.164332,-0.20567 0.476457,-0.20567 0.08785,0 0.168465,0.0186 0.08062,0.0186 0.150895,0.0558 v 0.339 q -0.07855,-0.0724 -0.152962,-0.10542 -0.07338,-0.0341 -0.151928,-0.0341 -0.167432,0 -0.253215,0.13333 -0.08475,0.13229 -0.08475,0.39377 0,0.26045 0.08475,0.39378 0.08578,0.13229 0.253215,0.13229 0.07855,0 0.151928,-0.0331 0.07441,-0.0341 0.152962,-0.10645 z"
         style="font-style:normal;font-variant:normal;font-weight:bold;font-stretch:normal;font-size:2.11666656px;font-family:'DejaVu Sans Mono';-inkscape-font-specification:'DejaVu Sans Mono Bold';stroke-width:0.26458332"
         id="path992"
         inkscape:connector-curvature="0" />
      <path
         d="m -39.879834,249.17678 0.271818,-1.28881 h 0.306958 l -0.366903,1.54306 h -0.422713 l -0.366903,-1.54306 h 0.306958 z"
         style="font-style:normal;font-variant:normal;font-weight:bold;font-stretch:normal;font-size:2.11666656px;font-family:'DejaVu Sans Mono';-inkscape-font-specification:'DejaVu Sans Mono Bold';stroke-width:0.26458332"
         id="path994"
         inkscape:connector-curvature="0" />
      <path
         d="m -37.77557,249.16231 h 0.341064 v -1.00149 l -0.317293,0.0786 v -0.27492 l 0.31936,-0.0765 h 0.294556 v 1.27434 h 0.341065 v 0.26872 h -0.978752 z"
         style="font-style:normal;font-variant:normal;font-weight:bold;font-stretch:normal;font-size:2.11666656px;font-family:'DejaVu Sans Mono';-inkscape-font-specification:'DejaVu Sans Mono Bold';stroke-width:0.26458332"
         id="path996"
         inkscape:connector-curvature="0" />
    </g>
    <g
       aria-label="CV 2"
       style="font-style:normal;font-variant:normal;font-weight:normal;font-stretch:normal;font-size:10.58333302px;line-height:1.25;font-family:'OmegaForce Condensed';-inkscape-font-specification:'OmegaForce Condensed, ';letter-spacing:0px;word-spacing:0px;fill:#000000;fill-opacity:1;stroke:none;stroke-width:0.26458332"
       id="text919"
       transform="translate(61.080091,30.162503)">
      <path
         d="m -40.672551,254.67826 q -0.07235,0.0372 -0.151928,0.0558 -0.07958,0.0186 -0.167432,0.0186 -0.312125,0 -0.476457,-0.20567 -0.164331,-0.20567 -0.164331,-0.59428 0,-0.38964 0.164331,-0.59531 0.164332,-0.20567 0.476457,-0.20567 0.08785,0 0.168465,0.0186 0.08062,0.0186 0.150895,0.0558 v 0.339 q -0.07855,-0.0724 -0.152962,-0.10542 -0.07338,-0.0341 -0.151928,-0.0341 -0.167432,0 -0.253215,0.13333 -0.08475,0.13229 -0.08475,0.39377 0,0.26045 0.08475,0.39378 0.08578,0.13229 0.253215,0.13229 0.07855,0 0.151928,-0.0331 0.07441,-0.0341 0.152962,-0.10646 z"
         style="font-style:normal;font-variant:normal;font-weight:bold;font-stretch:normal;font-size:2.11666656px;font-family:'DejaVu Sans Mono';-inkscape-font-specification:'DejaVu Sans Mono Bold';stroke-width:0.26458332"
         id="path985"
         inkscape:connector-curvature="0" />
      <path
         d="m -39.879834,254.46845 0.271818,-1.28881 h 0.306958 l -0.366903,1.54306 h -0.422713 l -0.366903,-1.54306 h 0.306958 z"
         style="font-style:normal;font-variant:normal;font-weight:bold;font-stretch:normal;font-size:2.11666656px;font-family:'DejaVu Sans Mono';-inkscape-font-specification:'DejaVu Sans Mono Bold';stroke-width:0.26458332"
         id="path987"
         inkscape:connector-curvature="0" />
      <path
         d="m -37.521322,254.45398 h 0.650089 v 0.26872 h -0.979785 v -0.26045 l 0.165365,-0.1757 q 0.294556,-0.31316 0.357601,-0.3855 0.07751,-0.0889 0.111621,-0.1571 0.03411,-0.0693 0.03411,-0.13643 0,-0.10335 -0.06305,-0.15916 -0.06201,-0.0568 -0.176733,-0.0568 -0.08165,0 -0.183968,0.0331 -0.101286,0.032 -0.211874,0.0941 v -0.28422 q 0.110588,-0.0403 0.216008,-0.061 0.106453,-0.0217 0.203605,-0.0217 0.244946,0 0.384473,0.11472 0.140559,0.11369 0.140559,0.31109 0,0.0909 -0.03101,0.17053 -0.02997,0.0796 -0.104387,0.17674 -0.05478,0.0703 -0.300757,0.31626 -0.133325,0.13332 -0.211873,0.2129 z"
         style="font-style:normal;font-variant:normal;font-weight:bold;font-stretch:normal;font-size:2.11666656px;font-family:'DejaVu Sans Mono';-inkscape-font-specification:'DejaVu Sans Mono Bold';stroke-width:0.26458332"
         id="path989"
         inkscape:connector-curvature="0" />
    </g>
    <g
       aria-label="CV 3"
       style="font-style:normal;font-variant:normal;font-weight:normal;font-stretch:normal;font-size:10.58333302px;line-height:1.25;font-family:'OmegaForce Condensed';-inkscape-font-specification:'OmegaForce Condensed, ';letter-spacing:0px;word-spacing:0px;fill:#000000;fill-opacity:1;stroke:none;stroke-width:0.26458332"
       id="text923"
       transform="translate(69.527634,19.579174)">
      <path
         d="m -40.672551,259.96993 q -0.07235,0.0372 -0.151928,0.0558 -0.07958,0.0186 -0.167432,0.0186 -0.312125,0 -0.476457,-0.20568 -0.164331,-0.20567 -0.164331,-0.59428 0,-0.38964 0.164331,-0.59531 0.164332,-0.20567 0.476457,-0.20567 0.08785,0 0.168465,0.0186 0.08062,0.0186 0.150895,0.0558 v 0.339 q -0.07855,-0.0724 -0.152962,-0.10542 -0.07338,-0.0341 -0.151928,-0.0341 -0.167432,0 -0.253215,0.13332 -0.08475,0.13229 -0.08475,0.39377 0,0.26045 0.08475,0.39378 0.08578,0.13229 0.253215,0.13229 0.07855,0 0.151928,-0.0331 0.07441,-0.0341 0.152962,-0.10646 z"
         style="font-style:normal;font-variant:normal;font-weight:bold;font-stretch:normal;font-size:2.11666656px;font-family:'DejaVu Sans Mono';-inkscape-font-specification:'DejaVu Sans Mono Bold';stroke-width:0.26458332"
         id="path978"
         inkscape:connector-curvature="0" />
      <path
         d="m -39.879834,259.76013 0.271818,-1.28881 h 0.306958 l -0.366903,1.54305 h -0.422713 l -0.366903,-1.54305 h 0.306958 z"
         style="font-style:normal;font-variant:normal;font-weight:bold;font-stretch:normal;font-size:2.11666656px;font-family:'DejaVu Sans Mono';-inkscape-font-specification:'DejaVu Sans Mono Bold';stroke-width:0.26458332"
         id="path980"
         inkscape:connector-curvature="0" />
      <path
         d="m -37.402466,259.32398 h -0.163298 v -0.26872 h 0.163298 q 0.113688,0 0.1757,-0.0444 0.06304,-0.0455 0.06304,-0.12713 0,-0.0858 -0.06304,-0.13332 -0.06201,-0.0486 -0.1757,-0.0486 -0.08682,0 -0.186035,0.0217 -0.09922,0.0217 -0.205673,0.063 v -0.27698 q 0.106454,-0.032 0.209807,-0.0486 0.103353,-0.0176 0.198437,-0.0176 0.243913,0 0.380339,0.10645 0.136426,0.10646 0.136426,0.29353 0,0.13746 -0.07855,0.22531 -0.07855,0.0868 -0.224275,0.11368 0.165364,0.0289 0.252181,0.13229 0.08682,0.10232 0.08682,0.26976 0,0.22427 -0.14366,0.34209 -0.143661,0.11783 -0.417546,0.11783 -0.116789,0 -0.230477,-0.0196 -0.112654,-0.0196 -0.216007,-0.0569 v -0.28318 q 0.09715,0.0486 0.209806,0.0744 0.112655,0.0248 0.236678,0.0248 0.124023,0 0.19637,-0.0568 0.07235,-0.0579 0.07235,-0.15503 0,-0.11885 -0.07235,-0.18293 -0.07235,-0.0651 -0.204638,-0.0651 z"
         style="font-style:normal;font-variant:normal;font-weight:bold;font-stretch:normal;font-size:2.11666656px;font-family:'DejaVu Sans Mono';-inkscape-font-specification:'DejaVu Sans Mono Bold';stroke-width:0.26458332"
         id="path982"
         inkscape:connector-curvature="0" />
    </g>
    <g
       aria-label="CV 1"
       style="font-style:normal;font-variant:normal;font-weight:normal;font-stretch:normal;font-size:10.58333302px;line-height:1.25;font-family:'OmegaForce Condensed';-inkscape-font-specification:'OmegaForce Condensed, ';letter-spacing:0px;word-spacing:0px;fill:#000000;fill-opacity:1;stroke:none;stroke-width:0.26458332"
       id="text927"
       transform="translate(81.163106,-27.516668)">
      <path
         d="m -51.255886,249.38659 q -0.07235,0.0372 -0.151929,0.0558 -0.07958,0.0186 -0.167432,0.0186 -0.312125,0 -0.476456,-0.20567 -0.164331,-0.20567 -0.164331,-0.59428 0,-0.38964 0.164331,-0.59531 0.164331,-0.20567 0.476456,-0.20567 0.08785,0 0.168465,0.0186 0.08062,0.0186 0.150896,0.0558 v 0.339 q -0.07855,-0.0724 -0.152963,-0.10542 -0.07338,-0.0341 -0.151928,-0.0341 -0.167432,0 -0.253215,0.13333 -0.08475,0.13229 -0.08475,0.39377 0,0.26045 0.08475,0.39378 0.08578,0.13229 0.253215,0.13229 0.07855,0 0.151928,-0.0331 0.07441,-0.0341 0.152963,-0.10645 z"
         style="font-style:normal;font-variant:normal;font-weight:bold;font-stretch:normal;font-size:2.11666656px;font-family:'DejaVu Sans Mono';-inkscape-font-specification:'DejaVu Sans Mono Bold';stroke-width:0.26458332"
         id="path971"
         inkscape:connector-curvature="0" />
      <path
         d="m -50.46317,249.17678 0.271818,-1.28881 h 0.306958 l -0.366903,1.54306 h -0.422713 l -0.366902,-1.54306 h 0.306958 z"
         style="font-style:normal;font-variant:normal;font-weight:bold;font-stretch:normal;font-size:2.11666656px;font-family:'DejaVu Sans Mono';-inkscape-font-specification:'DejaVu Sans Mono Bold';stroke-width:0.26458332"
         id="path973"
         inkscape:connector-curvature="0" />
      <path
         d="m -48.358906,249.16231 h 0.341065 v -1.00149 l -0.317294,0.0786 v -0.27492 l 0.319361,-0.0765 h 0.294555 v 1.27434 h 0.341065 v 0.26872 h -0.978752 z"
         style="font-style:normal;font-variant:normal;font-weight:bold;font-stretch:normal;font-size:2.11666656px;font-family:'DejaVu Sans Mono';-inkscape-font-specification:'DejaVu Sans Mono Bold';stroke-width:0.26458332"
         id="path975"
         inkscape:connector-curvature="0" />
    </g>
    <g
       aria-label="CV 2"
       style="font-style:normal;font-variant:normal;font-weight:normal;font-stretch:normal;font-size:10.58333302px;line-height:1.25;font-family:'OmegaForce Condensed';-inkscape-font-specification:'OmegaForce Condensed, ';letter-spacing:0px;word-spacing:0px;fill:#000000;fill-opacity:1;stroke:none;stroke-width:0.26458332"
       id="text931"
       transform="translate(81.200311,-16.933334)">
      <path
         d="m -51.255886,254.67826 q -0.07235,0.0372 -0.151929,0.0558 -0.07958,0.0186 -0.167432,0.0186 -0.312125,0 -0.476456,-0.20567 -0.164331,-0.20567 -0.164331,-0.59428 0,-0.38964 0.164331,-0.59531 0.164331,-0.20567 0.476456,-0.20567 0.08785,0 0.168465,0.0186 0.08062,0.0186 0.150896,0.0558 v 0.339 q -0.07855,-0.0724 -0.152963,-0.10542 -0.07338,-0.0341 -0.151928,-0.0341 -0.167432,0 -0.253215,0.13333 -0.08475,0.13229 -0.08475,0.39377 0,0.26045 0.08475,0.39378 0.08578,0.13229 0.253215,0.13229 0.07855,0 0.151928,-0.0331 0.07441,-0.0341 0.152963,-0.10646 z"
         style="font-style:normal;font-variant:normal;font-weight:bold;font-stretch:normal;font-size:2.11666656px;font-family:'DejaVu Sans Mono';-inkscape-font-specification:'DejaVu Sans Mono Bold';stroke-width:0.26458332"
         id="path964"
         inkscape:connector-curvature="0" />
      <path
         d="m -50.46317,254.46845 0.271818,-1.28881 h 0.306958 l -0.366903,1.54306 h -0.422713 l -0.366902,-1.54306 h 0.306958 z"
         style="font-style:normal;font-variant:normal;font-weight:bold;font-stretch:normal;font-size:2.11666656px;font-family:'DejaVu Sans Mono';-inkscape-font-specification:'DejaVu Sans Mono Bold';stroke-width:0.26458332"
         id="path966"
         inkscape:connector-curvature="0" />
      <path
         d="m -48.104658,254.45398 h 0.65009 v 0.26872 h -0.979786 v -0.26045 l 0.165365,-0.1757 q 0.294556,-0.31316 0.357601,-0.3855 0.07752,-0.0889 0.111621,-0.1571 0.03411,-0.0693 0.03411,-0.13643 0,-0.10335 -0.06304,-0.15916 -0.06201,-0.0568 -0.176733,-0.0568 -0.08165,0 -0.183968,0.0331 -0.101286,0.032 -0.211874,0.0941 v -0.28422 q 0.110588,-0.0403 0.216008,-0.061 0.106453,-0.0217 0.203605,-0.0217 0.244946,0 0.384473,0.11472 0.14056,0.11369 0.14056,0.31109 0,0.0909 -0.03101,0.17053 -0.02997,0.0796 -0.104387,0.17674 -0.05478,0.0703 -0.300757,0.31626 -0.133325,0.13332 -0.211873,0.2129 z"
         style="font-style:normal;font-variant:normal;font-weight:bold;font-stretch:normal;font-size:2.11666656px;font-family:'DejaVu Sans Mono';-inkscape-font-specification:'DejaVu Sans Mono Bold';stroke-width:0.26458332"
         id="path968"
         inkscape:connector-curvature="0" />
    </g>
    <g
       aria-label="CV 3"
       style="font-style:normal;font-variant:normal;font-weight:normal;font-stretch:normal;font-size:10.58333302px;line-height:1.25;font-family:'OmegaForce Condensed';-inkscape-font-specification:'OmegaForce Condensed, ';letter-spacing:0px;word-spacing:0px;fill:#000000;fill-opacity:1;stroke:none;stroke-width:0.26458332"
       id="text935"
       transform="translate(81.18119,-6.3499961)">
      <path
         d="m -51.255886,259.96993 q -0.07235,0.0372 -0.151929,0.0558 -0.07958,0.0186 -0.167432,0.0186 -0.312125,0 -0.476456,-0.20568 -0.164331,-0.20567 -0.164331,-0.59428 0,-0.38964 0.164331,-0.59531 0.164331,-0.20567 0.476456,-0.20567 0.08785,0 0.168465,0.0186 0.08062,0.0186 0.150896,0.0558 v 0.339 q -0.07855,-0.0724 -0.152963,-0.10542 -0.07338,-0.0341 -0.151928,-0.0341 -0.167432,0 -0.253215,0.13332 -0.08475,0.13229 -0.08475,0.39377 0,0.26045 0.08475,0.39378 0.08578,0.13229 0.253215,0.13229 0.07855,0 0.151928,-0.0331 0.07441,-0.0341 0.152963,-0.10646 z"
         style="font-style:normal;font-variant:normal;font-weight:bold;font-stretch:normal;font-size:2.11666656px;font-family:'DejaVu Sans Mono';-inkscape-font-specification:'DejaVu Sans Mono Bold';stroke-width:0.26458332"
         id="path957"
         inkscape:connector-curvature="0" />
      <path
         d="m -50.46317,259.76013 0.271818,-1.28881 h 0.306958 l -0.366903,1.54305 h -0.422713 l -0.366902,-1.54305 h 0.306958 z"
         style="font-style:normal;font-variant:normal;font-weight:bold;font-stretch:normal;font-size:2.11666656px;font-family:'DejaVu Sans Mono';-inkscape-font-specification:'DejaVu Sans Mono Bold';stroke-width:0.26458332"
         id="path959"
         inkscape:connector-curvature="0" />
      <path
         d="M -47.985802,259.32398 H -48.1491 v -0.26872 h 0.163298 q 0.113688,0 0.1757,-0.0444 0.06305,-0.0455 0.06305,-0.12713 0,-0.0858 -0.06305,-0.13332 -0.06201,-0.0486 -0.1757,-0.0486 -0.08682,0 -0.186035,0.0217 -0.09922,0.0217 -0.205672,0.063 v -0.27698 q 0.106453,-0.032 0.209806,-0.0486 0.103353,-0.0176 0.198437,-0.0176 0.243913,0 0.380339,0.10645 0.136426,0.10646 0.136426,0.29353 0,0.13746 -0.07855,0.22531 -0.07855,0.0868 -0.224275,0.11368 0.165364,0.0289 0.252181,0.13229 0.08682,0.10232 0.08682,0.26976 0,0.22427 -0.14366,0.34209 -0.143661,0.11783 -0.417546,0.11783 -0.116789,0 -0.230477,-0.0196 -0.112654,-0.0196 -0.216007,-0.0569 v -0.28318 q 0.09715,0.0486 0.209806,0.0744 0.112655,0.0248 0.236678,0.0248 0.124024,0 0.196371,-0.0568 0.07235,-0.0579 0.07235,-0.15503 0,-0.11885 -0.07235,-0.18293 -0.07235,-0.0651 -0.204639,-0.0651 z"
         style="font-style:normal;font-variant:normal;font-weight:bold;font-stretch:normal;font-size:2.11666656px;font-family:'DejaVu Sans Mono';-inkscape-font-specification:'DejaVu Sans Mono Bold';stroke-width:0.26458332"
         id="path961"
         inkscape:connector-curvature="0" />
    </g>
    <g
       aria-label="IN"
       style="font-style:normal;font-variant:normal;font-weight:normal;font-stretch:normal;font-size:10.58333302px;line-height:1.25;font-family:'OmegaForce Condensed';-inkscape-font-specification:'OmegaForce Condensed, ';letter-spacing:0px;word-spacing:0px;fill:#000000;fill-opacity:1;stroke:none;stroke-width:0.26458332"
       id="text939"
       transform="translate(52.669233,22.224998)">
      <path
         d="m -41.612028,264.03169 v -0.26872 h 0.918807 v 0.26872 h -0.306958 v 1.00562 h 0.306958 v 0.26872 h -0.918807 v -0.26872 h 0.306958 v -1.00562 z"
         style="font-style:normal;font-variant:normal;font-weight:bold;font-stretch:normal;font-size:2.11666656px;font-family:'DejaVu Sans Mono';-inkscape-font-specification:'DejaVu Sans Mono Bold';stroke-width:0.26458332"
         id="path952"
         inkscape:connector-curvature="0" />
      <path
         d="m -40.393498,263.76297 h 0.327629 l 0.429948,1.12138 v -1.12138 h 0.268717 v 1.54306 h -0.325561 l -0.432015,-1.12138 v 1.12138 h -0.268718 z"
         style="font-style:normal;font-variant:normal;font-weight:bold;font-stretch:normal;font-size:2.11666656px;font-family:'DejaVu Sans Mono';-inkscape-font-specification:'DejaVu Sans Mono Bold';stroke-width:0.26458332"
         id="path954"
         inkscape:connector-curvature="0" />
    </g>
    <g
       aria-label="OUT"
       style="font-style:normal;font-variant:normal;font-weight:normal;font-stretch:normal;font-size:10.58333302px;line-height:1.25;font-family:'OmegaForce Condensed';-inkscape-font-specification:'OmegaForce Condensed, ';letter-spacing:0px;word-spacing:0px;fill:#000000;fill-opacity:1;stroke:none;stroke-width:0.26458332"
       id="text943"
       transform="translate(70.660902,16.933331)">
      <path
         d="m -41.153141,269.30061 q -0.116789,0 -0.170533,0.12506 -0.05374,0.12402 -0.05374,0.40204 0,0.27698 0.05374,0.40204 0.05374,0.12402 0.170533,0.12402 0.117822,0 0.171565,-0.12402 0.05374,-0.12506 0.05374,-0.40204 0,-0.27802 -0.05374,-0.40204 -0.05374,-0.12506 -0.171565,-0.12506 z m -0.541569,0.5271 q 0,-0.39584 0.136425,-0.59842 0.13746,-0.20257 0.405144,-0.20257 0.268717,0 0.405143,0.20257 0.137459,0.20258 0.137459,0.59842 0,0.39481 -0.137459,0.59738 -0.136426,0.20257 -0.405143,0.20257 -0.267684,0 -0.405144,-0.20257 -0.136425,-0.20257 -0.136425,-0.59738 z"
         style="font-style:normal;font-variant:normal;font-weight:bold;font-stretch:normal;font-size:2.11666656px;font-family:'DejaVu Sans Mono';-inkscape-font-specification:'DejaVu Sans Mono Bold';stroke-width:0.26458332"
         id="path945"
         inkscape:connector-curvature="0" />
      <path
         d="m -40.406934,270.02821 v -0.97358 h 0.304891 v 1.05006 q 0,0.11576 0.05891,0.1819 0.05891,0.0651 0.163298,0.0651 0.104386,0 0.163297,-0.0651 0.05891,-0.0661 0.05891,-0.1819 v -1.05006 h 0.30489 v 0.97358 q 0,0.3142 -0.125056,0.45682 -0.125057,0.14263 -0.402043,0.14263 -0.275952,0 -0.402043,-0.14263 -0.125057,-0.14262 -0.125057,-0.45682 z"
         style="font-style:normal;font-variant:normal;font-weight:bold;font-stretch:normal;font-size:2.11666656px;font-family:'DejaVu Sans Mono';-inkscape-font-specification:'DejaVu Sans Mono Bold';stroke-width:0.26458332"
         id="path947"
         inkscape:connector-curvature="0" />
      <path
         d="m -38.453565,270.59769 h -0.304891 v -1.27641 h -0.391707 v -0.26665 h 1.088306 v 0.26665 h -0.391708 z"
         style="font-style:normal;font-variant:normal;font-weight:bold;font-stretch:normal;font-size:2.11666656px;font-family:'DejaVu Sans Mono';-inkscape-font-specification:'DejaVu Sans Mono Bold';stroke-width:0.26458332"
         id="path949"
         inkscape:connector-curvature="0" />
    </g>
    <g
       aria-label="OUT GAIN"
       style="font-style:normal;font-variant:normal;font-weight:normal;font-stretch:normal;font-size:10.58333302px;line-height:1.25;font-family:'DejaVu Sans Mono';-inkscape-font-specification:'DejaVu Sans Mono';letter-spacing:0px;word-spacing:0px;fill:#000000;fill-opacity:1;stroke:none;stroke-width:0.26458332"
       id="text1021"
       transform="translate(-0.09449404)">
      <path
         d="m 26.8822,272.08586 q -0.116789,0 -0.170532,0.12505 -0.05374,0.12403 -0.05374,0.40205 0,0.27698 0.05374,0.40204 0.05374,0.12402 0.170532,0.12402 0.117822,0 0.171566,-0.12402 0.05374,-0.12506 0.05374,-0.40204 0,-0.27802 -0.05374,-0.40205 -0.05374,-0.12505 -0.171566,-0.12505 z m -0.541569,0.5271 q 0,-0.39585 0.136426,-0.59842 0.137459,-0.20257 0.405143,-0.20257 0.268717,0 0.405143,0.20257 0.137459,0.20257 0.137459,0.59842 0,0.3948 -0.137459,0.59738 -0.136426,0.20257 -0.405143,0.20257 -0.267684,0 -0.405143,-0.20257 -0.136426,-0.20258 -0.136426,-0.59738 z"
         style="font-style:normal;font-variant:normal;font-weight:bold;font-stretch:normal;font-size:2.11666656px;font-family:'DejaVu Sans Mono';-inkscape-font-specification:'DejaVu Sans Mono Bold';stroke-width:0.26458332"
         id="path1086"
         inkscape:connector-curvature="0" />
      <path
         d="m 27.628408,272.81346 v -0.97358 h 0.304891 v 1.05006 q 0,0.11576 0.05891,0.1819 0.05891,0.0651 0.163297,0.0651 0.104387,0 0.163298,-0.0651 0.05891,-0.0661 0.05891,-0.1819 v -1.05006 h 0.304891 v 0.97358 q 0,0.31419 -0.125057,0.45682 -0.125057,0.14263 -0.402043,0.14263 -0.275952,0 -0.402042,-0.14263 -0.125057,-0.14263 -0.125057,-0.45682 z"
         style="font-style:normal;font-variant:normal;font-weight:bold;font-stretch:normal;font-size:2.11666656px;font-family:'DejaVu Sans Mono';-inkscape-font-specification:'DejaVu Sans Mono Bold';stroke-width:0.26458332"
         id="path1088"
         inkscape:connector-curvature="0" />
      <path
         d="m 29.581777,273.38293 h -0.304891 v -1.2764 h -0.391708 v -0.26665 h 1.088306 v 0.26665 h -0.391707 z"
         style="font-style:normal;font-variant:normal;font-weight:bold;font-stretch:normal;font-size:2.11666656px;font-family:'DejaVu Sans Mono';-inkscape-font-specification:'DejaVu Sans Mono Bold';stroke-width:0.26458332"
         id="path1090"
         inkscape:connector-curvature="0" />
      <path
         d="m 32.240012,273.10388 v -0.29455 h -0.208773 v -0.25632 h 0.475423 v 0.70693 q -0.08785,0.0755 -0.194303,0.11473 -0.10542,0.0382 -0.226343,0.0382 -0.299723,0 -0.46302,-0.20774 -0.163298,-0.20878 -0.163298,-0.59221 0,-0.38964 0.164331,-0.59532 0.165365,-0.20567 0.476457,-0.20567 0.09302,0 0.182934,0.0269 0.08992,0.0258 0.168465,0.0754 v 0.33796 q -0.06408,-0.0827 -0.147794,-0.12402 -0.08268,-0.0424 -0.181901,-0.0424 -0.173633,0 -0.259416,0.13125 -0.08578,0.13023 -0.08578,0.39585 0,0.25734 0.08268,0.3917 0.08268,0.13436 0.240812,0.13436 0.04754,0 0.08268,-0.008 0.03514,-0.009 0.05684,-0.0269 z"
         style="font-style:normal;font-variant:normal;font-weight:bold;font-stretch:normal;font-size:2.11666656px;font-family:'DejaVu Sans Mono';-inkscape-font-specification:'DejaVu Sans Mono Bold';stroke-width:0.26458332"
         id="path1092"
         inkscape:connector-curvature="0" />
      <path
         d="m 33.248736,272.11893 -0.14366,0.63149 h 0.288354 z m -0.186035,-0.27905 h 0.373104 l 0.416512,1.54305 h -0.304891 l -0.09509,-0.38137 h -0.408244 l -0.09302,0.38137 h -0.304891 z"
         style="font-style:normal;font-variant:normal;font-weight:bold;font-stretch:normal;font-size:2.11666656px;font-family:'DejaVu Sans Mono';-inkscape-font-specification:'DejaVu Sans Mono Bold';stroke-width:0.26458332"
         id="path1094"
         inkscape:connector-curvature="0" />
      <path
         d="m 34.063156,272.10859 v -0.26871 h 0.918807 v 0.26871 h -0.306958 v 1.00563 h 0.306958 v 0.26871 h -0.918807 v -0.26871 h 0.306958 v -1.00563 z"
         style="font-style:normal;font-variant:normal;font-weight:bold;font-stretch:normal;font-size:2.11666656px;font-family:'DejaVu Sans Mono';-inkscape-font-specification:'DejaVu Sans Mono Bold';stroke-width:0.26458332"
         id="path1096"
         inkscape:connector-curvature="0" />
      <path
         d="m 35.281687,271.83988 h 0.327629 l 0.429947,1.12137 v -1.12137 h 0.268718 v 1.54305 h -0.325562 l -0.432015,-1.12137 v 1.12137 h -0.268717 z"
         style="font-style:normal;font-variant:normal;font-weight:bold;font-stretch:normal;font-size:2.11666656px;font-family:'DejaVu Sans Mono';-inkscape-font-specification:'DejaVu Sans Mono Bold';stroke-width:0.26458332"
         id="path1098"
         inkscape:connector-curvature="0" />
    </g>
    <g
       aria-label="SHAPE 2"
       style="font-style:normal;font-variant:normal;font-weight:normal;font-stretch:normal;font-size:10.58333302px;line-height:1.25;font-family:'DejaVu Sans Mono';-inkscape-font-specification:'DejaVu Sans Mono';letter-spacing:0px;word-spacing:0px;fill:#000000;fill-opacity:1;stroke:none;stroke-width:0.26458332"
       id="text967">
      <path
         d="m 8.7168932,237.12498 q -0.2304769,-0.0879 -0.3121257,-0.18397 -0.081649,-0.0971 -0.081649,-0.26045 0,-0.2098 0.1343587,-0.32969 0.1343587,-0.11989 0.3689697,-0.11989 0.1064534,0 0.2129069,0.0248 0.1064534,0.0238 0.2108398,0.0713 v 0.29765 q -0.098185,-0.0692 -0.199471,-0.10542 -0.1012858,-0.0362 -0.2005045,-0.0362 -0.1105876,0 -0.1694987,0.0444 -0.058911,0.0444 -0.058911,0.12712 0,0.0641 0.042375,0.10646 0.043408,0.0413 0.179834,0.092 l 0.1312581,0.0496 q 0.1860352,0.0682 0.2738851,0.18087 0.08785,0.11265 0.08785,0.28422 0,0.23358 -0.1384928,0.34933 -0.1374593,0.11472 -0.416512,0.11472 -0.1147217,0 -0.2304769,-0.0279 -0.1147217,-0.0269 -0.2222087,-0.0806 v -0.31522 q 0.1219564,0.0868 0.2356446,0.12919 0.1147216,0.0424 0.2263427,0.0424 0.1126546,0 0.1746664,-0.0506 0.062012,-0.0517 0.062012,-0.14366 0,-0.0693 -0.041341,-0.12092 -0.041341,-0.0527 -0.1198893,-0.0827 z"
         style="font-style:normal;font-variant:normal;font-weight:bold;font-stretch:normal;font-size:2.11666656px;font-family:'DejaVu Sans Mono';-inkscape-font-specification:'DejaVu Sans Mono Bold';stroke-width:0.26458332"
         id="path1060" />
      <path
         d="m 9.6046942,236.25888 h 0.3048909 v 0.58808 h 0.3813719 v -0.58808 h 0.304891 v 1.54306 h -0.304891 v -0.68626 H 9.9095851 v 0.68626 H 9.6046942 Z"
         style="font-style:normal;font-variant:normal;font-weight:bold;font-stretch:normal;font-size:2.11666656px;font-family:'DejaVu Sans Mono';-inkscape-font-specification:'DejaVu Sans Mono Bold';stroke-width:0.26458332"
         id="path1062" />
      <path
         d="m 11.373062,236.53794 -0.143661,0.63148 h 0.288355 z m -0.186036,-0.27906 h 0.373104 l 0.416512,1.54306 h -0.304891 l -0.09508,-0.38137 h -0.408244 l -0.09302,0.38137 h -0.304891 z"
         style="font-style:normal;font-variant:normal;font-weight:bold;font-stretch:normal;font-size:2.11666656px;font-family:'DejaVu Sans Mono';-inkscape-font-specification:'DejaVu Sans Mono Bold';stroke-width:0.26458332"
         id="path1064" />
      <path
         d="m 12.482038,236.5152 v 0.45268 h 0.125057 q 0.149861,0 0.209806,-0.0506 0.06098,-0.0506 0.06098,-0.1757 0,-0.12506 -0.06098,-0.1757 -0.05994,-0.0506 -0.209806,-0.0506 z m -0.304891,-0.25632 h 0.418579 q 0.31936,0 0.458886,0.11369 0.14056,0.11369 0.14056,0.36897 0,0.25528 -0.14056,0.36897 -0.139526,0.11369 -0.458886,0.11369 h -0.113688 v 0.57774 h -0.304891 z"
         style="font-style:normal;font-variant:normal;font-weight:bold;font-stretch:normal;font-size:2.11666656px;font-family:'DejaVu Sans Mono';-inkscape-font-specification:'DejaVu Sans Mono Bold';stroke-width:0.26458332"
         id="path1066" />
      <path
         d="m 14.417837,237.80194 h -0.961182 v -1.54306 h 0.961182 v 0.26872 h -0.656291 v 0.3328 h 0.594279 v 0.26871 h -0.594279 v 0.40411 h 0.656291 z"
         style="font-style:normal;font-variant:normal;font-weight:bold;font-stretch:normal;font-size:2.11666656px;font-family:'DejaVu Sans Mono';-inkscape-font-specification:'DejaVu Sans Mono Bold';stroke-width:0.26458332"
         id="path1068" />
      <path
         d="m 16.278188,237.53322 h 0.650089 v 0.26872 h -0.979785 v -0.26045 l 0.165365,-0.1757 q 0.294556,-0.31316 0.357601,-0.3855 0.07751,-0.0889 0.111621,-0.1571 0.03411,-0.0693 0.03411,-0.13643 0,-0.10335 -0.06304,-0.15916 -0.06201,-0.0568 -0.176733,-0.0568 -0.08165,0 -0.183968,0.0331 -0.101286,0.032 -0.211874,0.0941 v -0.28422 q 0.110588,-0.0403 0.216008,-0.061 0.106453,-0.0217 0.203605,-0.0217 0.244946,0 0.384473,0.11472 0.140559,0.11369 0.140559,0.31109 0,0.0909 -0.03101,0.17053 -0.02997,0.0796 -0.104387,0.17674 -0.05478,0.0703 -0.300757,0.31626 -0.133325,0.13332 -0.211873,0.2129 z"
         style="font-style:normal;font-variant:normal;font-weight:bold;font-stretch:normal;font-size:2.11666656px;font-family:'DejaVu Sans Mono';-inkscape-font-specification:'DejaVu Sans Mono Bold';stroke-width:0.26458332"
         id="path1070" />
    </g>
    <g
       aria-label="SHAPE 3"
       style="font-style:normal;font-variant:normal;font-weight:normal;font-stretch:normal;font-size:10.58333302px;line-height:1.25;font-family:'DejaVu Sans Mono';-inkscape-font-specification:'DejaVu Sans Mono';letter-spacing:0px;word-spacing:0px;fill:#000000;fill-opacity:1;stroke:none;stroke-width:0.26458332"
       id="text971">
      <path
         d="m 8.7168932,252.99996 q -0.2304769,-0.0878 -0.3121257,-0.18396 -0.081649,-0.0972 -0.081649,-0.26045 0,-0.20981 0.1343587,-0.3297 0.1343587,-0.11989 0.3689697,-0.11989 0.1064534,0 0.2129069,0.0248 0.1064534,0.0238 0.2108398,0.0713 v 0.29766 q -0.098185,-0.0693 -0.199471,-0.10542 -0.1012858,-0.0362 -0.2005045,-0.0362 -0.1105876,0 -0.1694987,0.0444 -0.058911,0.0445 -0.058911,0.12713 0,0.0641 0.042375,0.10645 0.043408,0.0413 0.179834,0.092 l 0.1312581,0.0496 q 0.1860352,0.0682 0.2738851,0.18086 0.08785,0.11266 0.08785,0.28422 0,0.23358 -0.1384928,0.34934 -0.1374593,0.11472 -0.416512,0.11472 -0.1147217,0 -0.2304769,-0.0279 -0.1147217,-0.0269 -0.2222087,-0.0806 v -0.31523 q 0.1219564,0.0868 0.2356446,0.12919 0.1147216,0.0424 0.2263427,0.0424 0.1126546,0 0.1746664,-0.0507 0.062012,-0.0517 0.062012,-0.14366 0,-0.0692 -0.041341,-0.12092 -0.041341,-0.0527 -0.1198893,-0.0827 z"
         style="font-style:normal;font-variant:normal;font-weight:bold;font-stretch:normal;font-size:2.11666656px;font-family:'DejaVu Sans Mono';-inkscape-font-specification:'DejaVu Sans Mono Bold';stroke-width:0.26458332"
         id="path1047" />
      <path
         d="m 9.6046942,252.13387 h 0.3048909 v 0.58808 h 0.3813719 v -0.58808 h 0.304891 v 1.54306 h -0.304891 v -0.68627 H 9.9095851 v 0.68627 H 9.6046942 Z"
         style="font-style:normal;font-variant:normal;font-weight:bold;font-stretch:normal;font-size:2.11666656px;font-family:'DejaVu Sans Mono';-inkscape-font-specification:'DejaVu Sans Mono Bold';stroke-width:0.26458332"
         id="path1049" />
      <path
         d="m 11.373062,252.41292 -0.143661,0.63149 h 0.288355 z m -0.186036,-0.27905 h 0.373104 l 0.416512,1.54306 h -0.304891 l -0.09508,-0.38138 h -0.408244 l -0.09302,0.38138 h -0.304891 z"
         style="font-style:normal;font-variant:normal;font-weight:bold;font-stretch:normal;font-size:2.11666656px;font-family:'DejaVu Sans Mono';-inkscape-font-specification:'DejaVu Sans Mono Bold';stroke-width:0.26458332"
         id="path1051" />
      <path
         d="m 12.482038,252.39018 v 0.45269 h 0.125057 q 0.149861,0 0.209806,-0.0506 0.06098,-0.0506 0.06098,-0.1757 0,-0.12506 -0.06098,-0.1757 -0.05994,-0.0507 -0.209806,-0.0507 z m -0.304891,-0.25631 h 0.418579 q 0.31936,0 0.458886,0.11369 0.14056,0.11368 0.14056,0.36897 0,0.25528 -0.14056,0.36897 -0.139526,0.11368 -0.458886,0.11368 h -0.113688 v 0.57775 h -0.304891 z"
         style="font-style:normal;font-variant:normal;font-weight:bold;font-stretch:normal;font-size:2.11666656px;font-family:'DejaVu Sans Mono';-inkscape-font-specification:'DejaVu Sans Mono Bold';stroke-width:0.26458332"
         id="path1053" />
      <path
         d="m 14.417837,253.67693 h -0.961182 v -1.54306 h 0.961182 v 0.26871 h -0.656291 v 0.3328 h 0.594279 v 0.26872 h -0.594279 v 0.40411 h 0.656291 z"
         style="font-style:normal;font-variant:normal;font-weight:bold;font-stretch:normal;font-size:2.11666656px;font-family:'DejaVu Sans Mono';-inkscape-font-specification:'DejaVu Sans Mono Bold';stroke-width:0.26458332"
         id="path1055" />
      <path
         d="m 16.397044,252.98653 h -0.163298 v -0.26872 h 0.163298 q 0.113688,0 0.1757,-0.0444 0.06304,-0.0455 0.06304,-0.12712 0,-0.0858 -0.06304,-0.13333 -0.06201,-0.0486 -0.1757,-0.0486 -0.08682,0 -0.186035,0.0217 -0.09922,0.0217 -0.205673,0.063 v -0.27698 q 0.106454,-0.032 0.209807,-0.0486 0.103353,-0.0176 0.198437,-0.0176 0.243913,0 0.380339,0.10646 0.136426,0.10645 0.136426,0.29352 0,0.13746 -0.07855,0.22531 -0.07855,0.0868 -0.224275,0.11369 0.165364,0.0289 0.252181,0.13229 0.08682,0.10232 0.08682,0.26975 0,0.22427 -0.14366,0.3421 -0.143661,0.11782 -0.417546,0.11782 -0.116789,0 -0.230477,-0.0196 -0.112654,-0.0196 -0.216007,-0.0568 v -0.28319 q 0.09715,0.0486 0.209806,0.0744 0.112655,0.0248 0.236678,0.0248 0.124023,0 0.19637,-0.0568 0.07235,-0.0579 0.07235,-0.15502 0,-0.11886 -0.07235,-0.18294 -0.07235,-0.0651 -0.204638,-0.0651 z"
         style="font-style:normal;font-variant:normal;font-weight:bold;font-stretch:normal;font-size:2.11666656px;font-family:'DejaVu Sans Mono';-inkscape-font-specification:'DejaVu Sans Mono Bold';stroke-width:0.26458332"
         id="path1057" />
    </g>
    <text
       id="text1005"
       y="231.51894"
       x="-94.240051"
       style="font-style:normal;font-variant:normal;font-weight:normal;font-stretch:normal;font-size:10.58333302px;line-height:1.25;font-family:'DejaVu Sans Mono';-inkscape-font-specification:'DejaVu Sans Mono';letter-spacing:0px;word-spacing:0px;fill:#000000;fill-opacity:1;stroke:none;stroke-width:0.26458332"
       xml:space="preserve"><tspan
         style="font-style:normal;font-variant:normal;font-weight:bold;font-stretch:normal;font-size:2.11666656px;font-family:'DejaVu Sans Mono';-inkscape-font-specification:'DejaVu Sans Mono Bold';stroke-width:0.26458332"
         y="231.51894"
         x="-94.240051"
         id="tspan1003"
         sodipodi:role="line">CV 1</tspan></text>
    <text
       xml:space="preserve"
       style="font-style:normal;font-variant:normal;font-weight:normal;font-stretch:normal;font-size:10.58333302px;line-height:1.25;font-family:'DejaVu Sans Mono';-inkscape-font-specification:'DejaVu Sans Mono';letter-spacing:0px;word-spacing:0px;fill:#000000;fill-opacity:1;stroke:none;stroke-width:0.26458332"
       x="-94.240051"
       y="246.3354"
       id="text1009"><tspan
         sodipodi:role="line"
         id="tspan1007"
         x="-94.240051"
         y="246.3354"
         style="font-style:normal;font-variant:normal;font-weight:bold;font-stretch:normal;font-size:2.11666656px;font-family:'DejaVu Sans Mono';-inkscape-font-specification:'DejaVu Sans Mono Bold';stroke-width:0.26458332">CV 2</tspan></text>
    <text
       id="text1013"
       y="262.21039"
       x="-94.240051"
       style="font-style:normal;font-variant:normal;font-weight:normal;font-stretch:normal;font-size:10.58333302px;line-height:1.25;font-family:'DejaVu Sans Mono';-inkscape-font-specification:'DejaVu Sans Mono';letter-spacing:0px;word-spacing:0px;fill:#000000;fill-opacity:1;stroke:none;stroke-width:0.26458332"
       xml:space="preserve"><tspan
         style="font-style:normal;font-variant:normal;font-weight:bold;font-stretch:normal;font-size:2.11666656px;font-family:'DejaVu Sans Mono';-inkscape-font-specification:'DejaVu Sans Mono Bold';stroke-width:0.26458332"
         y="262.21039"
         x="-94.240051"
         id="tspan1011"
         sodipodi:role="line">CV 3</tspan></text>
    <g
       aria-label="IN GAIN"
       style="font-style:normal;font-variant:normal;font-weight:normal;font-stretch:normal;font-size:10.58333302px;line-height:1.25;font-family:'DejaVu Sans Mono';-inkscape-font-specification:'DejaVu Sans Mono';letter-spacing:0px;word-spacing:0px;fill:#000000;fill-opacity:1;stroke:none;stroke-width:0.26458332"
       id="text1017"
       transform="translate(-0.04724702)">
      <path
         d="m 8.3924285,272.11238 v -0.26872 h 0.9188069 v 0.26872 h -0.306958 v 1.00562 h 0.306958 v 0.26872 H 8.3924285 V 273.118 h 0.306958 v -1.00562 z"
         style="font-style:normal;font-variant:normal;font-weight:bold;font-stretch:normal;font-size:2.11666656px;font-family:'DejaVu Sans Mono';-inkscape-font-specification:'DejaVu Sans Mono Bold';stroke-width:0.26458332"
         id="path1101"
         inkscape:connector-curvature="0" />
      <path
         d="m 9.6109587,271.84366 h 0.3276286 l 0.4299477,1.12138 v -1.12138 h 0.268718 v 1.54306 h -0.325562 l -0.4320149,-1.12138 v 1.12138 H 9.6109587 Z"
         style="font-style:normal;font-variant:normal;font-weight:bold;font-stretch:normal;font-size:2.11666656px;font-family:'DejaVu Sans Mono';-inkscape-font-specification:'DejaVu Sans Mono Bold';stroke-width:0.26458332"
         id="path1103"
         inkscape:connector-curvature="0" />
      <path
         d="m 12.93582,273.10767 v -0.29456 h -0.208773 v -0.25631 h 0.475423 v 0.70693 q -0.08785,0.0754 -0.194303,0.11472 -0.10542,0.0382 -0.226343,0.0382 -0.299723,0 -0.463021,-0.20774 -0.163297,-0.20877 -0.163297,-0.59221 0,-0.38964 0.164331,-0.59531 0.165365,-0.20567 0.476457,-0.20567 0.09302,0 0.182934,0.0269 0.08992,0.0258 0.168465,0.0754 v 0.33797 q -0.06408,-0.0827 -0.147794,-0.12402 -0.08268,-0.0424 -0.181901,-0.0424 -0.173633,0 -0.259416,0.13126 -0.08578,0.13022 -0.08578,0.39584 0,0.25735 0.08268,0.39171 0.08268,0.13436 0.240812,0.13436 0.04754,0 0.08268,-0.008 0.03514,-0.009 0.05684,-0.0269 z"
         style="font-style:normal;font-variant:normal;font-weight:bold;font-stretch:normal;font-size:2.11666656px;font-family:'DejaVu Sans Mono';-inkscape-font-specification:'DejaVu Sans Mono Bold';stroke-width:0.26458332"
         id="path1105"
         inkscape:connector-curvature="0" />
      <path
         d="m 13.944544,272.12271 -0.14366,0.63149 h 0.288354 z m -0.186035,-0.27905 h 0.373104 l 0.416512,1.54306 h -0.304891 l -0.09508,-0.38137 H 13.73991 l -0.09302,0.38137 h -0.304891 z"
         style="font-style:normal;font-variant:normal;font-weight:bold;font-stretch:normal;font-size:2.11666656px;font-family:'DejaVu Sans Mono';-inkscape-font-specification:'DejaVu Sans Mono Bold';stroke-width:0.26458332"
         id="path1107"
         inkscape:connector-curvature="0" />
      <path
         d="m 14.758965,272.11238 v -0.26872 h 0.918807 v 0.26872 h -0.306958 v 1.00562 h 0.306958 v 0.26872 H 14.758965 V 273.118 h 0.306958 v -1.00562 z"
         style="font-style:normal;font-variant:normal;font-weight:bold;font-stretch:normal;font-size:2.11666656px;font-family:'DejaVu Sans Mono';-inkscape-font-specification:'DejaVu Sans Mono Bold';stroke-width:0.26458332"
         id="path1109"
         inkscape:connector-curvature="0" />
      <path
         d="m 15.977494,271.84366 h 0.327629 l 0.429948,1.12138 v -1.12138 h 0.268717 v 1.54306 h -0.325561 l -0.432015,-1.12138 v 1.12138 h -0.268718 z"
         style="font-style:normal;font-variant:normal;font-weight:bold;font-stretch:normal;font-size:2.11666656px;font-family:'DejaVu Sans Mono';-inkscape-font-specification:'DejaVu Sans Mono Bold';stroke-width:0.26458332"
         id="path1111"
         inkscape:connector-curvature="0" />
    </g>
    <text
       xml:space="preserve"
       style="font-style:normal;font-variant:normal;font-weight:normal;font-stretch:normal;font-size:10.58333302px;line-height:1.25;font-family:'DejaVu Sans Mono';-inkscape-font-specification:'DejaVu Sans Mono';letter-spacing:0px;word-spacing:0px;fill:#000000;fill-opacity:1;stroke:none;stroke-width:0.26458332"
       x="-83.656708"
       y="231.51894"
       id="text1025"><tspan
         sodipodi:role="line"
         id="tspan1023"
         x="-83.656708"
         y="231.51894"
         style="font-style:normal;font-variant:normal;font-weight:bold;font-stretch:normal;font-size:2.11666656px;font-family:'DejaVu Sans Mono';-inkscape-font-specification:'DejaVu Sans Mono Bold';stroke-width:0.26458332">CV 1</tspan></text>
    <text
       id="text1029"
       y="246.3354"
       x="-83.656708"
       style="font-style:normal;font-variant:normal;font-weight:normal;font-stretch:normal;font-size:10.58333302px;line-height:1.25;font-family:'DejaVu Sans Mono';-inkscape-font-specification:'DejaVu Sans Mono';letter-spacing:0px;word-spacing:0px;fill:#000000;fill-opacity:1;stroke:none;stroke-width:0.26458332"
       xml:space="preserve"><tspan
         style="font-style:normal;font-variant:normal;font-weight:bold;font-stretch:normal;font-size:2.11666656px;font-family:'DejaVu Sans Mono';-inkscape-font-specification:'DejaVu Sans Mono Bold';stroke-width:0.26458332"
         y="246.3354"
         x="-83.656708"
         id="tspan1027"
         sodipodi:role="line">CV 2</tspan></text>
    <text
       xml:space="preserve"
       style="font-style:normal;font-variant:normal;font-weight:normal;font-stretch:normal;font-size:10.58333302px;line-height:1.25;font-family:'DejaVu Sans Mono';-inkscape-font-specification:'DejaVu Sans Mono';letter-spacing:0px;word-spacing:0px;fill:#000000;fill-opacity:1;stroke:none;stroke-width:0.26458332"
       x="-83.656708"
       y="262.21039"
       id="text1033"><tspan
         sodipodi:role="line"
         id="tspan1031"
         x="-83.656708"
         y="262.21039"
         style="font-style:normal;font-variant:normal;font-weight:bold;font-stretch:normal;font-size:2.11666656px;font-family:'DejaVu Sans Mono';-inkscape-font-specification:'DejaVu Sans Mono Bold';stroke-width:0.26458332">CV 3</tspan></text>
    <text
       xml:space="preserve"
       style="font-style:normal;font-variant:normal;font-weight:normal;font-stretch:normal;font-size:10.58333302px;line-height:1.25;font-family:'DejaVu Sans Mono';-inkscape-font-specification:'DejaVu Sans Mono';letter-spacing:0px;word-spacing:0px;fill:#000000;fill-opacity:1;stroke:none;stroke-width:0.26458332"
       x="-107.97688"
       y="217.22002"
       id="text1037"><tspan
         sodipodi:role="line"
         id="tspan1035"
         x="-107.97688"
         y="217.22002"
         style="font-style:normal;font-variant:normal;font-weight:bold;font-stretch:normal;font-size:2.82222223px;font-family:'DejaVu Sans Mono';-inkscape-font-specification:'DejaVu Sans Mono Bold';stroke-width:0.26458332">IN</tspan></text>
    <text
       id="text1045"
       y="217.22002"
       x="-97.393555"
       style="font-style:normal;font-variant:normal;font-weight:normal;font-stretch:normal;font-size:10.58333302px;line-height:1.25;font-family:'DejaVu Sans Mono';-inkscape-font-specification:'DejaVu Sans Mono';letter-spacing:0px;word-spacing:0px;fill:#000000;fill-opacity:1;stroke:none;stroke-width:0.26458332"
       xml:space="preserve"><tspan
         style="font-style:normal;font-variant:normal;font-weight:bold;font-stretch:normal;font-size:2.82222223px;font-family:'DejaVu Sans Mono';-inkscape-font-specification:'DejaVu Sans Mono Bold';stroke-width:0.26458332"
         y="217.22002"
         x="-97.393555"
         id="tspan1043"
         sodipodi:role="line">OUT</tspan></text>
  </g>
</svg>
