<?xml version="1.0" encoding="UTF-8" standalone="no"?>
<!-- Created with Inkscape (http://www.inkscape.org/) -->

<svg
   xmlns:dc="http://purl.org/dc/elements/1.1/"
   xmlns:cc="http://creativecommons.org/ns#"
   xmlns:rdf="http://www.w3.org/1999/02/22-rdf-syntax-ns#"
   xmlns:svg="http://www.w3.org/2000/svg"
   xmlns="http://www.w3.org/2000/svg"
   xmlns:xlink="http://www.w3.org/1999/xlink"
   xmlns:sodipodi="http://sodipodi.sourceforge.net/DTD/sodipodi-0.dtd"
   xmlns:inkscape="http://www.inkscape.org/namespaces/inkscape"
   width="47"
   height="47"
   viewBox="0 0 12.435416 12.435417"
   version="1.1"
   id="svg870"
   inkscape:version="0.92.2 (5c3e80d, 2017-08-06)"
   sodipodi:docname="BlueLargeKnob v1.svg">
  <defs
     id="defs864">
    <linearGradient
       inkscape:collect="always"
       id="linearGradient1536">
      <stop
         style="stop-color:#000000;stop-opacity:1"
         offset="0"
         id="stop1532" />
      <stop
         style="stop-color:#000000;stop-opacity:0"
         offset="1"
         id="stop1534" />
    </linearGradient>
    <linearGradient
       inkscape:collect="always"
       xlink:href="#linearGradient1536"
       id="linearGradient1538"
       x1="6.2173681"
       y1="288.57898"
       x2="6.2173681"
       y2="286.53235"
       gradientUnits="userSpaceOnUse"
       gradientTransform="matrix(1.2253521,0,0,0.98492935,-1.400917,4.3985081)" />
  </defs>
  <sodipodi:namedview
     id="base"
     pagecolor="#ffffff"
     bordercolor="#666666"
     borderopacity="1.0"
     inkscape:pageopacity="0.0"
     inkscape:pageshadow="2"
     inkscape:zoom="16"
     inkscape:cx="23.513184"
     inkscape:cy="23.600214"
     inkscape:document-units="mm"
     inkscape:current-layer="layer1"
     showgrid="false"
     units="px"
     inkscape:window-width="1920"
     inkscape:window-height="1028"
     inkscape:window-x="-8"
     inkscape:window-y="-8"
     inkscape:window-maximized="1"
     showguides="false"
     inkscape:guide-bbox="true" />
  <metadata
     id="metadata867">
    <rdf:RDF>
      <cc:Work
         rdf:about="">
        <dc:format>image/svg+xml</dc:format>
        <dc:type
           rdf:resource="http://purl.org/dc/dcmitype/StillImage" />
        <dc:title />
      </cc:Work>
    </rdf:RDF>
  </metadata>
  <g
     inkscape:label="Layer 1"
     inkscape:groupmode="layer"
     id="layer1"
     transform="translate(0,-284.56457)">
    <path
       style="fill:#b4b4a0;stroke:#000000;stroke-width:0.10144772;stroke-linecap:round;paint-order:markers stroke fill"
       id="path1418"
       sodipodi:type="arc"
       sodipodi:cx="6.2177081"
       sodipodi:cy="290.78223"
       sodipodi:rx="6.0627832"
       sodipodi:ry="6.0627832"
       sodipodi:start="0"
       sodipodi:end="6.2782635"
       sodipodi:open="true"
       d="m 12.280491,290.78223 a 6.0627832,6.0627832 0 0 1 -6.0553229,6.06278 6.0627832,6.0627832 0 0 1 -6.07022487,-6.04786 6.0627832,6.0627832 0 0 1 6.04038507,-6.07767 6.0627832,6.0627832 0 0 1 6.0850897,6.03291" />
    <path
       style="fill:none;stroke:#dcdcdc;stroke-width:0.38547218;stroke-linecap:round;paint-order:markers stroke fill"
       id="path1422"
       sodipodi:type="arc"
       sodipodi:cx="6.2177081"
       sodipodi:cy="290.78223"
       sodipodi:rx="5.5972619"
       sodipodi:ry="5.5972619"
       sodipodi:start="0"
       sodipodi:end="6.2782635"
       sodipodi:open="true"
       d="m 11.81497,290.78223 a 5.5972619,5.5972619 0 0 1 -5.5903747,5.59725 5.5972619,5.5972619 0 0 1 -5.60413215,-5.58348 5.5972619,5.5972619 0 0 1 5.57658355,-5.611 5.5972619,5.5972619 0 0 1 5.6178553,5.56968" />
    <path
       d="m 11.676796,290.78223 a 5.4590878,5.4590878 0 0 1 -5.4523707,5.45908 5.4590878,5.4590878 0 0 1 -5.46578851,-5.44565 5.4590878,5.4590878 0 0 1 5.43891991,-5.47248 5.4590878,5.4590878 0 0 1 5.4791733,5.43218"
       sodipodi:open="true"
       sodipodi:end="6.2782635"
       sodipodi:start="0"
       sodipodi:ry="5.4590878"
       sodipodi:rx="5.4590878"
       sodipodi:cy="290.78223"
       sodipodi:cx="6.2177081"
       sodipodi:type="arc"
       id="path1420"
       style="fill:#000000;stroke-width:0.09134617;stroke-linecap:round;paint-order:markers stroke fill" />
    <rect
       style="fill:#000000;stroke-width:0.09593318;stroke-linecap:round;paint-order:markers stroke fill"
       id="rect1468"
       width="1.4159186"
       height="0.55193049"
       x="5.5084548"
       y="284.5686" />
    <path
       style="fill:#141414;stroke-width:0.05282393;stroke-linecap:round;paint-order:markers stroke fill"
       id="path1430"
       sodipodi:type="arc"
       sodipodi:cx="6.2177091"
       sodipodi:cy="290.78223"
       sodipodi:rx="5.2056065"
       sodipodi:ry="5.2056065"
       sodipodi:start="0"
       sodipodi:end="6.2782635"
       sodipodi:open="true"
       d="m 11.423316,290.78223 a 5.2056065,5.2056065 0 0 1 -5.1992017,5.2056 5.2056065,5.2056065 0 0 1 -5.2119959,-5.19279 5.2056065,5.2056065 0 0 1 5.186375,-5.21838 5.2056065,5.2056065 0 0 1 5.2247586,5.17995" />
    <path
       d="m 11.423316,290.78223 a 5.2056065,5.2056065 0 0 1 -5.1992017,5.2056 5.2056065,5.2056065 0 0 1 -5.2119959,-5.19279 5.2056065,5.2056065 0 0 1 5.186375,-5.21838 5.2056065,5.2056065 0 0 1 5.2247586,5.17995"
       sodipodi:open="true"
       sodipodi:end="6.2782635"
       sodipodi:start="0"
       sodipodi:ry="5.2056065"
       sodipodi:rx="5.2056065"
       sodipodi:cy="290.78223"
       sodipodi:cx="6.2177091"
       sodipodi:type="arc"
       id="path1424"
       style="fill:none;stroke:#dcdcdc;stroke-width:0.05282393;stroke-linecap:round;paint-order:markers stroke fill" />
    <path
       d="m 10.424773,290.78223 a 4.2070642,4.2070642 0 0 1 -4.2018873,4.20706 4.2070642,4.2070642 0 0 1 -4.212228,-4.19671 4.2070642,4.2070642 0 0 1 4.1915216,-4.21739 4.2070642,4.2070642 0 0 1 4.2225427,4.18633"
       sodipodi:open="true"
       sodipodi:end="6.2782635"
       sodipodi:start="0"
       sodipodi:ry="4.2070642"
       sodipodi:rx="4.2070642"
       sodipodi:cy="290.78223"
       sodipodi:cx="6.2177091"
       sodipodi:type="arc"
       id="path1428"
       style="fill:#0a0a0a;stroke-width:0.13029796;stroke-linecap:round;paint-order:markers stroke fill" />
    <path
       style="fill:none;stroke:#dcdcdc;stroke-width:0.13029796;stroke-linecap:round;paint-order:markers stroke fill"
       id="path1426"
       sodipodi:type="arc"
       sodipodi:cx="6.2177091"
       sodipodi:cy="290.78223"
       sodipodi:rx="4.2070642"
       sodipodi:ry="4.2070642"
       sodipodi:start="0"
       sodipodi:end="6.2782635"
       sodipodi:open="true"
       d="m 10.424773,290.78223 a 4.2070642,4.2070642 0 0 1 -4.2018873,4.20706 4.2070642,4.2070642 0 0 1 -4.212228,-4.19671 4.2070642,4.2070642 0 0 1 4.1915216,-4.21739 4.2070642,4.2070642 0 0 1 4.2225427,4.18633" />
    <path
       style="fill:none;stroke:#b4b4a0;stroke-width:0.44505945;stroke-linecap:round;paint-order:markers stroke fill"
       id="path1432"
       sodipodi:type="arc"
       sodipodi:cx="6.21771"
       sodipodi:cy="290.78223"
       sodipodi:rx="3.658633"
       sodipodi:ry="3.658633"
       sodipodi:start="0"
       sodipodi:end="6.2782635"
       sodipodi:open="true"
       d="m 9.876343,290.78223 a 3.658633,3.658633 0 0 1 -3.6541312,3.65863 3.658633,3.658633 0 0 1 -3.6631237,-3.64963 3.658633,3.658633 0 0 1 3.6451166,-3.66761 3.658633,3.658633 0 0 1 3.672094,3.6406" />
    <path
       style="fill:none;stroke:#8c8cb4;stroke-width:0.12430478;stroke-linecap:round;paint-order:markers stroke fill"
       id="path1434"
       sodipodi:type="arc"
       sodipodi:cx="6.2177095"
       sodipodi:cy="290.78223"
       sodipodi:rx="4.0135565"
       sodipodi:ry="4.0135565"
       sodipodi:start="0"
       sodipodi:end="6.2782635"
       sodipodi:open="true"
       d="m 10.231266,290.78223 a 4.0135565,4.0135565 0 0 1 -4.008618,4.01355 4.0135565,4.0135565 0 0 1 -4.0184828,-4.00368 4.0135565,4.0135565 0 0 1 3.9987289,-4.0234 4.0135565,4.0135565 0 0 1 4.0283229,3.99377" />
    <rect
       style="fill:#00a4ff;stroke-width:0.15733519;stroke-linecap:round;paint-order:markers stroke fill"
       id="rect1436"
       width="1.0439039"
       height="3.3358119"
       x="5.696013"
       y="284.76987" />
    <rect
       y="284.80051"
       x="5.696013"
       height="3.8416822"
       width="1.0439039"
       id="rect1438"
       style="fill:none;stroke:#000000;stroke-width:0.05813337;stroke-linecap:round;paint-order:markers stroke fill" />
    <path
       d="m 8.4600394,290.78229 a 2.2423332,2.2423332 0 0 1 -2.2395741,2.24233 2.2423332,2.2423332 0 0 1 -2.2450855,-2.23681 2.2423332,2.2423332 0 0 1 2.2340492,-2.24784 2.2423332,2.2423332 0 0 1 2.2505832,2.23128"
       sodipodi:open="true"
       sodipodi:end="6.2782635"
       sodipodi:start="0"
       sodipodi:ry="2.2423332"
       sodipodi:rx="2.2423332"
       sodipodi:cy="290.78229"
       sodipodi:cx="6.2177062"
       sodipodi:type="arc"
       id="path994"
       style="fill:#282828;stroke-width:0.21598092;stroke-linecap:round;stroke-miterlimit:1.5;paint-order:markers stroke fill" />
    <path
       d="m 10.932145,290.78223 a 4.7144341,4.7144341 0 0 1 -4.7086336,4.71443 4.7144341,4.7144341 0 0 1 -4.7202208,-4.70283 4.7144341,4.7144341 0 0 1 4.6970173,-4.72601 4.7144341,4.7144341 0 0 1 4.7317801,4.6912"
       sodipodi:open="true"
       sodipodi:end="6.2782635"
       sodipodi:start="0"
       sodipodi:ry="4.7144341"
       sodipodi:rx="4.7144341"
       sodipodi:cy="290.78223"
       sodipodi:cx="6.2177105"
       sodipodi:type="arc"
       id="path5527"
       style="fill:none;stroke:#63716d;stroke-width:0.54338741;stroke-linecap:round;paint-order:markers stroke fill" />
    <rect
       style="fill:none;stroke:#00ffd2;stroke-width:0.09900433;stroke-linecap:round;paint-order:markers stroke fill"
       id="rect1448"
       width="0.87437153"
       height="3.7542825"
       x="5.7804704"
       y="284.81396" />
    <rect
       y="284.76987"
       x="5.696013"
       height="3.8416822"
       width="1.0439039"
       id="rect5393"
       style="fill:#00a4ff;stroke-width:0.16884407;stroke-linecap:round;paint-order:markers stroke fill" />
    <rect
       y="286.38089"
       x="5.8363705"
       height="2.2510581"
       width="0.76170582"
       id="rect1522"
       style="fill:url(#linearGradient1538);stroke-width:0.02248832;stroke-linecap:round;paint-order:markers stroke fill" />
    <rect
       y="284.66129"
       x="6.7095222"
       height="3.9534466"
       width="0.21485122"
       id="rect1470"
       style="fill:#000000;stroke-width:0.1000148;stroke-linecap:round;paint-order:markers stroke fill" />
    <rect
       style="fill:#000000;stroke-width:0.1000148;stroke-linecap:round;paint-order:markers stroke fill"
       id="rect1472"
       width="0.21485122"
       height="3.9534466"
       x="5.5089421"
       y="284.66129" />
    <g
       id="g5391"
       style="fill:#000000;stroke-opacity:0"
       transform="matrix(0.98492935,0,0,0.98492935,0.09370493,4.3822209)">
      <path
         transform="rotate(-20)"
         style="stroke-linecap:round;paint-order:markers stroke fill"
         id="path5300"
         sodipodi:type="arc"
         sodipodi:cx="-93.611923"
         sodipodi:cy="270.58154"
         sodipodi:rx="0.18372233"
         sodipodi:ry="0.18372233"
         sodipodi:start="0"
         sodipodi:end="6.2782635"
         sodipodi:open="true"
         d="m -93.428201,270.58154 a 0.18372233,0.18372233 0 0 1 -0.183496,0.18373 0.18372233,0.18372233 0 0 1 -0.183948,-0.18327 0.18372233,0.18372233 0 0 1 0.183044,-0.18418 0.18372233,0.18372233 0 0 1 0.184398,0.18282"
         inkscape:transform-center-y="-4.4385853"
         inkscape:transform-center-x="1.6170697" />
      <path
         inkscape:transform-center-x="3.0376288"
         inkscape:transform-center-y="-3.6178359"
         d="m -181.96494,221.95804 a 0.18372233,0.18372233 0 0 1 -0.1835,0.18372 0.18372233,0.18372233 0 0 1 -0.18395,-0.18327 0.18372233,0.18372233 0 0 1 0.18305,-0.18417 0.18372233,0.18372233 0 0 1 0.18439,0.18281"
         sodipodi:open="true"
         sodipodi:end="6.2782635"
         sodipodi:start="0"
         sodipodi:ry="0.18372233"
         sodipodi:rx="0.18372233"
         sodipodi:cy="221.95804"
         sodipodi:cx="-182.14867"
         sodipodi:type="arc"
         id="path5302"
         style="stroke-linecap:round;paint-order:markers stroke fill"
         transform="rotate(-40)" />
      <path
         transform="rotate(-60)"
         style="stroke-linecap:round;paint-order:markers stroke fill"
         id="path5304"
         sodipodi:type="arc"
         sodipodi:cx="-248.71577"
         sodipodi:cy="145.98553"
         sodipodi:rx="0.18372233"
         sodipodi:ry="0.18372233"
         sodipodi:start="0"
         sodipodi:end="6.2782635"
         sodipodi:open="true"
         d="m -248.53205,145.98553 a 0.18372233,0.18372233 0 0 1 -0.1835,0.18373 0.18372233,0.18372233 0 0 1 -0.18395,-0.18327 0.18372233,0.18372233 0 0 1 0.18305,-0.18418 0.18372233,0.18372233 0 0 1 0.1844,0.18282"
         inkscape:transform-center-y="-2.3607201"
         inkscape:transform-center-x="4.0918166" />
      <path
         inkscape:transform-center-x="4.6524665"
         inkscape:transform-center-y="-0.81886056"
         d="m -285.10055,51.827438 a 0.18372233,0.18372233 0 0 1 -0.1835,0.183723 0.18372233,0.18372233 0 0 1 -0.18394,-0.183271 0.18372233,0.18372233 0 0 1 0.18304,-0.184173 0.18372233,0.18372233 0 0 1 0.1844,0.182817"
         sodipodi:open="true"
         sodipodi:end="6.2782635"
         sodipodi:start="0"
         sodipodi:ry="0.18372233"
         sodipodi:rx="0.18372233"
         sodipodi:cy="51.827438"
         sodipodi:cx="-285.28427"
         sodipodi:type="arc"
         id="path5306"
         style="stroke-linecap:round;paint-order:markers stroke fill"
         transform="rotate(-80)" />
      <path
         transform="rotate(-100)"
         style="stroke-linecap:round;paint-order:markers stroke fill"
         id="path5308"
         sodipodi:type="arc"
         sodipodi:cx="-287.44345"
         sodipodi:cy="-49.159386"
         sodipodi:rx="0.18372233"
         sodipodi:ry="0.18372233"
         sodipodi:start="0"
         sodipodi:end="6.2782635"
         sodipodi:open="true"
         d="m -287.25973,-49.159386 a 0.18372233,0.18372233 0 0 1 -0.18349,0.183723 0.18372233,0.18372233 0 0 1 -0.18395,-0.183271 0.18372233,0.18372233 0 0 1 0.18304,-0.184173 0.18372233,0.18372233 0 0 1 0.1844,0.182817"
         inkscape:transform-center-y="0.82176266"
         inkscape:transform-center-x="4.6519554" />
      <path
         inkscape:transform-center-x="4.0903402"
         inkscape:transform-center-y="2.3632672"
         d="m -254.74917,-144.79443 a 0.18372233,0.18372233 0 0 1 -0.1835,0.18372 0.18372233,0.18372233 0 0 1 -0.18394,-0.18327 0.18372233,0.18372233 0 0 1 0.18304,-0.18417 0.18372233,0.18372233 0 0 1 0.1844,0.18281"
         sodipodi:open="true"
         sodipodi:end="6.2782635"
         sodipodi:start="0"
         sodipodi:ry="0.18372233"
         sodipodi:rx="0.18372233"
         sodipodi:cy="-144.79443"
         sodipodi:cx="-254.93289"
         sodipodi:type="arc"
         id="path5310"
         style="stroke-linecap:round;paint-order:markers stroke fill"
         transform="rotate(-120)" />
      <path
         transform="rotate(-140)"
         style="stroke-linecap:round;paint-order:markers stroke fill"
         id="path5312"
         sodipodi:type="arc"
         sodipodi:cx="-191.67384"
         sodipodi:cy="-223.54272"
         sodipodi:rx="0.18372233"
         sodipodi:ry="0.18372233"
         sodipodi:start="0"
         sodipodi:end="6.2782635"
         sodipodi:open="true"
         d="m -191.49012,-223.54272 a 0.18372233,0.18372233 0 0 1 -0.1835,0.18372 0.18372233,0.18372233 0 0 1 -0.18395,-0.18327 0.18372233,0.18372233 0 0 1 0.18305,-0.18418 0.18372233,0.18372233 0 0 1 0.1844,0.18282"
         inkscape:transform-center-y="3.6197301"
         inkscape:transform-center-x="3.03538" />
      <path
         inkscape:transform-center-x="1.6143094"
         inkscape:transform-center-y="4.4396086"
         d="m -105.11255,-275.90607 a 0.18372233,0.18372233 0 0 1 -0.1835,0.18373 0.18372233,0.18372233 0 0 1 -0.18394,-0.18327 0.18372233,0.18372233 0 0 1 0.18304,-0.18418 0.18372233,0.18372233 0 0 1 0.1844,0.18282"
         sodipodi:open="true"
         sodipodi:end="6.2782635"
         sodipodi:start="0"
         sodipodi:ry="0.18372233"
         sodipodi:rx="0.18372233"
         sodipodi:cy="-275.90607"
         sodipodi:cx="-105.29627"
         sodipodi:type="arc"
         id="path5314"
         style="stroke-linecap:round;paint-order:markers stroke fill"
         transform="rotate(-160)" />
      <path
         transform="scale(-1)"
         style="stroke-linecap:round;paint-order:markers stroke fill"
         id="path5316"
         sodipodi:type="arc"
         sodipodi:cx="-6.2186041"
         sodipodi:cy="-295.5686"
         sodipodi:rx="0.18372233"
         sodipodi:ry="0.18372233"
         sodipodi:start="0"
         sodipodi:end="6.2782635"
         sodipodi:open="true"
         d="m -6.0348818,-295.5686 a 0.18372233,0.18372233 0 0 1 -0.1834962,0.18372 0.18372233,0.18372233 0 0 1 -0.1839479,-0.18327 0.18372233,0.18372233 0 0 1 0.1830436,-0.18417 0.18372233,0.18372233 0 0 1 0.1843983,0.18281"
         inkscape:transform-center-y="4.7239788"
         inkscape:transform-center-x="-0.0014808925" />
      <path
         inkscape:transform-center-x="-1.6170929"
         inkscape:transform-center-y="4.4385932"
         d="m 93.792662,-280.15881 a 0.18372233,0.18372233 0 0 1 -0.183496,0.18372 0.18372233,0.18372233 0 0 1 -0.183948,-0.18327 0.18372233,0.18372233 0 0 1 0.183044,-0.18417 0.18372233,0.18372233 0 0 1 0.184398,0.18281"
         sodipodi:open="true"
         sodipodi:end="6.2782635"
         sodipodi:start="0"
         sodipodi:ry="0.18372233"
         sodipodi:rx="0.18372233"
         sodipodi:cy="-280.15881"
         sodipodi:cx="93.60894"
         sodipodi:type="arc"
         id="path5318"
         style="stroke-linecap:round;paint-order:markers stroke fill"
         transform="rotate(160)" />
      <path
         transform="rotate(140)"
         style="stroke-linecap:round;paint-order:markers stroke fill"
         id="path5320"
         sodipodi:type="arc"
         sodipodi:cx="182.14568"
         sodipodi:cy="-231.53529"
         sodipodi:rx="0.18372233"
         sodipodi:ry="0.18372233"
         sodipodi:start="0"
         sodipodi:end="6.2782635"
         sodipodi:open="true"
         d="m 182.3294,-231.53529 a 0.18372233,0.18372233 0 0 1 -0.1835,0.18372 0.18372233,0.18372233 0 0 1 -0.18395,-0.18327 0.18372233,0.18372233 0 0 1 0.18305,-0.18417 0.18372233,0.18372233 0 0 1 0.1844,0.18281"
         inkscape:transform-center-y="3.6178344"
         inkscape:transform-center-x="-3.0376637" />
      <path
         inkscape:transform-center-x="-4.0918359"
         inkscape:transform-center-y="2.3607134"
         d="m 248.89651,-155.56279 a 0.18372233,0.18372233 0 0 1 -0.1835,0.18372 0.18372233,0.18372233 0 0 1 -0.18395,-0.18327 0.18372233,0.18372233 0 0 1 0.18305,-0.18417 0.18372233,0.18372233 0 0 1 0.18439,0.18282"
         sodipodi:open="true"
         sodipodi:end="6.2782635"
         sodipodi:start="0"
         sodipodi:ry="0.18372233"
         sodipodi:rx="0.18372233"
         sodipodi:cy="-155.56279"
         sodipodi:cx="248.71278"
         sodipodi:type="arc"
         id="path5322"
         style="stroke-linecap:round;paint-order:markers stroke fill"
         transform="rotate(120)" />
      <path
         transform="rotate(100)"
         style="stroke-linecap:round;paint-order:markers stroke fill"
         id="path5324"
         sodipodi:type="arc"
         sodipodi:cx="285.28128"
         sodipodi:cy="-61.404697"
         sodipodi:rx="0.18372233"
         sodipodi:ry="0.18372233"
         sodipodi:start="0"
         sodipodi:end="6.2782635"
         sodipodi:open="true"
         d="m 285.465,-61.404697 a 0.18372233,0.18372233 0 0 1 -0.18349,0.183722 0.18372233,0.18372233 0 0 1 -0.18395,-0.18327 0.18372233,0.18372233 0 0 1 0.18304,-0.184173 0.18372233,0.18372233 0 0 1 0.1844,0.182816"
         inkscape:transform-center-y="0.8188466"
         inkscape:transform-center-x="-4.6524794" />
      <path
         inkscape:transform-center-x="-4.6519625"
         inkscape:transform-center-y="-0.82177496"
         d="m 287.62418,39.582127 a 0.18372233,0.18372233 0 0 1 -0.18349,0.183722 0.18372233,0.18372233 0 0 1 -0.18395,-0.18327 0.18372233,0.18372233 0 0 1 0.18304,-0.184173 0.18372233,0.18372233 0 0 1 0.1844,0.182816"
         sodipodi:open="true"
         sodipodi:end="6.2782635"
         sodipodi:start="0"
         sodipodi:ry="0.18372233"
         sodipodi:rx="0.18372233"
         sodipodi:cy="39.582127"
         sodipodi:cx="287.44046"
         sodipodi:type="arc"
         id="path5326"
         style="stroke-linecap:round;paint-order:markers stroke fill"
         transform="rotate(80)" />
      <path
         transform="rotate(60)"
         style="stroke-linecap:round;paint-order:markers stroke fill"
         id="path5328"
         sodipodi:type="arc"
         sodipodi:cx="254.92989"
         sodipodi:cy="135.21718"
         sodipodi:rx="0.18372233"
         sodipodi:ry="0.18372233"
         sodipodi:start="0"
         sodipodi:end="6.2782635"
         sodipodi:open="true"
         d="m 255.11361,135.21718 a 0.18372233,0.18372233 0 0 1 -0.1835,0.18372 0.18372233,0.18372233 0 0 1 -0.18395,-0.18327 0.18372233,0.18372233 0 0 1 0.18305,-0.18417 0.18372233,0.18372233 0 0 1 0.1844,0.18281"
         inkscape:transform-center-y="-2.3632803"
         inkscape:transform-center-x="-4.0903598" />
      <path
         inkscape:transform-center-x="-3.0353889"
         inkscape:transform-center-y="-3.6197359"
         d="m 191.85456,213.96547 a 0.18372233,0.18372233 0 0 1 -0.1835,0.18372 0.18372233,0.18372233 0 0 1 -0.18394,-0.18327 0.18372233,0.18372233 0 0 1 0.18304,-0.18417 0.18372233,0.18372233 0 0 1 0.1844,0.18282"
         sodipodi:open="true"
         sodipodi:end="6.2782635"
         sodipodi:start="0"
         sodipodi:ry="0.18372233"
         sodipodi:rx="0.18372233"
         sodipodi:cy="213.96547"
         sodipodi:cx="191.67084"
         sodipodi:type="arc"
         id="path5330"
         style="stroke-linecap:round;paint-order:markers stroke fill"
         transform="rotate(40)" />
      <path
         transform="rotate(20)"
         style="stroke-linecap:round;paint-order:markers stroke fill"
         id="path5332"
         sodipodi:type="arc"
         sodipodi:cx="105.29327"
         sodipodi:cy="266.3288"
         sodipodi:rx="0.18372233"
         sodipodi:ry="0.18372233"
         sodipodi:start="0"
         sodipodi:end="6.2782635"
         sodipodi:open="true"
         d="m 105.47699,266.3288 a 0.18372233,0.18372233 0 0 1 -0.1835,0.18372 0.18372233,0.18372233 0 0 1 -0.18395,-0.18327 0.18372233,0.18372233 0 0 1 0.18305,-0.18417 0.18372233,0.18372233 0 0 1 0.1844,0.18281"
         inkscape:transform-center-y="-4.4395895"
         inkscape:transform-center-x="-1.6143041" />
    </g>
    <path
       style="fill:#ffff00;stroke:#000000;stroke-width:0.1070447;stroke-linecap:round;paint-order:markers stroke fill"
       id="path5399"
       sodipodi:type="arc"
       sodipodi:cx="6.2179651"
       sodipodi:cy="285.20126"
       sodipodi:rx="0.23685518"
       sodipodi:ry="0.20670572"
       sodipodi:start="0"
       sodipodi:end="6.2782635"
       sodipodi:open="true"
       d="m 6.4548203,285.20126 a 0.23685518,0.20670572 0 0 1 -0.2365637,0.20671 0.23685518,0.20670572 0 0 1 -0.2371459,-0.2062 0.23685518,0.20670572 0 0 1 0.2359801,-0.20721 0.23685518,0.20670572 0 0 1 0.2377266,0.20569" />
    <path
       d="m 8.352808,290.78229 a 2.1351056,2.1351056 0 0 1 -2.1324785,2.1351 2.1351056,2.1351056 0 0 1 -2.1377263,-2.12985 2.1351056,2.1351056 0 0 1 2.1272178,-2.14034 2.1351056,2.1351056 0 0 1 2.1429611,2.12458"
       sodipodi:open="true"
       sodipodi:end="6.2782635"
       sodipodi:start="0"
       sodipodi:ry="2.1351056"
       sodipodi:rx="2.1351056"
       sodipodi:cy="290.78229"
       sodipodi:cx="6.2177024"
       sodipodi:type="arc"
       id="path1001-8"
       style="fill:none;stroke:#2e2b2b;stroke-width:0.23765707;stroke-linecap:round;stroke-miterlimit:1.5;paint-order:markers stroke fill" />
    <path
       d="m 8.1786505,290.78229 a 1.9609481,1.9609481 0 0 1 -1.9585353,1.96094 1.9609481,1.9609481 0 0 1 -1.963355,-1.95612 1.9609481,1.9609481 0 0 1 1.9537036,-1.96576 1.9609481,1.9609481 0 0 1 1.9681629,1.95129"
       sodipodi:open="true"
       sodipodi:end="6.2782635"
       sodipodi:start="0"
       sodipodi:ry="1.9609481"
       sodipodi:rx="1.9609481"
       sodipodi:cy="290.78229"
       sodipodi:cx="6.2177024"
       sodipodi:type="arc"
       id="path1001"
       style="fill:none;stroke:#bfbfbf;stroke-width:0.23340733;stroke-linecap:round;stroke-miterlimit:1.5;paint-order:markers stroke fill" />
    <path
       d="m 7.9525779,290.78229 a 1.7348756,1.7348756 0 0 1 -1.7327408,1.73487 1.7348756,1.7348756 0 0 1 -1.737005,-1.7306 1.7348756,1.7348756 0 0 1 1.7284663,-1.73914 1.7348756,1.7348756 0 0 1 1.7412585,1.72633"
       sodipodi:open="true"
       sodipodi:end="6.2782635"
       sodipodi:start="0"
       sodipodi:ry="1.7348756"
       sodipodi:rx="1.7348756"
       sodipodi:cy="290.78229"
       sodipodi:cx="6.2177024"
       sodipodi:type="arc"
       id="path999-4"
       style="fill:none;stroke:#141414;stroke-width:0.24469815;stroke-linecap:round;stroke-miterlimit:1.5;paint-order:markers stroke fill" />
    <path
       style="fill:none;stroke:#545454;stroke-width:0.1401169;stroke-linecap:round;stroke-miterlimit:1.5;paint-order:markers stroke fill"
       id="path866"
       sodipodi:type="arc"
       sodipodi:cx="6.2177052"
       sodipodi:cy="290.78229"
       sodipodi:rx="1.4547061"
       sodipodi:ry="1.4547061"
       sodipodi:start="0"
       sodipodi:end="6.2782635"
       sodipodi:open="true"
       d="m 7.6724113,290.78229 a 1.4547061,1.4547061 0 0 1 -1.4529161,1.4547 1.4547061,1.4547061 0 0 1 -1.4564916,-1.45112 1.4547061,1.4547061 0 0 1 1.4493318,-1.45828 1.4547061,1.4547061 0 0 1 1.4600583,1.44754" />
  </g>
</svg>
