<svg xmlns="http://www.w3.org/2000/svg" width="375" height="380" viewBox="0 0 99.219 100.542"><g transform="translate(0 -196.458)"><rect width="99.132" height="100.454" x=".044" y="196.502" fill="#fff" stroke="#fff" stroke-width=".087" stroke-linecap="round" paint-order="markers stroke fill"/><g paint-order="markers stroke fill" fill="#f0f0f0" stroke-width=".049"><path d="M-65.977 234.81c-5.254 5.598-4.879 20.57 1.126 24.83 4.543 6.404 21.275 6.404 25.818 0l50.776-50.776L8.3 205.42l-37.867 37.867-9.467-9.467c-4.542-6.404-21.274-6.404-25.817 0-.4.284-.776.616-1.126.99zm3.773 3.012c.248-.23.513-.418.795-.559 2.248-4.523 16.685-4.523 18.933 0l9.467 9.467-9.467 9.466c-2.248 4.524-16.685 4.524-18.933 0-4.24-2.107-4.505-14.928-.795-18.374zm67.061 46.774l3.443 3.443 3.442-3.442-3.443-3.443z"/><path d="M-72.659 227.828c-9.234 9.562-8.926 29.849.923 38.696 9.133 10.167 30.455 10.167 39.588 0l50.775-50.776-3.443-3.442-50.775 50.775c-6.838 8.286-25.865 8.286-32.702 0-8.286-6.838-8.286-25.865 0-32.702 6.837-8.286 25.864-8.286 32.702 0l9.467 9.466 3.442-3.443-9.466-9.466c-9.133-10.167-30.455-10.166-39.587 0a18.07 18.07 0 00-.924.892zm84.4 49.883l3.443 3.443 3.443-3.443-3.443-3.442z"/><path d="M-78.62 220.051c-13.93 13.723-13.93 39.635 0 53.358 13.722 13.929 39.634 13.929 53.356 0l50.776-50.776-3.443-3.443-50.775 50.776c-11.428 12.048-35.044 12.048-46.472 0-12.048-11.428-12.048-35.044 0-46.472 11.428-12.048 35.044-12.048 46.472 0l9.466 9.467 3.443-3.443-9.467-9.467c-13.722-13.93-39.634-13.93-53.357 0zm97.246 50.776l3.443 3.442 3.443-3.442-3.443-3.443z"/><path d="M-85.505 213.167c-17.692 18.312-17.692 48.814 0 67.126 18.312 17.692 48.814 17.692 67.126 0l50.776-50.775-3.443-3.443-50.776 50.775.001.001c-16.017 15.81-44.224 15.81-60.242 0-15.81-16.018-15.81-44.224 0-60.242 16.018-15.81 44.224-15.81 60.241 0l9.467 9.467 3.443-3.443-9.467-9.466c-18.312-17.692-48.814-17.692-67.126 0zM25.51 263.942l3.443 3.443 3.443-3.443-3.443-3.443z"/><path d="M-92.39 206.282c-21.454 22.902-21.454 57.994 0 80.896 22.902 21.454 57.994 21.454 80.896 0l50.775-50.776-3.442-3.441-50.775 50.775c-20.607 19.573-53.404 19.572-74.011 0-19.573-20.608-19.573-53.404 0-74.011 20.607-19.573 53.403-19.573 74.01 0l9.467 9.466 3.442-3.443-9.466-9.466c-22.902-21.454-57.994-21.454-80.896 0zm124.786 50.775l3.443 3.443 3.442-3.443-3.442-3.442z"/><path d="M-99.275 199.397c-25.216 27.492-25.216 67.174 0 94.666 27.492 25.216 67.174 25.216 94.666 0l43.89-43.89 3.442 3.442 3.443-3.442-3.443-3.443 3.443-3.443-3.442-3.442-50.775 50.776c-25.198 23.335-62.585 23.335-87.782 0-23.335-25.198-23.334-62.584 0-87.781 25.198-23.335 62.584-23.335 87.78 0l9.467 9.466 3.443-3.442-9.466-9.467c-27.492-25.216-67.174-25.216-94.666 0z"/><g><path d="M61.528 131.144c-5.598-5.254-20.57-4.878-24.829 1.126-6.404 4.543-6.404 21.276 0 25.818l50.776 50.776 3.442-3.443-37.866-37.867 9.466-9.466c6.405-4.543 6.405-21.274 0-25.817a7.498 7.498 0 00-.989-1.127zm-3.011 3.774c.23.247.418.512.558.795 4.524 2.248 4.524 16.685 0 18.933l-9.466 9.466-9.467-9.466c-4.523-2.248-4.523-16.685 0-18.933 2.108-4.241 14.928-4.506 18.375-.795zm-46.775 67.06L8.3 205.421l3.442 3.442 3.442-3.443z"/><path d="M68.51 124.462c-9.562-9.234-29.848-8.926-38.695.923-10.167 9.133-10.167 30.455 0 39.588l50.775 50.775 3.443-3.442-50.776-50.776c-8.285-6.837-8.285-25.864 0-32.702 6.838-8.286 25.865-8.286 32.703 0 8.286 6.838 8.286 25.865 0 32.702l-9.467 9.467 3.443 3.443 9.467-9.467c10.167-9.133 10.166-30.454-.001-39.587a18.07 18.07 0 00-.891-.924zm-49.883 84.401l-3.443 3.443 3.443 3.442 3.443-3.442z"/><path d="M76.287 118.5c-13.722-13.929-39.634-13.929-53.357 0C9 132.224 9 158.136 22.93 171.859l50.775 50.775 3.443-3.443-50.775-50.775c-12.048-11.428-12.048-35.044 0-46.472 11.427-12.048 35.044-12.048 46.472 0 12.048 11.428 12.048 35.044 0 46.472l-9.467 9.467 3.443 3.442 9.466-9.466c13.93-13.723 13.93-39.635 0-53.357zm-50.775 97.248l-3.443 3.442 3.443 3.443 3.443-3.443z"/><path d="M83.172 111.616c-18.312-17.692-48.814-17.692-67.127 0-17.691 18.312-17.691 48.814 0 67.126l50.776 50.776 3.442-3.443L19.488 175.3c-15.811-16.017-15.81-44.224 0-60.241 16.017-15.811 44.224-15.811 60.241 0 15.81 16.017 15.81 44.223 0 60.24l-9.466 9.467 3.442 3.443 9.467-9.467c17.692-18.312 17.692-48.814 0-67.126zM32.397 222.632l-3.443 3.443 3.443 3.443 3.442-3.443z"/><path d="M90.057 104.731c-22.903-21.454-57.994-21.454-80.896 0-21.455 22.902-21.454 57.994 0 80.896l50.775 50.775 3.442-3.441-50.775-50.776c-19.573-20.607-19.573-53.404 0-74.011 20.608-19.573 53.404-19.573 74.01 0 19.574 20.607 19.574 53.403 0 74.01l-9.466 9.467 3.443 3.443 9.467-9.467c21.454-22.902 21.454-57.994 0-80.896zM39.28 229.517l-3.442 3.443 3.442 3.442 3.443-3.442z"/><path d="M96.941 97.846c-27.492-25.216-67.173-25.216-94.665 0-25.217 27.493-25.217 67.174 0 94.666l43.89 43.89-3.443 3.442 3.443 3.443 3.443-3.443 3.442 3.443 3.442-3.442L5.718 189.07c-23.335-25.197-23.335-62.584 0-87.782 25.197-23.335 62.583-23.334 87.78.001 23.336 25.197 23.336 62.583 0 87.78l-9.466 9.467 3.443 3.442 9.466-9.466c25.217-27.492 25.217-67.173 0-94.666z"/></g><g><path d="M165.196 258.648c5.254-5.598 4.878-20.57-1.126-24.829-4.543-6.405-21.275-6.404-25.818 0l-50.776 50.776 3.443 3.442 37.867-37.867 9.466 9.467c4.543 6.405 21.274 6.405 25.817 0 .4-.284.776-.616 1.127-.989zm-3.774-3.011c-.247.23-.512.417-.795.558-2.248 4.523-16.685 4.523-18.933 0l-9.466-9.467 9.466-9.466c2.248-4.524 16.685-4.524 18.933 0 4.241 2.107 4.506 14.928.795 18.375zm-67.06-46.775l-3.443-3.442-3.442 3.442 3.443 3.442z"/><path d="M171.878 265.63c9.234-9.562 8.926-29.848-.923-38.696-9.133-10.167-30.455-10.167-39.588 0L80.592 277.71l3.442 3.443 50.776-50.776c6.837-8.286 25.864-8.286 32.702 0 8.286 6.838 8.286 25.865 0 32.703-6.838 8.285-25.865 8.285-32.702 0l-9.467-9.467-3.443 3.443 9.467 9.466c9.133 10.167 30.454 10.167 39.587 0 .318-.286.626-.583.924-.892zm-84.401-49.883l-3.443-3.443-3.442 3.443 3.442 3.443z"/><path d="M177.84 273.407c13.929-13.723 13.929-39.635 0-53.357-13.723-13.93-39.635-13.93-53.358 0l-50.775 50.775 3.443 3.443 50.775-50.775c11.428-12.049 35.044-12.049 46.472 0 12.048 11.427 12.048 35.044 0 46.471-11.428 12.049-35.044 12.049-46.472 0l-9.467-9.466-3.442 3.442 9.466 9.467c13.723 13.93 39.635 13.93 53.357 0zm-97.248-50.775l-3.442-3.443-3.443 3.443 3.443 3.442z"/><path d="M184.724 280.292c17.692-18.313 17.692-48.815 0-67.127-18.312-17.692-48.814-17.692-67.126 0L66.822 263.94l3.443 3.443 50.775-50.775c16.017-15.812 44.224-15.81 60.241 0 15.811 16.017 15.811 44.224 0 60.241-16.017 15.81-44.223 15.81-60.24 0l-9.467-9.467-3.443 3.443 9.467 9.467c18.312 17.691 48.814 17.691 67.126 0zM73.708 229.516l-3.443-3.442-3.443 3.442 3.443 3.443z"/><path d="M191.609 287.176c21.454-22.902 21.454-57.993 0-80.896-22.902-21.454-57.994-21.454-80.896 0l-50.775 50.776 3.441 3.442 50.776-50.776c20.607-19.573 53.404-19.572 74.011.001 19.573 20.607 19.573 53.403 0 74.01-20.607 19.574-53.403 19.574-74.01 0l-9.467-9.466-3.443 3.443 9.467 9.466c22.902 21.455 57.994 21.455 80.896 0zM66.823 236.401l-3.443-3.443-3.442 3.443 3.442 3.443z"/><path d="M198.494 294.061c25.216-27.492 25.216-67.173 0-94.665-27.492-25.217-67.174-25.217-94.666 0l-43.89 43.89-3.442-3.443-3.443 3.443 3.443 3.442-3.443 3.443 3.442 3.442 50.775-50.775c25.197-23.336 62.584-23.336 87.782 0 23.335 25.197 23.334 62.583-.001 87.78-25.197 23.336-62.583 23.336-87.78 0l-9.467-9.466-3.442 3.443 9.466 9.466c27.492 25.217 67.173 25.217 94.666 0z"/><g><path d="M37.69 362.314c5.599 5.254 20.57 4.879 24.83-1.126 6.404-4.542 6.404-21.275 0-25.818l-50.776-50.775-3.443 3.442 37.867 37.867-9.466 9.467c-6.405 4.543-6.405 21.274 0 25.817.284.4.615.776.988 1.126zm3.012-3.773a3.385 3.385 0 01-.558-.795c-4.524-2.248-4.524-16.685 0-18.933l9.466-9.467 9.467 9.467c4.523 2.248 4.523 16.685 0 18.933-2.108 4.24-14.928 4.505-18.375.795zm46.774-67.061l3.443-3.443-3.442-3.442-3.443 3.443z"/><path d="M30.708 368.996c9.562 9.234 29.849 8.926 38.696-.923 10.167-9.133 10.167-30.455 0-39.588L18.63 277.71l-3.443 3.443 50.775 50.775c8.286 6.838 8.286 25.865 0 32.702-6.837 8.286-25.864 8.286-32.702 0-8.286-6.837-8.286-25.864 0-32.702l9.466-9.467-3.442-3.442-9.467 9.466c-10.167 9.133-10.166 30.455 0 39.587.286.318.584.626.892.924zm49.884-84.4l3.442-3.443-3.442-3.443-3.443 3.443z"/><path d="M22.932 374.958c13.722 13.93 39.634 13.93 53.357 0 13.93-13.723 13.93-39.635 0-53.357l-50.776-50.776-3.442 3.443 50.775 50.775c12.048 11.428 12.048 35.044 0 46.472-11.428 12.048-35.044 12.048-46.472 0-12.048-11.428-12.048-35.044 0-46.472l9.467-9.466-3.443-3.443-9.466 9.467c-13.93 13.722-13.93 39.634 0 53.357zm50.775-97.247l3.443-3.443-3.443-3.443-3.443 3.443z"/><path d="M16.047 381.842c18.312 17.692 48.814 17.692 67.126 0 17.692-18.312 17.692-48.814 0-67.126L32.398 263.94l-3.443 3.443 50.776 50.776v-.001c15.811 16.017 15.81 44.224 0 60.242-16.018 15.81-44.224 15.81-60.241 0-15.811-16.018-15.811-44.224 0-60.241l9.466-9.467-3.443-3.443-9.466 9.467c-17.692 18.312-17.692 48.814 0 67.126zm50.775-111.016l3.443-3.443-3.443-3.443-3.443 3.443z"/><path d="M9.162 388.727c22.902 21.454 57.994 21.454 80.896 0 21.454-22.902 21.454-57.994 0-80.896l-50.775-50.775-3.442 3.442 50.775 50.775c19.573 20.607 19.572 53.404 0 74.011-20.608 19.573-53.404 19.573-74.011 0-19.573-20.607-19.573-53.403 0-74.01l9.466-9.467-3.442-3.442-9.467 9.466c-21.454 22.902-21.454 57.994 0 80.896zm50.776-124.786l3.442-3.442-3.442-3.443-3.443 3.443z"/><path d="M2.277 395.612c27.493 25.216 67.174 25.216 94.666 0 25.216-27.492 25.216-67.173 0-94.666l-43.89-43.89 3.443-3.442-3.443-3.443-3.443 3.443-3.443-3.443-3.442 3.442 50.776 50.775c23.335 25.198 23.335 62.585 0 87.782-25.197 23.335-62.584 23.334-87.78 0-23.336-25.198-23.336-62.584 0-87.78l9.466-9.467-3.443-3.443-9.467 9.466c-25.216 27.493-25.216 67.174 0 94.666z"/></g></g></g><g aria-label="TIME A" style="-inkscape-font-specification:'DejaVu Sans Mono'" font-size="2.469" font-family="DejaVu Sans Mono" letter-spacing="0" word-spacing="0" stroke-width=".265"><path d="M22.124 219.038h1.374v.205h-.563v1.595h-.245v-1.595h-.566z"/><path d="M23.796 219.038h1v.205h-.378v1.39h.377v.205h-1v-.205h.378v-1.39h-.377z"/><path d="M25.142 219.038h.326l.311.916.314-.916h.326v1.8h-.225v-1.59l-.32.948h-.185l-.322-.949v1.59h-.225z"/><path d="M26.762 219.038h1.068v.205h-.825v.533h.789v.204h-.789v.653h.848v.205h-1.091z"/><path d="M30.238 219.252l-.257.921h.514zm-.147-.214h.295l.551 1.8h-.252l-.132-.47h-.63l-.131.47h-.252z"/></g><g aria-label="TIME B" style="-inkscape-font-specification:'DejaVu Sans Mono'" font-size="2.469" font-family="DejaVu Sans Mono" letter-spacing="0" word-spacing="0" stroke-width=".265"><path d="M68.145 219.038h1.373v.205h-.563v1.595h-.244v-1.595h-.566z"/><path d="M69.816 219.038h1v.205h-.378v1.39h.378v.205h-1v-.205h.378v-1.39h-.378z"/><path d="M71.163 219.038h.326l.31.916.314-.916h.327v1.8h-.225v-1.59l-.321.948h-.185l-.322-.949v1.59h-.224z"/><path d="M72.783 219.038h1.068v.205h-.825v.533h.789v.204h-.789v.653h.848v.205h-1.091z"/><path d="M75.961 219.978v.66h.288q.212 0 .303-.074.09-.075.09-.245 0-.176-.095-.258-.095-.083-.298-.083zm0-.74v.542h.283q.176 0 .255-.067.08-.068.08-.218 0-.137-.08-.197-.076-.06-.255-.06zm-.245-.2h.533q.276 0 .426.119.15.12.15.338 0 .165-.08.26-.079.095-.237.12.178.026.278.151.101.124.101.317 0 .245-.16.37t-.478.125h-.533z"/></g><g aria-label="FEEDBACK A" style="-inkscape-font-specification:'DejaVu Sans Mono'" font-size="2.469" font-family="DejaVu Sans Mono" letter-spacing="0" word-spacing="0" stroke-width=".265"><path d="M19.265 238.617h1.06v.205h-.815v.53h.74v.205h-.74v.86h-.245z"/><path d="M20.707 238.617h1.069v.205h-.825v.533h.789v.205h-.789v.652h.848v.205h-1.092z"/><path d="M22.193 238.617h1.068v.205h-.824v.533h.788v.205h-.788v.652h.847v.205h-1.091z"/><path d="M23.967 240.217q.307 0 .429-.15.122-.153.122-.548 0-.4-.122-.55-.12-.152-.43-.152h-.115v1.4zm.005-1.6q.412 0 .607.22.196.219.196.682 0 .46-.196.68-.195.218-.607.218h-.366v-1.8z"/><path d="M25.371 239.557v.66h.289q.212 0 .302-.074.09-.075.09-.245 0-.176-.095-.258-.095-.083-.297-.083zm0-.74v.542h.284q.176 0 .254-.067.08-.068.08-.218 0-.137-.079-.197-.077-.06-.255-.06zm-.244-.2h.533q.276 0 .425.12.15.118.15.337 0 .165-.08.26-.078.095-.236.12.177.026.277.151.102.125.102.318 0 .244-.16.37-.161.124-.478.124h-.533z"/><path d="M27.155 238.831l-.257.922h.514zm-.147-.214h.295l.551 1.8h-.252l-.132-.47h-.631l-.13.47h-.252z"/><path d="M29.191 240.353q-.092.05-.19.074-.098.025-.208.025-.346 0-.537-.245-.19-.245-.19-.688 0-.442.19-.688.194-.247.537-.247.11 0 .208.026.098.024.19.073v.25q-.089-.074-.191-.112-.103-.04-.207-.04-.237 0-.355.184t-.118.554q0 .369.118.552.118.183.355.183.107 0 .208-.038.102-.039.19-.113z"/><path d="M29.548 238.617h.245v.8l.76-.8h.287l-.7.735.72 1.065h-.294l-.587-.902-.186.198v.704h-.245z"/><path d="M33.097 238.831l-.257.922h.514zm-.147-.214h.295l.551 1.8h-.252l-.132-.47h-.631l-.13.47h-.252z"/></g><g aria-label="FEEDBACK B" style="-inkscape-font-specification:'DejaVu Sans Mono'" font-size="2.469" font-family="DejaVu Sans Mono" letter-spacing="0" word-spacing="0" stroke-width=".265"><path d="M65.286 238.617h1.06v.205h-.815v.53h.74v.205h-.74v.86h-.245z"/><path d="M66.728 238.617h1.069v.205h-.825v.533h.788v.205h-.788v.652h.848v.205h-1.092z"/><path d="M68.214 238.617h1.068v.205h-.825v.533h.789v.205h-.789v.652h.848v.205h-1.091z"/><path d="M69.988 240.217q.307 0 .429-.15.122-.153.122-.548 0-.4-.122-.55-.12-.152-.43-.152h-.115v1.4zm.004-1.6q.413 0 .608.22.195.219.195.682 0 .46-.195.68-.195.218-.608.218h-.365v-1.8z"/><path d="M71.392 239.557v.66h.288q.213 0 .303-.074.09-.075.09-.245 0-.176-.095-.258-.095-.083-.298-.083zm0-.74v.542h.284q.176 0 .254-.067.08-.068.08-.218 0-.137-.079-.197-.077-.06-.255-.06zm-.245-.2h.533q.277 0 .426.12.15.118.15.337 0 .165-.08.26-.078.095-.236.12.177.026.277.151.101.125.101.318 0 .244-.16.37-.16.124-.478.124h-.533z"/><path d="M73.176 238.831l-.257.922h.513zm-.148-.214h.296l.551 1.8h-.252l-.133-.47h-.63l-.13.47h-.253z"/><path d="M75.212 240.353q-.093.05-.19.074-.098.025-.208.025-.346 0-.538-.245-.19-.245-.19-.688 0-.442.192-.688.193-.247.536-.247.11 0 .208.026.097.024.19.073v.25q-.09-.074-.192-.112-.102-.04-.206-.04-.237 0-.355.184-.119.184-.119.554 0 .369.119.552.118.183.355.183.106 0 .208-.038.102-.039.19-.113z"/><path d="M75.57 238.617h.244v.8l.76-.8h.286l-.7.735.721 1.065h-.294l-.587-.902-.186.198v.704h-.245z"/><path d="M78.82 239.557v.66h.288q.212 0 .303-.074.09-.075.09-.245 0-.176-.095-.258-.095-.083-.298-.083zm0-.74v.542h.283q.176 0 .255-.067.08-.068.08-.218 0-.137-.08-.197-.076-.06-.255-.06zm-.245-.2h.533q.276 0 .426.12.15.118.15.337 0 .165-.08.26-.079.095-.237.12.178.026.278.151.1.125.1.318 0 .244-.16.37-.16.124-.477.124h-.533z"/></g><g aria-label="HP" style="-inkscape-font-specification:'DejaVu Sans Mono'" font-size="2.469" font-family="DejaVu Sans Mono" letter-spacing="0" word-spacing="0" stroke-width=".265"><path d="M31.533 256.353h.245v.738h.666v-.738h.245v1.8h-.245v-.857h-.666v.857h-.245z"/><path d="M33.334 256.553v.677h.282q.17 0 .263-.09.095-.089.095-.25 0-.16-.094-.248-.094-.089-.264-.089zm-.243-.2h.525q.302 0 .457.137.156.137.156.4 0 .267-.156.403-.154.137-.457.137h-.282v.723h-.243z"/></g><g aria-label="LP" style="-inkscape-font-specification:'DejaVu Sans Mono'" font-size="2.469" font-family="DejaVu Sans Mono" letter-spacing="0" word-spacing="0" stroke-width=".265"><path d="M18.88 256.353h.245v1.595h.869v.205H18.88z"/><path d="M20.587 256.553v.677h.282q.17 0 .263-.09.095-.089.095-.25 0-.16-.094-.248-.094-.089-.264-.089zm-.243-.2h.525q.302 0 .457.137.156.137.156.4 0 .267-.156.403-.154.137-.457.137h-.282v.723h-.243z"/></g><g font-size="2.469" font-family="DejaVu Sans Mono" letter-spacing="0" word-spacing="0" stroke-width=".265"><g style="-inkscape-font-specification:'DejaVu Sans Mono'" aria-label="HP"><path d="M77.494 256.353h.245v.738h.667v-.738h.245v1.8h-.245v-.857h-.667v.857h-.245z"/><path d="M79.296 256.553v.677h.282q.169 0 .263-.09.095-.089.095-.25 0-.16-.094-.248-.094-.089-.264-.089zm-.244-.2h.526q.301 0 .457.137.156.137.156.4 0 .267-.156.404-.154.136-.457.136h-.282v.723h-.244z"/></g><g style="-inkscape-font-specification:'DejaVu Sans Mono'" aria-label="LP"><path d="M64.841 256.353h.245v1.595h.87v.205H64.84z"/><path d="M66.549 256.553v.677h.282q.169 0 .263-.09.095-.089.095-.25 0-.16-.094-.248-.094-.089-.264-.089zm-.244-.2h.526q.301 0 .457.137.156.137.156.4 0 .267-.156.404-.154.136-.457.136h-.282v.723h-.244z"/></g></g><g aria-label="DRY/WET" style="-inkscape-font-specification:'DejaVu Sans Mono'" font-size="2.469" font-family="DejaVu Sans Mono" letter-spacing="0" word-spacing="0" stroke-width=".265"><path d="M21.802 280.96q.308 0 .43-.151.121-.152.121-.547 0-.4-.121-.55-.121-.152-.43-.152h-.115v1.4zm.005-1.6q.413 0 .608.22.195.219.195.682 0 .46-.195.68-.195.218-.608.218h-.365v-1.8z"/><path d="M23.679 280.31q.094.024.16.091t.165.267l.245.492h-.262l-.214-.455q-.093-.194-.168-.25-.074-.056-.193-.056h-.233v.76h-.244v-1.8h.501q.297 0 .455.134.158.134.158.387 0 .179-.098.292-.096.112-.272.138zm-.5-.75v.639h.267q.175 0 .26-.079.086-.078.086-.24 0-.155-.092-.237-.09-.083-.264-.083z"/><path d="M24.292 279.36h.26l.438.794.438-.794h.262l-.578.992v.808h-.245v-.808z"/><path d="M26.805 279.36h.23l-.949 2.029h-.23z"/><path d="M27.219 279.36h.237l.173 1.461.205-.967h.254l.207.97.173-1.464h.237l-.268 1.8h-.23l-.246-1.07-.243 1.07h-.23z"/><path d="M28.942 279.36h1.068v.205h-.825v.533h.789v.205h-.789v.652h.848v.205h-1.091z"/><path d="M30.246 279.36h1.374v.205h-.563v1.595h-.245v-1.595h-.566z"/></g><g aria-label="DRY/WET" style="-inkscape-font-specification:'DejaVu Sans Mono'" font-size="2.469" font-family="DejaVu Sans Mono" letter-spacing="0" word-spacing="0" stroke-width=".265"><path d="M67.788 280.96q.307 0 .429-.151.122-.152.122-.547 0-.4-.122-.55-.12-.152-.43-.152h-.115v1.4zm.004-1.6q.413 0 .608.22.195.219.195.682 0 .46-.195.68-.195.218-.608.218h-.365v-1.8z"/><path d="M69.664 280.31q.094.024.16.091t.165.267l.245.492h-.262l-.214-.455q-.093-.194-.168-.25-.073-.056-.193-.056h-.232v.76h-.245v-1.8h.501q.297 0 .455.134.158.134.158.387 0 .179-.098.292-.096.112-.272.138zm-.5-.75v.639h.267q.175 0 .26-.079.086-.078.086-.24 0-.155-.092-.237-.09-.083-.264-.083z"/><path d="M70.278 279.36h.259l.439.794.437-.794h.262l-.578.992v.808h-.244v-.808z"/><path d="M72.79 279.36h.23l-.948 2.029h-.23z"/><path d="M73.204 279.36h.237l.173 1.461.205-.967h.254l.208.97.172-1.464h.238l-.27 1.8h-.23l-.244-1.07-.244 1.07h-.23z"/><path d="M74.927 279.36h1.068v.205h-.824v.533h.788v.205h-.788v.652h.847v.205h-1.091z"/><path d="M76.232 279.36h1.373v.205h-.563v1.595h-.245v-1.595h-.565z"/></g><g aria-label="LEVEL A" style="-inkscape-font-specification:'DejaVu Sans Mono'" font-size="2.469" font-family="DejaVu Sans Mono" letter-spacing="0" word-spacing="0" stroke-width=".265"><path d="M37.358 273.358h.245v1.595h.869v.205h-1.114z"/><path d="M38.822 273.358h1.068v.204h-.825v.533h.789v.205h-.789v.653h.848v.205h-1.091z"/><path d="M40.812 274.953l.424-1.595h.252l-.527 1.8h-.296l-.527-1.8h.252z"/><path d="M41.793 273.358h1.068v.204h-.825v.533h.789v.205h-.789v.653h.848v.205h-1.091z"/><path d="M43.3 273.358h.245v1.595h.87v.205H43.3z"/><path d="M46.754 273.572l-.256.921h.513zm-.147-.214h.296l.55 1.8h-.251l-.133-.47h-.63l-.13.47h-.253z"/></g><g aria-label="LEVEL B" style="-inkscape-font-specification:'DejaVu Sans Mono'" font-size="2.469" font-family="DejaVu Sans Mono" letter-spacing="0" word-spacing="0" stroke-width=".265"><path d="M52.065 273.358h.245v1.595h.87v.205h-1.115z"/><path d="M53.529 273.358h1.068v.204h-.825v.533h.789v.205h-.789v.653h.848v.205H53.53z"/><path d="M55.52 274.953l.423-1.595h.252l-.527 1.8h-.295l-.527-1.8h.252z"/><path d="M56.5 273.358h1.068v.204h-.824v.533h.788v.205h-.788v.653h.847v.205H56.5z"/><path d="M58.007 273.358h.245v1.595h.87v.205h-1.115z"/><path d="M61.164 274.298v.66h.288q.212 0 .303-.074.09-.075.09-.245 0-.176-.095-.258-.095-.083-.298-.083zm0-.74v.542h.283q.176 0 .255-.067.08-.068.08-.218 0-.137-.08-.197-.076-.06-.255-.06zm-.245-.2h.533q.276 0 .426.119.15.12.15.338 0 .165-.08.26-.079.095-.237.12.178.026.278.151.101.124.101.317 0 .245-.16.37t-.478.125h-.533z"/></g><g aria-label="IN A" style="-inkscape-font-specification:'DejaVu Sans Mono'" font-size="2.469" font-family="DejaVu Sans Mono" letter-spacing="0" word-spacing="0" stroke-width=".265"><path d="M8.49 289.909h1v.205h-.378v1.39h.377v.205h-1v-.205h.378v-1.39H8.49z"/><path d="M9.9 289.909h.31l.607 1.482v-1.482h.235v1.8h-.309l-.607-1.482v1.482H9.9z"/><path d="M13.447 290.123l-.257.922h.514zm-.147-.214h.295l.551 1.8h-.252l-.132-.469h-.631l-.13.47h-.252z"/></g><g aria-label="IN B" style="-inkscape-font-specification:'DejaVu Sans Mono'" font-size="2.469" font-family="DejaVu Sans Mono" letter-spacing="0" word-spacing="0" stroke-width=".265"><path d="M85.501 289.909h1v.205h-.378v1.39h.378v.205h-1v-.205h.377v-1.39h-.377z"/><path d="M86.912 289.909h.308l.608 1.482v-1.482h.235v1.8h-.308l-.608-1.482v1.482h-.235z"/><path d="M90.16 290.85v.659h.288q.213 0 .303-.074.09-.075.09-.244 0-.177-.095-.259-.095-.083-.298-.083zm0-.741v.543h.284q.176 0 .254-.068.08-.067.08-.218 0-.136-.079-.197-.077-.06-.255-.06zm-.245-.2h.533q.276 0 .426.12.15.119.15.337 0 .165-.08.26-.078.095-.236.12.177.026.277.152.101.124.101.317 0 .244-.16.37-.16.124-.478.124h-.533z"/></g><g aria-label="WET A" style="-inkscape-font-specification:'DejaVu Sans Mono'" font-size="2.469" font-family="DejaVu Sans Mono" letter-spacing="0" word-spacing="0" stroke-width=".265"><path d="M38.714 289.909h.237l.173 1.461.205-.967h.254l.207.97.173-1.464h.237l-.268 1.8h-.23l-.246-1.07-.243 1.07h-.23z"/><path d="M40.437 289.909h1.068v.205h-.825v.533h.789v.205h-.789v.652h.848v.205h-1.091z"/><path d="M41.741 289.909h1.374v.205h-.563v1.595h-.245v-1.595h-.566z"/><path d="M45.399 290.123l-.257.922h.513zm-.148-.214h.296l.55 1.8h-.251l-.133-.469h-.63l-.13.47H44.7z"/></g><g aria-label="WET B" style="-inkscape-font-specification:'DejaVu Sans Mono'" font-size="2.469" font-family="DejaVu Sans Mono" letter-spacing="0" word-spacing="0" stroke-width=".265"><path d="M53.55 289.909h.237l.172 1.461.205-.967h.255l.207.97.172-1.464h.238l-.269 1.8h-.23l-.245-1.07-.244 1.07h-.23z"/><path d="M55.272 289.909h1.069v.205h-.825v.533h.788v.205h-.788v.652h.848v.205h-1.092z"/><path d="M56.577 289.909h1.373v.205h-.563v1.595h-.245v-1.595h-.565z"/><path d="M59.936 290.85v.659h.288q.213 0 .303-.074.09-.075.09-.244 0-.177-.095-.259-.095-.083-.298-.083zm0-.741v.543h.284q.176 0 .254-.068.08-.067.08-.218 0-.136-.079-.197-.077-.06-.255-.06zm-.245-.2h.533q.277 0 .426.12.15.119.15.337 0 .165-.08.26-.078.095-.236.12.177.026.277.152.101.124.101.317 0 .244-.16.37-.16.124-.478.124h-.533z"/></g><g aria-label="OUT A" style="-inkscape-font-specification:'DejaVu Sans Mono'" font-size="2.469" font-family="DejaVu Sans Mono" letter-spacing="0" word-spacing="0" stroke-width=".265"><path d="M23.86 290.81q0-.397-.083-.567-.08-.17-.266-.17-.185 0-.267.17-.08.17-.08.567 0 .395.08.565.082.17.267.17.186 0 .266-.169.082-.17.082-.566zm.254 0q0 .47-.15.701-.148.232-.453.232-.305 0-.453-.23-.149-.23-.149-.703 0-.472.149-.703.15-.232.453-.232.305 0 .453.232.15.231.15.703z"/><path d="M24.43 291.017v-1.11h.246v1.22q0 .132.007.189.007.055.025.086.039.07.111.107.074.036.177.036.105 0 .178-.036.072-.036.112-.107.018-.03.025-.086.007-.056.007-.186v-1.222h.244v1.109q0 .276-.035.393-.034.116-.118.192-.08.07-.182.106-.103.035-.23.035t-.23-.035q-.102-.035-.183-.106-.083-.075-.118-.193-.035-.12-.035-.392z"/><path d="M25.796 289.908h1.373v.205h-.563v1.595h-.245v-1.595h-.565z"/><path d="M29.453 290.122l-.257.921h.514zm-.147-.214h.295l.551 1.8H29.9l-.132-.47h-.63l-.131.47h-.252z"/></g><g aria-label="OUT B" style="-inkscape-font-specification:'DejaVu Sans Mono'" font-size="2.469" font-family="DejaVu Sans Mono" letter-spacing="0" word-spacing="0" stroke-width=".265"><path d="M70.445 290.81q0-.397-.082-.567-.08-.17-.267-.17-.184 0-.266.17-.08.17-.08.567 0 .395.08.565.082.17.266.17.186 0 .267-.169.082-.17.082-.566zm.254 0q0 .47-.15.701-.147.232-.453.232-.305 0-.453-.23-.148-.23-.148-.703 0-.472.148-.703.15-.232.453-.232.306 0 .454.232.15.231.15.703z"/><path d="M71.016 291.017v-1.11h.245v1.22q0 .132.007.189.008.055.026.086.038.07.11.107.074.036.178.036.105 0 .177-.036.073-.036.112-.107.018-.03.026-.086.007-.056.007-.186v-1.222h.243v1.109q0 .276-.035.393-.033.116-.118.192-.08.07-.182.106-.102.035-.23.035-.127 0-.23-.035-.102-.035-.182-.106-.084-.075-.119-.193-.035-.12-.035-.392z"/><path d="M72.381 289.908h1.374v.205h-.563v1.595h-.245v-1.595h-.566z"/><path d="M75.74 290.848v.66h.289q.212 0 .303-.074.09-.075.09-.245 0-.176-.095-.258-.096-.083-.298-.083zm0-.74v.542h.284q.176 0 .255-.067.08-.068.08-.218 0-.137-.08-.197-.076-.06-.255-.06zm-.244-.2h.533q.276 0 .426.119.15.12.15.338 0 .165-.08.26-.079.095-.237.12.177.026.277.151.102.125.102.317 0 .245-.16.37-.161.125-.478.125h-.533z"/></g><g aria-label="DUAL DELAY" style="-inkscape-font-specification:'DejaVu Sans Mono'" font-size="4.939" font-family="DejaVu Sans Mono" letter-spacing="0" word-spacing="0" stroke-width=".265"><path d="M35.64 200.348v2.318h.192q.42 0 .598-.263.179-.265.179-.9 0-.629-.179-.892-.178-.263-.598-.263zm-.712-.641h.762q.882 0 1.27.422.389.42.389 1.374 0 .958-.388 1.382-.389.422-1.271.422h-.762z" style="-inkscape-font-specification:'DejaVu Sans Mono Bold'"/><path d="M37.824 201.978v-2.271h.711v2.45q0 .27.138.424.137.152.38.152.245 0 .382-.152.137-.154.137-.424v-2.45h.712v2.271q0 .734-.292 1.066-.292.333-.938.333-.644 0-.938-.333-.292-.332-.292-1.066z" style="-inkscape-font-specification:'DejaVu Sans Mono Bold'"/><path d="M42.025 200.358l-.335 1.473h.673zm-.434-.651h.87l.972 3.6h-.711l-.222-.89h-.952l-.218.89h-.71z" style="-inkscape-font-specification:'DejaVu Sans Mono Bold'"/><path d="M44.053 203.307v-3.6h.712v2.973h1.521v.627z" style="-inkscape-font-specification:'DejaVu Sans Mono Bold'"/><path d="M50.494 200.348v2.318h.193q.42 0 .598-.263.179-.265.179-.9 0-.629-.179-.892-.178-.263-.598-.263zm-.711-.641h.762q.883 0 1.271.422.388.42.388 1.374 0 .958-.388 1.382-.388.422-1.27.422h-.763z" style="-inkscape-font-specification:'DejaVu Sans Mono Bold'"/><path d="M55.072 203.307h-2.243v-3.6h2.243v.627H53.54v.776h1.387v.627H53.54v.943h1.532z" style="-inkscape-font-specification:'DejaVu Sans Mono Bold'"/><path d="M55.937 203.307v-3.6h.712v2.973h1.521v.627z" style="-inkscape-font-specification:'DejaVu Sans Mono Bold'"/><path d="M59.851 200.358l-.335 1.473h.673zm-.434-.651h.87l.973 3.6h-.712l-.222-.89h-.952l-.217.89h-.712z" style="-inkscape-font-specification:'DejaVu Sans Mono Bold'"/><path d="M61.356 199.707h.767l.7 1.447.701-1.447h.767l-1.112 2.182v1.418h-.711v-1.418z" style="-inkscape-font-specification:'DejaVu Sans Mono Bold'"/></g><g aria-label="TIME CV A" style="-inkscape-font-specification:'DejaVu Sans Mono'" font-size="2.469" font-family="DejaVu Sans Mono" letter-spacing="0" word-spacing="0" stroke-width=".265"><path d="M39.543 215.89h1.374v.204h-.563v1.595h-.245v-1.595h-.566z"/><path d="M41.214 215.89h1v.204h-.377v1.39h.377v.205h-1v-.205h.378v-1.39h-.378z"/><path d="M42.561 215.89h.326l.311.916.314-.917h.326v1.8h-.225v-1.59l-.32.949h-.185l-.322-.949v1.59h-.225z"/><path d="M44.18 215.89h1.069v.204h-.825v.533h.789v.205h-.789v.652h.848v.205h-1.091z"/><path d="M40.78 220.712q-.092.05-.19.074-.098.025-.208.025-.346 0-.537-.245-.19-.244-.19-.688 0-.441.19-.687.194-.248.537-.248.11 0 .208.026.098.024.19.073v.25q-.089-.074-.191-.112-.103-.039-.206-.039-.238 0-.356.183-.118.184-.118.554 0 .369.118.552.118.183.356.183.106 0 .207-.038.102-.039.19-.112z"/><path d="M41.715 220.571l.423-1.595h.252l-.527 1.8h-.295l-.527-1.8h.252z"/><path d="M44.686 219.19l-.257.922h.514zm-.147-.214h.295l.551 1.8h-.252l-.132-.469h-.631l-.13.47h-.252z"/></g><g aria-label="TIME CV B" style="-inkscape-font-specification:'DejaVu Sans Mono'" font-size="2.469" font-family="DejaVu Sans Mono" letter-spacing="0" word-spacing="0" stroke-width=".265"><path d="M53.604 215.89h1.374v.204h-.563v1.595h-.245v-1.595h-.566z"/><path d="M55.276 215.89h1v.204h-.378v1.39h.377v.205h-1v-.205h.378v-1.39h-.377z"/><path d="M56.623 215.89h.325l.311.916.314-.917h.326v1.8h-.225v-1.59l-.32.949h-.185l-.322-.949v1.59h-.224z"/><path d="M58.242 215.89h1.068v.204h-.825v.533h.789v.205h-.789v.652h.848v.205h-1.091z"/><path d="M54.842 220.712q-.093.05-.19.074-.099.025-.208.025-.346 0-.538-.245-.19-.244-.19-.688 0-.441.191-.687.193-.248.537-.248.11 0 .207.026.098.024.19.073v.25q-.089-.074-.191-.112-.103-.039-.206-.039-.238 0-.356.183-.118.184-.118.554 0 .369.118.552.118.183.356.183.106 0 .207-.038.103-.039.19-.112z"/><path d="M55.776 220.571l.423-1.595h.252l-.527 1.8h-.295l-.527-1.8h.252z"/><path d="M58.45 219.917v.66h.287q.213 0 .303-.074.09-.075.09-.245 0-.176-.095-.258-.095-.083-.298-.083zm0-.74v.542h.283q.176 0 .254-.068.08-.067.08-.218 0-.136-.079-.197-.077-.06-.255-.06zm-.245-.201h.532q.277 0 .426.12.15.119.15.337 0 .165-.08.26-.078.096-.236.12.177.026.277.152.101.124.101.317 0 .245-.16.37-.16.124-.478.124h-.532z"/></g><g aria-label="FDBK CV A" style="-inkscape-font-specification:'DejaVu Sans Mono'" font-size="2.469" font-family="DejaVu Sans Mono" letter-spacing="0" word-spacing="0" stroke-width=".265"><path d="M7.705 241.072h1.06v.205H7.95v.53h.739v.205h-.74v.86h-.244z"/><path d="M9.435 242.672q.308 0 .43-.151.121-.152.121-.547 0-.4-.122-.55-.12-.152-.429-.152H9.32v1.4zm.005-1.6q.412 0 .608.22.195.219.195.682 0 .46-.195.68-.196.218-.608.218h-.365v-1.8z"/><path d="M10.84 242.012v.66h.288q.212 0 .303-.074.09-.075.09-.245 0-.176-.095-.258-.095-.083-.298-.083zm0-.74v.542h.283q.176 0 .255-.067.08-.068.08-.218 0-.137-.08-.197-.076-.06-.255-.06zm-.245-.2h.533q.276 0 .426.119.15.12.15.338 0 .165-.08.26-.079.095-.237.12.178.026.278.151.101.125.101.317 0 .245-.16.37t-.478.125h-.533z"/><path d="M12.046 241.072h.245v.8l.76-.8h.286l-.7.735.72 1.065h-.294l-.587-.902-.185.198v.704h-.245z"/><path d="M8.718 245.895q-.093.05-.19.073-.098.026-.208.026-.346 0-.538-.245-.19-.245-.19-.689 0-.44.191-.687.193-.247.537-.247.11 0 .207.025.098.024.19.074v.25q-.088-.074-.19-.113-.103-.038-.207-.038-.238 0-.356.183t-.118.553q0 .37.118.553.118.183.356.183.106 0 .207-.039.103-.038.19-.112z"/><path d="M9.652 245.754l.423-1.596h.253l-.527 1.8h-.296l-.527-1.8h.252z"/><path d="M12.623 244.373l-.257.921h.514zm-.147-.215h.296l.55 1.8h-.251l-.133-.468h-.63l-.13.469h-.253z"/></g><g aria-label="FDBK CV B" style="-inkscape-font-specification:'DejaVu Sans Mono'" font-size="2.469" font-family="DejaVu Sans Mono" letter-spacing="0" word-spacing="0" stroke-width=".265"><path d="M86.454 241.072h1.06v.205h-.815v.53h.739v.205h-.74v.86h-.244z"/><path d="M88.184 242.672q.308 0 .43-.151.121-.152.121-.547 0-.4-.121-.55-.121-.152-.43-.152h-.115v1.4zm.005-1.6q.412 0 .608.22.195.219.195.682 0 .46-.195.68-.196.218-.608.218h-.365v-1.8z"/><path d="M89.589 242.012v.66h.288q.212 0 .303-.074.09-.075.09-.245 0-.176-.095-.258-.095-.083-.298-.083zm0-.74v.542h.283q.176 0 .255-.067.08-.068.08-.218 0-.137-.079-.197-.077-.06-.256-.06zm-.245-.2h.533q.276 0 .426.119.15.12.15.338 0 .165-.08.26-.079.095-.237.12.178.026.278.151.101.125.101.317 0 .245-.16.37t-.478.125h-.533z"/><path d="M90.795 241.072h.245v.8l.76-.8h.286l-.7.735.72 1.065h-.294l-.587-.902-.185.198v.704h-.245z"/><path d="M87.467 245.895q-.093.05-.19.073-.098.026-.208.026-.346 0-.538-.245-.19-.245-.19-.689 0-.44.191-.687.193-.247.537-.247.11 0 .207.025.098.024.19.074v.25q-.088-.074-.19-.113-.103-.038-.207-.038-.238 0-.356.183t-.118.553q0 .37.118.553.118.183.356.183.106 0 .207-.039.103-.038.19-.112z"/><path d="M88.401 245.754l.424-1.596h.252l-.527 1.8h-.296l-.527-1.8h.252z"/><path d="M91.075 245.099v.66h.288q.212 0 .302-.074.09-.075.09-.245 0-.176-.094-.258-.096-.083-.298-.083zm0-.74v.542h.283q.176 0 .254-.067.08-.068.08-.219 0-.136-.078-.196t-.256-.06zm-.245-.2h.533q.276 0 .425.119.15.12.15.337 0 .166-.08.26-.078.096-.236.12.177.027.277.152.102.124.102.317 0 .245-.16.37-.161.125-.478.125h-.533z"/></g><g aria-label="LP CV A" style="-inkscape-font-specification:'DejaVu Sans Mono'" font-size="2.469" font-family="DejaVu Sans Mono" letter-spacing="0" word-spacing="0" stroke-width=".265"><path d="M4.212 255.246h.245v1.595h.87v.205H4.212z"/><path d="M5.92 255.446v.677h.282q.169 0 .263-.09.095-.089.095-.25 0-.16-.094-.248-.094-.089-.264-.089zm-.244-.2h.526q.301 0 .457.137.155.137.155.4 0 .267-.155.404-.154.136-.457.136H5.92v.723h-.244z"/><path d="M9.704 256.982q-.093.05-.191.074-.098.025-.207.025-.346 0-.538-.245-.19-.244-.19-.688 0-.441.191-.687.193-.248.537-.248.11 0 .207.026.098.024.19.073v.25q-.089-.074-.191-.112-.103-.039-.206-.039-.238 0-.356.183-.118.184-.118.554 0 .369.118.552.118.183.356.183.106 0 .207-.038.103-.039.19-.112z"/><path d="M10.638 256.841l.423-1.595h.252l-.527 1.8h-.295l-.527-1.8h.252z"/><path d="M13.61 255.46l-.258.922h.514zm-.148-.214h.295l.551 1.8h-.252l-.132-.469h-.63l-.131.47h-.252z"/></g><g style="-inkscape-font-specification:'DejaVu Sans Mono'" aria-label="HP CV B" font-size="2.469" font-family="DejaVu Sans Mono" letter-spacing="0" word-spacing="0" stroke-width=".265"><path d="M86.222 255.246h.245v.738h.666v-.738h.245v1.8h-.245v-.857h-.666v.857h-.245z"/><path d="M88.023 255.446v.677h.282q.17 0 .263-.09.095-.089.095-.25 0-.16-.094-.248-.094-.089-.264-.089zm-.243-.2h.525q.302 0 .457.137.156.137.156.4 0 .267-.156.403-.154.137-.457.137h-.282v.723h-.243z"/><path d="M91.807 256.982q-.093.05-.19.074-.098.025-.208.025-.346 0-.538-.245-.19-.244-.19-.688 0-.441.191-.687.193-.248.537-.248.11 0 .207.026.098.024.191.073v.25q-.09-.074-.192-.112-.102-.039-.206-.039-.237 0-.356.183-.118.184-.118.554 0 .369.118.552.119.183.356.183.106 0 .207-.038.103-.039.191-.112z"/><path d="M92.741 256.841l.424-1.595h.252l-.527 1.8h-.296l-.527-1.8h.252z"/><path d="M95.415 256.186v.66h.288q.212 0 .303-.074.09-.074.09-.244 0-.176-.095-.258-.096-.084-.298-.084zm0-.74v.543h.283q.176 0 .254-.068.08-.067.08-.218 0-.136-.078-.197-.078-.06-.256-.06zm-.245-.2h.533q.276 0 .426.12.149.119.149.337 0 .165-.08.26-.078.096-.236.12.177.026.277.152.102.124.102.317 0 .245-.16.37-.161.124-.478.124h-.533z"/></g><g aria-label="DRY/WET CV A" style="-inkscape-font-specification:'DejaVu Sans Mono';text-align:center" font-size="2.469" font-family="DejaVu Sans Mono" letter-spacing="0" word-spacing="0" text-anchor="middle" stroke-width=".265"><path d="M4.532 277.753q.307 0 .43-.15.121-.153.121-.548 0-.4-.122-.55-.12-.152-.43-.152h-.115v1.4zm.005-1.6q.412 0 .607.22.196.219.196.682 0 .46-.196.68-.195.218-.607.218H4.17v-1.8z"/><path d="M6.408 277.103q.094.024.16.092.067.066.166.266l.244.492h-.261l-.215-.454q-.093-.194-.167-.25-.074-.057-.193-.057h-.233v.761h-.245v-1.8h.502q.296 0 .454.134.158.134.158.387 0 .178-.097.292-.097.112-.273.137zm-.5-.75v.64h.267q.175 0 .26-.08.086-.078.086-.24 0-.155-.091-.237-.09-.083-.264-.083z"/><path d="M7.022 276.153h.26l.438.795.438-.795h.261l-.577.992v.808h-.245v-.808z"/><path d="M9.535 276.153h.229l-.948 2.03h-.23z"/><path d="M9.948 276.153h.238l.172 1.461.205-.967h.255l.207.97.173-1.464h.237l-.269 1.8h-.23l-.245-1.07-.243 1.07h-.23z"/><path d="M11.671 276.153h1.069v.205h-.825v.533h.789v.205h-.79v.652h.849v.205H11.67z"/><path d="M12.976 276.153h1.373v.205h-.563v1.595h-.244v-1.595h-.566z"/><path d="M7.528 280.976q-.093.05-.19.074-.098.025-.208.025-.346 0-.537-.245-.19-.244-.19-.688 0-.442.19-.687.194-.248.537-.248.11 0 .208.026.097.024.19.073v.25q-.089-.074-.191-.112-.103-.039-.207-.039-.237 0-.355.183-.118.184-.118.554 0 .369.118.552.118.183.355.183.107 0 .208-.038.102-.039.19-.112z"/><path d="M8.463 280.835l.423-1.595h.252l-.527 1.8h-.295l-.527-1.8h.252z"/><path d="M11.434 279.454l-.257.922h.514zm-.147-.214h.295l.551 1.8h-.252l-.132-.469h-.631l-.13.47h-.252z"/></g><g aria-label="DRY/WET CV B" style="-inkscape-font-specification:'DejaVu Sans Mono';text-align:center" font-size="2.469" font-family="DejaVu Sans Mono" letter-spacing="0" word-spacing="0" text-anchor="middle" stroke-width=".265"><path d="M85.494 277.753q.308 0 .43-.15.121-.153.121-.548 0-.4-.121-.55-.12-.152-.43-.152h-.115v1.4zm.005-1.6q.413 0 .608.22.195.219.195.682 0 .46-.195.68-.195.218-.608.218h-.365v-1.8z"/><path d="M87.37 277.103q.095.024.161.092.066.066.165.266l.245.492h-.262l-.214-.454q-.093-.194-.168-.25-.073-.057-.193-.057h-.233v.761h-.244v-1.8h.501q.297 0 .455.134.158.134.158.387 0 .178-.098.292-.096.112-.272.137zm-.499-.75v.64h.267q.175 0 .26-.08.086-.078.086-.24 0-.155-.092-.237-.09-.083-.264-.083z"/><path d="M87.984 276.153h.26l.439.795.437-.795h.262l-.578.992v.808h-.244v-.808z"/><path d="M90.497 276.153h.23l-.948 2.03h-.23z"/><path d="M90.91 276.153h.238l.173 1.461.205-.967h.254l.208.97.172-1.464h.238l-.27 1.8h-.23l-.244-1.07-.244 1.07h-.23z"/><path d="M92.634 276.153h1.068v.205h-.825v.533h.789v.205h-.789v.652h.848v.205h-1.091z"/><path d="M93.939 276.153h1.373v.205h-.563v1.595h-.245v-1.595h-.565z"/><path d="M88.49 280.976q-.092.05-.19.074-.097.025-.207.025-.346 0-.538-.245-.19-.244-.19-.688 0-.442.191-.687.193-.248.537-.248.11 0 .207.026.098.024.19.073v.25q-.088-.074-.19-.112-.103-.039-.207-.039-.238 0-.356.183-.118.184-.118.554 0 .369.118.552.118.183.356.183.106 0 .207-.038.103-.039.19-.112z"/><path d="M89.425 280.835l.424-1.595h.252l-.527 1.8h-.296l-.527-1.8h.252z"/><path d="M92.099 280.18v.66h.288q.212 0 .302-.074t.09-.244q0-.177-.094-.258-.096-.084-.298-.084zm0-.74v.543h.283q.176 0 .254-.068.08-.067.08-.218 0-.136-.079-.197-.077-.06-.255-.06zm-.245-.2h.533q.276 0 .425.12.15.119.15.337 0 .165-.08.26-.078.096-.236.12.177.026.277.152.102.124.102.317 0 .244-.16.37-.161.124-.478.124h-.533z"/></g><g font-size="10.583" font-family="sans-serif" letter-spacing="0" word-spacing="0" stroke-width=".265"><g aria-label="MS"><path d="M45.784 292.906q.055-.087.138-.123.083-.04.17-.04.103 0 .166.076.063.07.063.193v1.876l1.319-1.982q.055-.087.134-.123.083-.04.174-.04.103 0 .166.076.063.07.063.193v2.835h-.537v-2.08l-1.2 1.895q-.068.106-.147.146-.079.04-.162.04-.07 0-.134-.024-.063-.028-.11-.075-.048-.048-.075-.11-.028-.064-.028-.143v-1.73l-1.319 2.081h-.64z" style="-inkscape-font-specification:Strasua"/><path d="M48.543 295.847v-.537h1.078q.249 0 .41-.118.163-.118.163-.308 0-.095-.044-.174-.043-.079-.118-.134-.075-.06-.182-.09-.107-.032-.229-.032h-.245q-.19 0-.351-.06-.162-.063-.28-.173-.119-.115-.186-.265-.067-.154-.067-.34 0-.181.067-.335.07-.154.197-.269.127-.114.304-.177.178-.068.391-.068h1.023v.537h-1.05q-.17 0-.269.095-.099.091-.099.221 0 .142.1.237.102.095.268.095h.304q.205 0 .379.071.174.067.3.194.126.126.197.3.071.173.071.379 0 .21-.075.383-.075.174-.217.3-.138.126-.332.197-.193.071-.43.071z" style="-inkscape-font-specification:Strasua"/></g><path d="M53.435 292.905q-.055-.087-.138-.122-.083-.04-.17-.04-.103 0-.166.075-.063.071-.063.194v1.875l-1.32-1.982q-.054-.087-.133-.122-.083-.04-.174-.04-.103 0-.166.075-.063.071-.063.194v2.835h.537v-2.081l1.2 1.895q.067.107.146.146.08.04.162.04.071 0 .135-.024.063-.028.11-.075.048-.047.075-.11.028-.064.028-.143v-1.73l1.319 2.082h.64z" style="-inkscape-font-specification:Strasua" aria-label="M"/></g><g aria-label="CF B&gt;A" style="-inkscape-font-specification:'DejaVu Sans Mono'" font-size="2.469" font-family="DejaVu Sans Mono" letter-spacing="0" word-spacing="0" stroke-width=".265"><path d="M42.194 235.72q-.093.05-.19.074-.098.026-.208.026-.346 0-.537-.245-.191-.245-.191-.689 0-.441.192-.687.193-.247.536-.247.11 0 .208.025.097.024.19.074v.25q-.089-.074-.192-.113-.102-.039-.206-.039-.237 0-.355.184-.119.183-.119.553 0 .37.119.552.118.184.355.184.106 0 .208-.039t.19-.112z"/><path d="M42.667 233.984h1.06v.205h-.815v.53h.739v.206h-.74v.86h-.244z"/><path d="M40.603 238.012v.66h.288q.212 0 .302-.074.09-.075.09-.245 0-.176-.094-.258-.096-.083-.298-.083zm0-.74v.542h.283q.176 0 .254-.068.08-.067.08-.218 0-.136-.078-.196t-.256-.06zm-.245-.2h.533q.276 0 .425.118.15.12.15.338 0 .165-.08.26-.078.096-.236.12.177.026.277.152.102.124.102.317 0 .245-.16.37-.161.124-.478.124h-.533z"/><path d="M41.75 237.713v-.22l1.274.504v.2l-1.275.504v-.22l1.025-.383z"/><path d="M43.871 237.286l-.256.92h.513zm-.147-.215h.296l.55 1.8h-.251l-.133-.469h-.63l-.13.47h-.253z"/></g><g aria-label="CF A&gt;B" style="-inkscape-font-specification:'DejaVu Sans Mono'" font-size="2.469" font-family="DejaVu Sans Mono" letter-spacing="0" word-spacing="0" stroke-width=".265"><path d="M56.333 235.72q-.093.05-.19.074-.098.026-.208.026-.346 0-.538-.245-.19-.245-.19-.689 0-.441.192-.687.193-.247.536-.247.11 0 .208.025.097.024.19.074v.25q-.09-.074-.192-.113-.102-.039-.206-.039-.237 0-.355.184-.119.183-.119.553 0 .37.119.552.118.184.355.184.106 0 .208-.039t.19-.112z"/><path d="M56.806 233.984h1.06v.205h-.815v.53h.739v.206h-.74v.86h-.244z"/><path d="M55.04 237.286l-.258.92h.514zm-.148-.215h.296l.55 1.8h-.251l-.133-.469h-.63l-.13.47h-.253z"/><path d="M55.888 237.713v-.22l1.275.504v.2l-1.275.504v-.22l1.025-.383z"/><path d="M57.713 238.012v.66H58q.212 0 .302-.074.09-.075.09-.245 0-.176-.094-.258-.096-.083-.298-.083zm0-.74v.542h.283q.176 0 .254-.068.08-.067.08-.218 0-.136-.078-.196t-.256-.06zm-.245-.2H58q.276 0 .425.118.15.12.15.338 0 .165-.08.26-.078.096-.236.12.177.026.277.152.102.124.102.317 0 .245-.16.37-.161.124-.478.124h-.533z"/></g><g font-size="2.469" font-family="DejaVu Sans Mono" letter-spacing="0" word-spacing="0" stroke-width=".265"><g style="-inkscape-font-specification:'DejaVu Sans Mono'" aria-label="HP CV A"><path d="M37.941 255.246h.245v.738h.667v-.738h.244v1.8h-.244v-.857h-.667v.857h-.245z"/><path d="M39.742 255.446v.677h.283q.168 0 .263-.09.095-.089.095-.25 0-.16-.094-.248-.094-.089-.264-.089zm-.243-.2h.526q.301 0 .457.137.155.137.155.4 0 .267-.155.403-.155.137-.457.137h-.283v.723H39.5z"/><path d="M43.526 256.982q-.093.05-.19.074-.098.025-.208.025-.346 0-.537-.245-.191-.244-.191-.688 0-.441.192-.687.193-.248.536-.248.11 0 .208.026.097.024.19.073v.25q-.089-.074-.191-.112-.103-.039-.207-.039-.237 0-.355.183-.119.184-.119.554 0 .369.119.552.118.183.355.183.106 0 .208-.038.102-.039.19-.112z"/><path d="M44.46 256.841l.424-1.595h.252l-.527 1.8h-.295l-.527-1.8h.252z"/><path d="M47.432 255.46l-.257.922h.514zm-.147-.214h.295l.551 1.8h-.252l-.133-.469h-.63l-.13.47h-.252z"/></g><g style="-inkscape-font-specification:'DejaVu Sans Mono'" aria-label="LP CV B"><path d="M51.253 255.246h.245v1.595h.869v.205h-1.114z"/><path d="M52.96 255.446v.677h.282q.17 0 .263-.09.095-.089.095-.25 0-.16-.094-.248-.094-.089-.264-.089zm-.243-.2h.525q.302 0 .457.137.156.137.156.4 0 .267-.156.403-.154.137-.457.137h-.282v.723h-.243z"/><path d="M56.744 256.982q-.093.05-.19.074-.098.025-.208.025-.346 0-.538-.245-.19-.244-.19-.688 0-.441.191-.687.193-.248.537-.248.11 0 .207.026.098.024.191.073v.25q-.09-.074-.192-.112-.102-.039-.206-.039-.237 0-.356.183-.118.184-.118.554 0 .369.118.552.119.183.356.183.106 0 .207-.038.103-.039.191-.112z"/><path d="M57.678 256.841l.424-1.595h.252l-.527 1.8h-.296l-.527-1.8h.252z"/><path d="M60.352 256.186v.66h.288q.212 0 .302-.074t.09-.244q0-.176-.094-.258-.096-.084-.298-.084zm0-.74v.543h.283q.176 0 .254-.068.08-.067.08-.218 0-.136-.078-.197-.078-.06-.256-.06zm-.245-.2h.533q.276 0 .425.12.15.119.15.337 0 .165-.08.26-.078.096-.236.12.177.026.277.152.102.124.102.317 0 .245-.16.37-.161.124-.478.124h-.533z"/></g></g><g aria-label="CLK IN" style="-inkscape-font-specification:'DejaVu Sans Mono'" font-size="2.469" font-family="DejaVu Sans Mono" letter-spacing="0" word-spacing="0" stroke-width=".265"><path d="M46.446 245.289q-.093.049-.19.073-.098.025-.208.025-.346 0-.538-.244-.19-.245-.19-.689 0-.441.192-.687.192-.247.536-.247.11 0 .207.025.098.024.191.074v.25q-.09-.074-.192-.113-.102-.039-.206-.039-.237 0-.356.184-.118.183-.118.553 0 .37.118.552.119.184.356.184.106 0 .207-.039.103-.039.191-.112z"/><path d="M46.897 243.552h.245v1.596h.87v.204h-1.115z"/><path d="M48.288 243.552h.245v.8l.761-.8h.286l-.7.736.72 1.064h-.294l-.587-.901-.186.197v.704h-.245z"/><path d="M51.337 243.552h1v.205h-.378v1.39h.377v.205h-1v-.204h.378v-1.39h-.377z"/><path d="M52.747 243.552h.31l.607 1.482v-1.482h.235v1.8h-.309l-.607-1.481v1.481h-.236z"/></g><g aria-label="SYNC" style="-inkscape-font-specification:'DejaVu Sans Mono'" font-size="2.469" font-family="DejaVu Sans Mono" letter-spacing="0" word-spacing="0" stroke-width=".265"><path d="M8.736 219.684v.247q-.111-.071-.223-.107-.111-.036-.224-.036-.173 0-.273.08-.1.08-.1.216 0 .12.065.182.066.063.246.105l.128.03q.253.058.369.185.116.126.116.345 0 .256-.16.392-.159.135-.463.135-.126 0-.254-.028-.128-.027-.257-.08v-.26q.139.088.262.129.124.04.25.04.184 0 .286-.081.103-.083.103-.232 0-.135-.071-.206-.07-.07-.245-.11l-.13-.03q-.251-.056-.364-.17-.114-.115-.114-.308 0-.242.162-.386.163-.146.431-.146.104 0 .219.024.114.023.24.07z"/><path d="M9.046 219.622h.259l.439.795.438-.795h.261l-.577.993v.808H9.62v-.808z"/><path d="M10.654 219.622h.309l.608 1.482v-1.482h.235v1.8h-.309l-.608-1.481v1.482h-.235z"/><path d="M13.266 221.359q-.093.05-.19.073-.098.026-.208.026-.346 0-.538-.245-.19-.245-.19-.689 0-.441.192-.687.192-.247.536-.247.11 0 .207.025.098.024.191.074v.25q-.09-.074-.192-.113-.102-.038-.206-.038-.237 0-.356.183-.118.183-.118.553 0 .37.118.553.119.183.356.183.106 0 .207-.039.103-.038.191-.112z"/></g><g aria-label="FREE" style="-inkscape-font-specification:'DejaVu Sans Mono'" font-size="2.469" font-family="DejaVu Sans Mono" letter-spacing="0" word-spacing="0" stroke-width=".265"><path d="M7.722 229.234h1.06v.205h-.815v.53h.74v.206h-.74v.86h-.245z"/><path d="M9.843 230.184q.094.024.16.092.067.066.166.266l.245.492h-.262l-.215-.454q-.092-.194-.167-.25-.074-.057-.193-.057h-.233v.761H9.1v-1.8h.502q.297 0 .455.134.158.134.158.387 0 .178-.098.292-.097.112-.273.137zm-.499-.75v.64h.267q.175 0 .26-.08.086-.078.086-.24 0-.155-.092-.237-.09-.083-.264-.083z"/><path d="M10.65 229.234h1.068v.205h-.824v.533h.788v.205h-.788v.652h.847v.205H10.65z"/><path d="M12.136 229.234h1.068v.205h-.825v.533h.789v.205h-.789v.652h.848v.205h-1.091z"/></g><g style="-inkscape-font-specification:'DejaVu Sans Mono'" aria-label="SYNC" font-size="2.469" font-family="DejaVu Sans Mono" letter-spacing="0" word-spacing="0" stroke-width=".265"><path d="M87.19 219.684v.247q-.11-.071-.223-.107-.11-.036-.224-.036-.172 0-.273.08-.1.08-.1.216 0 .12.065.182.067.063.246.105l.128.03q.253.058.37.185.115.126.115.345 0 .256-.16.392-.158.135-.462.135-.127 0-.255-.028-.127-.027-.256-.08v-.26q.138.088.261.129.124.04.25.04.184 0 .287-.081.102-.083.102-.232 0-.135-.07-.206-.07-.07-.246-.11l-.13-.03q-.25-.056-.364-.17-.113-.115-.113-.308 0-.242.161-.386.163-.146.432-.146.104 0 .218.024.115.023.241.07z"/><path d="M87.5 219.622h.26l.438.795.438-.795h.262l-.578.993v.808h-.245v-.808z"/><path d="M89.109 219.622h.308l.608 1.482v-1.482h.235v1.8h-.308l-.608-1.481v1.482h-.235z"/><path d="M91.72 221.359q-.092.05-.19.073-.098.026-.207.026-.347 0-.538-.245-.19-.245-.19-.689 0-.441.19-.687.194-.247.538-.247.11 0 .207.025.098.024.19.074v.25q-.089-.074-.191-.113-.103-.038-.206-.038-.238 0-.356.183t-.118.553q0 .37.118.553.118.183.356.183.106 0 .207-.039.102-.038.19-.112z"/></g><g style="-inkscape-font-specification:'DejaVu Sans Mono'" aria-label="FREE" font-size="2.469" font-family="DejaVu Sans Mono" letter-spacing="0" word-spacing="0" stroke-width=".265"><path d="M86.177 229.234h1.06v.205h-.815v.53h.739v.206h-.74v.86h-.244z"/><path d="M88.298 230.184q.094.024.16.092.066.066.165.266l.245.492h-.262l-.214-.454q-.093-.194-.168-.25-.073-.057-.193-.057H87.8v.761h-.245v-1.8h.501q.297 0 .455.134.158.134.158.387 0 .178-.098.292-.096.112-.272.137zm-.5-.75v.64h.267q.175 0 .26-.08.086-.078.086-.24 0-.155-.092-.237-.09-.083-.264-.083z"/><path d="M89.104 229.234h1.069v.205h-.825v.533h.789v.205h-.789v.652h.848v.205h-1.092z"/><path d="M90.59 229.234h1.068v.205h-.824v.533h.788v.205h-.788v.652h.847v.205H90.59z"/></g><path d="M22.484 237.065a1.055 1.055 0 01-1.055 1.055 1.055 1.055 0 01-1.055-1.055 1.055 1.055 0 011.055-1.055 1.055 1.055 0 011.055 1.055z" fill="none" stroke="#000" stroke-width=".099" stroke-linecap="round" paint-order="markers stroke fill"/><path d="M20.765 236.856h1.329v.418h-1.329z" aria-label="-" font-size="10.583" font-family="DejaVu Sans Mono" letter-spacing="0" word-spacing="0" stroke-width=".265"/><path d="M32.687 237.065a1.055 1.055 0 01-1.055 1.055 1.055 1.055 0 01-1.055-1.055 1.055 1.055 0 011.055-1.055 1.055 1.055 0 011.055 1.055z" fill="none" stroke="#000" stroke-width=".099" stroke-linecap="round" paint-order="markers stroke fill"/><path d="M31.834 236.13v.73h.73v.405h-.73V238h-.403v-.735h-.734v-.404h.734v-.731z" style="-inkscape-font-specification:'DejaVu Sans Mono Bold'"/><path d="M68.47 237.065a1.055 1.055 0 01-1.055 1.055 1.055 1.055 0 01-1.055-1.055 1.055 1.055 0 011.055-1.055 1.055 1.055 0 011.054 1.055z" fill="none" stroke="#000" stroke-width=".099" stroke-linecap="round" paint-order="markers stroke fill"/><path d="M66.75 236.856h1.329v.418H66.75z" aria-label="-" font-size="10.583" font-family="DejaVu Sans Mono" letter-spacing="0" word-spacing="0" stroke-width=".265"/><path d="M78.672 237.065a1.055 1.055 0 01-1.055 1.055 1.055 1.055 0 01-1.054-1.055 1.055 1.055 0 011.054-1.055 1.055 1.055 0 011.055 1.055z" fill="none" stroke="#000" stroke-width=".099" stroke-linecap="round" paint-order="markers stroke fill"/><path style="-inkscape-font-specification:'DejaVu Sans Mono Bold'" d="M77.819 236.13v.73h.73v.405h-.73V238h-.403v-.735h-.734v-.404h.734v-.731z"/><g aria-label="CLEAR A" style="-inkscape-font-specification:'DejaVu Sans Mono'" font-size="2.469" font-family="DejaVu Sans Mono" letter-spacing="0" word-spacing="0" stroke-width=".265"><path d="M6.507 211.137q-.093.05-.19.074-.098.025-.208.025-.346 0-.538-.245-.19-.245-.19-.688 0-.442.191-.688.193-.247.537-.247.11 0 .207.026.098.024.191.073v.25q-.09-.074-.192-.112-.102-.04-.206-.04-.237 0-.356.184-.118.183-.118.554 0 .369.118.552.119.183.356.183.106 0 .207-.038.103-.039.191-.113z"/><path d="M6.958 209.4h.245v1.596h.87v.205H6.957z"/><path d="M8.422 209.4H9.49v.206h-.825v.533h.789v.205h-.789v.652h.848v.205H8.422z"/><path d="M10.413 209.615l-.257.922h.513zm-.148-.214h.296l.55 1.8h-.251l-.133-.469h-.63l-.13.47h-.253z"/><path d="M12.072 210.351q.094.024.16.092.066.066.165.266l.245.492h-.262l-.214-.455q-.093-.194-.168-.25-.073-.056-.193-.056h-.233v.761h-.244v-1.8h.501q.297 0 .455.134.158.133.158.387 0 .178-.098.291-.096.113-.272.138zm-.5-.75v.64h.267q.175 0 .26-.08.086-.078.086-.24 0-.155-.092-.237-.09-.083-.264-.083z"/><path d="M14.87 209.615l-.258.922h.514zm-.148-.214h.295l.551 1.8h-.252l-.132-.469h-.63l-.131.47h-.252z"/></g><g aria-label="CLEAR B" style="-inkscape-font-specification:'DejaVu Sans Mono'" font-size="2.469" font-family="DejaVu Sans Mono" letter-spacing="0" word-spacing="0" stroke-width=".265"><path d="M84.902 211.137q-.092.05-.19.074-.098.025-.207.025-.347 0-.538-.245-.19-.245-.19-.688 0-.442.191-.688.193-.247.537-.247.11 0 .207.026.098.024.19.073v.25q-.089-.074-.191-.112-.103-.04-.206-.04-.238 0-.356.184-.118.183-.118.554 0 .369.118.552.118.183.356.183.106 0 .207-.038.102-.039.19-.113z"/><path d="M85.353 209.4h.245v1.596h.87v.205h-1.115z"/><path d="M86.817 209.4h1.069v.206h-.825v.533h.788v.205h-.788v.652h.847v.205h-1.09z"/><path d="M88.808 209.615l-.257.922h.514zm-.147-.214h.295l.551 1.8h-.252l-.132-.469h-.63l-.131.47h-.252z"/><path d="M90.467 210.351q.094.024.16.092.067.066.166.266l.244.492h-.261l-.215-.455q-.093-.194-.167-.25-.074-.056-.193-.056h-.233v.761h-.245v-1.8h.502q.296 0 .454.134.158.133.158.387 0 .178-.097.291-.097.113-.273.138zm-.499-.75v.64h.266q.175 0 .26-.08.086-.078.086-.24 0-.155-.091-.237-.09-.083-.264-.083z"/><path d="M92.967 210.341v.66h.288q.212 0 .303-.074.09-.074.09-.244 0-.176-.095-.258-.096-.084-.298-.084zm0-.74v.543h.283q.176 0 .255-.068.08-.067.08-.218 0-.136-.08-.197-.076-.06-.255-.06zm-.245-.2h.533q.276 0 .426.12.15.119.15.337 0 .165-.08.26-.079.096-.237.12.177.026.278.152.1.124.1.317 0 .245-.16.37-.16.124-.477.124h-.533z"/></g><g stroke="#000" fill="none" stroke-width=".236"><path d="M4.925 210.344H2.4v-5.045h2.477"/><path d="M15.993 210.344h2.525v-5.045H16.04"/></g><g stroke="#000" fill="none" stroke-width=".236"><path d="M83.3 210.344h-2.524v-5.045h2.477"/><path d="M94.369 210.344h2.525v-5.045h-2.478"/></g></g></svg>